ISO-10303-21;
HEADER;
FILE_DESCRIPTION(('FreeCAD Model'),'2;1');
FILE_NAME('Open CASCADE Shape Model','2026-08-02T12:24:37',(''),(''),
  'Open CASCADE STEP processor 7.8','FreeCAD','Unknown');
FILE_SCHEMA(('AUTOMOTIVE_DESIGN { 1 0 10303 214 1 1 1 1 }'));
ENDSEC;
DATA;
#1 = APPLICATION_PROTOCOL_DEFINITION('international standard',
  'automotive_design',2000,#2);
#2 = APPLICATION_CONTEXT(
  'core data for automotive mechanical design processes');
#3 = SHAPE_DEFINITION_REPRESENTATION(#4,#10);
#4 = PRODUCT_DEFINITION_SHAPE('','',#5);
#5 = PRODUCT_DEFINITION('design','',#6,#9);
#6 = PRODUCT_DEFINITION_FORMATION('','',#7);
#7 = PRODUCT('Fillet015','Fillet015','',(#8));
#8 = PRODUCT_CONTEXT('',#2,'mechanical');
#9 = PRODUCT_DEFINITION_CONTEXT('part definition',#2,'design');
#10 = ADVANCED_BREP_SHAPE_REPRESENTATION('',(#11,#15),#1828);
#11 = AXIS2_PLACEMENT_3D('',#12,#13,#14);
#12 = CARTESIAN_POINT('',(0.,0.,0.));
#13 = DIRECTION('',(0.,0.,1.));
#14 = DIRECTION('',(1.,0.,-0.));
#15 = MANIFOLD_SOLID_BREP('',#16);
#16 = CLOSED_SHELL('',(#17,#91,#146,#180,#272,#314,#348,#373,#443,#476,
    #501,#526,#665,#676,#693,#726,#751,#890,#908,#926,#957,#975,#1008,
    #1034,#1060,#1086,#1111,#1137,#1163,#1188,#1206,#1232,#1257,#1281,
    #1293,#1318,#1336,#1369,#1395,#1421,#1447,#1472,#1498,#1522,#1547,
    #1559,#1585,#1610,#1634,#1646,#1663,#1685,#1702,#1719,#1736,#1753,
    #1770,#1782,#1799,#1816));
#17 = ADVANCED_FACE('',(#18),#86,.T.);
#18 = FACE_BOUND('',#19,.F.);
#19 = EDGE_LOOP('',(#20,#30,#39,#47,#56,#64,#72,#80));
#20 = ORIENTED_EDGE('',*,*,#21,.F.);
#21 = EDGE_CURVE('',#22,#24,#26,.T.);
#22 = VERTEX_POINT('',#23);
#23 = CARTESIAN_POINT('',(-8.833326022133,-14.,-1.3551E-11));
#24 = VERTEX_POINT('',#25);
#25 = CARTESIAN_POINT('',(-8.833326022136,-9.412134016447,-8.4E-13));
#26 = LINE('',#27,#28);
#27 = CARTESIAN_POINT('',(-8.833326022133,-15.,-6.769695914954E-12));
#28 = VECTOR('',#29,1.);
#29 = DIRECTION('',(1.E-15,1.,-4.260301845353E-16));
#30 = ORIENTED_EDGE('',*,*,#31,.F.);
#31 = EDGE_CURVE('',#32,#22,#34,.T.);
#32 = VERTEX_POINT('',#33);
#33 = CARTESIAN_POINT('',(-7.91227939275,-14.,-5.));
#34 = CIRCLE('',#35,2.584832689343);
#35 = AXIS2_PLACEMENT_3D('',#36,#37,#38);
#36 = CARTESIAN_POINT('',(-7.91227939275,-14.,-2.415167310657));
#37 = DIRECTION('',(1.19E-15,1.,-2.7E-16));
#38 = DIRECTION('',(-2.63E-15,-2.7E-16,-1.));
#39 = ORIENTED_EDGE('',*,*,#40,.T.);
#40 = EDGE_CURVE('',#32,#41,#43,.T.);
#41 = VERTEX_POINT('',#42);
#42 = CARTESIAN_POINT('',(-7.91227939275,14.,-5.));
#43 = LINE('',#44,#45);
#44 = CARTESIAN_POINT('',(-7.91227939275,-15.,-5.));
#45 = VECTOR('',#46,1.);
#46 = DIRECTION('',(1.E-15,1.,-4.260301845353E-16));
#47 = ORIENTED_EDGE('',*,*,#48,.T.);
#48 = EDGE_CURVE('',#41,#49,#51,.T.);
#49 = VERTEX_POINT('',#50);
#50 = CARTESIAN_POINT('',(-8.833326022133,14.,-1.3558E-11));
#51 = CIRCLE('',#52,2.584832689343);
#52 = AXIS2_PLACEMENT_3D('',#53,#54,#55);
#53 = CARTESIAN_POINT('',(-7.91227939275,14.,-2.415167310657));
#54 = DIRECTION('',(1.19E-15,1.,-2.7E-16));
#55 = DIRECTION('',(-1.2E-16,-2.7E-16,-1.));
#56 = ORIENTED_EDGE('',*,*,#57,.F.);
#57 = EDGE_CURVE('',#58,#49,#60,.T.);
#58 = VERTEX_POINT('',#59);
#59 = CARTESIAN_POINT('',(-8.833326022136,9.412134016447,-8.46E-13));
#60 = LINE('',#61,#62);
#61 = CARTESIAN_POINT('',(-8.833326022133,-15.,-6.769695914954E-12));
#62 = VECTOR('',#63,1.);
#63 = DIRECTION('',(1.E-15,1.,-4.260301845353E-16));
#64 = ORIENTED_EDGE('',*,*,#65,.F.);
#65 = EDGE_CURVE('',#66,#58,#68,.T.);
#66 = VERTEX_POINT('',#67);
#67 = CARTESIAN_POINT('',(-8.833326022133,4.687467481135,-3.394E-12));
#68 = LINE('',#69,#70);
#69 = CARTESIAN_POINT('',(-8.833326022133,-15.,-6.78213E-12));
#70 = VECTOR('',#71,1.);
#71 = DIRECTION('',(1.22E-15,1.,-2.8E-16));
#72 = ORIENTED_EDGE('',*,*,#73,.F.);
#73 = EDGE_CURVE('',#74,#66,#76,.T.);
#74 = VERTEX_POINT('',#75);
#75 = CARTESIAN_POINT('',(-8.833326022133,-4.687467481135,-3.392E-12));
#76 = LINE('',#77,#78);
#77 = CARTESIAN_POINT('',(-8.833326022133,-15.,-6.769695914954E-12));
#78 = VECTOR('',#79,1.);
#79 = DIRECTION('',(1.E-15,1.,-4.260301845353E-16));
#80 = ORIENTED_EDGE('',*,*,#81,.F.);
#81 = EDGE_CURVE('',#24,#74,#82,.T.);
#82 = LINE('',#83,#84);
#83 = CARTESIAN_POINT('',(-8.833326022133,-15.,-6.78213E-12));
#84 = VECTOR('',#85,1.);
#85 = DIRECTION('',(1.22E-15,1.,-2.8E-16));
#86 = CYLINDRICAL_SURFACE('',#87,2.584832689343);
#87 = AXIS2_PLACEMENT_3D('',#88,#89,#90);
#88 = CARTESIAN_POINT('',(-7.91227939275,-15.,-2.415167310657));
#89 = DIRECTION('',(-1.E-15,-1.,4.260301845353E-16));
#90 = DIRECTION('',(-0.426030184535,4.059686416827E-17,-0.904708948704)
  );
#91 = ADVANCED_FACE('',(#92),#141,.F.);
#92 = FACE_BOUND('',#93,.F.);
#93 = EDGE_LOOP('',(#94,#95,#103,#111,#117,#118));
#94 = ORIENTED_EDGE('',*,*,#57,.T.);
#95 = ORIENTED_EDGE('',*,*,#96,.T.);
#96 = EDGE_CURVE('',#49,#97,#99,.T.);
#97 = VERTEX_POINT('',#98);
#98 = CARTESIAN_POINT('',(17.878411830133,14.,10.186869462198));
#99 = LINE('',#100,#101);
#100 = CARTESIAN_POINT('',(-8.833326022133,14.,-1.288E-14));
#101 = VECTOR('',#102,1.);
#102 = DIRECTION('',(0.934360028027,-1.02E-15,0.356330377636));
#103 = ORIENTED_EDGE('',*,*,#104,.F.);
#104 = EDGE_CURVE('',#105,#97,#107,.T.);
#105 = VERTEX_POINT('',#106);
#106 = CARTESIAN_POINT('',(17.878411830133,-14.,10.186869462198));
#107 = LINE('',#108,#109);
#108 = CARTESIAN_POINT('',(17.878411830133,-15.,10.186869462198));
#109 = VECTOR('',#110,1.);
#110 = DIRECTION('',(1.E-15,1.,-4.260301845353E-16));
#111 = ORIENTED_EDGE('',*,*,#112,.F.);
#112 = EDGE_CURVE('',#22,#105,#113,.T.);
#113 = LINE('',#114,#115);
#114 = CARTESIAN_POINT('',(-8.833326022133,-14.,-7.11E-15));
#115 = VECTOR('',#116,1.);
#116 = DIRECTION('',(0.934360028027,-1.02E-15,0.356330377636));
#117 = ORIENTED_EDGE('',*,*,#21,.T.);
#118 = ORIENTED_EDGE('',*,*,#119,.F.);
#119 = EDGE_CURVE('',#58,#24,#120,.T.);
#120 = B_SPLINE_CURVE_WITH_KNOTS('',10,(#121,#122,#123,#124,#125,#126,
    #127,#128,#129,#130,#131,#132,#133,#134,#135,#136,#137,#138,#139,
    #140),.UNSPECIFIED.,.F.,.F.,(11,9,11),(3.268622612024,
    27.623369603494,51.978116594964),.UNSPECIFIED.);
#121 = CARTESIAN_POINT('',(-8.833326022136,9.412134016447,-8.4555E-13));
#122 = CARTESIAN_POINT('',(-6.667421355265,11.507816946302,
    0.825995980905));
#123 = CARTESIAN_POINT('',(-3.982264252639,13.015816927589,
    1.850015647512));
#124 = CARTESIAN_POINT('',(-0.954032299271,13.792946108496,
    3.004871381001));
#125 = CARTESIAN_POINT('',(2.206303685728,13.772660916151,4.210106709156
    ));
#126 = CARTESIAN_POINT('',(5.294143286038,12.929541227027,5.38769459589)
  );
#127 = CARTESIAN_POINT('',(8.082382179564,11.320918166633,6.451025847305
    ));
#128 = CARTESIAN_POINT('',(10.392897552128,9.014232899813,7.332171006065
    ));
#129 = CARTESIAN_POINT('',(11.999668139541,6.181985741632,7.944933916523
    ));
#130 = CARTESIAN_POINT('',(12.80308008408,3.090835735444,8.251325535392)
  );
#131 = CARTESIAN_POINT('',(12.80308008408,-3.090835735444,8.251325535392
    ));
#132 = CARTESIAN_POINT('',(11.999668139542,-6.181985741631,
    7.944933916522));
#133 = CARTESIAN_POINT('',(10.392897552126,-9.014232899818,
    7.332171006066));
#134 = CARTESIAN_POINT('',(8.082382179566,-11.32091816662,6.451025847302
    ));
#135 = CARTESIAN_POINT('',(5.294143286037,-12.92954122704,5.387694595893
    ));
#136 = CARTESIAN_POINT('',(2.206303685728,-13.77266091613,4.210106709153
    ));
#137 = CARTESIAN_POINT('',(-0.954032299271,-13.7929461085,3.004871381003
    ));
#138 = CARTESIAN_POINT('',(-3.982264252639,-13.01581692758,
    1.850015647511));
#139 = CARTESIAN_POINT('',(-6.667421355265,-11.5078169463,0.825995980905
    ));
#140 = CARTESIAN_POINT('',(-8.833326022136,-9.412134016447,-8.4022E-13)
  );
#141 = PLANE('',#142);
#142 = AXIS2_PLACEMENT_3D('',#143,#144,#145);
#143 = CARTESIAN_POINT('',(-8.833326022133,-15.,1.24344978758E-14));
#144 = DIRECTION('',(0.356330377636,-7.543959527983E-16,-0.934360028027)
  );
#145 = DIRECTION('',(0.934360028027,-7.82552531487E-16,0.356330377636));
#146 = ADVANCED_FACE('',(#147),#175,.T.);
#147 = FACE_BOUND('',#148,.T.);
#148 = EDGE_LOOP('',(#149,#158,#167,#174));
#149 = ORIENTED_EDGE('',*,*,#150,.F.);
#150 = EDGE_CURVE('',#151,#32,#153,.T.);
#151 = VERTEX_POINT('',#152);
#152 = CARTESIAN_POINT('',(-7.91227939275,-15.,-4.));
#153 = CIRCLE('',#154,1.);
#154 = AXIS2_PLACEMENT_3D('',#155,#156,#157);
#155 = CARTESIAN_POINT('',(-7.91227939275,-14.,-4.));
#156 = DIRECTION('',(1.,-1.19E-15,3.9E-16));
#157 = DIRECTION('',(-1.19E-15,-1.,2.7E-16));
#158 = ORIENTED_EDGE('',*,*,#159,.T.);
#159 = EDGE_CURVE('',#151,#160,#162,.T.);
#160 = VERTEX_POINT('',#161);
#161 = CARTESIAN_POINT('',(-8.476998653952,-15.,-0.934361175729));
#162 = CIRCLE('',#163,1.584832689343);
#163 = AXIS2_PLACEMENT_3D('',#164,#165,#166);
#164 = CARTESIAN_POINT('',(-7.91227939275,-15.,-2.415167310657));
#165 = DIRECTION('',(1.19E-15,1.,-2.7E-16));
#166 = DIRECTION('',(-2.63E-15,-2.7E-16,-1.));
#167 = ORIENTED_EDGE('',*,*,#168,.T.);
#168 = EDGE_CURVE('',#160,#22,#169,.T.);
#169 = CIRCLE('',#170,1.);
#170 = AXIS2_PLACEMENT_3D('',#171,#172,#173);
#171 = CARTESIAN_POINT('',(-8.476998653952,-14.,-0.934361175729));
#172 = DIRECTION('',(-0.934361175716,1.02E-15,-0.356327368181));
#173 = DIRECTION('',(-0.356327368181,6.8E-16,0.934361175716));
#174 = ORIENTED_EDGE('',*,*,#31,.F.);
#175 = TOROIDAL_SURFACE('',#176,1.584832689343,1.);
#176 = AXIS2_PLACEMENT_3D('',#177,#178,#179);
#177 = CARTESIAN_POINT('',(-7.91227939275,-14.,-2.415167310657));
#178 = DIRECTION('',(1.19E-15,1.,-2.7E-16));
#179 = DIRECTION('',(-2.63E-15,-2.7E-16,-1.));
#180 = ADVANCED_FACE('',(#181,#256),#267,.T.);
#181 = FACE_BOUND('',#182,.T.);
#182 = EDGE_LOOP('',(#183,#194,#203,#228,#229,#230,#231));
#183 = ORIENTED_EDGE('',*,*,#184,.T.);
#184 = EDGE_CURVE('',#185,#187,#189,.T.);
#185 = VERTEX_POINT('',#186);
#186 = CARTESIAN_POINT('',(-0.418983294096,-9.991218794485,0.));
#187 = VERTEX_POINT('',#188);
#188 = CARTESIAN_POINT('',(10.,-2.E-15,0.));
#189 = CIRCLE('',#190,10.);
#190 = AXIS2_PLACEMENT_3D('',#191,#192,#193);
#191 = CARTESIAN_POINT('',(0.,0.,0.));
#192 = DIRECTION('',(0.,0.,1.));
#193 = DIRECTION('',(1.,0.,0.));
#194 = ORIENTED_EDGE('',*,*,#195,.T.);
#195 = EDGE_CURVE('',#187,#196,#198,.T.);
#196 = VERTEX_POINT('',#197);
#197 = CARTESIAN_POINT('',(-0.418983294096,9.991218794485,0.));
#198 = CIRCLE('',#199,10.);
#199 = AXIS2_PLACEMENT_3D('',#200,#201,#202);
#200 = CARTESIAN_POINT('',(0.,0.,0.));
#201 = DIRECTION('',(0.,0.,1.));
#202 = DIRECTION('',(1.,0.,0.));
#203 = ORIENTED_EDGE('',*,*,#204,.F.);
#204 = EDGE_CURVE('',#58,#196,#205,.T.);
#205 = B_SPLINE_CURVE_WITH_KNOTS('',6,(#206,#207,#208,#209,#210,#211,
    #212,#213,#214,#215,#216,#217,#218,#219,#220,#221,#222,#223,#224,
    #225,#226,#227),.UNSPECIFIED.,.F.,.F.,(7,5,5,5,7),(0.,0.251021451755
    ,0.499777159513,0.749647748343,1.),.UNSPECIFIED.);
#206 = CARTESIAN_POINT('',(-8.833326022136,9.412134016447,0.));
#207 = CARTESIAN_POINT('',(-8.491621182389,9.571946003538,0.));
#208 = CARTESIAN_POINT('',(-8.148227564053,9.715957500323,0.));
#209 = CARTESIAN_POINT('',(-7.803254649207,9.845094868287,0.));
#210 = CARTESIAN_POINT('',(-7.456809709812,9.959996798769,0.));
#211 = CARTESIAN_POINT('',(-7.109001540272,10.061140126964,0.));
#212 = CARTESIAN_POINT('',(-6.414034651717,10.23580454917,0.));
#213 = CARTESIAN_POINT('',(-6.066899673075,10.309566977532,0.));
#214 = CARTESIAN_POINT('',(-5.7186485267,10.370488152411,0.));
#215 = CARTESIAN_POINT('',(-5.369399241827,10.41878158024,0.));
#216 = CARTESIAN_POINT('',(-5.019280101416,10.454564209809,0.));
#217 = CARTESIAN_POINT('',(-4.316012563934,10.501298235324,0.));
#218 = CARTESIAN_POINT('',(-3.962858303462,10.5121374103,0.));
#219 = CARTESIAN_POINT('',(-3.609113540618,10.510436934424,0.));
#220 = CARTESIAN_POINT('',(-3.254937315345,10.496159787175,0.));
#221 = CARTESIAN_POINT('',(-2.900508996445,10.469194614593,0.));
#222 = CARTESIAN_POINT('',(-2.190874379103,10.38944629547,0.));
#223 = CARTESIAN_POINT('',(-1.835668886633,10.336613326489,0.));
#224 = CARTESIAN_POINT('',(-1.480622552957,10.270675304743,0.));
#225 = CARTESIAN_POINT('',(-1.125970514046,10.191372168943,0.));
#226 = CARTESIAN_POINT('',(-0.771983723183,10.098366145241,0.));
#227 = CARTESIAN_POINT('',(-0.418983681311,9.991217661798,0.));
#228 = ORIENTED_EDGE('',*,*,#65,.F.);
#229 = ORIENTED_EDGE('',*,*,#73,.F.);
#230 = ORIENTED_EDGE('',*,*,#81,.F.);
#231 = ORIENTED_EDGE('',*,*,#232,.T.);
#232 = EDGE_CURVE('',#24,#185,#233,.T.);
#233 = B_SPLINE_CURVE_WITH_KNOTS('',6,(#234,#235,#236,#237,#238,#239,
    #240,#241,#242,#243,#244,#245,#246,#247,#248,#249,#250,#251,#252,
    #253,#254,#255),.UNSPECIFIED.,.F.,.F.,(7,5,5,5,7),(0.,0.250020510537
    ,0.499775674807,0.748646942769,1.),.UNSPECIFIED.);
#234 = CARTESIAN_POINT('',(-8.833326022136,-9.412134016447,0.));
#235 = CARTESIAN_POINT('',(-8.492983720349,-9.571308757958,0.));
#236 = CARTESIAN_POINT('',(-8.150966073041,-9.714808767306,0.));
#237 = CARTESIAN_POINT('',(-7.807381270801,-9.843549373997,0.));
#238 = CARTESIAN_POINT('',(-7.462335317425,-9.958162764708,0.));
#239 = CARTESIAN_POINT('',(-7.115935692302,-10.05912141312,0.));
#240 = CARTESIAN_POINT('',(-6.421020510146,-10.23431793974,0.));
#241 = CARTESIAN_POINT('',(-6.072508860182,-10.30858432552,0.));
#242 = CARTESIAN_POINT('',(-5.722870618515,-10.3699034817,0.));
#243 = CARTESIAN_POINT('',(-5.372225163349,-10.41849226863,0.));
#244 = CARTESIAN_POINT('',(-5.02070227533,-10.45446932782,0.));
#245 = CARTESIAN_POINT('',(-4.317434590596,-10.50120411116,0.));
#246 = CARTESIAN_POINT('',(-3.965695659202,-10.51205041477,0.));
#247 = CARTESIAN_POINT('',(-3.613370364785,-10.51045701736,0.));
#248 = CARTESIAN_POINT('',(-3.260615790324,-10.49638763548,0.));
#249 = CARTESIAN_POINT('',(-2.907608999072,-10.46973282602,0.));
#250 = CARTESIAN_POINT('',(-2.197974224425,-10.39050022204,0.));
#251 = CARTESIAN_POINT('',(-1.841346232275,-10.33766641686,0.));
#252 = CARTESIAN_POINT('',(-1.484875833925,-10.27162570899,0.));
#253 = CARTESIAN_POINT('',(-1.128800709941,-10.19211554081,0.));
#254 = CARTESIAN_POINT('',(-0.77339487175,-10.09879448068,0.));
#255 = CARTESIAN_POINT('',(-0.418983681311,-9.991217661798,0.));
#256 = FACE_BOUND('',#257,.T.);
#257 = EDGE_LOOP('',(#258));
#258 = ORIENTED_EDGE('',*,*,#259,.F.);
#259 = EDGE_CURVE('',#260,#260,#262,.T.);
#260 = VERTEX_POINT('',#261);
#261 = CARTESIAN_POINT('',(3.827834329737,-7.E-15,0.));
#262 = ELLIPSE('',#263,4.002438177195,4.);
#263 = AXIS2_PLACEMENT_3D('',#264,#265,#266);
#264 = CARTESIAN_POINT('',(-0.174603847459,-1.3E-15,0.));
#265 = DIRECTION('',(-0.,0.,1.));
#266 = DIRECTION('',(1.,-7.52E-15,0.));
#267 = PLANE('',#268);
#268 = AXIS2_PLACEMENT_3D('',#269,#270,#271);
#269 = CARTESIAN_POINT('',(0.,0.,0.));
#270 = DIRECTION('',(0.,0.,1.));
#271 = DIRECTION('',(1.,0.,0.));
#272 = ADVANCED_FACE('',(#273,#298),#309,.F.);
#273 = FACE_BOUND('',#274,.F.);
#274 = EDGE_LOOP('',(#275,#285,#291,#292));
#275 = ORIENTED_EDGE('',*,*,#276,.T.);
#276 = EDGE_CURVE('',#277,#279,#281,.T.);
#277 = VERTEX_POINT('',#278);
#278 = CARTESIAN_POINT('',(8.327860759159,-14.,-5.));
#279 = VERTEX_POINT('',#280);
#280 = CARTESIAN_POINT('',(8.327860759159,14.,-5.));
#281 = LINE('',#282,#283);
#282 = CARTESIAN_POINT('',(8.327860759159,-15.,-5.));
#283 = VECTOR('',#284,1.);
#284 = DIRECTION('',(1.E-15,1.,-4.260301845353E-16));
#285 = ORIENTED_EDGE('',*,*,#286,.T.);
#286 = EDGE_CURVE('',#279,#41,#287,.T.);
#287 = LINE('',#288,#289);
#288 = CARTESIAN_POINT('',(8.327860759159,14.,-5.));
#289 = VECTOR('',#290,1.);
#290 = DIRECTION('',(-1.,1.19E-15,-3.9E-16));
#291 = ORIENTED_EDGE('',*,*,#40,.F.);
#292 = ORIENTED_EDGE('',*,*,#293,.F.);
#293 = EDGE_CURVE('',#277,#32,#294,.T.);
#294 = LINE('',#295,#296);
#295 = CARTESIAN_POINT('',(8.327860759159,-14.,-5.));
#296 = VECTOR('',#297,1.);
#297 = DIRECTION('',(-1.,1.19E-15,-3.9E-16));
#298 = FACE_BOUND('',#299,.F.);
#299 = EDGE_LOOP('',(#300));
#300 = ORIENTED_EDGE('',*,*,#301,.F.);
#301 = EDGE_CURVE('',#302,#302,#304,.T.);
#302 = VERTEX_POINT('',#303);
#303 = CARTESIAN_POINT('',(4.002438177195,-9.985526784943E-15,-5.));
#304 = ELLIPSE('',#305,4.002438177195,4.);
#305 = AXIS2_PLACEMENT_3D('',#306,#307,#308);
#306 = CARTESIAN_POINT('',(-2.331468351713E-15,-4.983088607748E-15,-5.)
  );
#307 = DIRECTION('',(2.081668171172E-17,4.760301845353E-16,1.));
#308 = DIRECTION('',(1.,4.4E-16,-2.081668171172E-17));
#309 = PLANE('',#310);
#310 = AXIS2_PLACEMENT_3D('',#311,#312,#313);
#311 = CARTESIAN_POINT('',(11.502887917906,-15.,-5.));
#312 = DIRECTION('',(-5.551115123126E-17,4.260301845353E-16,1.));
#313 = DIRECTION('',(-1.,1.E-15,-5.551115123126E-17));
#314 = ADVANCED_FACE('',(#315),#343,.T.);
#315 = FACE_BOUND('',#316,.F.);
#316 = EDGE_LOOP('',(#317,#326,#335,#342));
#317 = ORIENTED_EDGE('',*,*,#318,.F.);
#318 = EDGE_CURVE('',#319,#41,#321,.T.);
#319 = VERTEX_POINT('',#320);
#320 = CARTESIAN_POINT('',(-7.91227939275,15.,-4.));
#321 = CIRCLE('',#322,1.);
#322 = AXIS2_PLACEMENT_3D('',#323,#324,#325);
#323 = CARTESIAN_POINT('',(-7.91227939275,14.,-4.));
#324 = DIRECTION('',(-1.,1.19E-15,-3.9E-16));
#325 = DIRECTION('',(1.19E-15,1.,-2.7E-16));
#326 = ORIENTED_EDGE('',*,*,#327,.T.);
#327 = EDGE_CURVE('',#319,#328,#330,.T.);
#328 = VERTEX_POINT('',#329);
#329 = CARTESIAN_POINT('',(-8.476998653952,15.,-0.934361175729));
#330 = CIRCLE('',#331,1.584832689343);
#331 = AXIS2_PLACEMENT_3D('',#332,#333,#334);
#332 = CARTESIAN_POINT('',(-7.91227939275,15.,-2.415167310657));
#333 = DIRECTION('',(1.19E-15,1.,-2.7E-16));
#334 = DIRECTION('',(-1.2E-16,-2.7E-16,-1.));
#335 = ORIENTED_EDGE('',*,*,#336,.T.);
#336 = EDGE_CURVE('',#328,#49,#337,.T.);
#337 = CIRCLE('',#338,1.);
#338 = AXIS2_PLACEMENT_3D('',#339,#340,#341);
#339 = CARTESIAN_POINT('',(-8.476998653952,14.,-0.934361175729));
#340 = DIRECTION('',(0.934361175716,-1.02E-15,0.356327368181));
#341 = DIRECTION('',(-0.356327368181,6.8E-16,0.934361175716));
#342 = ORIENTED_EDGE('',*,*,#48,.F.);
#343 = TOROIDAL_SURFACE('',#344,1.584832689343,1.);
#344 = AXIS2_PLACEMENT_3D('',#345,#346,#347);
#345 = CARTESIAN_POINT('',(-7.91227939275,14.,-2.415167310657));
#346 = DIRECTION('',(-1.19E-15,-1.,2.7E-16));
#347 = DIRECTION('',(-1.2E-16,-2.7E-16,-1.));
#348 = ADVANCED_FACE('',(#349),#368,.T.);
#349 = FACE_BOUND('',#350,.T.);
#350 = EDGE_LOOP('',(#351,#352,#353,#362));
#351 = ORIENTED_EDGE('',*,*,#336,.T.);
#352 = ORIENTED_EDGE('',*,*,#96,.T.);
#353 = ORIENTED_EDGE('',*,*,#354,.F.);
#354 = EDGE_CURVE('',#355,#97,#357,.T.);
#355 = VERTEX_POINT('',#356);
#356 = CARTESIAN_POINT('',(18.234742207769,15.,9.252509434172));
#357 = CIRCLE('',#358,1.);
#358 = AXIS2_PLACEMENT_3D('',#359,#360,#361);
#359 = CARTESIAN_POINT('',(18.234742207769,14.,9.252509434172));
#360 = DIRECTION('',(0.934360028027,-1.02E-15,0.356330377636));
#361 = DIRECTION('',(1.194037153479E-15,1.,-2.684603788896E-16));
#362 = ORIENTED_EDGE('',*,*,#363,.F.);
#363 = EDGE_CURVE('',#328,#355,#364,.T.);
#364 = LINE('',#365,#366);
#365 = CARTESIAN_POINT('',(-8.476995644498,15.,-0.934360028027));
#366 = VECTOR('',#367,1.);
#367 = DIRECTION('',(0.934360028027,-1.02E-15,0.356330377636));
#368 = CYLINDRICAL_SURFACE('',#369,1.);
#369 = AXIS2_PLACEMENT_3D('',#370,#371,#372);
#370 = CARTESIAN_POINT('',(-8.476995644498,14.,-0.934360028027));
#371 = DIRECTION('',(0.934360028027,-1.02E-15,0.356330377636));
#372 = DIRECTION('',(1.194037153479E-15,1.,-2.684603788896E-16));
#373 = ADVANCED_FACE('',(#374),#402,.T.);
#374 = FACE_BOUND('',#375,.T.);
#375 = EDGE_LOOP('',(#376,#377,#400,#401));
#376 = ORIENTED_EDGE('',*,*,#204,.T.);
#377 = ORIENTED_EDGE('',*,*,#378,.T.);
#378 = EDGE_CURVE('',#196,#185,#379,.T.);
#379 = B_SPLINE_CURVE_WITH_KNOTS('',10,(#380,#381,#382,#383,#384,#385,
    #386,#387,#388,#389,#390,#391,#392,#393,#394,#395,#396,#397,#398,
    #399),.UNSPECIFIED.,.F.,.F.,(11,9,11),(3.268622612024,
    27.623369603494,51.978116594964),.UNSPECIFIED.);
#380 = CARTESIAN_POINT('',(-6.361727388886,7.71546658534,-2.176245505944
    ));
#381 = CARTESIAN_POINT('',(-4.427197236367,9.310568232114,
    -1.489054457501));
#382 = CARTESIAN_POINT('',(-2.089758983651,10.332481092604,
    -0.643719160904));
#383 = CARTESIAN_POINT('',(0.444457581269,10.677071101463,0.297300311706
    ));
#384 = CARTESIAN_POINT('',(2.94855620367,10.333942888103,1.259900946727)
  );
#385 = CARTESIAN_POINT('',(5.234590767319,9.380663686053,2.170339481899)
  );
#386 = CARTESIAN_POINT('',(7.142513451183,7.910820271665,2.959720581222)
  );
#387 = CARTESIAN_POINT('',(8.568211977564,6.121001090293,3.565823506352)
  );
#388 = CARTESIAN_POINT('',(9.522989033213,4.14425283829,3.976975133407)
  );
#389 = CARTESIAN_POINT('',(10.,2.072174065484,4.182334402485));
#390 = CARTESIAN_POINT('',(10.,-2.072174065484,4.182334402485));
#391 = CARTESIAN_POINT('',(9.522989033214,-4.144252838289,3.976975133407
    ));
#392 = CARTESIAN_POINT('',(8.568211977563,-6.121001090296,3.565823506351
    ));
#393 = CARTESIAN_POINT('',(7.142513451184,-7.910820271659,2.959720581222
    ));
#394 = CARTESIAN_POINT('',(5.234590767319,-9.380663686061,2.170339481898
    ));
#395 = CARTESIAN_POINT('',(2.94855620367,-10.33394288809,1.259900946727)
  );
#396 = CARTESIAN_POINT('',(0.444457581269,-10.67707110146,0.297300311706
    ));
#397 = CARTESIAN_POINT('',(-2.089758983651,-10.3324810926,
    -0.643719160904));
#398 = CARTESIAN_POINT('',(-4.427197236367,-9.310568232114,
    -1.489054457501));
#399 = CARTESIAN_POINT('',(-6.361727388886,-7.71546658534,
    -2.176245505944));
#400 = ORIENTED_EDGE('',*,*,#232,.F.);
#401 = ORIENTED_EDGE('',*,*,#119,.F.);
#402 = B_SPLINE_SURFACE_WITH_KNOTS('',1,10,(
    (#403,#404,#405,#406,#407,#408,#409,#410,#411,#412,#413,#414,#415
      ,#416,#417,#418,#419,#420,#421,#422)
    ,(#423,#424,#425,#426,#427,#428,#429,#430,#431,#432,#433,#434,#435
      ,#436,#437,#438,#439,#440,#441,#442
    )),.UNSPECIFIED.,.F.,.F.,.F.,(2,2),(11,9,11),(0.,48.70949398294),(
    3.268622612024,27.623369603494,51.978116594964),.UNSPECIFIED.);
#403 = CARTESIAN_POINT('',(-8.833326022136,9.412134016447,-8.4555E-13));
#404 = CARTESIAN_POINT('',(-6.667421355265,11.507816946302,
    0.825995980905));
#405 = CARTESIAN_POINT('',(-3.982264252639,13.015816927589,
    1.850015647512));
#406 = CARTESIAN_POINT('',(-0.954032299271,13.792946108496,
    3.004871381001));
#407 = CARTESIAN_POINT('',(2.206303685728,13.772660916151,4.210106709156
    ));
#408 = CARTESIAN_POINT('',(5.294143286038,12.929541227027,5.38769459589)
  );
#409 = CARTESIAN_POINT('',(8.082382179564,11.320918166633,6.451025847305
    ));
#410 = CARTESIAN_POINT('',(10.392897552128,9.014232899813,7.332171006065
    ));
#411 = CARTESIAN_POINT('',(11.999668139541,6.181985741632,7.944933916523
    ));
#412 = CARTESIAN_POINT('',(12.80308008408,3.090835735444,8.251325535392)
  );
#413 = CARTESIAN_POINT('',(12.80308008408,-3.090835735444,8.251325535392
    ));
#414 = CARTESIAN_POINT('',(11.999668139542,-6.181985741631,
    7.944933916522));
#415 = CARTESIAN_POINT('',(10.392897552126,-9.014232899818,
    7.332171006066));
#416 = CARTESIAN_POINT('',(8.082382179566,-11.32091816662,6.451025847302
    ));
#417 = CARTESIAN_POINT('',(5.294143286037,-12.92954122704,5.387694595893
    ));
#418 = CARTESIAN_POINT('',(2.206303685728,-13.77266091613,4.210106709153
    ));
#419 = CARTESIAN_POINT('',(-0.954032299271,-13.7929461085,3.004871381003
    ));
#420 = CARTESIAN_POINT('',(-3.982264252639,-13.01581692758,
    1.850015647511));
#421 = CARTESIAN_POINT('',(-6.667421355265,-11.5078169463,0.825995980905
    ));
#422 = CARTESIAN_POINT('',(-8.833326022136,-9.412134016447,-8.4022E-13)
  );
#423 = CARTESIAN_POINT('',(-6.361727388886,7.71546658534,-2.176245505944
    ));
#424 = CARTESIAN_POINT('',(-4.427197236367,9.310568232114,
    -1.489054457501));
#425 = CARTESIAN_POINT('',(-2.089758983651,10.332481092604,
    -0.643719160904));
#426 = CARTESIAN_POINT('',(0.444457581269,10.677071101463,0.297300311706
    ));
#427 = CARTESIAN_POINT('',(2.94855620367,10.333942888103,1.259900946727)
  );
#428 = CARTESIAN_POINT('',(5.234590767319,9.380663686053,2.170339481899)
  );
#429 = CARTESIAN_POINT('',(7.142513451183,7.910820271665,2.959720581222)
  );
#430 = CARTESIAN_POINT('',(8.568211977564,6.121001090293,3.565823506352)
  );
#431 = CARTESIAN_POINT('',(9.522989033213,4.14425283829,3.976975133407)
  );
#432 = CARTESIAN_POINT('',(10.,2.072174065484,4.182334402485));
#433 = CARTESIAN_POINT('',(10.,-2.072174065484,4.182334402485));
#434 = CARTESIAN_POINT('',(9.522989033214,-4.144252838289,3.976975133407
    ));
#435 = CARTESIAN_POINT('',(8.568211977563,-6.121001090296,3.565823506351
    ));
#436 = CARTESIAN_POINT('',(7.142513451184,-7.910820271659,2.959720581222
    ));
#437 = CARTESIAN_POINT('',(5.234590767319,-9.380663686061,2.170339481898
    ));
#438 = CARTESIAN_POINT('',(2.94855620367,-10.33394288809,1.259900946727)
  );
#439 = CARTESIAN_POINT('',(0.444457581269,-10.67707110146,0.297300311706
    ));
#440 = CARTESIAN_POINT('',(-2.089758983651,-10.3324810926,
    -0.643719160904));
#441 = CARTESIAN_POINT('',(-4.427197236367,-9.310568232114,
    -1.489054457501));
#442 = CARTESIAN_POINT('',(-6.361727388886,-7.71546658534,
    -2.176245505944));
#443 = ADVANCED_FACE('',(#444),#471,.T.);
#444 = FACE_BOUND('',#445,.F.);
#445 = EDGE_LOOP('',(#446,#447,#456,#464));
#446 = ORIENTED_EDGE('',*,*,#104,.T.);
#447 = ORIENTED_EDGE('',*,*,#448,.T.);
#448 = EDGE_CURVE('',#97,#449,#451,.T.);
#449 = VERTEX_POINT('',#450);
#450 = CARTESIAN_POINT('',(31.804429836777,14.,9.659080250252));
#451 = CIRCLE('',#452,17.8);
#452 = AXIS2_PLACEMENT_3D('',#453,#454,#455);
#453 = CARTESIAN_POINT('',(24.221092552048,14.,-6.444739036677));
#454 = DIRECTION('',(1.19E-15,1.,-2.7E-16));
#455 = DIRECTION('',(-0.356330377636,6.763103569537E-16,0.934360028027)
  );
#456 = ORIENTED_EDGE('',*,*,#457,.F.);
#457 = EDGE_CURVE('',#458,#449,#460,.T.);
#458 = VERTEX_POINT('',#459);
#459 = CARTESIAN_POINT('',(31.804429836777,-14.,9.659080250252));
#460 = LINE('',#461,#462);
#461 = CARTESIAN_POINT('',(31.804429836777,-15.,9.659080250252));
#462 = VECTOR('',#463,1.);
#463 = DIRECTION('',(1.E-15,1.,-4.260301845353E-16));
#464 = ORIENTED_EDGE('',*,*,#465,.F.);
#465 = EDGE_CURVE('',#105,#458,#466,.T.);
#466 = CIRCLE('',#467,17.8);
#467 = AXIS2_PLACEMENT_3D('',#468,#469,#470);
#468 = CARTESIAN_POINT('',(24.221092552048,-14.,-6.444739036677));
#469 = DIRECTION('',(1.19E-15,1.,-2.7E-16));
#470 = DIRECTION('',(-0.356330377636,6.763103569537E-16,0.934360028027)
  );
#471 = CYLINDRICAL_SURFACE('',#472,17.8);
#472 = AXIS2_PLACEMENT_3D('',#473,#474,#475);
#473 = CARTESIAN_POINT('',(24.221092552048,-15.,-6.444739036677));
#474 = DIRECTION('',(-1.E-15,-1.,4.260301845353E-16));
#475 = DIRECTION('',(-0.426030184535,4.059686416827E-17,-0.904708948704)
  );
#476 = ADVANCED_FACE('',(#477),#496,.T.);
#477 = FACE_BOUND('',#478,.F.);
#478 = EDGE_LOOP('',(#479,#480,#481,#490));
#479 = ORIENTED_EDGE('',*,*,#168,.T.);
#480 = ORIENTED_EDGE('',*,*,#112,.T.);
#481 = ORIENTED_EDGE('',*,*,#482,.F.);
#482 = EDGE_CURVE('',#483,#105,#485,.T.);
#483 = VERTEX_POINT('',#484);
#484 = CARTESIAN_POINT('',(18.234742207769,-15.,9.252509434172));
#485 = CIRCLE('',#486,1.);
#486 = AXIS2_PLACEMENT_3D('',#487,#488,#489);
#487 = CARTESIAN_POINT('',(18.234742207769,-14.,9.252509434172));
#488 = DIRECTION('',(-0.934360028027,1.02E-15,-0.356330377636));
#489 = DIRECTION('',(-1.194037153479E-15,-1.,2.684603788896E-16));
#490 = ORIENTED_EDGE('',*,*,#491,.F.);
#491 = EDGE_CURVE('',#160,#483,#492,.T.);
#492 = LINE('',#493,#494);
#493 = CARTESIAN_POINT('',(-8.476995644498,-15.,-0.934360028027));
#494 = VECTOR('',#495,1.);
#495 = DIRECTION('',(0.934360028027,-1.02E-15,0.356330377636));
#496 = CYLINDRICAL_SURFACE('',#497,1.);
#497 = AXIS2_PLACEMENT_3D('',#498,#499,#500);
#498 = CARTESIAN_POINT('',(-8.476995644498,-14.,-0.934360028027));
#499 = DIRECTION('',(0.934360028027,-1.02E-15,0.356330377636));
#500 = DIRECTION('',(-1.194037153479E-15,-1.,2.684603788896E-16));
#501 = ADVANCED_FACE('',(#502),#521,.T.);
#502 = FACE_BOUND('',#503,.F.);
#503 = EDGE_LOOP('',(#504,#513,#514,#515));
#504 = ORIENTED_EDGE('',*,*,#505,.T.);
#505 = EDGE_CURVE('',#506,#277,#508,.T.);
#506 = VERTEX_POINT('',#507);
#507 = CARTESIAN_POINT('',(8.327860759159,-15.,-4.));
#508 = CIRCLE('',#509,1.);
#509 = AXIS2_PLACEMENT_3D('',#510,#511,#512);
#510 = CARTESIAN_POINT('',(8.327860759159,-14.,-4.));
#511 = DIRECTION('',(1.,-1.19E-15,-2.16E-15));
#512 = DIRECTION('',(-2.16E-15,-2.7E-16,-1.));
#513 = ORIENTED_EDGE('',*,*,#293,.T.);
#514 = ORIENTED_EDGE('',*,*,#150,.F.);
#515 = ORIENTED_EDGE('',*,*,#516,.F.);
#516 = EDGE_CURVE('',#506,#151,#517,.T.);
#517 = LINE('',#518,#519);
#518 = CARTESIAN_POINT('',(8.327860759159,-15.,-4.));
#519 = VECTOR('',#520,1.);
#520 = DIRECTION('',(-1.,1.19E-15,-3.9E-16));
#521 = CYLINDRICAL_SURFACE('',#522,1.);
#522 = AXIS2_PLACEMENT_3D('',#523,#524,#525);
#523 = CARTESIAN_POINT('',(8.327860759159,-14.,-4.));
#524 = DIRECTION('',(-1.,1.19E-15,-3.9E-16));
#525 = DIRECTION('',(-1.19E-15,-1.,2.7E-16));
#526 = ADVANCED_FACE('',(#527),#660,.F.);
#527 = FACE_BOUND('',#528,.F.);
#528 = EDGE_LOOP('',(#529,#539,#548,#556,#565,#574,#581,#582,#583,#584,
    #593,#601,#610,#618,#627,#635,#644,#653));
#529 = ORIENTED_EDGE('',*,*,#530,.T.);
#530 = EDGE_CURVE('',#531,#533,#535,.T.);
#531 = VERTEX_POINT('',#532);
#532 = CARTESIAN_POINT('',(43.202975349177,-15.,-5.594283992858));
#533 = VERTEX_POINT('',#534);
#534 = CARTESIAN_POINT('',(43.200793391235,-15.,-5.531800892574));
#535 = LINE('',#536,#537);
#536 = CARTESIAN_POINT('',(43.202975349177,-15.,-5.594283992858));
#537 = VECTOR('',#538,1.);
#538 = DIRECTION('',(-3.48994967025E-02,3.1E-16,0.999390827019));
#539 = ORIENTED_EDGE('',*,*,#540,.T.);
#540 = EDGE_CURVE('',#533,#541,#543,.T.);
#541 = VERTEX_POINT('',#542);
#542 = CARTESIAN_POINT('',(41.390785324723,-15.,-3.84394106452));
#543 = CIRCLE('',#544,1.75);
#544 = AXIS2_PLACEMENT_3D('',#545,#546,#547);
#545 = CARTESIAN_POINT('',(41.451859443952,-15.,-5.592875011804));
#546 = DIRECTION('',(-1.19E-15,-1.,2.7E-16));
#547 = DIRECTION('',(0.999390827019,-1.179852220043E-15,
    3.48994967025E-02));
#548 = ORIENTED_EDGE('',*,*,#549,.T.);
#549 = EDGE_CURVE('',#541,#550,#552,.T.);
#550 = VERTEX_POINT('',#551);
#551 = CARTESIAN_POINT('',(40.180226403484,-15.,-3.886214713565));
#552 = LINE('',#553,#554);
#553 = CARTESIAN_POINT('',(41.390785324723,-15.,-3.84394106452));
#554 = VECTOR('',#555,1.);
#555 = DIRECTION('',(-0.999390827019,1.18E-15,-3.48994967025E-02));
#556 = ORIENTED_EDGE('',*,*,#557,.T.);
#557 = EDGE_CURVE('',#550,#558,#560,.T.);
#558 = VERTEX_POINT('',#559);
#559 = CARTESIAN_POINT('',(37.244378741711,-15.,-1.880309518966));
#560 = CIRCLE('',#561,3.);
#561 = AXIS2_PLACEMENT_3D('',#562,#563,#564);
#562 = CARTESIAN_POINT('',(40.075527913376,-15.,-0.888042232508));
#563 = DIRECTION('',(1.19E-15,1.,-2.7E-16));
#564 = DIRECTION('',(3.489949670251E-02,-3.113659243711E-16,
    -0.999390827019));
#565 = ORIENTED_EDGE('',*,*,#566,.T.);
#566 = EDGE_CURVE('',#558,#567,#569,.T.);
#567 = VERTEX_POINT('',#568);
#568 = CARTESIAN_POINT('',(11.165937865032,-15.,-1.972274827978));
#569 = CIRCLE('',#570,13.8);
#570 = AXIS2_PLACEMENT_3D('',#571,#572,#573);
#571 = CARTESIAN_POINT('',(24.221092552048,-15.,-6.444739036677));
#572 = DIRECTION('',(-1.19E-15,-1.,2.7E-16));
#573 = DIRECTION('',(0.943716390555,-1.033718448979E-15,0.330755762153)
  );
#574 = ORIENTED_EDGE('',*,*,#575,.T.);
#575 = EDGE_CURVE('',#567,#506,#576,.T.);
#576 = CIRCLE('',#577,3.);
#577 = AXIS2_PLACEMENT_3D('',#578,#579,#580);
#578 = CARTESIAN_POINT('',(8.327860759159,-15.,-1.));
#579 = DIRECTION('',(1.19E-15,1.,-2.7E-16));
#580 = DIRECTION('',(0.946025701958,-1.213275319848E-15,-0.324091609326)
  );
#581 = ORIENTED_EDGE('',*,*,#516,.T.);
#582 = ORIENTED_EDGE('',*,*,#159,.T.);
#583 = ORIENTED_EDGE('',*,*,#491,.T.);
#584 = ORIENTED_EDGE('',*,*,#585,.T.);
#585 = EDGE_CURVE('',#483,#586,#588,.T.);
#586 = VERTEX_POINT('',#587);
#587 = CARTESIAN_POINT('',(31.378399652242,-15.,8.754371301548));
#588 = CIRCLE('',#589,16.8);
#589 = AXIS2_PLACEMENT_3D('',#590,#591,#592);
#590 = CARTESIAN_POINT('',(24.221092552048,-15.,-6.444739036677));
#591 = DIRECTION('',(1.19E-15,1.,-2.7E-16));
#592 = DIRECTION('',(-0.356330377636,6.763103569537E-16,0.934360028027)
  );
#593 = ORIENTED_EDGE('',*,*,#594,.T.);
#594 = EDGE_CURVE('',#586,#595,#597,.T.);
#595 = VERTEX_POINT('',#596);
#596 = CARTESIAN_POINT('',(50.822613373065,-15.,-0.401967840996));
#597 = LINE('',#598,#599);
#598 = CARTESIAN_POINT('',(31.378399652242,-15.,8.754371301548));
#599 = VECTOR('',#600,1.);
#600 = DIRECTION('',(0.904708948704,-1.19E-15,-0.426030184535));
#601 = ORIENTED_EDGE('',*,*,#602,.T.);
#602 = EDGE_CURVE('',#595,#603,#605,.T.);
#603 = VERTEX_POINT('',#604);
#604 = CARTESIAN_POINT('',(50.178618130515,-15.,-3.537063180777));
#605 = CIRCLE('',#606,1.64649741286);
#606 = AXIS2_PLACEMENT_3D('',#607,#608,#609);
#607 = CARTESIAN_POINT('',(50.121155776427,-15.,-1.891568784428));
#608 = DIRECTION('',(1.19E-15,1.,-2.7E-16));
#609 = DIRECTION('',(0.426030184535,-2.62704503447E-16,0.904708948704));
#610 = ORIENTED_EDGE('',*,*,#611,.T.);
#611 = EDGE_CURVE('',#603,#612,#614,.T.);
#612 = VERTEX_POINT('',#613);
#613 = CARTESIAN_POINT('',(46.887434873328,-15.,-3.651993832656));
#614 = LINE('',#615,#616);
#615 = CARTESIAN_POINT('',(50.178618387458,-15.,-3.537063171804));
#616 = VECTOR('',#617,1.);
#617 = DIRECTION('',(-0.999390827019,1.18E-15,-3.48994967025E-02));
#618 = ORIENTED_EDGE('',*,*,#619,.T.);
#619 = EDGE_CURVE('',#612,#620,#622,.T.);
#620 = VERTEX_POINT('',#621);
#621 = CARTESIAN_POINT('',(45.199575045274,-15.,-5.462001899169));
#622 = CIRCLE('',#623,1.75);
#623 = AXIS2_PLACEMENT_3D('',#624,#625,#626);
#624 = CARTESIAN_POINT('',(46.948508992557,-15.,-5.40092777994));
#625 = DIRECTION('',(-1.19E-15,-1.,2.7E-16));
#626 = DIRECTION('',(-3.489949670247E-02,3.113659243711E-16,
    0.999390827019));
#627 = ORIENTED_EDGE('',*,*,#628,.T.);
#628 = EDGE_CURVE('',#620,#629,#631,.T.);
#629 = VERTEX_POINT('',#630);
#630 = CARTESIAN_POINT('',(45.201757003216,-15.,-5.524484999453));
#631 = LINE('',#632,#633);
#632 = CARTESIAN_POINT('',(45.199575045274,-15.,-5.462001899169));
#633 = VECTOR('',#634,1.);
#634 = DIRECTION('',(3.489949670251E-02,-3.1E-16,-0.999390827019));
#635 = ORIENTED_EDGE('',*,*,#636,.T.);
#636 = EDGE_CURVE('',#629,#637,#639,.T.);
#637 = VERTEX_POINT('',#638);
#638 = CARTESIAN_POINT('',(45.954091203908,-15.,-6.901913207332));
#639 = CIRCLE('',#640,1.75);
#640 = AXIS2_PLACEMENT_3D('',#641,#642,#643);
#641 = CARTESIAN_POINT('',(46.950690950499,-15.,-5.463410880224));
#642 = DIRECTION('',(-1.19E-15,-1.,2.7E-16));
#643 = DIRECTION('',(-0.999390827019,1.179852220043E-15,
    -3.489949670252E-02));
#644 = ORIENTED_EDGE('',*,*,#645,.T.);
#645 = EDGE_CURVE('',#637,#646,#648,.T.);
#646 = VERTEX_POINT('',#647);
#647 = CARTESIAN_POINT('',(42.548558331403,-15.,-7.020837035769));
#648 = CIRCLE('',#649,2.85);
#649 = AXIS2_PLACEMENT_3D('',#650,#651,#652);
#650 = CARTESIAN_POINT('',(44.331057330889,-15.,-9.244616997194));
#651 = DIRECTION('',(1.19E-15,1.,-2.7E-16));
#652 = DIRECTION('',(0.56948556948,-4.557474686423E-16,0.822001329776));
#653 = ORIENTED_EDGE('',*,*,#654,.T.);
#654 = EDGE_CURVE('',#646,#531,#655,.T.);
#655 = CIRCLE('',#656,1.75);
#656 = AXIS2_PLACEMENT_3D('',#657,#658,#659);
#657 = CARTESIAN_POINT('',(41.454041401894,-15.,-5.655358112088));
#658 = DIRECTION('',(-1.19E-15,-1.,2.7E-16));
#659 = DIRECTION('',(0.625438245434,-9.549454031483E-16,-0.780273670675)
  );
#660 = PLANE('',#661);
#661 = AXIS2_PLACEMENT_3D('',#662,#663,#664);
#662 = CARTESIAN_POINT('',(23.711039672987,-15.,0.639773622811));
#663 = DIRECTION('',(1.E-15,1.,-4.260301845353E-16));
#664 = DIRECTION('',(-0.426030184535,4.059686416827E-17,-0.904708948704)
  );
#665 = ADVANCED_FACE('',(#666),#671,.F.);
#666 = FACE_BOUND('',#667,.T.);
#667 = EDGE_LOOP('',(#668,#669,#670));
#668 = ORIENTED_EDGE('',*,*,#184,.F.);
#669 = ORIENTED_EDGE('',*,*,#378,.F.);
#670 = ORIENTED_EDGE('',*,*,#195,.F.);
#671 = CYLINDRICAL_SURFACE('',#672,10.);
#672 = AXIS2_PLACEMENT_3D('',#673,#674,#675);
#673 = CARTESIAN_POINT('',(0.,0.,0.));
#674 = DIRECTION('',(-0.,-0.,-1.));
#675 = DIRECTION('',(1.,0.,0.));
#676 = ADVANCED_FACE('',(#677),#688,.F.);
#677 = FACE_BOUND('',#678,.T.);
#678 = EDGE_LOOP('',(#679,#685,#686,#687));
#679 = ORIENTED_EDGE('',*,*,#680,.F.);
#680 = EDGE_CURVE('',#302,#260,#681,.T.);
#681 = LINE('',#682,#683);
#682 = CARTESIAN_POINT('',(4.831214779082,-2.09053019066E-14,
    -28.73305668657));
#683 = VECTOR('',#684,1.);
#684 = DIRECTION('',(-3.48994967025E-02,4.606701551604E-16,
    0.999390827019));
#685 = ORIENTED_EDGE('',*,*,#301,.F.);
#686 = ORIENTED_EDGE('',*,*,#680,.T.);
#687 = ORIENTED_EDGE('',*,*,#259,.T.);
#688 = CYLINDRICAL_SURFACE('',#689,4.);
#689 = AXIS2_PLACEMENT_3D('',#690,#691,#692);
#690 = CARTESIAN_POINT('',(0.833651471005,-1.59872115546E-14,
    -28.87265467338));
#691 = DIRECTION('',(3.48994967025E-02,-4.606701551604E-16,
    -0.999390827019));
#692 = DIRECTION('',(0.999390827019,-9.845225879987E-16,
    3.48994967025E-02));
#693 = ADVANCED_FACE('',(#694),#721,.T.);
#694 = FACE_BOUND('',#695,.T.);
#695 = EDGE_LOOP('',(#696,#706,#713,#714));
#696 = ORIENTED_EDGE('',*,*,#697,.F.);
#697 = EDGE_CURVE('',#698,#700,#702,.T.);
#698 = VERTEX_POINT('',#699);
#699 = CARTESIAN_POINT('',(12.11196356699,-14.,-2.296366437304));
#700 = VERTEX_POINT('',#701);
#701 = CARTESIAN_POINT('',(12.11196356699,14.,-2.296366437304));
#702 = LINE('',#703,#704);
#703 = CARTESIAN_POINT('',(12.11196356699,-15.,-2.296366437304));
#704 = VECTOR('',#705,1.);
#705 = DIRECTION('',(1.E-15,1.,-4.260301845353E-16));
#706 = ORIENTED_EDGE('',*,*,#707,.T.);
#707 = EDGE_CURVE('',#698,#277,#708,.T.);
#708 = CIRCLE('',#709,4.);
#709 = AXIS2_PLACEMENT_3D('',#710,#711,#712);
#710 = CARTESIAN_POINT('',(8.327860759159,-14.,-1.));
#711 = DIRECTION('',(1.19E-15,1.,-2.7E-16));
#712 = DIRECTION('',(0.946025701958,-1.213275319848E-15,-0.324091609326)
  );
#713 = ORIENTED_EDGE('',*,*,#276,.T.);
#714 = ORIENTED_EDGE('',*,*,#715,.F.);
#715 = EDGE_CURVE('',#700,#279,#716,.T.);
#716 = CIRCLE('',#717,4.);
#717 = AXIS2_PLACEMENT_3D('',#718,#719,#720);
#718 = CARTESIAN_POINT('',(8.327860759159,14.,-1.));
#719 = DIRECTION('',(1.19E-15,1.,-2.7E-16));
#720 = DIRECTION('',(0.946025701958,-1.213275319848E-15,-0.324091609326)
  );
#721 = CYLINDRICAL_SURFACE('',#722,4.);
#722 = AXIS2_PLACEMENT_3D('',#723,#724,#725);
#723 = CARTESIAN_POINT('',(8.327860759159,-15.,-1.));
#724 = DIRECTION('',(1.E-15,1.,-4.260301845353E-16));
#725 = DIRECTION('',(0.946025701958,-1.084098510085E-15,-0.324091609326)
  );
#726 = ADVANCED_FACE('',(#727),#746,.T.);
#727 = FACE_BOUND('',#728,.T.);
#728 = EDGE_LOOP('',(#729,#738,#739,#740));
#729 = ORIENTED_EDGE('',*,*,#730,.T.);
#730 = EDGE_CURVE('',#731,#279,#733,.T.);
#731 = VERTEX_POINT('',#732);
#732 = CARTESIAN_POINT('',(8.327860759159,15.,-4.));
#733 = CIRCLE('',#734,1.);
#734 = AXIS2_PLACEMENT_3D('',#735,#736,#737);
#735 = CARTESIAN_POINT('',(8.327860759159,14.,-4.));
#736 = DIRECTION('',(-1.,1.19E-15,1.83E-15));
#737 = DIRECTION('',(-1.83E-15,-2.7E-16,-1.));
#738 = ORIENTED_EDGE('',*,*,#286,.T.);
#739 = ORIENTED_EDGE('',*,*,#318,.F.);
#740 = ORIENTED_EDGE('',*,*,#741,.F.);
#741 = EDGE_CURVE('',#731,#319,#742,.T.);
#742 = LINE('',#743,#744);
#743 = CARTESIAN_POINT('',(8.327860759159,15.,-4.));
#744 = VECTOR('',#745,1.);
#745 = DIRECTION('',(-1.,1.19E-15,-3.9E-16));
#746 = CYLINDRICAL_SURFACE('',#747,1.);
#747 = AXIS2_PLACEMENT_3D('',#748,#749,#750);
#748 = CARTESIAN_POINT('',(8.327860759159,14.,-4.));
#749 = DIRECTION('',(-1.,1.19E-15,-3.9E-16));
#750 = DIRECTION('',(1.19E-15,1.,-2.7E-16));
#751 = ADVANCED_FACE('',(#752),#885,.T.);
#752 = FACE_BOUND('',#753,.T.);
#753 = EDGE_LOOP('',(#754,#764,#773,#781,#790,#799,#806,#807,#808,#809,
    #818,#826,#835,#843,#852,#860,#869,#878));
#754 = ORIENTED_EDGE('',*,*,#755,.T.);
#755 = EDGE_CURVE('',#756,#758,#760,.T.);
#756 = VERTEX_POINT('',#757);
#757 = CARTESIAN_POINT('',(43.202975349178,15.,-5.594283992858));
#758 = VERTEX_POINT('',#759);
#759 = CARTESIAN_POINT('',(43.200793391235,15.,-5.531800892574));
#760 = LINE('',#761,#762);
#761 = CARTESIAN_POINT('',(43.202975349178,15.,-5.594283992858));
#762 = VECTOR('',#763,1.);
#763 = DIRECTION('',(-3.48994967025E-02,3.1E-16,0.999390827019));
#764 = ORIENTED_EDGE('',*,*,#765,.T.);
#765 = EDGE_CURVE('',#758,#766,#768,.T.);
#766 = VERTEX_POINT('',#767);
#767 = CARTESIAN_POINT('',(41.390785324723,15.,-3.84394106452));
#768 = CIRCLE('',#769,1.75);
#769 = AXIS2_PLACEMENT_3D('',#770,#771,#772);
#770 = CARTESIAN_POINT('',(41.451859443952,15.,-5.592875011804));
#771 = DIRECTION('',(-1.19E-15,-1.,2.7E-16));
#772 = DIRECTION('',(0.999390827019,-1.179852220043E-15,
    3.489949670251E-02));
#773 = ORIENTED_EDGE('',*,*,#774,.T.);
#774 = EDGE_CURVE('',#766,#775,#777,.T.);
#775 = VERTEX_POINT('',#776);
#776 = CARTESIAN_POINT('',(40.180226403484,15.,-3.886214713565));
#777 = LINE('',#778,#779);
#778 = CARTESIAN_POINT('',(41.390785324723,15.,-3.84394106452));
#779 = VECTOR('',#780,1.);
#780 = DIRECTION('',(-0.999390827019,1.18E-15,-3.48994967025E-02));
#781 = ORIENTED_EDGE('',*,*,#782,.T.);
#782 = EDGE_CURVE('',#775,#783,#785,.T.);
#783 = VERTEX_POINT('',#784);
#784 = CARTESIAN_POINT('',(37.244378741711,15.,-1.880309518966));
#785 = CIRCLE('',#786,3.);
#786 = AXIS2_PLACEMENT_3D('',#787,#788,#789);
#787 = CARTESIAN_POINT('',(40.075527913377,15.,-0.888042232508));
#788 = DIRECTION('',(1.19E-15,1.,-2.7E-16));
#789 = DIRECTION('',(3.489949670251E-02,-3.113659243711E-16,
    -0.999390827019));
#790 = ORIENTED_EDGE('',*,*,#791,.T.);
#791 = EDGE_CURVE('',#783,#792,#794,.T.);
#792 = VERTEX_POINT('',#793);
#793 = CARTESIAN_POINT('',(11.165937865032,15.,-1.972274827978));
#794 = CIRCLE('',#795,13.8);
#795 = AXIS2_PLACEMENT_3D('',#796,#797,#798);
#796 = CARTESIAN_POINT('',(24.221092552048,15.,-6.444739036677));
#797 = DIRECTION('',(-1.19E-15,-1.,2.7E-16));
#798 = DIRECTION('',(0.943716390555,-1.033718448979E-15,0.330755762153)
  );
#799 = ORIENTED_EDGE('',*,*,#800,.T.);
#800 = EDGE_CURVE('',#792,#731,#801,.T.);
#801 = CIRCLE('',#802,3.);
#802 = AXIS2_PLACEMENT_3D('',#803,#804,#805);
#803 = CARTESIAN_POINT('',(8.327860759159,15.,-1.));
#804 = DIRECTION('',(1.19E-15,1.,-2.7E-16));
#805 = DIRECTION('',(0.946025701958,-1.213275319848E-15,-0.324091609326)
  );
#806 = ORIENTED_EDGE('',*,*,#741,.T.);
#807 = ORIENTED_EDGE('',*,*,#327,.T.);
#808 = ORIENTED_EDGE('',*,*,#363,.T.);
#809 = ORIENTED_EDGE('',*,*,#810,.T.);
#810 = EDGE_CURVE('',#355,#811,#813,.T.);
#811 = VERTEX_POINT('',#812);
#812 = CARTESIAN_POINT('',(31.378399652242,15.,8.754371301548));
#813 = CIRCLE('',#814,16.8);
#814 = AXIS2_PLACEMENT_3D('',#815,#816,#817);
#815 = CARTESIAN_POINT('',(24.221092552048,15.,-6.444739036677));
#816 = DIRECTION('',(1.19E-15,1.,-2.7E-16));
#817 = DIRECTION('',(-0.356330377636,6.763103569537E-16,0.934360028027)
  );
#818 = ORIENTED_EDGE('',*,*,#819,.T.);
#819 = EDGE_CURVE('',#811,#820,#822,.T.);
#820 = VERTEX_POINT('',#821);
#821 = CARTESIAN_POINT('',(50.822613373065,15.,-0.401967840996));
#822 = LINE('',#823,#824);
#823 = CARTESIAN_POINT('',(31.378399652242,15.,8.754371301548));
#824 = VECTOR('',#825,1.);
#825 = DIRECTION('',(0.904708948704,-1.19E-15,-0.426030184535));
#826 = ORIENTED_EDGE('',*,*,#827,.T.);
#827 = EDGE_CURVE('',#820,#828,#830,.T.);
#828 = VERTEX_POINT('',#829);
#829 = CARTESIAN_POINT('',(50.178618130515,15.,-3.537063180777));
#830 = CIRCLE('',#831,1.64649741286);
#831 = AXIS2_PLACEMENT_3D('',#832,#833,#834);
#832 = CARTESIAN_POINT('',(50.121155776427,15.,-1.891568784428));
#833 = DIRECTION('',(1.19E-15,1.,-2.7E-16));
#834 = DIRECTION('',(0.426030184535,-2.62704503447E-16,0.904708948704));
#835 = ORIENTED_EDGE('',*,*,#836,.T.);
#836 = EDGE_CURVE('',#828,#837,#839,.T.);
#837 = VERTEX_POINT('',#838);
#838 = CARTESIAN_POINT('',(46.887434873328,15.,-3.651993832656));
#839 = LINE('',#840,#841);
#840 = CARTESIAN_POINT('',(50.178618387458,15.,-3.537063171804));
#841 = VECTOR('',#842,1.);
#842 = DIRECTION('',(-0.999390827019,1.18E-15,-3.48994967025E-02));
#843 = ORIENTED_EDGE('',*,*,#844,.T.);
#844 = EDGE_CURVE('',#837,#845,#847,.T.);
#845 = VERTEX_POINT('',#846);
#846 = CARTESIAN_POINT('',(45.199575045274,15.,-5.462001899169));
#847 = CIRCLE('',#848,1.75);
#848 = AXIS2_PLACEMENT_3D('',#849,#850,#851);
#849 = CARTESIAN_POINT('',(46.948508992557,15.,-5.40092777994));
#850 = DIRECTION('',(-1.19E-15,-1.,2.7E-16));
#851 = DIRECTION('',(-3.489949670246E-02,3.113659243711E-16,
    0.999390827019));
#852 = ORIENTED_EDGE('',*,*,#853,.T.);
#853 = EDGE_CURVE('',#845,#854,#856,.T.);
#854 = VERTEX_POINT('',#855);
#855 = CARTESIAN_POINT('',(45.201757003216,15.,-5.524484999453));
#856 = LINE('',#857,#858);
#857 = CARTESIAN_POINT('',(45.199575045274,15.,-5.462001899169));
#858 = VECTOR('',#859,1.);
#859 = DIRECTION('',(3.489949670251E-02,-3.1E-16,-0.999390827019));
#860 = ORIENTED_EDGE('',*,*,#861,.T.);
#861 = EDGE_CURVE('',#854,#862,#864,.T.);
#862 = VERTEX_POINT('',#863);
#863 = CARTESIAN_POINT('',(45.954091203908,15.,-6.901913207332));
#864 = CIRCLE('',#865,1.75);
#865 = AXIS2_PLACEMENT_3D('',#866,#867,#868);
#866 = CARTESIAN_POINT('',(46.950690950499,15.,-5.463410880224));
#867 = DIRECTION('',(-1.19E-15,-1.,2.7E-16));
#868 = DIRECTION('',(-0.999390827019,1.179852220043E-15,
    -3.489949670252E-02));
#869 = ORIENTED_EDGE('',*,*,#870,.T.);
#870 = EDGE_CURVE('',#862,#871,#873,.T.);
#871 = VERTEX_POINT('',#872);
#872 = CARTESIAN_POINT('',(42.548558331403,15.,-7.020837035769));
#873 = CIRCLE('',#874,2.85);
#874 = AXIS2_PLACEMENT_3D('',#875,#876,#877);
#875 = CARTESIAN_POINT('',(44.331057330889,15.,-9.244616997194));
#876 = DIRECTION('',(1.19E-15,1.,-2.7E-16));
#877 = DIRECTION('',(0.56948556948,-4.557474686423E-16,0.822001329776));
#878 = ORIENTED_EDGE('',*,*,#879,.T.);
#879 = EDGE_CURVE('',#871,#756,#880,.T.);
#880 = CIRCLE('',#881,1.75);
#881 = AXIS2_PLACEMENT_3D('',#882,#883,#884);
#882 = CARTESIAN_POINT('',(41.454041401894,15.,-5.655358112088));
#883 = DIRECTION('',(-1.19E-15,-1.,2.7E-16));
#884 = DIRECTION('',(0.625438245434,-9.549454031483E-16,-0.780273670675)
  );
#885 = PLANE('',#886);
#886 = AXIS2_PLACEMENT_3D('',#887,#888,#889);
#887 = CARTESIAN_POINT('',(23.711039672987,15.,0.639773622811));
#888 = DIRECTION('',(1.E-15,1.,-4.260301845353E-16));
#889 = DIRECTION('',(-0.426030184535,4.059686416827E-17,-0.904708948704)
  );
#890 = ADVANCED_FACE('',(#891),#903,.T.);
#891 = FACE_BOUND('',#892,.F.);
#892 = EDGE_LOOP('',(#893,#894,#895,#902));
#893 = ORIENTED_EDGE('',*,*,#354,.F.);
#894 = ORIENTED_EDGE('',*,*,#810,.T.);
#895 = ORIENTED_EDGE('',*,*,#896,.T.);
#896 = EDGE_CURVE('',#811,#449,#897,.T.);
#897 = CIRCLE('',#898,1.);
#898 = AXIS2_PLACEMENT_3D('',#899,#900,#901);
#899 = CARTESIAN_POINT('',(31.378399652242,14.,8.754371301548));
#900 = DIRECTION('',(0.904708948704,-1.19E-15,-0.426030184535));
#901 = DIRECTION('',(0.426030184535,-2.6E-16,0.904708948704));
#902 = ORIENTED_EDGE('',*,*,#448,.F.);
#903 = TOROIDAL_SURFACE('',#904,16.8,1.);
#904 = AXIS2_PLACEMENT_3D('',#905,#906,#907);
#905 = CARTESIAN_POINT('',(24.221092552048,14.,-6.444739036677));
#906 = DIRECTION('',(-1.19E-15,-1.,2.7E-16));
#907 = DIRECTION('',(-0.356330377636,6.763103569537E-16,0.934360028027)
  );
#908 = ADVANCED_FACE('',(#909),#921,.T.);
#909 = FACE_BOUND('',#910,.T.);
#910 = EDGE_LOOP('',(#911,#912,#913,#920));
#911 = ORIENTED_EDGE('',*,*,#482,.F.);
#912 = ORIENTED_EDGE('',*,*,#585,.T.);
#913 = ORIENTED_EDGE('',*,*,#914,.T.);
#914 = EDGE_CURVE('',#586,#458,#915,.T.);
#915 = CIRCLE('',#916,1.);
#916 = AXIS2_PLACEMENT_3D('',#917,#918,#919);
#917 = CARTESIAN_POINT('',(31.378399652242,-14.,8.754371301548));
#918 = DIRECTION('',(-0.904708948704,1.19E-15,0.426030184535));
#919 = DIRECTION('',(0.426030184535,-2.6E-16,0.904708948704));
#920 = ORIENTED_EDGE('',*,*,#465,.F.);
#921 = TOROIDAL_SURFACE('',#922,16.8,1.);
#922 = AXIS2_PLACEMENT_3D('',#923,#924,#925);
#923 = CARTESIAN_POINT('',(24.221092552048,-14.,-6.444739036677));
#924 = DIRECTION('',(1.19E-15,1.,-2.7E-16));
#925 = DIRECTION('',(-0.356330377636,6.763103569537E-16,0.934360028027)
  );
#926 = ADVANCED_FACE('',(#927),#952,.T.);
#927 = FACE_BOUND('',#928,.T.);
#928 = EDGE_LOOP('',(#929,#939,#945,#946));
#929 = ORIENTED_EDGE('',*,*,#930,.T.);
#930 = EDGE_CURVE('',#931,#933,#935,.T.);
#931 = VERTEX_POINT('',#932);
#932 = CARTESIAN_POINT('',(51.2486435576,-14.,0.502741107708));
#933 = VERTEX_POINT('',#934);
#934 = CARTESIAN_POINT('',(51.2486435576,14.,0.502741107708));
#935 = LINE('',#936,#937);
#936 = CARTESIAN_POINT('',(51.2486435576,-15.,0.502741107708));
#937 = VECTOR('',#938,1.);
#938 = DIRECTION('',(1.E-15,1.,-4.260301845353E-16));
#939 = ORIENTED_EDGE('',*,*,#940,.F.);
#940 = EDGE_CURVE('',#449,#933,#941,.T.);
#941 = LINE('',#942,#943);
#942 = CARTESIAN_POINT('',(31.804429836777,14.,9.659080250252));
#943 = VECTOR('',#944,1.);
#944 = DIRECTION('',(0.904708948704,-1.19E-15,-0.426030184535));
#945 = ORIENTED_EDGE('',*,*,#457,.F.);
#946 = ORIENTED_EDGE('',*,*,#947,.T.);
#947 = EDGE_CURVE('',#458,#931,#948,.T.);
#948 = LINE('',#949,#950);
#949 = CARTESIAN_POINT('',(31.804429836777,-14.,9.659080250252));
#950 = VECTOR('',#951,1.);
#951 = DIRECTION('',(0.904708948704,-1.19E-15,-0.426030184535));
#952 = PLANE('',#953);
#953 = AXIS2_PLACEMENT_3D('',#954,#955,#956);
#954 = CARTESIAN_POINT('',(51.2486435576,-15.,0.502741107708));
#955 = DIRECTION('',(0.426030184535,-4.059686416827E-17,0.904708948704)
  );
#956 = DIRECTION('',(-0.904708948704,1.086210666839E-15,0.426030184535)
  );
#957 = ADVANCED_FACE('',(#958),#970,.T.);
#958 = FACE_BOUND('',#959,.T.);
#959 = EDGE_LOOP('',(#960,#967,#968,#969));
#960 = ORIENTED_EDGE('',*,*,#961,.F.);
#961 = EDGE_CURVE('',#567,#698,#962,.T.);
#962 = CIRCLE('',#963,1.);
#963 = AXIS2_PLACEMENT_3D('',#964,#965,#966);
#964 = CARTESIAN_POINT('',(11.165937865032,-14.,-1.972274827978));
#965 = DIRECTION('',(0.324091609326,-1.3E-16,0.946025701958));
#966 = DIRECTION('',(-0.946025701958,1.22E-15,0.324091609326));
#967 = ORIENTED_EDGE('',*,*,#575,.T.);
#968 = ORIENTED_EDGE('',*,*,#505,.T.);
#969 = ORIENTED_EDGE('',*,*,#707,.F.);
#970 = TOROIDAL_SURFACE('',#971,3.,1.);
#971 = AXIS2_PLACEMENT_3D('',#972,#973,#974);
#972 = CARTESIAN_POINT('',(8.327860759159,-14.,-1.));
#973 = DIRECTION('',(1.19E-15,1.,-2.7E-16));
#974 = DIRECTION('',(0.946025701958,-1.213275319848E-15,-0.324091609326)
  );
#975 = ADVANCED_FACE('',(#976),#1003,.T.);
#976 = FACE_BOUND('',#977,.F.);
#977 = EDGE_LOOP('',(#978,#987,#995,#1002));
#978 = ORIENTED_EDGE('',*,*,#979,.T.);
#979 = EDGE_CURVE('',#531,#980,#982,.T.);
#980 = VERTEX_POINT('',#981);
#981 = CARTESIAN_POINT('',(42.203584522158,-14.,-5.629183489561));
#982 = CIRCLE('',#983,1.);
#983 = AXIS2_PLACEMENT_3D('',#984,#985,#986);
#984 = CARTESIAN_POINT('',(43.202975349177,-14.,-5.594283992858));
#985 = DIRECTION('',(3.48994967025E-02,-3.1E-16,-0.999390827019));
#986 = DIRECTION('',(-1.189952329927E-15,-1.,2.686349077131E-16));
#987 = ORIENTED_EDGE('',*,*,#988,.T.);
#988 = EDGE_CURVE('',#980,#989,#991,.T.);
#989 = VERTEX_POINT('',#990);
#990 = CARTESIAN_POINT('',(42.201402564216,-14.,-5.566700389277));
#991 = LINE('',#992,#993);
#992 = CARTESIAN_POINT('',(42.203584522158,-14.,-5.629183489561));
#993 = VECTOR('',#994,1.);
#994 = DIRECTION('',(-3.48994967025E-02,3.1E-16,0.999390827019));
#995 = ORIENTED_EDGE('',*,*,#996,.F.);
#996 = EDGE_CURVE('',#533,#989,#997,.T.);
#997 = CIRCLE('',#998,1.);
#998 = AXIS2_PLACEMENT_3D('',#999,#1000,#1001);
#999 = CARTESIAN_POINT('',(43.200793391235,-14.,-5.531800892574));
#1000 = DIRECTION('',(3.48994967025E-02,-3.1E-16,-0.999390827019));
#1001 = DIRECTION('',(-1.189952329927E-15,-1.,2.686349077131E-16));
#1002 = ORIENTED_EDGE('',*,*,#530,.F.);
#1003 = CYLINDRICAL_SURFACE('',#1004,1.);
#1004 = AXIS2_PLACEMENT_3D('',#1005,#1006,#1007);
#1005 = CARTESIAN_POINT('',(43.202975349177,-14.,-5.594283992858));
#1006 = DIRECTION('',(-3.48994967025E-02,3.1E-16,0.999390827019));
#1007 = DIRECTION('',(-1.189952329927E-15,-1.,2.686349077131E-16));
#1008 = ADVANCED_FACE('',(#1009),#1029,.T.);
#1009 = FACE_BOUND('',#1010,.T.);
#1010 = EDGE_LOOP('',(#1011,#1020,#1021,#1022));
#1011 = ORIENTED_EDGE('',*,*,#1012,.F.);
#1012 = EDGE_CURVE('',#646,#1013,#1015,.T.);
#1013 = VERTEX_POINT('',#1014);
#1014 = CARTESIAN_POINT('',(41.923120085969,-14.,-6.240563365094));
#1015 = CIRCLE('',#1016,1.);
#1016 = AXIS2_PLACEMENT_3D('',#1017,#1018,#1019);
#1017 = CARTESIAN_POINT('',(42.548558331403,-14.,-7.020837035769));
#1018 = DIRECTION('',(-0.780273670675,7.6E-16,-0.625438245434));
#1019 = DIRECTION('',(-0.625438245434,9.6E-16,0.780273670675));
#1020 = ORIENTED_EDGE('',*,*,#654,.T.);
#1021 = ORIENTED_EDGE('',*,*,#979,.T.);
#1022 = ORIENTED_EDGE('',*,*,#1023,.F.);
#1023 = EDGE_CURVE('',#1013,#980,#1024,.T.);
#1024 = CIRCLE('',#1025,0.75);
#1025 = AXIS2_PLACEMENT_3D('',#1026,#1027,#1028);
#1026 = CARTESIAN_POINT('',(41.454041401894,-14.,-5.655358112088));
#1027 = DIRECTION('',(-1.19E-15,-1.,2.7E-16));
#1028 = DIRECTION('',(0.625438245434,-9.549454031483E-16,-0.780273670675
    ));
#1029 = TOROIDAL_SURFACE('',#1030,1.75,1.);
#1030 = AXIS2_PLACEMENT_3D('',#1031,#1032,#1033);
#1031 = CARTESIAN_POINT('',(41.454041401894,-14.,-5.655358112088));
#1032 = DIRECTION('',(-1.19E-15,-1.,2.7E-16));
#1033 = DIRECTION('',(0.625438245434,-9.549454031483E-16,-0.780273670675
    ));
#1034 = ADVANCED_FACE('',(#1035),#1055,.T.);
#1035 = FACE_BOUND('',#1036,.T.);
#1036 = EDGE_LOOP('',(#1037,#1038,#1039,#1048));
#1037 = ORIENTED_EDGE('',*,*,#996,.F.);
#1038 = ORIENTED_EDGE('',*,*,#540,.T.);
#1039 = ORIENTED_EDGE('',*,*,#1040,.T.);
#1040 = EDGE_CURVE('',#541,#1041,#1043,.T.);
#1041 = VERTEX_POINT('',#1042);
#1042 = CARTESIAN_POINT('',(41.425684821425,-14.,-4.843331891539));
#1043 = CIRCLE('',#1044,1.);
#1044 = AXIS2_PLACEMENT_3D('',#1045,#1046,#1047);
#1045 = CARTESIAN_POINT('',(41.390785324723,-14.,-3.84394106452));
#1046 = DIRECTION('',(0.999390827019,-1.18E-15,3.489949670251E-02));
#1047 = DIRECTION('',(-3.489949670251E-02,3.1E-16,0.999390827019));
#1048 = ORIENTED_EDGE('',*,*,#1049,.F.);
#1049 = EDGE_CURVE('',#989,#1041,#1050,.T.);
#1050 = CIRCLE('',#1051,0.75);
#1051 = AXIS2_PLACEMENT_3D('',#1052,#1053,#1054);
#1052 = CARTESIAN_POINT('',(41.451859443952,-14.,-5.592875011804));
#1053 = DIRECTION('',(-1.19E-15,-1.,2.7E-16));
#1054 = DIRECTION('',(0.999390827019,-1.179852220043E-15,
    3.48994967025E-02));
#1055 = TOROIDAL_SURFACE('',#1056,1.75,1.);
#1056 = AXIS2_PLACEMENT_3D('',#1057,#1058,#1059);
#1057 = CARTESIAN_POINT('',(41.451859443952,-14.,-5.592875011804));
#1058 = DIRECTION('',(-1.19E-15,-1.,2.7E-16));
#1059 = DIRECTION('',(0.999390827019,-1.179852220043E-15,
    3.48994967025E-02));
#1060 = ADVANCED_FACE('',(#1061),#1081,.T.);
#1061 = FACE_BOUND('',#1062,.T.);
#1062 = EDGE_LOOP('',(#1063,#1072,#1073,#1074));
#1063 = ORIENTED_EDGE('',*,*,#1064,.F.);
#1064 = EDGE_CURVE('',#637,#1065,#1067,.T.);
#1065 = VERTEX_POINT('',#1066);
#1066 = CARTESIAN_POINT('',(46.523576773389,-14.,-6.079911877556));
#1067 = CIRCLE('',#1068,1.);
#1068 = AXIS2_PLACEMENT_3D('',#1069,#1070,#1071);
#1069 = CARTESIAN_POINT('',(45.954091203908,-14.,-6.901913207332));
#1070 = DIRECTION('',(-0.822001329776,1.13E-15,0.569485569481));
#1071 = DIRECTION('',(-0.569485569481,4.6E-16,-0.822001329776));
#1072 = ORIENTED_EDGE('',*,*,#645,.T.);
#1073 = ORIENTED_EDGE('',*,*,#1012,.T.);
#1074 = ORIENTED_EDGE('',*,*,#1075,.F.);
#1075 = EDGE_CURVE('',#1065,#1013,#1076,.T.);
#1076 = CIRCLE('',#1077,3.85);
#1077 = AXIS2_PLACEMENT_3D('',#1078,#1079,#1080);
#1078 = CARTESIAN_POINT('',(44.331057330889,-14.,-9.244616997194));
#1079 = DIRECTION('',(1.19E-15,1.,-2.7E-16));
#1080 = DIRECTION('',(0.56948556948,-4.557474686423E-16,0.822001329776)
  );
#1081 = TOROIDAL_SURFACE('',#1082,2.85,1.);
#1082 = AXIS2_PLACEMENT_3D('',#1083,#1084,#1085);
#1083 = CARTESIAN_POINT('',(44.331057330889,-14.,-9.244616997194));
#1084 = DIRECTION('',(1.19E-15,1.,-2.7E-16));
#1085 = DIRECTION('',(0.56948556948,-4.557474686423E-16,0.822001329776)
  );
#1086 = ADVANCED_FACE('',(#1087),#1106,.T.);
#1087 = FACE_BOUND('',#1088,.F.);
#1088 = EDGE_LOOP('',(#1089,#1090,#1098,#1105));
#1089 = ORIENTED_EDGE('',*,*,#1040,.T.);
#1090 = ORIENTED_EDGE('',*,*,#1091,.T.);
#1091 = EDGE_CURVE('',#1041,#1092,#1094,.T.);
#1092 = VERTEX_POINT('',#1093);
#1093 = CARTESIAN_POINT('',(40.215125900187,-14.,-4.885605540584));
#1094 = LINE('',#1095,#1096);
#1095 = CARTESIAN_POINT('',(41.425684821425,-14.,-4.843331891539));
#1096 = VECTOR('',#1097,1.);
#1097 = DIRECTION('',(-0.999390827019,1.18E-15,-3.48994967025E-02));
#1098 = ORIENTED_EDGE('',*,*,#1099,.F.);
#1099 = EDGE_CURVE('',#550,#1092,#1100,.T.);
#1100 = CIRCLE('',#1101,1.);
#1101 = AXIS2_PLACEMENT_3D('',#1102,#1103,#1104);
#1102 = CARTESIAN_POINT('',(40.180226403484,-14.,-3.886214713565));
#1103 = DIRECTION('',(0.999390827019,-1.18E-15,3.48994967025E-02));
#1104 = DIRECTION('',(-1.190147689933E-15,-1.,2.699948425539E-16));
#1105 = ORIENTED_EDGE('',*,*,#549,.F.);
#1106 = CYLINDRICAL_SURFACE('',#1107,1.);
#1107 = AXIS2_PLACEMENT_3D('',#1108,#1109,#1110);
#1108 = CARTESIAN_POINT('',(41.390785324723,-14.,-3.84394106452));
#1109 = DIRECTION('',(-0.999390827019,1.18E-15,-3.48994967025E-02));
#1110 = DIRECTION('',(-1.190147689933E-15,-1.,2.699948425539E-16));
#1111 = ADVANCED_FACE('',(#1112),#1132,.T.);
#1112 = FACE_BOUND('',#1113,.T.);
#1113 = EDGE_LOOP('',(#1114,#1123,#1124,#1125));
#1114 = ORIENTED_EDGE('',*,*,#1115,.F.);
#1115 = EDGE_CURVE('',#629,#1116,#1118,.T.);
#1116 = VERTEX_POINT('',#1117);
#1117 = CARTESIAN_POINT('',(46.201147830235,-14.,-5.489585502751));
#1118 = CIRCLE('',#1119,1.);
#1119 = AXIS2_PLACEMENT_3D('',#1120,#1121,#1122);
#1120 = CARTESIAN_POINT('',(45.201757003216,-14.,-5.524484999453));
#1121 = DIRECTION('',(-3.489949670251E-02,3.1E-16,0.999390827019));
#1122 = DIRECTION('',(-1.189952329927E-15,-1.,2.686349077131E-16));
#1123 = ORIENTED_EDGE('',*,*,#636,.T.);
#1124 = ORIENTED_EDGE('',*,*,#1064,.T.);
#1125 = ORIENTED_EDGE('',*,*,#1126,.F.);
#1126 = EDGE_CURVE('',#1116,#1065,#1127,.T.);
#1127 = CIRCLE('',#1128,0.75);
#1128 = AXIS2_PLACEMENT_3D('',#1129,#1130,#1131);
#1129 = CARTESIAN_POINT('',(46.950690950499,-14.,-5.463410880224));
#1130 = DIRECTION('',(-1.19E-15,-1.,2.7E-16));
#1131 = DIRECTION('',(-0.999390827019,1.179852220043E-15,
    -3.489949670252E-02));
#1132 = TOROIDAL_SURFACE('',#1133,1.75,1.);
#1133 = AXIS2_PLACEMENT_3D('',#1134,#1135,#1136);
#1134 = CARTESIAN_POINT('',(46.950690950499,-14.,-5.463410880224));
#1135 = DIRECTION('',(-1.19E-15,-1.,2.7E-16));
#1136 = DIRECTION('',(-0.999390827019,1.179852220043E-15,
    -3.489949670252E-02));
#1137 = ADVANCED_FACE('',(#1138),#1158,.T.);
#1138 = FACE_BOUND('',#1139,.T.);
#1139 = EDGE_LOOP('',(#1140,#1141,#1142,#1151));
#1140 = ORIENTED_EDGE('',*,*,#1099,.F.);
#1141 = ORIENTED_EDGE('',*,*,#557,.T.);
#1142 = ORIENTED_EDGE('',*,*,#1143,.T.);
#1143 = EDGE_CURVE('',#558,#1144,#1146,.T.);
#1144 = VERTEX_POINT('',#1145);
#1145 = CARTESIAN_POINT('',(36.300662351155,-14.,-2.211065281119));
#1146 = CIRCLE('',#1147,1.);
#1147 = AXIS2_PLACEMENT_3D('',#1148,#1149,#1150);
#1148 = CARTESIAN_POINT('',(37.244378741711,-14.,-1.880309518966));
#1149 = DIRECTION('',(0.330755762153,-6.5E-16,-0.943716390555));
#1150 = DIRECTION('',(-0.943716390555,1.04E-15,-0.330755762153));
#1151 = ORIENTED_EDGE('',*,*,#1152,.F.);
#1152 = EDGE_CURVE('',#1092,#1144,#1153,.T.);
#1153 = CIRCLE('',#1154,4.);
#1154 = AXIS2_PLACEMENT_3D('',#1155,#1156,#1157);
#1155 = CARTESIAN_POINT('',(40.075527913376,-14.,-0.888042232508));
#1156 = DIRECTION('',(1.19E-15,1.,-2.7E-16));
#1157 = DIRECTION('',(3.489949670251E-02,-3.113659243711E-16,
    -0.999390827019));
#1158 = TOROIDAL_SURFACE('',#1159,3.,1.);
#1159 = AXIS2_PLACEMENT_3D('',#1160,#1161,#1162);
#1160 = CARTESIAN_POINT('',(40.075527913376,-14.,-0.888042232508));
#1161 = DIRECTION('',(1.19E-15,1.,-2.7E-16));
#1162 = DIRECTION('',(3.489949670251E-02,-3.113659243711E-16,
    -0.999390827019));
#1163 = ADVANCED_FACE('',(#1164),#1183,.T.);
#1164 = FACE_BOUND('',#1165,.F.);
#1165 = EDGE_LOOP('',(#1166,#1175,#1181,#1182));
#1166 = ORIENTED_EDGE('',*,*,#1167,.T.);
#1167 = EDGE_CURVE('',#620,#1168,#1170,.T.);
#1168 = VERTEX_POINT('',#1169);
#1169 = CARTESIAN_POINT('',(46.198965872293,-14.,-5.427102402467));
#1170 = CIRCLE('',#1171,1.);
#1171 = AXIS2_PLACEMENT_3D('',#1172,#1173,#1174);
#1172 = CARTESIAN_POINT('',(45.199575045274,-14.,-5.462001899169));
#1173 = DIRECTION('',(-3.489949670248E-02,3.1E-16,0.999390827019));
#1174 = DIRECTION('',(-0.999390827019,1.18E-15,-3.489949670248E-02));
#1175 = ORIENTED_EDGE('',*,*,#1176,.T.);
#1176 = EDGE_CURVE('',#1168,#1116,#1177,.T.);
#1177 = LINE('',#1178,#1179);
#1178 = CARTESIAN_POINT('',(46.198965872293,-14.,-5.427102402467));
#1179 = VECTOR('',#1180,1.);
#1180 = DIRECTION('',(3.489949670251E-02,-3.1E-16,-0.999390827019));
#1181 = ORIENTED_EDGE('',*,*,#1115,.F.);
#1182 = ORIENTED_EDGE('',*,*,#628,.F.);
#1183 = CYLINDRICAL_SURFACE('',#1184,1.);
#1184 = AXIS2_PLACEMENT_3D('',#1185,#1186,#1187);
#1185 = CARTESIAN_POINT('',(45.199575045274,-14.,-5.462001899169));
#1186 = DIRECTION('',(3.489949670251E-02,-3.1E-16,-0.999390827019));
#1187 = DIRECTION('',(-1.189952329927E-15,-1.,2.686349077131E-16));
#1188 = ADVANCED_FACE('',(#1189),#1201,.T.);
#1189 = FACE_BOUND('',#1190,.T.);
#1190 = EDGE_LOOP('',(#1191,#1192,#1193,#1194));
#1191 = ORIENTED_EDGE('',*,*,#1143,.F.);
#1192 = ORIENTED_EDGE('',*,*,#566,.T.);
#1193 = ORIENTED_EDGE('',*,*,#961,.T.);
#1194 = ORIENTED_EDGE('',*,*,#1195,.F.);
#1195 = EDGE_CURVE('',#1144,#698,#1196,.T.);
#1196 = CIRCLE('',#1197,12.8);
#1197 = AXIS2_PLACEMENT_3D('',#1198,#1199,#1200);
#1198 = CARTESIAN_POINT('',(24.221092552048,-14.,-6.444739036677));
#1199 = DIRECTION('',(-1.19E-15,-1.,2.7E-16));
#1200 = DIRECTION('',(0.943716390555,-1.033718448979E-15,0.330755762153)
  );
#1201 = TOROIDAL_SURFACE('',#1202,13.8,1.);
#1202 = AXIS2_PLACEMENT_3D('',#1203,#1204,#1205);
#1203 = CARTESIAN_POINT('',(24.221092552048,-14.,-6.444739036677));
#1204 = DIRECTION('',(-1.19E-15,-1.,2.7E-16));
#1205 = DIRECTION('',(0.943716390555,-1.033718448979E-15,0.330755762153)
  );
#1206 = ADVANCED_FACE('',(#1207),#1227,.T.);
#1207 = FACE_BOUND('',#1208,.T.);
#1208 = EDGE_LOOP('',(#1209,#1218,#1219,#1220));
#1209 = ORIENTED_EDGE('',*,*,#1210,.F.);
#1210 = EDGE_CURVE('',#612,#1211,#1213,.T.);
#1211 = VERTEX_POINT('',#1212);
#1212 = CARTESIAN_POINT('',(46.92233437003,-14.,-4.651384659676));
#1213 = CIRCLE('',#1214,1.);
#1214 = AXIS2_PLACEMENT_3D('',#1215,#1216,#1217);
#1215 = CARTESIAN_POINT('',(46.887434873328,-14.,-3.651993832656));
#1216 = DIRECTION('',(0.999390827019,-1.18E-15,3.48994967025E-02));
#1217 = DIRECTION('',(-1.190147689933E-15,-1.,2.699948425539E-16));
#1218 = ORIENTED_EDGE('',*,*,#619,.T.);
#1219 = ORIENTED_EDGE('',*,*,#1167,.T.);
#1220 = ORIENTED_EDGE('',*,*,#1221,.F.);
#1221 = EDGE_CURVE('',#1211,#1168,#1222,.T.);
#1222 = CIRCLE('',#1223,0.75);
#1223 = AXIS2_PLACEMENT_3D('',#1224,#1225,#1226);
#1224 = CARTESIAN_POINT('',(46.948508992557,-14.,-5.40092777994));
#1225 = DIRECTION('',(-1.19E-15,-1.,2.7E-16));
#1226 = DIRECTION('',(-3.489949670247E-02,3.113659243711E-16,
    0.999390827019));
#1227 = TOROIDAL_SURFACE('',#1228,1.75,1.);
#1228 = AXIS2_PLACEMENT_3D('',#1229,#1230,#1231);
#1229 = CARTESIAN_POINT('',(46.948508992557,-14.,-5.40092777994));
#1230 = DIRECTION('',(-1.19E-15,-1.,2.7E-16));
#1231 = DIRECTION('',(-3.489949670247E-02,3.113659243711E-16,
    0.999390827019));
#1232 = ADVANCED_FACE('',(#1233),#1252,.T.);
#1233 = FACE_BOUND('',#1234,.F.);
#1234 = EDGE_LOOP('',(#1235,#1244,#1250,#1251));
#1235 = ORIENTED_EDGE('',*,*,#1236,.T.);
#1236 = EDGE_CURVE('',#603,#1237,#1239,.T.);
#1237 = VERTEX_POINT('',#1238);
#1238 = CARTESIAN_POINT('',(50.21351788416,-14.,-4.536453998823));
#1239 = CIRCLE('',#1240,1.);
#1240 = AXIS2_PLACEMENT_3D('',#1241,#1242,#1243);
#1241 = CARTESIAN_POINT('',(50.178618130515,-14.,-3.537063180777));
#1242 = DIRECTION('',(0.999390818046,-1.18E-15,3.489975364572E-02));
#1243 = DIRECTION('',(3.489975364572E-02,-3.1E-16,-0.999390818046));
#1244 = ORIENTED_EDGE('',*,*,#1245,.T.);
#1245 = EDGE_CURVE('',#1237,#1211,#1246,.T.);
#1246 = LINE('',#1247,#1248);
#1247 = CARTESIAN_POINT('',(50.21351788416,-14.,-4.536453998824));
#1248 = VECTOR('',#1249,1.);
#1249 = DIRECTION('',(-0.999390827019,1.18E-15,-3.48994967025E-02));
#1250 = ORIENTED_EDGE('',*,*,#1210,.F.);
#1251 = ORIENTED_EDGE('',*,*,#611,.F.);
#1252 = CYLINDRICAL_SURFACE('',#1253,1.);
#1253 = AXIS2_PLACEMENT_3D('',#1254,#1255,#1256);
#1254 = CARTESIAN_POINT('',(50.178618387458,-14.,-3.537063171804));
#1255 = DIRECTION('',(-0.999390827019,1.18E-15,-3.48994967025E-02));
#1256 = DIRECTION('',(-1.190147689933E-15,-1.,2.699948425539E-16));
#1257 = ADVANCED_FACE('',(#1258),#1276,.T.);
#1258 = FACE_BOUND('',#1259,.T.);
#1259 = EDGE_LOOP('',(#1260,#1267,#1268,#1269));
#1260 = ORIENTED_EDGE('',*,*,#1261,.F.);
#1261 = EDGE_CURVE('',#595,#931,#1262,.T.);
#1262 = CIRCLE('',#1263,1.);
#1263 = AXIS2_PLACEMENT_3D('',#1264,#1265,#1266);
#1264 = CARTESIAN_POINT('',(50.822613373065,-14.,-0.401967840996));
#1265 = DIRECTION('',(-0.904708948704,1.19E-15,0.426030184535));
#1266 = DIRECTION('',(-1.188523697039E-15,-1.,2.693048044637E-16));
#1267 = ORIENTED_EDGE('',*,*,#602,.T.);
#1268 = ORIENTED_EDGE('',*,*,#1236,.T.);
#1269 = ORIENTED_EDGE('',*,*,#1270,.F.);
#1270 = EDGE_CURVE('',#931,#1237,#1271,.T.);
#1271 = CIRCLE('',#1272,2.64649741286);
#1272 = AXIS2_PLACEMENT_3D('',#1273,#1274,#1275);
#1273 = CARTESIAN_POINT('',(50.121155776427,-14.,-1.891568784428));
#1274 = DIRECTION('',(1.19E-15,1.,-2.7E-16));
#1275 = DIRECTION('',(0.426030184535,-2.62704503447E-16,0.904708948704)
  );
#1276 = TOROIDAL_SURFACE('',#1277,1.64649741286,1.);
#1277 = AXIS2_PLACEMENT_3D('',#1278,#1279,#1280);
#1278 = CARTESIAN_POINT('',(50.121155776427,-14.,-1.891568784428));
#1279 = DIRECTION('',(1.19E-15,1.,-2.7E-16));
#1280 = DIRECTION('',(0.426030184535,-2.62704503447E-16,0.904708948704)
  );
#1281 = ADVANCED_FACE('',(#1282),#1288,.T.);
#1282 = FACE_BOUND('',#1283,.F.);
#1283 = EDGE_LOOP('',(#1284,#1285,#1286,#1287));
#1284 = ORIENTED_EDGE('',*,*,#914,.T.);
#1285 = ORIENTED_EDGE('',*,*,#947,.T.);
#1286 = ORIENTED_EDGE('',*,*,#1261,.F.);
#1287 = ORIENTED_EDGE('',*,*,#594,.F.);
#1288 = CYLINDRICAL_SURFACE('',#1289,1.);
#1289 = AXIS2_PLACEMENT_3D('',#1290,#1291,#1292);
#1290 = CARTESIAN_POINT('',(31.378399652242,-14.,8.754371301548));
#1291 = DIRECTION('',(0.904708948704,-1.19E-15,-0.426030184535));
#1292 = DIRECTION('',(-1.188523697039E-15,-1.,2.693048044637E-16));
#1293 = ADVANCED_FACE('',(#1294),#1313,.F.);
#1294 = FACE_BOUND('',#1295,.T.);
#1295 = EDGE_LOOP('',(#1296,#1297,#1306,#1312));
#1296 = ORIENTED_EDGE('',*,*,#697,.T.);
#1297 = ORIENTED_EDGE('',*,*,#1298,.F.);
#1298 = EDGE_CURVE('',#1299,#700,#1301,.T.);
#1299 = VERTEX_POINT('',#1300);
#1300 = CARTESIAN_POINT('',(36.300662351155,14.,-2.211065281119));
#1301 = CIRCLE('',#1302,12.8);
#1302 = AXIS2_PLACEMENT_3D('',#1303,#1304,#1305);
#1303 = CARTESIAN_POINT('',(24.221092552048,14.,-6.444739036677));
#1304 = DIRECTION('',(-1.19E-15,-1.,2.7E-16));
#1305 = DIRECTION('',(0.943716390555,-1.033718448979E-15,0.330755762153)
  );
#1306 = ORIENTED_EDGE('',*,*,#1307,.F.);
#1307 = EDGE_CURVE('',#1144,#1299,#1308,.T.);
#1308 = LINE('',#1309,#1310);
#1309 = CARTESIAN_POINT('',(36.300662351155,-15.,-2.211065281119));
#1310 = VECTOR('',#1311,1.);
#1311 = DIRECTION('',(1.E-15,1.,-4.260301845353E-16));
#1312 = ORIENTED_EDGE('',*,*,#1195,.T.);
#1313 = CYLINDRICAL_SURFACE('',#1314,12.8);
#1314 = AXIS2_PLACEMENT_3D('',#1315,#1316,#1317);
#1315 = CARTESIAN_POINT('',(24.221092552048,-15.,-6.444739036677));
#1316 = DIRECTION('',(-1.E-15,-1.,4.260301845353E-16));
#1317 = DIRECTION('',(-0.426030184535,4.059686416827E-17,-0.904708948704
    ));
#1318 = ADVANCED_FACE('',(#1319),#1331,.T.);
#1319 = FACE_BOUND('',#1320,.F.);
#1320 = EDGE_LOOP('',(#1321,#1328,#1329,#1330));
#1321 = ORIENTED_EDGE('',*,*,#1322,.F.);
#1322 = EDGE_CURVE('',#792,#700,#1323,.T.);
#1323 = CIRCLE('',#1324,1.);
#1324 = AXIS2_PLACEMENT_3D('',#1325,#1326,#1327);
#1325 = CARTESIAN_POINT('',(11.165937865032,14.,-1.972274827978));
#1326 = DIRECTION('',(-0.324091609326,1.3E-16,-0.946025701958));
#1327 = DIRECTION('',(-0.946025701958,1.22E-15,0.324091609326));
#1328 = ORIENTED_EDGE('',*,*,#800,.T.);
#1329 = ORIENTED_EDGE('',*,*,#730,.T.);
#1330 = ORIENTED_EDGE('',*,*,#715,.F.);
#1331 = TOROIDAL_SURFACE('',#1332,3.,1.);
#1332 = AXIS2_PLACEMENT_3D('',#1333,#1334,#1335);
#1333 = CARTESIAN_POINT('',(8.327860759159,14.,-1.));
#1334 = DIRECTION('',(-1.19E-15,-1.,2.7E-16));
#1335 = DIRECTION('',(0.946025701958,-1.213275319848E-15,-0.324091609326
    ));
#1336 = ADVANCED_FACE('',(#1337),#1364,.T.);
#1337 = FACE_BOUND('',#1338,.T.);
#1338 = EDGE_LOOP('',(#1339,#1348,#1356,#1363));
#1339 = ORIENTED_EDGE('',*,*,#1340,.T.);
#1340 = EDGE_CURVE('',#756,#1341,#1343,.T.);
#1341 = VERTEX_POINT('',#1342);
#1342 = CARTESIAN_POINT('',(42.203584522158,14.,-5.629183489561));
#1343 = CIRCLE('',#1344,1.);
#1344 = AXIS2_PLACEMENT_3D('',#1345,#1346,#1347);
#1345 = CARTESIAN_POINT('',(43.202975349178,14.,-5.594283992858));
#1346 = DIRECTION('',(-3.48994967025E-02,3.1E-16,0.999390827019));
#1347 = DIRECTION('',(1.189952329927E-15,1.,-2.686349077131E-16));
#1348 = ORIENTED_EDGE('',*,*,#1349,.T.);
#1349 = EDGE_CURVE('',#1341,#1350,#1352,.T.);
#1350 = VERTEX_POINT('',#1351);
#1351 = CARTESIAN_POINT('',(42.201402564216,14.,-5.566700389277));
#1352 = LINE('',#1353,#1354);
#1353 = CARTESIAN_POINT('',(42.203584522158,14.,-5.629183489561));
#1354 = VECTOR('',#1355,1.);
#1355 = DIRECTION('',(-3.48994967025E-02,3.1E-16,0.999390827019));
#1356 = ORIENTED_EDGE('',*,*,#1357,.F.);
#1357 = EDGE_CURVE('',#758,#1350,#1358,.T.);
#1358 = CIRCLE('',#1359,1.);
#1359 = AXIS2_PLACEMENT_3D('',#1360,#1361,#1362);
#1360 = CARTESIAN_POINT('',(43.200793391235,14.,-5.531800892574));
#1361 = DIRECTION('',(-3.48994967025E-02,3.1E-16,0.999390827019));
#1362 = DIRECTION('',(1.189952329927E-15,1.,-2.686349077131E-16));
#1363 = ORIENTED_EDGE('',*,*,#755,.F.);
#1364 = CYLINDRICAL_SURFACE('',#1365,1.);
#1365 = AXIS2_PLACEMENT_3D('',#1366,#1367,#1368);
#1366 = CARTESIAN_POINT('',(43.202975349178,14.,-5.594283992858));
#1367 = DIRECTION('',(-3.48994967025E-02,3.1E-16,0.999390827019));
#1368 = DIRECTION('',(1.189952329927E-15,1.,-2.686349077131E-16));
#1369 = ADVANCED_FACE('',(#1370),#1390,.T.);
#1370 = FACE_BOUND('',#1371,.F.);
#1371 = EDGE_LOOP('',(#1372,#1381,#1382,#1383));
#1372 = ORIENTED_EDGE('',*,*,#1373,.F.);
#1373 = EDGE_CURVE('',#871,#1374,#1376,.T.);
#1374 = VERTEX_POINT('',#1375);
#1375 = CARTESIAN_POINT('',(41.923120085969,14.,-6.240563365094));
#1376 = CIRCLE('',#1377,1.);
#1377 = AXIS2_PLACEMENT_3D('',#1378,#1379,#1380);
#1378 = CARTESIAN_POINT('',(42.548558331403,14.,-7.020837035769));
#1379 = DIRECTION('',(0.780273670675,-7.6E-16,0.625438245434));
#1380 = DIRECTION('',(-0.625438245434,9.6E-16,0.780273670675));
#1381 = ORIENTED_EDGE('',*,*,#879,.T.);
#1382 = ORIENTED_EDGE('',*,*,#1340,.T.);
#1383 = ORIENTED_EDGE('',*,*,#1384,.F.);
#1384 = EDGE_CURVE('',#1374,#1341,#1385,.T.);
#1385 = CIRCLE('',#1386,0.75);
#1386 = AXIS2_PLACEMENT_3D('',#1387,#1388,#1389);
#1387 = CARTESIAN_POINT('',(41.454041401894,14.,-5.655358112088));
#1388 = DIRECTION('',(-1.19E-15,-1.,2.7E-16));
#1389 = DIRECTION('',(0.625438245434,-9.549454031483E-16,-0.780273670675
    ));
#1390 = TOROIDAL_SURFACE('',#1391,1.75,1.);
#1391 = AXIS2_PLACEMENT_3D('',#1392,#1393,#1394);
#1392 = CARTESIAN_POINT('',(41.454041401894,14.,-5.655358112088));
#1393 = DIRECTION('',(1.19E-15,1.,-2.7E-16));
#1394 = DIRECTION('',(0.625438245434,-9.549454031483E-16,-0.780273670675
    ));
#1395 = ADVANCED_FACE('',(#1396),#1416,.T.);
#1396 = FACE_BOUND('',#1397,.F.);
#1397 = EDGE_LOOP('',(#1398,#1399,#1400,#1409));
#1398 = ORIENTED_EDGE('',*,*,#1357,.F.);
#1399 = ORIENTED_EDGE('',*,*,#765,.T.);
#1400 = ORIENTED_EDGE('',*,*,#1401,.T.);
#1401 = EDGE_CURVE('',#766,#1402,#1404,.T.);
#1402 = VERTEX_POINT('',#1403);
#1403 = CARTESIAN_POINT('',(41.425684821425,14.,-4.843331891539));
#1404 = CIRCLE('',#1405,1.);
#1405 = AXIS2_PLACEMENT_3D('',#1406,#1407,#1408);
#1406 = CARTESIAN_POINT('',(41.390785324723,14.,-3.84394106452));
#1407 = DIRECTION('',(-0.999390827019,1.18E-15,-3.489949670251E-02));
#1408 = DIRECTION('',(-3.489949670251E-02,3.1E-16,0.999390827019));
#1409 = ORIENTED_EDGE('',*,*,#1410,.F.);
#1410 = EDGE_CURVE('',#1350,#1402,#1411,.T.);
#1411 = CIRCLE('',#1412,0.75);
#1412 = AXIS2_PLACEMENT_3D('',#1413,#1414,#1415);
#1413 = CARTESIAN_POINT('',(41.451859443952,14.,-5.592875011804));
#1414 = DIRECTION('',(-1.19E-15,-1.,2.7E-16));
#1415 = DIRECTION('',(0.999390827019,-1.179852220043E-15,
    3.489949670251E-02));
#1416 = TOROIDAL_SURFACE('',#1417,1.75,1.);
#1417 = AXIS2_PLACEMENT_3D('',#1418,#1419,#1420);
#1418 = CARTESIAN_POINT('',(41.451859443952,14.,-5.592875011804));
#1419 = DIRECTION('',(1.19E-15,1.,-2.7E-16));
#1420 = DIRECTION('',(0.999390827019,-1.179852220043E-15,
    3.489949670251E-02));
#1421 = ADVANCED_FACE('',(#1422),#1442,.T.);
#1422 = FACE_BOUND('',#1423,.F.);
#1423 = EDGE_LOOP('',(#1424,#1433,#1434,#1435));
#1424 = ORIENTED_EDGE('',*,*,#1425,.F.);
#1425 = EDGE_CURVE('',#862,#1426,#1428,.T.);
#1426 = VERTEX_POINT('',#1427);
#1427 = CARTESIAN_POINT('',(46.523576773389,14.,-6.079911877556));
#1428 = CIRCLE('',#1429,1.);
#1429 = AXIS2_PLACEMENT_3D('',#1430,#1431,#1432);
#1430 = CARTESIAN_POINT('',(45.954091203908,14.,-6.901913207332));
#1431 = DIRECTION('',(0.822001329776,-1.13E-15,-0.569485569481));
#1432 = DIRECTION('',(-0.569485569481,4.6E-16,-0.822001329776));
#1433 = ORIENTED_EDGE('',*,*,#870,.T.);
#1434 = ORIENTED_EDGE('',*,*,#1373,.T.);
#1435 = ORIENTED_EDGE('',*,*,#1436,.F.);
#1436 = EDGE_CURVE('',#1426,#1374,#1437,.T.);
#1437 = CIRCLE('',#1438,3.85);
#1438 = AXIS2_PLACEMENT_3D('',#1439,#1440,#1441);
#1439 = CARTESIAN_POINT('',(44.331057330889,14.,-9.244616997194));
#1440 = DIRECTION('',(1.19E-15,1.,-2.7E-16));
#1441 = DIRECTION('',(0.56948556948,-4.557474686423E-16,0.822001329776)
  );
#1442 = TOROIDAL_SURFACE('',#1443,2.85,1.);
#1443 = AXIS2_PLACEMENT_3D('',#1444,#1445,#1446);
#1444 = CARTESIAN_POINT('',(44.331057330889,14.,-9.244616997194));
#1445 = DIRECTION('',(-1.19E-15,-1.,2.7E-16));
#1446 = DIRECTION('',(0.56948556948,-4.557474686423E-16,0.822001329776)
  );
#1447 = ADVANCED_FACE('',(#1448),#1467,.T.);
#1448 = FACE_BOUND('',#1449,.T.);
#1449 = EDGE_LOOP('',(#1450,#1451,#1459,#1466));
#1450 = ORIENTED_EDGE('',*,*,#1401,.T.);
#1451 = ORIENTED_EDGE('',*,*,#1452,.T.);
#1452 = EDGE_CURVE('',#1402,#1453,#1455,.T.);
#1453 = VERTEX_POINT('',#1454);
#1454 = CARTESIAN_POINT('',(40.215125900187,14.,-4.885605540584));
#1455 = LINE('',#1456,#1457);
#1456 = CARTESIAN_POINT('',(41.425684821425,14.,-4.843331891539));
#1457 = VECTOR('',#1458,1.);
#1458 = DIRECTION('',(-0.999390827019,1.18E-15,-3.48994967025E-02));
#1459 = ORIENTED_EDGE('',*,*,#1460,.F.);
#1460 = EDGE_CURVE('',#775,#1453,#1461,.T.);
#1461 = CIRCLE('',#1462,1.);
#1462 = AXIS2_PLACEMENT_3D('',#1463,#1464,#1465);
#1463 = CARTESIAN_POINT('',(40.180226403484,14.,-3.886214713565));
#1464 = DIRECTION('',(-0.999390827019,1.18E-15,-3.48994967025E-02));
#1465 = DIRECTION('',(1.190147689933E-15,1.,-2.699948425539E-16));
#1466 = ORIENTED_EDGE('',*,*,#774,.F.);
#1467 = CYLINDRICAL_SURFACE('',#1468,1.);
#1468 = AXIS2_PLACEMENT_3D('',#1469,#1470,#1471);
#1469 = CARTESIAN_POINT('',(41.390785324723,14.,-3.84394106452));
#1470 = DIRECTION('',(-0.999390827019,1.18E-15,-3.48994967025E-02));
#1471 = DIRECTION('',(1.190147689933E-15,1.,-2.699948425539E-16));
#1472 = ADVANCED_FACE('',(#1473),#1493,.T.);
#1473 = FACE_BOUND('',#1474,.F.);
#1474 = EDGE_LOOP('',(#1475,#1484,#1485,#1486));
#1475 = ORIENTED_EDGE('',*,*,#1476,.F.);
#1476 = EDGE_CURVE('',#854,#1477,#1479,.T.);
#1477 = VERTEX_POINT('',#1478);
#1478 = CARTESIAN_POINT('',(46.201147830235,14.,-5.489585502751));
#1479 = CIRCLE('',#1480,1.);
#1480 = AXIS2_PLACEMENT_3D('',#1481,#1482,#1483);
#1481 = CARTESIAN_POINT('',(45.201757003216,14.,-5.524484999453));
#1482 = DIRECTION('',(3.489949670251E-02,-3.1E-16,-0.999390827019));
#1483 = DIRECTION('',(1.189952329927E-15,1.,-2.686349077131E-16));
#1484 = ORIENTED_EDGE('',*,*,#861,.T.);
#1485 = ORIENTED_EDGE('',*,*,#1425,.T.);
#1486 = ORIENTED_EDGE('',*,*,#1487,.F.);
#1487 = EDGE_CURVE('',#1477,#1426,#1488,.T.);
#1488 = CIRCLE('',#1489,0.75);
#1489 = AXIS2_PLACEMENT_3D('',#1490,#1491,#1492);
#1490 = CARTESIAN_POINT('',(46.950690950499,14.,-5.463410880224));
#1491 = DIRECTION('',(-1.19E-15,-1.,2.7E-16));
#1492 = DIRECTION('',(-0.999390827019,1.179852220043E-15,
    -3.489949670252E-02));
#1493 = TOROIDAL_SURFACE('',#1494,1.75,1.);
#1494 = AXIS2_PLACEMENT_3D('',#1495,#1496,#1497);
#1495 = CARTESIAN_POINT('',(46.950690950499,14.,-5.463410880224));
#1496 = DIRECTION('',(1.19E-15,1.,-2.7E-16));
#1497 = DIRECTION('',(-0.999390827019,1.179852220043E-15,
    -3.489949670252E-02));
#1498 = ADVANCED_FACE('',(#1499),#1517,.T.);
#1499 = FACE_BOUND('',#1500,.F.);
#1500 = EDGE_LOOP('',(#1501,#1502,#1503,#1510));
#1501 = ORIENTED_EDGE('',*,*,#1460,.F.);
#1502 = ORIENTED_EDGE('',*,*,#782,.T.);
#1503 = ORIENTED_EDGE('',*,*,#1504,.T.);
#1504 = EDGE_CURVE('',#783,#1299,#1505,.T.);
#1505 = CIRCLE('',#1506,1.);
#1506 = AXIS2_PLACEMENT_3D('',#1507,#1508,#1509);
#1507 = CARTESIAN_POINT('',(37.244378741711,14.,-1.880309518966));
#1508 = DIRECTION('',(-0.330755762153,6.5E-16,0.943716390555));
#1509 = DIRECTION('',(-0.943716390555,1.04E-15,-0.330755762153));
#1510 = ORIENTED_EDGE('',*,*,#1511,.F.);
#1511 = EDGE_CURVE('',#1453,#1299,#1512,.T.);
#1512 = CIRCLE('',#1513,4.);
#1513 = AXIS2_PLACEMENT_3D('',#1514,#1515,#1516);
#1514 = CARTESIAN_POINT('',(40.075527913377,14.,-0.888042232508));
#1515 = DIRECTION('',(1.19E-15,1.,-2.7E-16));
#1516 = DIRECTION('',(3.489949670251E-02,-3.113659243711E-16,
    -0.999390827019));
#1517 = TOROIDAL_SURFACE('',#1518,3.,1.);
#1518 = AXIS2_PLACEMENT_3D('',#1519,#1520,#1521);
#1519 = CARTESIAN_POINT('',(40.075527913377,14.,-0.888042232508));
#1520 = DIRECTION('',(-1.19E-15,-1.,2.7E-16));
#1521 = DIRECTION('',(3.489949670251E-02,-3.113659243711E-16,
    -0.999390827019));
#1522 = ADVANCED_FACE('',(#1523),#1542,.T.);
#1523 = FACE_BOUND('',#1524,.T.);
#1524 = EDGE_LOOP('',(#1525,#1534,#1540,#1541));
#1525 = ORIENTED_EDGE('',*,*,#1526,.T.);
#1526 = EDGE_CURVE('',#845,#1527,#1529,.T.);
#1527 = VERTEX_POINT('',#1528);
#1528 = CARTESIAN_POINT('',(46.198965872293,14.,-5.427102402467));
#1529 = CIRCLE('',#1530,1.);
#1530 = AXIS2_PLACEMENT_3D('',#1531,#1532,#1533);
#1531 = CARTESIAN_POINT('',(45.199575045274,14.,-5.462001899169));
#1532 = DIRECTION('',(3.489949670247E-02,-3.1E-16,-0.999390827019));
#1533 = DIRECTION('',(-0.999390827019,1.18E-15,-3.489949670247E-02));
#1534 = ORIENTED_EDGE('',*,*,#1535,.T.);
#1535 = EDGE_CURVE('',#1527,#1477,#1536,.T.);
#1536 = LINE('',#1537,#1538);
#1537 = CARTESIAN_POINT('',(46.198965872293,14.,-5.427102402467));
#1538 = VECTOR('',#1539,1.);
#1539 = DIRECTION('',(3.489949670251E-02,-3.1E-16,-0.999390827019));
#1540 = ORIENTED_EDGE('',*,*,#1476,.F.);
#1541 = ORIENTED_EDGE('',*,*,#853,.F.);
#1542 = CYLINDRICAL_SURFACE('',#1543,1.);
#1543 = AXIS2_PLACEMENT_3D('',#1544,#1545,#1546);
#1544 = CARTESIAN_POINT('',(45.199575045274,14.,-5.462001899169));
#1545 = DIRECTION('',(3.489949670251E-02,-3.1E-16,-0.999390827019));
#1546 = DIRECTION('',(1.189952329927E-15,1.,-2.686349077131E-16));
#1547 = ADVANCED_FACE('',(#1548),#1554,.T.);
#1548 = FACE_BOUND('',#1549,.F.);
#1549 = EDGE_LOOP('',(#1550,#1551,#1552,#1553));
#1550 = ORIENTED_EDGE('',*,*,#1504,.F.);
#1551 = ORIENTED_EDGE('',*,*,#791,.T.);
#1552 = ORIENTED_EDGE('',*,*,#1322,.T.);
#1553 = ORIENTED_EDGE('',*,*,#1298,.F.);
#1554 = TOROIDAL_SURFACE('',#1555,13.8,1.);
#1555 = AXIS2_PLACEMENT_3D('',#1556,#1557,#1558);
#1556 = CARTESIAN_POINT('',(24.221092552048,14.,-6.444739036677));
#1557 = DIRECTION('',(1.19E-15,1.,-2.7E-16));
#1558 = DIRECTION('',(0.943716390555,-1.033718448979E-15,0.330755762153)
  );
#1559 = ADVANCED_FACE('',(#1560),#1580,.T.);
#1560 = FACE_BOUND('',#1561,.F.);
#1561 = EDGE_LOOP('',(#1562,#1571,#1572,#1573));
#1562 = ORIENTED_EDGE('',*,*,#1563,.F.);
#1563 = EDGE_CURVE('',#837,#1564,#1566,.T.);
#1564 = VERTEX_POINT('',#1565);
#1565 = CARTESIAN_POINT('',(46.92233437003,14.,-4.651384659676));
#1566 = CIRCLE('',#1567,1.);
#1567 = AXIS2_PLACEMENT_3D('',#1568,#1569,#1570);
#1568 = CARTESIAN_POINT('',(46.887434873328,14.,-3.651993832656));
#1569 = DIRECTION('',(-0.999390827019,1.18E-15,-3.48994967025E-02));
#1570 = DIRECTION('',(1.190147689933E-15,1.,-2.699948425539E-16));
#1571 = ORIENTED_EDGE('',*,*,#844,.T.);
#1572 = ORIENTED_EDGE('',*,*,#1526,.T.);
#1573 = ORIENTED_EDGE('',*,*,#1574,.F.);
#1574 = EDGE_CURVE('',#1564,#1527,#1575,.T.);
#1575 = CIRCLE('',#1576,0.75);
#1576 = AXIS2_PLACEMENT_3D('',#1577,#1578,#1579);
#1577 = CARTESIAN_POINT('',(46.948508992557,14.,-5.40092777994));
#1578 = DIRECTION('',(-1.19E-15,-1.,2.7E-16));
#1579 = DIRECTION('',(-3.489949670246E-02,3.113659243711E-16,
    0.999390827019));
#1580 = TOROIDAL_SURFACE('',#1581,1.75,1.);
#1581 = AXIS2_PLACEMENT_3D('',#1582,#1583,#1584);
#1582 = CARTESIAN_POINT('',(46.948508992557,14.,-5.40092777994));
#1583 = DIRECTION('',(1.19E-15,1.,-2.7E-16));
#1584 = DIRECTION('',(-3.489949670246E-02,3.113659243711E-16,
    0.999390827019));
#1585 = ADVANCED_FACE('',(#1586),#1605,.T.);
#1586 = FACE_BOUND('',#1587,.T.);
#1587 = EDGE_LOOP('',(#1588,#1597,#1603,#1604));
#1588 = ORIENTED_EDGE('',*,*,#1589,.T.);
#1589 = EDGE_CURVE('',#828,#1590,#1592,.T.);
#1590 = VERTEX_POINT('',#1591);
#1591 = CARTESIAN_POINT('',(50.21351788416,14.,-4.536453998823));
#1592 = CIRCLE('',#1593,1.);
#1593 = AXIS2_PLACEMENT_3D('',#1594,#1595,#1596);
#1594 = CARTESIAN_POINT('',(50.178618130515,14.,-3.537063180777));
#1595 = DIRECTION('',(-0.999390818046,1.18E-15,-3.489975364572E-02));
#1596 = DIRECTION('',(3.489975364572E-02,-3.1E-16,-0.999390818046));
#1597 = ORIENTED_EDGE('',*,*,#1598,.T.);
#1598 = EDGE_CURVE('',#1590,#1564,#1599,.T.);
#1599 = LINE('',#1600,#1601);
#1600 = CARTESIAN_POINT('',(50.21351788416,14.,-4.536453998824));
#1601 = VECTOR('',#1602,1.);
#1602 = DIRECTION('',(-0.999390827019,1.18E-15,-3.48994967025E-02));
#1603 = ORIENTED_EDGE('',*,*,#1563,.F.);
#1604 = ORIENTED_EDGE('',*,*,#836,.F.);
#1605 = CYLINDRICAL_SURFACE('',#1606,1.);
#1606 = AXIS2_PLACEMENT_3D('',#1607,#1608,#1609);
#1607 = CARTESIAN_POINT('',(50.178618387458,14.,-3.537063171804));
#1608 = DIRECTION('',(-0.999390827019,1.18E-15,-3.48994967025E-02));
#1609 = DIRECTION('',(1.190147689933E-15,1.,-2.699948425539E-16));
#1610 = ADVANCED_FACE('',(#1611),#1629,.T.);
#1611 = FACE_BOUND('',#1612,.F.);
#1612 = EDGE_LOOP('',(#1613,#1620,#1621,#1622));
#1613 = ORIENTED_EDGE('',*,*,#1614,.F.);
#1614 = EDGE_CURVE('',#820,#933,#1615,.T.);
#1615 = CIRCLE('',#1616,1.);
#1616 = AXIS2_PLACEMENT_3D('',#1617,#1618,#1619);
#1617 = CARTESIAN_POINT('',(50.822613373065,14.,-0.401967840996));
#1618 = DIRECTION('',(0.904708948704,-1.19E-15,-0.426030184535));
#1619 = DIRECTION('',(1.188523697039E-15,1.,-2.693048044637E-16));
#1620 = ORIENTED_EDGE('',*,*,#827,.T.);
#1621 = ORIENTED_EDGE('',*,*,#1589,.T.);
#1622 = ORIENTED_EDGE('',*,*,#1623,.F.);
#1623 = EDGE_CURVE('',#933,#1590,#1624,.T.);
#1624 = CIRCLE('',#1625,2.64649741286);
#1625 = AXIS2_PLACEMENT_3D('',#1626,#1627,#1628);
#1626 = CARTESIAN_POINT('',(50.121155776427,14.,-1.891568784428));
#1627 = DIRECTION('',(1.19E-15,1.,-2.7E-16));
#1628 = DIRECTION('',(0.426030184535,-2.62704503447E-16,0.904708948704)
  );
#1629 = TOROIDAL_SURFACE('',#1630,1.64649741286,1.);
#1630 = AXIS2_PLACEMENT_3D('',#1631,#1632,#1633);
#1631 = CARTESIAN_POINT('',(50.121155776427,14.,-1.891568784428));
#1632 = DIRECTION('',(-1.19E-15,-1.,2.7E-16));
#1633 = DIRECTION('',(0.426030184535,-2.62704503447E-16,0.904708948704)
  );
#1634 = ADVANCED_FACE('',(#1635),#1641,.T.);
#1635 = FACE_BOUND('',#1636,.T.);
#1636 = EDGE_LOOP('',(#1637,#1638,#1639,#1640));
#1637 = ORIENTED_EDGE('',*,*,#896,.T.);
#1638 = ORIENTED_EDGE('',*,*,#940,.T.);
#1639 = ORIENTED_EDGE('',*,*,#1614,.F.);
#1640 = ORIENTED_EDGE('',*,*,#819,.F.);
#1641 = CYLINDRICAL_SURFACE('',#1642,1.);
#1642 = AXIS2_PLACEMENT_3D('',#1643,#1644,#1645);
#1643 = CARTESIAN_POINT('',(31.378399652242,14.,8.754371301548));
#1644 = DIRECTION('',(0.904708948704,-1.19E-15,-0.426030184535));
#1645 = DIRECTION('',(1.188523697039E-15,1.,-2.693048044637E-16));
#1646 = ADVANCED_FACE('',(#1647),#1658,.T.);
#1647 = FACE_BOUND('',#1648,.F.);
#1648 = EDGE_LOOP('',(#1649,#1650,#1651,#1657));
#1649 = ORIENTED_EDGE('',*,*,#930,.T.);
#1650 = ORIENTED_EDGE('',*,*,#1623,.T.);
#1651 = ORIENTED_EDGE('',*,*,#1652,.F.);
#1652 = EDGE_CURVE('',#1237,#1590,#1653,.T.);
#1653 = LINE('',#1654,#1655);
#1654 = CARTESIAN_POINT('',(50.21351788416,-15.,-4.536453998823));
#1655 = VECTOR('',#1656,1.);
#1656 = DIRECTION('',(1.E-15,1.,-4.260301845353E-16));
#1657 = ORIENTED_EDGE('',*,*,#1270,.F.);
#1658 = CYLINDRICAL_SURFACE('',#1659,2.64649741286);
#1659 = AXIS2_PLACEMENT_3D('',#1660,#1661,#1662);
#1660 = CARTESIAN_POINT('',(50.121155776427,-15.,-1.891568784428));
#1661 = DIRECTION('',(-1.E-15,-1.,4.260301845353E-16));
#1662 = DIRECTION('',(-0.426030184535,4.059686416827E-17,-0.904708948704
    ));
#1663 = ADVANCED_FACE('',(#1664),#1680,.F.);
#1664 = FACE_BOUND('',#1665,.F.);
#1665 = EDGE_LOOP('',(#1666,#1672,#1673,#1679));
#1666 = ORIENTED_EDGE('',*,*,#1667,.T.);
#1667 = EDGE_CURVE('',#980,#1341,#1668,.T.);
#1668 = LINE('',#1669,#1670);
#1669 = CARTESIAN_POINT('',(42.203584522158,-15.,-5.629183489561));
#1670 = VECTOR('',#1671,1.);
#1671 = DIRECTION('',(1.E-15,1.,-4.260301845353E-16));
#1672 = ORIENTED_EDGE('',*,*,#1349,.T.);
#1673 = ORIENTED_EDGE('',*,*,#1674,.F.);
#1674 = EDGE_CURVE('',#989,#1350,#1675,.T.);
#1675 = LINE('',#1676,#1677);
#1676 = CARTESIAN_POINT('',(42.201402564216,-15.,-5.566700389277));
#1677 = VECTOR('',#1678,1.);
#1678 = DIRECTION('',(1.E-15,1.,-4.260301845353E-16));
#1679 = ORIENTED_EDGE('',*,*,#988,.F.);
#1680 = PLANE('',#1681);
#1681 = AXIS2_PLACEMENT_3D('',#1682,#1683,#1684);
#1682 = CARTESIAN_POINT('',(42.217464819213,-15.,-6.026663191654));
#1683 = DIRECTION('',(0.999390827019,-9.845225879987E-16,
    3.48994967025E-02));
#1684 = DIRECTION('',(-3.48994967025E-02,4.606701551604E-16,
    0.999390827019));
#1685 = ADVANCED_FACE('',(#1686),#1697,.F.);
#1686 = FACE_BOUND('',#1687,.F.);
#1687 = EDGE_LOOP('',(#1688,#1689,#1690,#1696));
#1688 = ORIENTED_EDGE('',*,*,#1667,.F.);
#1689 = ORIENTED_EDGE('',*,*,#1023,.F.);
#1690 = ORIENTED_EDGE('',*,*,#1691,.T.);
#1691 = EDGE_CURVE('',#1013,#1374,#1692,.T.);
#1692 = LINE('',#1693,#1694);
#1693 = CARTESIAN_POINT('',(41.923120085969,-15.,-6.240563365094));
#1694 = VECTOR('',#1695,1.);
#1695 = DIRECTION('',(1.E-15,1.,-4.260301845353E-16));
#1696 = ORIENTED_EDGE('',*,*,#1384,.T.);
#1697 = CYLINDRICAL_SURFACE('',#1698,0.75);
#1698 = AXIS2_PLACEMENT_3D('',#1699,#1700,#1701);
#1699 = CARTESIAN_POINT('',(41.454041401894,-15.,-5.655358112088));
#1700 = DIRECTION('',(1.E-15,1.,-4.260301845353E-16));
#1701 = DIRECTION('',(0.999390827019,-9.845225879987E-16,
    3.48994967025E-02));
#1702 = ADVANCED_FACE('',(#1703),#1714,.F.);
#1703 = FACE_BOUND('',#1704,.F.);
#1704 = EDGE_LOOP('',(#1705,#1711,#1712,#1713));
#1705 = ORIENTED_EDGE('',*,*,#1706,.F.);
#1706 = EDGE_CURVE('',#1041,#1402,#1707,.T.);
#1707 = LINE('',#1708,#1709);
#1708 = CARTESIAN_POINT('',(41.425684821425,-15.,-4.843331891539));
#1709 = VECTOR('',#1710,1.);
#1710 = DIRECTION('',(1.E-15,1.,-4.260301845353E-16));
#1711 = ORIENTED_EDGE('',*,*,#1049,.F.);
#1712 = ORIENTED_EDGE('',*,*,#1674,.T.);
#1713 = ORIENTED_EDGE('',*,*,#1410,.T.);
#1714 = CYLINDRICAL_SURFACE('',#1715,0.75);
#1715 = AXIS2_PLACEMENT_3D('',#1716,#1717,#1718);
#1716 = CARTESIAN_POINT('',(41.451859443952,-15.,-5.592875011804));
#1717 = DIRECTION('',(1.E-15,1.,-4.260301845353E-16));
#1718 = DIRECTION('',(-3.48994967025E-02,4.606701551604E-16,
    0.999390827019));
#1719 = ADVANCED_FACE('',(#1720),#1731,.T.);
#1720 = FACE_BOUND('',#1721,.F.);
#1721 = EDGE_LOOP('',(#1722,#1728,#1729,#1730));
#1722 = ORIENTED_EDGE('',*,*,#1723,.T.);
#1723 = EDGE_CURVE('',#1065,#1426,#1724,.T.);
#1724 = LINE('',#1725,#1726);
#1725 = CARTESIAN_POINT('',(46.523576773389,-15.,-6.079911877556));
#1726 = VECTOR('',#1727,1.);
#1727 = DIRECTION('',(1.E-15,1.,-4.260301845353E-16));
#1728 = ORIENTED_EDGE('',*,*,#1436,.T.);
#1729 = ORIENTED_EDGE('',*,*,#1691,.F.);
#1730 = ORIENTED_EDGE('',*,*,#1075,.F.);
#1731 = CYLINDRICAL_SURFACE('',#1732,3.85);
#1732 = AXIS2_PLACEMENT_3D('',#1733,#1734,#1735);
#1733 = CARTESIAN_POINT('',(44.331057330889,-15.,-9.244616997194));
#1734 = DIRECTION('',(-1.E-15,-1.,4.260301845353E-16));
#1735 = DIRECTION('',(-0.426030184535,4.059686416827E-17,-0.904708948704
    ));
#1736 = ADVANCED_FACE('',(#1737),#1748,.F.);
#1737 = FACE_BOUND('',#1738,.F.);
#1738 = EDGE_LOOP('',(#1739,#1740,#1741,#1747));
#1739 = ORIENTED_EDGE('',*,*,#1706,.T.);
#1740 = ORIENTED_EDGE('',*,*,#1452,.T.);
#1741 = ORIENTED_EDGE('',*,*,#1742,.F.);
#1742 = EDGE_CURVE('',#1092,#1453,#1743,.T.);
#1743 = LINE('',#1744,#1745);
#1744 = CARTESIAN_POINT('',(40.215125900187,-15.,-4.885605540584));
#1745 = VECTOR('',#1746,1.);
#1746 = DIRECTION('',(1.E-15,1.,-4.260301845353E-16));
#1747 = ORIENTED_EDGE('',*,*,#1091,.F.);
#1748 = PLANE('',#1749);
#1749 = AXIS2_PLACEMENT_3D('',#1750,#1751,#1752);
#1750 = CARTESIAN_POINT('',(42.175227941689,-15.,-4.817157269012));
#1751 = DIRECTION('',(-3.48994967025E-02,4.606701551604E-16,
    0.999390827019));
#1752 = DIRECTION('',(-0.999390827019,9.845225879987E-16,
    -3.48994967025E-02));
#1753 = ADVANCED_FACE('',(#1754),#1765,.F.);
#1754 = FACE_BOUND('',#1755,.F.);
#1755 = EDGE_LOOP('',(#1756,#1757,#1758,#1764));
#1756 = ORIENTED_EDGE('',*,*,#1723,.F.);
#1757 = ORIENTED_EDGE('',*,*,#1126,.F.);
#1758 = ORIENTED_EDGE('',*,*,#1759,.T.);
#1759 = EDGE_CURVE('',#1116,#1477,#1760,.T.);
#1760 = LINE('',#1761,#1762);
#1761 = CARTESIAN_POINT('',(46.201147830235,-15.,-5.489585502751));
#1762 = VECTOR('',#1763,1.);
#1763 = DIRECTION('',(1.E-15,1.,-4.260301845353E-16));
#1764 = ORIENTED_EDGE('',*,*,#1487,.T.);
#1765 = CYLINDRICAL_SURFACE('',#1766,0.75);
#1766 = AXIS2_PLACEMENT_3D('',#1767,#1768,#1769);
#1767 = CARTESIAN_POINT('',(46.950690950499,-15.,-5.463410880224));
#1768 = DIRECTION('',(1.E-15,1.,-4.260301845353E-16));
#1769 = DIRECTION('',(-0.569485569481,2.192881912678E-16,-0.822001329776
    ));
#1770 = ADVANCED_FACE('',(#1771),#1777,.T.);
#1771 = FACE_BOUND('',#1772,.F.);
#1772 = EDGE_LOOP('',(#1773,#1774,#1775,#1776));
#1773 = ORIENTED_EDGE('',*,*,#1307,.F.);
#1774 = ORIENTED_EDGE('',*,*,#1152,.F.);
#1775 = ORIENTED_EDGE('',*,*,#1742,.T.);
#1776 = ORIENTED_EDGE('',*,*,#1511,.T.);
#1777 = CYLINDRICAL_SURFACE('',#1778,4.);
#1778 = AXIS2_PLACEMENT_3D('',#1779,#1780,#1781);
#1779 = CARTESIAN_POINT('',(40.075527913377,-15.,-0.888042232508));
#1780 = DIRECTION('',(1.E-15,1.,-4.260301845353E-16));
#1781 = DIRECTION('',(-0.943716390555,8.028044521691E-16,-0.330755762153
    ));
#1782 = ADVANCED_FACE('',(#1783),#1794,.F.);
#1783 = FACE_BOUND('',#1784,.F.);
#1784 = EDGE_LOOP('',(#1785,#1786,#1787,#1793));
#1785 = ORIENTED_EDGE('',*,*,#1759,.F.);
#1786 = ORIENTED_EDGE('',*,*,#1176,.F.);
#1787 = ORIENTED_EDGE('',*,*,#1788,.T.);
#1788 = EDGE_CURVE('',#1168,#1527,#1789,.T.);
#1789 = LINE('',#1790,#1791);
#1790 = CARTESIAN_POINT('',(46.198965872293,-15.,-5.427102402467));
#1791 = VECTOR('',#1792,1.);
#1792 = DIRECTION('',(1.E-15,1.,-4.260301845353E-16));
#1793 = ORIENTED_EDGE('',*,*,#1535,.T.);
#1794 = PLANE('',#1795);
#1795 = AXIS2_PLACEMENT_3D('',#1796,#1797,#1798);
#1796 = CARTESIAN_POINT('',(46.172791249766,-15.,-4.677559282202));
#1797 = DIRECTION('',(-0.999390827019,9.845225879987E-16,
    -3.489949670251E-02));
#1798 = DIRECTION('',(3.489949670251E-02,-4.606701551604E-16,
    -0.999390827019));
#1799 = ADVANCED_FACE('',(#1800),#1811,.F.);
#1800 = FACE_BOUND('',#1801,.F.);
#1801 = EDGE_LOOP('',(#1802,#1803,#1804,#1810));
#1802 = ORIENTED_EDGE('',*,*,#1788,.F.);
#1803 = ORIENTED_EDGE('',*,*,#1221,.F.);
#1804 = ORIENTED_EDGE('',*,*,#1805,.T.);
#1805 = EDGE_CURVE('',#1211,#1564,#1806,.T.);
#1806 = LINE('',#1807,#1808);
#1807 = CARTESIAN_POINT('',(46.92233437003,-15.,-4.651384659676));
#1808 = VECTOR('',#1809,1.);
#1809 = DIRECTION('',(1.E-15,1.,-4.260301845353E-16));
#1810 = ORIENTED_EDGE('',*,*,#1574,.T.);
#1811 = CYLINDRICAL_SURFACE('',#1812,0.75);
#1812 = AXIS2_PLACEMENT_3D('',#1813,#1814,#1815);
#1813 = CARTESIAN_POINT('',(46.948508992557,-15.,-5.40092777994));
#1814 = DIRECTION('',(1.E-15,1.,-4.260301845353E-16));
#1815 = DIRECTION('',(-0.999390827019,9.845225879987E-16,
    -3.489949670251E-02));
#1816 = ADVANCED_FACE('',(#1817),#1823,.F.);
#1817 = FACE_BOUND('',#1818,.F.);
#1818 = EDGE_LOOP('',(#1819,#1820,#1821,#1822));
#1819 = ORIENTED_EDGE('',*,*,#1805,.F.);
#1820 = ORIENTED_EDGE('',*,*,#1245,.F.);
#1821 = ORIENTED_EDGE('',*,*,#1652,.T.);
#1822 = ORIENTED_EDGE('',*,*,#1598,.T.);
#1823 = PLANE('',#1824);
#1824 = AXIS2_PLACEMENT_3D('',#1825,#1826,#1827);
#1825 = CARTESIAN_POINT('',(50.21351788416,-15.,-4.536453998824));
#1826 = DIRECTION('',(-3.48994967025E-02,4.606701551604E-16,
    0.999390827019));
#1827 = DIRECTION('',(-0.999390827019,9.845225879987E-16,
    -3.48994967025E-02));
#1828 = ( GEOMETRIC_REPRESENTATION_CONTEXT(3) 
GLOBAL_UNCERTAINTY_ASSIGNED_CONTEXT((#1832)) 
GLOBAL_UNIT_ASSIGNED_CONTEXT((#1829,#1830,#1831)) REPRESENTATION_CONTEXT
('Context #1','3D Context with UNIT and UNCERTAINTY') );
#1829 = ( LENGTH_UNIT() NAMED_UNIT(*) SI_UNIT(.MILLI.,.METRE.) );
#1830 = ( NAMED_UNIT(*) PLANE_ANGLE_UNIT() SI_UNIT($,.RADIAN.) );
#1831 = ( NAMED_UNIT(*) SI_UNIT($,.STERADIAN.) SOLID_ANGLE_UNIT() );
#1832 = UNCERTAINTY_MEASURE_WITH_UNIT(LENGTH_MEASURE(5.E-06),#1829,
  'distance_accuracy_value','confusion accuracy');
#1833 = PRODUCT_RELATED_PRODUCT_CATEGORY('part',$,(#7));
#1834 = MECHANICAL_DESIGN_GEOMETRIC_PRESENTATION_REPRESENTATION('',(
    #1835),#1828);
#1835 = STYLED_ITEM('color',(#1836),#15);
#1836 = PRESENTATION_STYLE_ASSIGNMENT((#1837,#1843));
#1837 = SURFACE_STYLE_USAGE(.BOTH.,#1838);
#1838 = SURFACE_SIDE_STYLE('',(#1839));
#1839 = SURFACE_STYLE_FILL_AREA(#1840);
#1840 = FILL_AREA_STYLE('',(#1841));
#1841 = FILL_AREA_STYLE_COLOUR('',#1842);
#1842 = COLOUR_RGB('',0.447058818107,0.474509808674,0.501960817233);
#1843 = CURVE_STYLE('',#1844,POSITIVE_LENGTH_MEASURE(0.1),#1845);
#1844 = DRAUGHTING_PRE_DEFINED_CURVE_FONT('continuous');
#1845 = COLOUR_RGB('',9.803921802644E-02,9.803921802644E-02,
  9.803921802644E-02);
ENDSEC;
END-ISO-10303-21;
