ISO-10303-21;
HEADER;
FILE_DESCRIPTION(('FreeCAD Model'),'2;1');
FILE_NAME('Open CASCADE Shape Model','2026-09-02T19:49:41',(''),(''),
  'Open CASCADE STEP processor 7.8','FreeCAD','Unknown');
FILE_SCHEMA(('AUTOMOTIVE_DESIGN { 1 0 10303 214 1 1 1 1 }'));
ENDSEC;
DATA;
#1 = APPLICATION_PROTOCOL_DEFINITION('international standard',
  'automotive_design',2000,#2);
#2 = APPLICATION_CONTEXT(
  'core data for automotive mechanical design processes');
#3 = SHAPE_DEFINITION_REPRESENTATION(#4,#10);
#4 = PRODUCT_DEFINITION_SHAPE('','',#5);
#5 = PRODUCT_DEFINITION('design','',#6,#9);
#6 = PRODUCT_DEFINITION_FORMATION('','',#7);
#7 = PRODUCT('Fillet034','Fillet034','',(#8));
#8 = PRODUCT_CONTEXT('',#2,'mechanical');
#9 = PRODUCT_DEFINITION_CONTEXT('part definition',#2,'design');
#10 = ADVANCED_BREP_SHAPE_REPRESENTATION('',(#11,#15),#1879);
#11 = AXIS2_PLACEMENT_3D('',#12,#13,#14);
#12 = CARTESIAN_POINT('',(0.,0.,0.));
#13 = DIRECTION('',(0.,0.,1.));
#14 = DIRECTION('',(1.,0.,-0.));
#15 = MANIFOLD_SOLID_BREP('',#16);
#16 = CLOSED_SHELL('',(#17,#145,#171,#495,#520,#574,#591,#617,#637,#664,
    #698,#744,#779,#804,#828,#846,#878,#903,#928,#953,#978,#1003,#1028,
    #1053,#1078,#1103,#1128,#1153,#1178,#1203,#1228,#1253,#1278,#1303,
    #1328,#1353,#1378,#1403,#1428,#1446,#1479,#1491,#1517,#1534,#1793,
    #1818,#1867));
#17 = ADVANCED_FACE('',(#18),#140,.T.);
#18 = FACE_BOUND('',#19,.F.);
#19 = EDGE_LOOP('',(#20,#30,#39,#48,#56,#65,#74,#82,#89,#90,#99,#108,
    #116,#125,#132,#133));
#20 = ORIENTED_EDGE('',*,*,#21,.F.);
#21 = EDGE_CURVE('',#22,#24,#26,.T.);
#22 = VERTEX_POINT('',#23);
#23 = CARTESIAN_POINT('',(34.,17.,0.));
#24 = VERTEX_POINT('',#25);
#25 = CARTESIAN_POINT('',(34.,17.,6.));
#26 = LINE('',#27,#28);
#27 = CARTESIAN_POINT('',(34.,17.,-11.));
#28 = VECTOR('',#29,1.);
#29 = DIRECTION('',(-8.659560562355E-17,-6.989190051972E-16,1.));
#30 = ORIENTED_EDGE('',*,*,#31,.T.);
#31 = EDGE_CURVE('',#22,#32,#34,.T.);
#32 = VERTEX_POINT('',#33);
#33 = CARTESIAN_POINT('',(33.941125496954,15.,0.));
#34 = CIRCLE('',#35,34.);
#35 = AXIS2_PLACEMENT_3D('',#36,#37,#38);
#36 = CARTESIAN_POINT('',(0.,17.,0.));
#37 = DIRECTION('',(8.659560562355E-17,6.989190051972E-16,-1.));
#38 = DIRECTION('',(1.,-1.060490312471E-32,8.659560562355E-17));
#39 = ORIENTED_EDGE('',*,*,#40,.T.);
#40 = EDGE_CURVE('',#32,#41,#43,.T.);
#41 = VERTEX_POINT('',#42);
#42 = CARTESIAN_POINT('',(33.905191940816,14.462686567164,
    -1.05362810178E-16));
#43 = CIRCLE('',#44,34.);
#44 = AXIS2_PLACEMENT_3D('',#45,#46,#47);
#45 = CARTESIAN_POINT('',(0.,17.,0.));
#46 = DIRECTION('',(8.659560562355E-17,6.989190051972E-16,-1.));
#47 = DIRECTION('',(0.,1.,6.989190051972E-16));
#48 = ORIENTED_EDGE('',*,*,#49,.T.);
#49 = EDGE_CURVE('',#41,#50,#52,.T.);
#50 = VERTEX_POINT('',#51);
#51 = CARTESIAN_POINT('',(33.905191940816,14.462686567164,-7.));
#52 = LINE('',#53,#54);
#53 = CARTESIAN_POINT('',(33.905191940816,14.462686567164,
    1.7763568394E-15));
#54 = VECTOR('',#55,1.);
#55 = DIRECTION('',(8.659560562355E-17,6.989190051972E-16,-1.));
#56 = ORIENTED_EDGE('',*,*,#57,.F.);
#57 = EDGE_CURVE('',#58,#50,#60,.T.);
#58 = VERTEX_POINT('',#59);
#59 = CARTESIAN_POINT('',(33.941125496954,15.,-7.));
#60 = CIRCLE('',#61,34.);
#61 = AXIS2_PLACEMENT_3D('',#62,#63,#64);
#62 = CARTESIAN_POINT('',(6.061692393648E-16,17.,-7.));
#63 = DIRECTION('',(8.659560562355E-17,6.989190051972E-16,-1.));
#64 = DIRECTION('',(0.,1.,6.989190051972E-16));
#65 = ORIENTED_EDGE('',*,*,#66,.F.);
#66 = EDGE_CURVE('',#67,#58,#69,.T.);
#67 = VERTEX_POINT('',#68);
#68 = CARTESIAN_POINT('',(34.,17.,-7.));
#69 = CIRCLE('',#70,34.);
#70 = AXIS2_PLACEMENT_3D('',#71,#72,#73);
#71 = CARTESIAN_POINT('',(6.061692393648E-16,17.,-7.));
#72 = DIRECTION('',(8.659560562355E-17,6.989190051972E-16,-1.));
#73 = DIRECTION('',(1.,-1.060490312471E-32,8.659560562355E-17));
#74 = ORIENTED_EDGE('',*,*,#75,.F.);
#75 = EDGE_CURVE('',#76,#67,#78,.T.);
#76 = VERTEX_POINT('',#77);
#77 = CARTESIAN_POINT('',(34.,17.,-10.));
#78 = LINE('',#79,#80);
#79 = CARTESIAN_POINT('',(34.,17.,-11.));
#80 = VECTOR('',#81,1.);
#81 = DIRECTION('',(-8.659560562355E-17,-6.989190051972E-16,1.));
#82 = ORIENTED_EDGE('',*,*,#83,.F.);
#83 = EDGE_CURVE('',#76,#76,#84,.T.);
#84 = CIRCLE('',#85,34.);
#85 = AXIS2_PLACEMENT_3D('',#86,#87,#88);
#86 = CARTESIAN_POINT('',(8.659560562355E-16,17.,-10.));
#87 = DIRECTION('',(-8.659560562355E-17,-6.989190051972E-16,1.));
#88 = DIRECTION('',(1.,-2.055644132933E-17,8.659560562355E-17));
#89 = ORIENTED_EDGE('',*,*,#75,.T.);
#90 = ORIENTED_EDGE('',*,*,#91,.F.);
#91 = EDGE_CURVE('',#92,#67,#94,.T.);
#92 = VERTEX_POINT('',#93);
#93 = CARTESIAN_POINT('',(33.941125496954,19.,-7.));
#94 = CIRCLE('',#95,34.);
#95 = AXIS2_PLACEMENT_3D('',#96,#97,#98);
#96 = CARTESIAN_POINT('',(6.061692393648E-16,17.,-7.));
#97 = DIRECTION('',(8.659560562355E-17,6.989190051972E-16,-1.));
#98 = DIRECTION('',(1.,-1.060490312471E-32,8.659560562355E-17));
#99 = ORIENTED_EDGE('',*,*,#100,.T.);
#100 = EDGE_CURVE('',#92,#101,#103,.T.);
#101 = VERTEX_POINT('',#102);
#102 = CARTESIAN_POINT('',(33.905191940816,19.537313432836,-7.));
#103 = CIRCLE('',#104,34.);
#104 = AXIS2_PLACEMENT_3D('',#105,#106,#107);
#105 = CARTESIAN_POINT('',(6.061692393648E-16,17.,-7.));
#106 = DIRECTION('',(-8.659560562355E-17,-6.989190051972E-16,1.));
#107 = DIRECTION('',(0.,1.,6.989190051972E-16));
#108 = ORIENTED_EDGE('',*,*,#109,.F.);
#109 = EDGE_CURVE('',#110,#101,#112,.T.);
#110 = VERTEX_POINT('',#111);
#111 = CARTESIAN_POINT('',(33.905191940816,19.537313432836,
    -1.05362810178E-16));
#112 = LINE('',#113,#114);
#113 = CARTESIAN_POINT('',(33.905191940816,19.537313432836,
    1.7763568394E-15));
#114 = VECTOR('',#115,1.);
#115 = DIRECTION('',(8.659560562355E-17,6.989190051972E-16,-1.));
#116 = ORIENTED_EDGE('',*,*,#117,.F.);
#117 = EDGE_CURVE('',#118,#110,#120,.T.);
#118 = VERTEX_POINT('',#119);
#119 = CARTESIAN_POINT('',(33.941125496954,19.,0.));
#120 = CIRCLE('',#121,34.);
#121 = AXIS2_PLACEMENT_3D('',#122,#123,#124);
#122 = CARTESIAN_POINT('',(0.,17.,0.));
#123 = DIRECTION('',(-8.659560562355E-17,-6.989190051972E-16,1.));
#124 = DIRECTION('',(0.,1.,6.989190051972E-16));
#125 = ORIENTED_EDGE('',*,*,#126,.T.);
#126 = EDGE_CURVE('',#118,#22,#127,.T.);
#127 = CIRCLE('',#128,34.);
#128 = AXIS2_PLACEMENT_3D('',#129,#130,#131);
#129 = CARTESIAN_POINT('',(0.,17.,0.));
#130 = DIRECTION('',(8.659560562355E-17,6.989190051972E-16,-1.));
#131 = DIRECTION('',(1.,-1.060490312471E-32,8.659560562355E-17));
#132 = ORIENTED_EDGE('',*,*,#21,.T.);
#133 = ORIENTED_EDGE('',*,*,#134,.T.);
#134 = EDGE_CURVE('',#24,#24,#135,.T.);
#135 = CIRCLE('',#136,34.);
#136 = AXIS2_PLACEMENT_3D('',#137,#138,#139);
#137 = CARTESIAN_POINT('',(-5.195736337413E-16,17.,6.));
#138 = DIRECTION('',(-8.659560562355E-17,-6.989190051972E-16,1.));
#139 = DIRECTION('',(1.,-8.393513745892E-17,8.659560562355E-17));
#140 = CYLINDRICAL_SURFACE('',#141,34.);
#141 = AXIS2_PLACEMENT_3D('',#142,#143,#144);
#142 = CARTESIAN_POINT('',(9.52551661859E-16,17.,-11.));
#143 = DIRECTION('',(8.659560562355E-17,6.989190051972E-16,-1.));
#144 = DIRECTION('',(1.,-1.060490312471E-32,8.659560562355E-17));
#145 = ADVANCED_FACE('',(#146),#166,.T.);
#146 = FACE_BOUND('',#147,.T.);
#147 = EDGE_LOOP('',(#148,#157,#158,#159));
#148 = ORIENTED_EDGE('',*,*,#149,.F.);
#149 = EDGE_CURVE('',#24,#150,#152,.T.);
#150 = VERTEX_POINT('',#151);
#151 = CARTESIAN_POINT('',(33.,17.,7.));
#152 = CIRCLE('',#153,1.);
#153 = AXIS2_PLACEMENT_3D('',#154,#155,#156);
#154 = CARTESIAN_POINT('',(33.,17.,6.));
#155 = DIRECTION('',(-8.393513745892E-17,-1.,-6.989190051972E-16));
#156 = DIRECTION('',(1.,-8.393513745892E-17,8.659560562355E-17));
#157 = ORIENTED_EDGE('',*,*,#134,.T.);
#158 = ORIENTED_EDGE('',*,*,#149,.T.);
#159 = ORIENTED_EDGE('',*,*,#160,.F.);
#160 = EDGE_CURVE('',#150,#150,#161,.T.);
#161 = CIRCLE('',#162,33.);
#162 = AXIS2_PLACEMENT_3D('',#163,#164,#165);
#163 = CARTESIAN_POINT('',(-6.061692393648E-16,17.,7.));
#164 = DIRECTION('',(-8.659560562355E-17,-6.989190051972E-16,1.));
#165 = DIRECTION('',(1.,-8.393513745892E-17,8.659560562355E-17));
#166 = TOROIDAL_SURFACE('',#167,33.,1.);
#167 = AXIS2_PLACEMENT_3D('',#168,#169,#170);
#168 = CARTESIAN_POINT('',(-5.195736337413E-16,17.,6.));
#169 = DIRECTION('',(-8.659560562355E-17,-6.989190051972E-16,1.));
#170 = DIRECTION('',(1.,-8.393513745892E-17,8.659560562355E-17));
#171 = ADVANCED_FACE('',(#172,#272),#490,.T.);
#172 = FACE_BOUND('',#173,.T.);
#173 = EDGE_LOOP('',(#174,#184,#194,#211,#220,#229,#238,#246,#254,#261,
    #262,#263,#264,#265));
#174 = ORIENTED_EDGE('',*,*,#175,.F.);
#175 = EDGE_CURVE('',#176,#178,#180,.T.);
#176 = VERTEX_POINT('',#177);
#177 = CARTESIAN_POINT('',(32.687438845343,15.,0.));
#178 = VERTEX_POINT('',#179);
#179 = CARTESIAN_POINT('',(33.40658617698,15.,-7.691393825905E-30));
#180 = LINE('',#181,#182);
#181 = CARTESIAN_POINT('',(0.,15.,0.));
#182 = VECTOR('',#183,1.);
#183 = DIRECTION('',(1.,0.,0.));
#184 = ORIENTED_EDGE('',*,*,#185,.T.);
#185 = EDGE_CURVE('',#176,#186,#188,.T.);
#186 = VERTEX_POINT('',#187);
#187 = CARTESIAN_POINT('',(32.437588449456,14.768047131758,0.));
#188 = B_SPLINE_CURVE_WITH_KNOTS('',4,(#189,#190,#191,#192,#193),
  .UNSPECIFIED.,.F.,.F.,(5,5),(0.,1.),.PIECEWISE_BEZIER_KNOTS.);
#189 = CARTESIAN_POINT('',(32.687438845343,15.,-1.05362810178E-16));
#190 = CARTESIAN_POINT('',(32.486027930142,14.813016748241,
    -1.05362810178E-16));
#191 = CARTESIAN_POINT('',(32.28461701494,14.626033496483,
    -1.05362810178E-16));
#192 = CARTESIAN_POINT('',(32.083206099739,14.439050244724,
    -1.05362810178E-16));
#193 = CARTESIAN_POINT('',(31.881795184538,14.252066992965,
    -1.05362810178E-16));
#194 = ORIENTED_EDGE('',*,*,#195,.T.);
#195 = EDGE_CURVE('',#186,#196,#198,.T.);
#196 = VERTEX_POINT('',#197);
#197 = CARTESIAN_POINT('',(31.81019271194,13.519821896907,
    -4.261988974415E-16));
#198 = B_SPLINE_CURVE_WITH_KNOTS('',6,(#199,#200,#201,#202,#203,#204,
    #205,#206,#207,#208,#209,#210),.UNSPECIFIED.,.F.,.F.,(7,5,7),(0.,
    0.500000000024,1.),.UNSPECIFIED.);
#199 = CARTESIAN_POINT('',(32.437588449456,14.768047131758,
    -1.05362810178E-16));
#200 = CARTESIAN_POINT('',(32.352197588412,14.688773072294,
    -1.05362810178E-16));
#201 = CARTESIAN_POINT('',(32.27131288789,14.602567645926,
    -1.05362810178E-16));
#202 = CARTESIAN_POINT('',(32.195937804992,14.509857254751,
    -1.05362810178E-16));
#203 = CARTESIAN_POINT('',(32.12701787846,14.411315150363,
    -1.05362810178E-16));
#204 = CARTESIAN_POINT('',(32.065318844722,14.307850284945,
    -1.05362810178E-16));
#205 = CARTESIAN_POINT('',(31.957399922996,14.093141906546,
    -1.05362810178E-16));
#206 = CARTESIAN_POINT('',(31.91117937725,13.981897085072,
    -1.05362810178E-16));
#207 = CARTESIAN_POINT('',(31.873217635221,13.86779446109,
    -1.05362810178E-16));
#208 = CARTESIAN_POINT('',(31.843787281972,13.751990860439,
    -1.05362810178E-16));
#209 = CARTESIAN_POINT('',(31.822864474247,13.63564677398,
    -1.05362810178E-16));
#210 = CARTESIAN_POINT('',(31.81019271194,13.519821896907,
    -1.05362810178E-16));
#211 = ORIENTED_EDGE('',*,*,#212,.T.);
#212 = EDGE_CURVE('',#196,#213,#215,.T.);
#213 = VERTEX_POINT('',#214);
#214 = CARTESIAN_POINT('',(1.494316687214E-14,-15.,-3.918869757272E-15)
  );
#215 = CIRCLE('',#216,32.);
#216 = AXIS2_PLACEMENT_3D('',#217,#218,#219);
#217 = CARTESIAN_POINT('',(0.,17.,0.));
#218 = DIRECTION('',(0.,1.224646799147E-16,-1.));
#219 = DIRECTION('',(2.22044604925E-16,-1.,-1.224646799147E-16));
#220 = ORIENTED_EDGE('',*,*,#221,.T.);
#221 = EDGE_CURVE('',#213,#222,#224,.T.);
#222 = VERTEX_POINT('',#223);
#223 = CARTESIAN_POINT('',(31.81019271194,20.480178103093,0.));
#224 = CIRCLE('',#225,32.);
#225 = AXIS2_PLACEMENT_3D('',#226,#227,#228);
#226 = CARTESIAN_POINT('',(0.,17.,0.));
#227 = DIRECTION('',(0.,1.224646799147E-16,-1.));
#228 = DIRECTION('',(2.22044604925E-16,-1.,-1.224646799147E-16));
#229 = ORIENTED_EDGE('',*,*,#230,.T.);
#230 = EDGE_CURVE('',#222,#231,#233,.T.);
#231 = VERTEX_POINT('',#232);
#232 = CARTESIAN_POINT('',(32.437588449456,19.231952868242,
    8.881784197001E-16));
#233 = CIRCLE('',#234,2.);
#234 = AXIS2_PLACEMENT_3D('',#235,#236,#237);
#235 = CARTESIAN_POINT('',(33.798329756436,20.697689234536,0.));
#236 = DIRECTION('',(0.,-1.224646799147E-16,1.));
#237 = DIRECTION('',(0.,-1.,-1.224646799147E-16));
#238 = ORIENTED_EDGE('',*,*,#239,.F.);
#239 = EDGE_CURVE('',#240,#231,#242,.T.);
#240 = VERTEX_POINT('',#241);
#241 = CARTESIAN_POINT('',(32.687438845343,19.,0.));
#242 = LINE('',#243,#244);
#243 = CARTESIAN_POINT('',(25.342536481454,25.818765142292,
    8.354970146111E-16));
#244 = VECTOR('',#245,1.);
#245 = DIRECTION('',(-0.732868183147,0.68037065349,0.));
#246 = ORIENTED_EDGE('',*,*,#247,.T.);
#247 = EDGE_CURVE('',#240,#248,#250,.T.);
#248 = VERTEX_POINT('',#249);
#249 = CARTESIAN_POINT('',(33.40658617698,19.,-4.68386162475E-30));
#250 = LINE('',#251,#252);
#251 = CARTESIAN_POINT('',(0.,19.,0.));
#252 = VECTOR('',#253,1.);
#253 = DIRECTION('',(1.,0.,0.));
#254 = ORIENTED_EDGE('',*,*,#255,.F.);
#255 = EDGE_CURVE('',#110,#248,#256,.T.);
#256 = CIRCLE('',#257,0.5);
#257 = AXIS2_PLACEMENT_3D('',#258,#259,#260);
#258 = CARTESIAN_POINT('',(33.40658617698,19.5,-1.05362810178E-16));
#259 = DIRECTION('',(8.659560562355E-17,6.989190051972E-16,-1.));
#260 = DIRECTION('',(0.,1.,6.989190051972E-16));
#261 = ORIENTED_EDGE('',*,*,#117,.F.);
#262 = ORIENTED_EDGE('',*,*,#126,.T.);
#263 = ORIENTED_EDGE('',*,*,#31,.T.);
#264 = ORIENTED_EDGE('',*,*,#40,.T.);
#265 = ORIENTED_EDGE('',*,*,#266,.F.);
#266 = EDGE_CURVE('',#178,#41,#267,.T.);
#267 = CIRCLE('',#268,0.5);
#268 = AXIS2_PLACEMENT_3D('',#269,#270,#271);
#269 = CARTESIAN_POINT('',(33.40658617698,14.5,-1.05362810178E-16));
#270 = DIRECTION('',(8.659560562355E-17,6.989190051972E-16,-1.));
#271 = DIRECTION('',(0.,1.,6.989190051972E-16));
#272 = FACE_BOUND('',#273,.T.);
#273 = EDGE_LOOP('',(#274,#285,#294,#303,#312,#321,#330,#339,#348,#357,
    #366,#375,#384,#393,#402,#411,#420,#429,#438,#447,#456,#465,#474,
    #483));
#274 = ORIENTED_EDGE('',*,*,#275,.T.);
#275 = EDGE_CURVE('',#276,#278,#280,.T.);
#276 = VERTEX_POINT('',#277);
#277 = CARTESIAN_POINT('',(17.201035247361,10.190125814741,
    -1.842828372625E-15));
#278 = VERTEX_POINT('',#279);
#279 = CARTESIAN_POINT('',(18.301470588235,14.297006417329,
    -1.742001185012E-15));
#280 = CIRCLE('',#281,18.5);
#281 = AXIS2_PLACEMENT_3D('',#282,#283,#284);
#282 = CARTESIAN_POINT('',(-6.303755862169E-32,17.,-2.099663695727E-31)
  );
#283 = DIRECTION('',(-8.659560562355E-17,-4.539896453678E-16,1.));
#284 = DIRECTION('',(1.,-1.060490312471E-32,8.659560562355E-17));
#285 = ORIENTED_EDGE('',*,*,#286,.T.);
#286 = EDGE_CURVE('',#278,#287,#289,.T.);
#287 = VERTEX_POINT('',#288);
#288 = CARTESIAN_POINT('',(18.301470588235,19.702993582671,
    -5.148700869845E-16));
#289 = CIRCLE('',#290,3.);
#290 = AXIS2_PLACEMENT_3D('',#291,#292,#293);
#291 = CARTESIAN_POINT('',(17.,17.,-3.552713678801E-15));
#292 = DIRECTION('',(2.22044604925E-16,-1.232595164408E-32,1.));
#293 = DIRECTION('',(1.110223024625E-16,1.,-1.232595164408E-32));
#294 = ORIENTED_EDGE('',*,*,#295,.T.);
#295 = EDGE_CURVE('',#287,#296,#298,.T.);
#296 = VERTEX_POINT('',#297);
#297 = CARTESIAN_POINT('',(17.201035247361,23.809874185259,
    -6.400237573462E-16));
#298 = CIRCLE('',#299,18.5);
#299 = AXIS2_PLACEMENT_3D('',#300,#301,#302);
#300 = CARTESIAN_POINT('',(-6.303755862169E-32,17.,-2.099663695727E-31)
  );
#301 = DIRECTION('',(-8.659560562355E-17,-4.539896453678E-16,1.));
#302 = DIRECTION('',(1.,-1.060490312471E-32,8.659560562355E-17));
#303 = ORIENTED_EDGE('',*,*,#304,.T.);
#304 = EDGE_CURVE('',#296,#305,#307,.T.);
#305 = VERTEX_POINT('',#306);
#306 = CARTESIAN_POINT('',(14.49804166469,28.491596402977,
    4.959203307596E-16));
#307 = CIRCLE('',#308,3.);
#308 = AXIS2_PLACEMENT_3D('',#309,#310,#311);
#309 = CARTESIAN_POINT('',(14.722431864335,25.5,-5.329070518201E-15));
#310 = DIRECTION('',(2.62681588013E-16,7.03853193746E-17,1.));
#311 = DIRECTION('',(-0.5,0.866025403784,7.03853193746E-17));
#312 = ORIENTED_EDGE('',*,*,#313,.T.);
#313 = EDGE_CURVE('',#305,#314,#316,.T.);
#314 = VERTEX_POINT('',#315);
#315 = CARTESIAN_POINT('',(11.491596402977,31.49804166469,
    7.481027946555E-16));
#316 = CIRCLE('',#317,18.5);
#317 = AXIS2_PLACEMENT_3D('',#318,#319,#320);
#318 = CARTESIAN_POINT('',(-6.303755862169E-32,17.,-2.099663695727E-31)
  );
#319 = DIRECTION('',(-8.659560562355E-17,-4.539896453678E-16,1.));
#320 = DIRECTION('',(1.,-1.060490312471E-32,8.659560562355E-17));
#321 = ORIENTED_EDGE('',*,*,#322,.T.);
#322 = EDGE_CURVE('',#314,#323,#325,.T.);
#323 = VERTEX_POINT('',#324);
#324 = CARTESIAN_POINT('',(6.809874185259,34.201035247361,
    1.568894133862E-15));
#325 = CIRCLE('',#326,3.);
#326 = AXIS2_PLACEMENT_3D('',#327,#328,#329);
#327 = CARTESIAN_POINT('',(8.5,31.722431864335,-5.329070518201E-15));
#328 = DIRECTION('',(2.62681588013E-16,1.516592855504E-16,1.));
#329 = DIRECTION('',(-0.866025403784,0.5,1.516592855504E-16));
#330 = ORIENTED_EDGE('',*,*,#331,.T.);
#331 = EDGE_CURVE('',#323,#332,#334,.T.);
#332 = VERTEX_POINT('',#333);
#333 = CARTESIAN_POINT('',(2.702993582671,35.301470588235,
    2.050431082392E-15));
#334 = CIRCLE('',#335,18.5);
#335 = AXIS2_PLACEMENT_3D('',#336,#337,#338);
#336 = CARTESIAN_POINT('',(-6.303755862169E-32,17.,-2.099663695727E-31)
  );
#337 = DIRECTION('',(-8.659560562355E-17,-4.539896453678E-16,1.));
#338 = DIRECTION('',(1.,-1.060490312471E-32,8.659560562355E-17));
#339 = ORIENTED_EDGE('',*,*,#340,.T.);
#340 = EDGE_CURVE('',#332,#341,#343,.T.);
#341 = VERTEX_POINT('',#342);
#342 = CARTESIAN_POINT('',(-2.702993582671,35.301470588235,
    2.416548858283E-15));
#343 = CIRCLE('',#344,3.);
#344 = AXIS2_PLACEMENT_3D('',#345,#346,#347);
#345 = CARTESIAN_POINT('',(4.524390212726E-15,34.,-3.552713678801E-15));
#346 = DIRECTION('',(2.22044604925E-16,2.22044604925E-16,1.));
#347 = DIRECTION('',(-1.,1.224646799147E-16,2.22044604925E-16));
#348 = ORIENTED_EDGE('',*,*,#349,.T.);
#349 = EDGE_CURVE('',#341,#350,#352,.T.);
#350 = VERTEX_POINT('',#351);
#351 = CARTESIAN_POINT('',(-6.809874185259,34.201035247361,
    2.267811563477E-15));
#352 = CIRCLE('',#353,18.5);
#353 = AXIS2_PLACEMENT_3D('',#354,#355,#356);
#354 = CARTESIAN_POINT('',(-6.303755862169E-32,17.,-2.099663695727E-31)
  );
#355 = DIRECTION('',(-8.659560562355E-17,-4.539896453678E-16,1.));
#356 = DIRECTION('',(1.,-1.060490312471E-32,8.659560562355E-17));
#357 = ORIENTED_EDGE('',*,*,#358,.T.);
#358 = EDGE_CURVE('',#350,#359,#361,.T.);
#359 = VERTEX_POINT('',#360);
#360 = CARTESIAN_POINT('',(-11.49159640297,31.49804166469,
    2.161564375745E-15));
#361 = CIRCLE('',#362,3.);
#362 = AXIS2_PLACEMENT_3D('',#363,#364,#365);
#363 = CARTESIAN_POINT('',(-8.5,31.722431864335,-1.7763568394E-15));
#364 = DIRECTION('',(1.516592855504E-16,2.62681588013E-16,1.));
#365 = DIRECTION('',(-0.866025403784,-0.5,2.62681588013E-16));
#366 = ORIENTED_EDGE('',*,*,#367,.T.);
#367 = EDGE_CURVE('',#359,#368,#370,.T.);
#368 = VERTEX_POINT('',#369);
#369 = CARTESIAN_POINT('',(-14.49804166469,28.491596402977,
    6.918055841465E-16));
#370 = CIRCLE('',#371,18.5);
#371 = AXIS2_PLACEMENT_3D('',#372,#373,#374);
#372 = CARTESIAN_POINT('',(-6.303755862169E-32,17.,-2.099663695727E-31)
  );
#373 = DIRECTION('',(-8.659560562355E-17,-4.539896453678E-16,1.));
#374 = DIRECTION('',(1.,-1.060490312471E-32,8.659560562355E-17));
#375 = ORIENTED_EDGE('',*,*,#376,.T.);
#376 = EDGE_CURVE('',#368,#377,#379,.T.);
#377 = VERTEX_POINT('',#378);
#378 = CARTESIAN_POINT('',(-17.20103524736,23.809874185259,
    2.220718430211E-16));
#379 = CIRCLE('',#380,3.);
#380 = AXIS2_PLACEMENT_3D('',#381,#382,#383);
#381 = CARTESIAN_POINT('',(-14.72243186433,25.5,-1.7763568394E-15));
#382 = DIRECTION('',(7.03853193746E-17,2.62681588013E-16,1.));
#383 = DIRECTION('',(-0.5,-0.866025403784,2.62681588013E-16));
#384 = ORIENTED_EDGE('',*,*,#385,.T.);
#385 = EDGE_CURVE('',#377,#386,#388,.T.);
#386 = VERTEX_POINT('',#387);
#387 = CARTESIAN_POINT('',(-18.30147058823,19.702993582671,
    -4.789404867704E-16));
#388 = CIRCLE('',#389,18.5);
#389 = AXIS2_PLACEMENT_3D('',#390,#391,#392);
#390 = CARTESIAN_POINT('',(-6.303755862169E-32,17.,-2.099663695727E-31)
  );
#391 = DIRECTION('',(-8.659560562355E-17,-4.539896453678E-16,1.));
#392 = DIRECTION('',(1.,-1.060490312471E-32,8.659560562355E-17));
#393 = ORIENTED_EDGE('',*,*,#394,.T.);
#394 = EDGE_CURVE('',#386,#395,#397,.T.);
#395 = VERTEX_POINT('',#396);
#396 = CARTESIAN_POINT('',(-18.30147058823,14.297006417329,
    -1.105886442619E-15));
#397 = CIRCLE('',#398,3.);
#398 = AXIS2_PLACEMENT_3D('',#399,#400,#401);
#399 = CARTESIAN_POINT('',(-17.,17.,0.));
#400 = DIRECTION('',(2.465190328816E-32,2.22044604925E-16,1.));
#401 = DIRECTION('',(-2.22044604925E-16,-1.,2.22044604925E-16));
#402 = ORIENTED_EDGE('',*,*,#403,.T.);
#403 = EDGE_CURVE('',#395,#404,#406,.T.);
#404 = VERTEX_POINT('',#405);
#405 = CARTESIAN_POINT('',(-17.20103524736,10.190125814741,
    -2.469096334137E-15));
#406 = CIRCLE('',#407,18.5);
#407 = AXIS2_PLACEMENT_3D('',#408,#409,#410);
#408 = CARTESIAN_POINT('',(-6.303755862169E-32,17.,-2.099663695727E-31)
  );
#409 = DIRECTION('',(-8.659560562355E-17,-4.539896453678E-16,1.));
#410 = DIRECTION('',(1.,-1.060490312471E-32,8.659560562355E-17));
#411 = ORIENTED_EDGE('',*,*,#412,.T.);
#412 = EDGE_CURVE('',#404,#413,#415,.T.);
#413 = VERTEX_POINT('',#414);
#414 = CARTESIAN_POINT('',(-14.49804166469,5.508403597023,
    -3.004855280064E-15));
#415 = CIRCLE('',#416,3.);
#416 = AXIS2_PLACEMENT_3D('',#417,#418,#419);
#417 = CARTESIAN_POINT('',(-14.72243186433,8.5,0.));
#418 = DIRECTION('',(-4.063698308792E-17,1.516592855504E-16,1.));
#419 = DIRECTION('',(0.5,-0.866025403784,1.516592855504E-16));
#420 = ORIENTED_EDGE('',*,*,#421,.T.);
#421 = EDGE_CURVE('',#413,#422,#424,.T.);
#422 = VERTEX_POINT('',#423);
#423 = CARTESIAN_POINT('',(-11.49159640297,2.50195833531,
    -3.857222886139E-15));
#424 = CIRCLE('',#425,18.5);
#425 = AXIS2_PLACEMENT_3D('',#426,#427,#428);
#426 = CARTESIAN_POINT('',(-6.303755862169E-32,17.,-2.099663695727E-31)
  );
#427 = DIRECTION('',(-8.659560562355E-17,-4.539896453678E-16,1.));
#428 = DIRECTION('',(1.,-1.060490312471E-32,8.659560562355E-17));
#429 = ORIENTED_EDGE('',*,*,#430,.T.);
#430 = EDGE_CURVE('',#422,#431,#433,.T.);
#431 = VERTEX_POINT('',#432);
#432 = CARTESIAN_POINT('',(-6.809874185259,-0.201035247361,
    -4.077829083166E-15));
#433 = CIRCLE('',#434,3.);
#434 = AXIS2_PLACEMENT_3D('',#435,#436,#437);
#435 = CARTESIAN_POINT('',(-8.5,2.277568135665,0.));
#436 = DIRECTION('',(-4.063698308792E-17,7.03853193746E-17,1.));
#437 = DIRECTION('',(0.866025403784,-0.5,7.03853193746E-17));
#438 = ORIENTED_EDGE('',*,*,#439,.T.);
#439 = EDGE_CURVE('',#431,#440,#442,.T.);
#440 = VERTEX_POINT('',#441);
#441 = CARTESIAN_POINT('',(-2.702993582671,-1.301470588235,
    -4.271372754175E-15));
#442 = CIRCLE('',#443,18.5);
#443 = AXIS2_PLACEMENT_3D('',#444,#445,#446);
#444 = CARTESIAN_POINT('',(-6.303755862169E-32,17.,-2.099663695727E-31)
  );
#445 = DIRECTION('',(-8.659560562355E-17,-4.539896453678E-16,1.));
#446 = DIRECTION('',(1.,-1.060490312471E-32,8.659560562355E-17));
#447 = ORIENTED_EDGE('',*,*,#448,.T.);
#448 = EDGE_CURVE('',#440,#449,#451,.T.);
#449 = VERTEX_POINT('',#450);
#450 = CARTESIAN_POINT('',(2.702993582671,-1.301470588235,
    -4.037305387887E-15));
#451 = CIRCLE('',#452,3.);
#452 = AXIS2_PLACEMENT_3D('',#453,#454,#455);
#453 = CARTESIAN_POINT('',(0.,0.,0.));
#454 = DIRECTION('',(0.,0.,1.));
#455 = DIRECTION('',(1.,0.,0.));
#456 = ORIENTED_EDGE('',*,*,#457,.T.);
#457 = EDGE_CURVE('',#449,#458,#460,.T.);
#458 = VERTEX_POINT('',#459);
#459 = CARTESIAN_POINT('',(6.809874185259,-0.201035247361,
    -4.48875323526E-15));
#460 = CIRCLE('',#461,18.5);
#461 = AXIS2_PLACEMENT_3D('',#462,#463,#464);
#462 = CARTESIAN_POINT('',(-6.303755862169E-32,17.,-2.099663695727E-31)
  );
#463 = DIRECTION('',(-8.659560562355E-17,-4.539896453678E-16,1.));
#464 = DIRECTION('',(1.,-1.060490312471E-32,8.659560562355E-17));
#465 = ORIENTED_EDGE('',*,*,#466,.T.);
#466 = EDGE_CURVE('',#458,#467,#469,.T.);
#467 = VERTEX_POINT('',#468);
#468 = CARTESIAN_POINT('',(11.491596402977,2.50195833531,
    -3.782320905349E-15));
#469 = CIRCLE('',#470,3.);
#470 = AXIS2_PLACEMENT_3D('',#471,#472,#473);
#471 = CARTESIAN_POINT('',(8.5,2.277568135665,-1.7763568394E-15));
#472 = DIRECTION('',(7.03853193746E-17,-4.063698308792E-17,1.));
#473 = DIRECTION('',(0.866025403784,0.5,-4.063698308792E-17));
#474 = ORIENTED_EDGE('',*,*,#475,.T.);
#475 = EDGE_CURVE('',#467,#476,#478,.T.);
#476 = VERTEX_POINT('',#477);
#477 = CARTESIAN_POINT('',(14.49804166469,5.508403597023,
    -2.912747255929E-15));
#478 = CIRCLE('',#479,18.5);
#479 = AXIS2_PLACEMENT_3D('',#480,#481,#482);
#480 = CARTESIAN_POINT('',(-6.303755862169E-32,17.,-2.099663695727E-31)
  );
#481 = DIRECTION('',(-8.659560562355E-17,-4.539896453678E-16,1.));
#482 = DIRECTION('',(1.,-1.060490312471E-32,8.659560562355E-17));
#483 = ORIENTED_EDGE('',*,*,#484,.T.);
#484 = EDGE_CURVE('',#476,#276,#485,.T.);
#485 = CIRCLE('',#486,3.);
#486 = AXIS2_PLACEMENT_3D('',#487,#488,#489);
#487 = CARTESIAN_POINT('',(14.722431864335,8.5,-1.7763568394E-15));
#488 = DIRECTION('',(1.516592855504E-16,-4.063698308792E-17,1.));
#489 = DIRECTION('',(0.5,0.866025403784,-4.063698308792E-17));
#490 = PLANE('',#491);
#491 = AXIS2_PLACEMENT_3D('',#492,#493,#494);
#492 = CARTESIAN_POINT('',(2.21195265134,15.633822619431,
    -1.05362810178E-16));
#493 = DIRECTION('',(0.,0.,-1.));
#494 = DIRECTION('',(1.,0.,0.));
#495 = ADVANCED_FACE('',(#496),#515,.T.);
#496 = FACE_BOUND('',#497,.T.);
#497 = EDGE_LOOP('',(#498,#499,#500,#509));
#498 = ORIENTED_EDGE('',*,*,#266,.T.);
#499 = ORIENTED_EDGE('',*,*,#49,.T.);
#500 = ORIENTED_EDGE('',*,*,#501,.F.);
#501 = EDGE_CURVE('',#502,#50,#504,.T.);
#502 = VERTEX_POINT('',#503);
#503 = CARTESIAN_POINT('',(33.40658617698,15.,-7.));
#504 = CIRCLE('',#505,0.5);
#505 = AXIS2_PLACEMENT_3D('',#506,#507,#508);
#506 = CARTESIAN_POINT('',(33.40658617698,14.5,-7.));
#507 = DIRECTION('',(8.659560562355E-17,6.989190051972E-16,-1.));
#508 = DIRECTION('',(0.,1.,6.989190051972E-16));
#509 = ORIENTED_EDGE('',*,*,#510,.F.);
#510 = EDGE_CURVE('',#178,#502,#511,.T.);
#511 = LINE('',#512,#513);
#512 = CARTESIAN_POINT('',(33.40658617698,15.,0.));
#513 = VECTOR('',#514,1.);
#514 = DIRECTION('',(8.659560562355E-17,6.989190051972E-16,-1.));
#515 = CYLINDRICAL_SURFACE('',#516,0.5);
#516 = AXIS2_PLACEMENT_3D('',#517,#518,#519);
#517 = CARTESIAN_POINT('',(33.40658617698,14.5,0.));
#518 = DIRECTION('',(8.659560562355E-17,6.989190051972E-16,-1.));
#519 = DIRECTION('',(-6.052331453686E-32,1.,6.989190051972E-16));
#520 = ADVANCED_FACE('',(#521),#569,.F.);
#521 = FACE_BOUND('',#522,.F.);
#522 = EDGE_LOOP('',(#523,#531,#540,#549,#557,#564,#565,#566,#567,#568)
  );
#523 = ORIENTED_EDGE('',*,*,#524,.F.);
#524 = EDGE_CURVE('',#525,#502,#527,.T.);
#525 = VERTEX_POINT('',#526);
#526 = CARTESIAN_POINT('',(32.688874254094,15.,-7.));
#527 = LINE('',#528,#529);
#528 = CARTESIAN_POINT('',(0.,15.,-7.));
#529 = VECTOR('',#530,1.);
#530 = DIRECTION('',(1.,0.,0.));
#531 = ORIENTED_EDGE('',*,*,#532,.F.);
#532 = EDGE_CURVE('',#533,#525,#535,.T.);
#533 = VERTEX_POINT('',#534);
#534 = CARTESIAN_POINT('',(32.75,17.,-7.));
#535 = CIRCLE('',#536,32.75);
#536 = AXIS2_PLACEMENT_3D('',#537,#538,#539);
#537 = CARTESIAN_POINT('',(6.061692393648E-16,17.,-7.));
#538 = DIRECTION('',(8.659560562355E-17,5.764543252825E-16,-1.));
#539 = DIRECTION('',(1.,-1.060490312471E-32,8.659560562355E-17));
#540 = ORIENTED_EDGE('',*,*,#541,.F.);
#541 = EDGE_CURVE('',#542,#533,#544,.T.);
#542 = VERTEX_POINT('',#543);
#543 = CARTESIAN_POINT('',(32.688874254094,19.,-7.));
#544 = CIRCLE('',#545,32.75);
#545 = AXIS2_PLACEMENT_3D('',#546,#547,#548);
#546 = CARTESIAN_POINT('',(6.061692393648E-16,17.,-7.));
#547 = DIRECTION('',(8.659560562355E-17,5.764543252825E-16,-1.));
#548 = DIRECTION('',(1.,-1.060490312471E-32,8.659560562355E-17));
#549 = ORIENTED_EDGE('',*,*,#550,.T.);
#550 = EDGE_CURVE('',#542,#551,#553,.T.);
#551 = VERTEX_POINT('',#552);
#552 = CARTESIAN_POINT('',(33.40658617698,19.,-7.));
#553 = LINE('',#554,#555);
#554 = CARTESIAN_POINT('',(0.,19.,-7.));
#555 = VECTOR('',#556,1.);
#556 = DIRECTION('',(1.,0.,0.));
#557 = ORIENTED_EDGE('',*,*,#558,.F.);
#558 = EDGE_CURVE('',#101,#551,#559,.T.);
#559 = CIRCLE('',#560,0.5);
#560 = AXIS2_PLACEMENT_3D('',#561,#562,#563);
#561 = CARTESIAN_POINT('',(33.40658617698,19.5,-7.));
#562 = DIRECTION('',(8.659560562355E-17,6.989190051972E-16,-1.));
#563 = DIRECTION('',(0.,1.,6.989190051972E-16));
#564 = ORIENTED_EDGE('',*,*,#100,.F.);
#565 = ORIENTED_EDGE('',*,*,#91,.T.);
#566 = ORIENTED_EDGE('',*,*,#66,.T.);
#567 = ORIENTED_EDGE('',*,*,#57,.T.);
#568 = ORIENTED_EDGE('',*,*,#501,.F.);
#569 = PLANE('',#570);
#570 = AXIS2_PLACEMENT_3D('',#571,#572,#573);
#571 = CARTESIAN_POINT('',(0.,19.,-7.));
#572 = DIRECTION('',(0.,0.,-1.));
#573 = DIRECTION('',(1.,0.,0.));
#574 = ADVANCED_FACE('',(#575),#586,.T.);
#575 = FACE_BOUND('',#576,.T.);
#576 = EDGE_LOOP('',(#577,#578,#584,#585));
#577 = ORIENTED_EDGE('',*,*,#255,.T.);
#578 = ORIENTED_EDGE('',*,*,#579,.T.);
#579 = EDGE_CURVE('',#248,#551,#580,.T.);
#580 = LINE('',#581,#582);
#581 = CARTESIAN_POINT('',(33.40658617698,19.,0.));
#582 = VECTOR('',#583,1.);
#583 = DIRECTION('',(8.659560562355E-17,6.989190051972E-16,-1.));
#584 = ORIENTED_EDGE('',*,*,#558,.F.);
#585 = ORIENTED_EDGE('',*,*,#109,.F.);
#586 = CYLINDRICAL_SURFACE('',#587,0.5);
#587 = AXIS2_PLACEMENT_3D('',#588,#589,#590);
#588 = CARTESIAN_POINT('',(33.40658617698,19.5,0.));
#589 = DIRECTION('',(8.659560562355E-17,6.989190051972E-16,-1.));
#590 = DIRECTION('',(0.997211527671,7.462686567164E-02,
    1.385122708897E-16));
#591 = ADVANCED_FACE('',(#592),#612,.T.);
#592 = FACE_BOUND('',#593,.F.);
#593 = EDGE_LOOP('',(#594,#603,#604,#605));
#594 = ORIENTED_EDGE('',*,*,#595,.F.);
#595 = EDGE_CURVE('',#76,#596,#598,.T.);
#596 = VERTEX_POINT('',#597);
#597 = CARTESIAN_POINT('',(33.,17.,-11.));
#598 = CIRCLE('',#599,1.);
#599 = AXIS2_PLACEMENT_3D('',#600,#601,#602);
#600 = CARTESIAN_POINT('',(33.,17.,-10.));
#601 = DIRECTION('',(2.055644132933E-17,1.,6.989190051972E-16));
#602 = DIRECTION('',(1.,-2.055644132933E-17,8.659560562355E-17));
#603 = ORIENTED_EDGE('',*,*,#83,.F.);
#604 = ORIENTED_EDGE('',*,*,#595,.T.);
#605 = ORIENTED_EDGE('',*,*,#606,.T.);
#606 = EDGE_CURVE('',#596,#596,#607,.T.);
#607 = CIRCLE('',#608,33.);
#608 = AXIS2_PLACEMENT_3D('',#609,#610,#611);
#609 = CARTESIAN_POINT('',(9.52551661859E-16,17.,-11.));
#610 = DIRECTION('',(-8.659560562355E-17,-6.989190051972E-16,1.));
#611 = DIRECTION('',(1.,-2.055644132933E-17,8.659560562355E-17));
#612 = TOROIDAL_SURFACE('',#613,33.,1.);
#613 = AXIS2_PLACEMENT_3D('',#614,#615,#616);
#614 = CARTESIAN_POINT('',(8.659560562355E-16,17.,-10.));
#615 = DIRECTION('',(8.659560562355E-17,6.989190051972E-16,-1.));
#616 = DIRECTION('',(1.,-2.055644132933E-17,8.659560562355E-17));
#617 = ADVANCED_FACE('',(#618,#621),#632,.T.);
#618 = FACE_BOUND('',#619,.T.);
#619 = EDGE_LOOP('',(#620));
#620 = ORIENTED_EDGE('',*,*,#160,.T.);
#621 = FACE_BOUND('',#622,.T.);
#622 = EDGE_LOOP('',(#623));
#623 = ORIENTED_EDGE('',*,*,#624,.T.);
#624 = EDGE_CURVE('',#625,#625,#627,.T.);
#625 = VERTEX_POINT('',#626);
#626 = CARTESIAN_POINT('',(17.5,17.,7.));
#627 = CIRCLE('',#628,17.5);
#628 = AXIS2_PLACEMENT_3D('',#629,#630,#631);
#629 = CARTESIAN_POINT('',(-6.061692393648E-16,17.,7.));
#630 = DIRECTION('',(8.659560562355E-17,6.989190051972E-16,-1.));
#631 = DIRECTION('',(1.,4.235872758771E-17,8.659560562355E-17));
#632 = PLANE('',#633);
#633 = AXIS2_PLACEMENT_3D('',#634,#635,#636);
#634 = CARTESIAN_POINT('',(-6.061692393648E-16,17.,7.));
#635 = DIRECTION('',(-8.659560562355E-17,-6.989190051972E-16,1.));
#636 = DIRECTION('',(1.,-1.060490312471E-32,8.659560562355E-17));
#637 = ADVANCED_FACE('',(#638),#659,.F.);
#638 = FACE_BOUND('',#639,.F.);
#639 = EDGE_LOOP('',(#640,#641,#651,#657,#658));
#640 = ORIENTED_EDGE('',*,*,#175,.F.);
#641 = ORIENTED_EDGE('',*,*,#642,.F.);
#642 = EDGE_CURVE('',#643,#176,#645,.T.);
#643 = VERTEX_POINT('',#644);
#644 = CARTESIAN_POINT('',(32.687438845343,15.,-7.));
#645 = B_SPLINE_CURVE_WITH_KNOTS('',2,(#646,#647,#648,#649,#650),
  .UNSPECIFIED.,.F.,.F.,(3,1,1,3),(-0.4284,-5.256428972644E-15,7.,7.4284
    ),.UNSPECIFIED.);
#646 = CARTESIAN_POINT('',(32.687438845343,15.,-7.4284));
#647 = CARTESIAN_POINT('',(32.687438845343,15.,-7.2142));
#648 = CARTESIAN_POINT('',(32.687438845343,15.,-3.5));
#649 = CARTESIAN_POINT('',(32.687438845343,15.,0.2142));
#650 = CARTESIAN_POINT('',(32.687438845343,15.,0.4284));
#651 = ORIENTED_EDGE('',*,*,#652,.T.);
#652 = EDGE_CURVE('',#643,#525,#653,.T.);
#653 = LINE('',#654,#655);
#654 = CARTESIAN_POINT('',(0.,15.,-7.));
#655 = VECTOR('',#656,1.);
#656 = DIRECTION('',(1.,0.,0.));
#657 = ORIENTED_EDGE('',*,*,#524,.T.);
#658 = ORIENTED_EDGE('',*,*,#510,.F.);
#659 = PLANE('',#660);
#660 = AXIS2_PLACEMENT_3D('',#661,#662,#663);
#661 = CARTESIAN_POINT('',(0.,15.,0.));
#662 = DIRECTION('',(0.,-1.,0.));
#663 = DIRECTION('',(0.,0.,-1.));
#664 = ADVANCED_FACE('',(#665),#687,.T.);
#665 = FACE_BOUND('',#666,.T.);
#666 = EDGE_LOOP('',(#667,#677,#685,#686));
#667 = ORIENTED_EDGE('',*,*,#668,.T.);
#668 = EDGE_CURVE('',#643,#669,#671,.T.);
#669 = VERTEX_POINT('',#670);
#670 = CARTESIAN_POINT('',(32.437588449456,14.768047131758,-7.));
#671 = B_SPLINE_CURVE_WITH_KNOTS('',4,(#672,#673,#674,#675,#676),
  .UNSPECIFIED.,.F.,.F.,(5,5),(0.,1.),.PIECEWISE_BEZIER_KNOTS.);
#672 = CARTESIAN_POINT('',(32.687438845343,15.,-7.));
#673 = CARTESIAN_POINT('',(32.486027930142,14.813016748241,-7.));
#674 = CARTESIAN_POINT('',(32.28461701494,14.626033496483,-7.));
#675 = CARTESIAN_POINT('',(32.083206099739,14.439050244724,-7.));
#676 = CARTESIAN_POINT('',(31.881795184538,14.252066992965,-7.));
#677 = ORIENTED_EDGE('',*,*,#678,.T.);
#678 = EDGE_CURVE('',#669,#186,#679,.T.);
#679 = B_SPLINE_CURVE_WITH_KNOTS('',2,(#680,#681,#682,#683,#684),
  .UNSPECIFIED.,.F.,.F.,(3,1,1,3),(-0.4284,1.347797125031E-14,7.,7.4284)
  ,.UNSPECIFIED.);
#680 = CARTESIAN_POINT('',(32.437588449456,14.768047131758,-7.4284));
#681 = CARTESIAN_POINT('',(32.437588449456,14.768047131758,-7.2142));
#682 = CARTESIAN_POINT('',(32.437588449456,14.768047131758,-3.5));
#683 = CARTESIAN_POINT('',(32.437588449456,14.768047131758,0.2142));
#684 = CARTESIAN_POINT('',(32.437588449456,14.768047131758,0.4284));
#685 = ORIENTED_EDGE('',*,*,#185,.F.);
#686 = ORIENTED_EDGE('',*,*,#642,.F.);
#687 = B_SPLINE_SURFACE_WITH_KNOTS('',1,2,(
    (#688,#689,#690,#691,#692)
    ,(#693,#694,#695,#696,#697
    )),.UNSPECIFIED.,.F.,.F.,.F.,(2,2),(3,1,1,3),(0.,7.),(-0.4284,
    -5.256428972644E-15,7.,7.4284),.UNSPECIFIED.);
#688 = CARTESIAN_POINT('',(32.687438845343,15.,-7.4284));
#689 = CARTESIAN_POINT('',(32.687438845343,15.,-7.2142));
#690 = CARTESIAN_POINT('',(32.687438845343,15.,-3.5));
#691 = CARTESIAN_POINT('',(32.687438845343,15.,0.2142));
#692 = CARTESIAN_POINT('',(32.687438845343,15.,0.4284));
#693 = CARTESIAN_POINT('',(31.881795184538,14.252066992965,-7.4284));
#694 = CARTESIAN_POINT('',(31.881795184538,14.252066992965,-7.2142));
#695 = CARTESIAN_POINT('',(31.881795184538,14.252066992965,-3.5));
#696 = CARTESIAN_POINT('',(31.881795184538,14.252066992965,0.2142));
#697 = CARTESIAN_POINT('',(31.881795184538,14.252066992965,0.4284));
#698 = ADVANCED_FACE('',(#699),#728,.T.);
#699 = FACE_BOUND('',#700,.T.);
#700 = EDGE_LOOP('',(#701,#718,#726,#727));
#701 = ORIENTED_EDGE('',*,*,#702,.T.);
#702 = EDGE_CURVE('',#669,#703,#705,.T.);
#703 = VERTEX_POINT('',#704);
#704 = CARTESIAN_POINT('',(31.81019271194,13.519821896907,-7.));
#705 = B_SPLINE_CURVE_WITH_KNOTS('',6,(#706,#707,#708,#709,#710,#711,
    #712,#713,#714,#715,#716,#717),.UNSPECIFIED.,.F.,.F.,(7,5,7),(0.,
    0.500000000024,1.),.UNSPECIFIED.);
#706 = CARTESIAN_POINT('',(32.437588449456,14.768047131758,-7.));
#707 = CARTESIAN_POINT('',(32.352197588412,14.688773072294,-7.));
#708 = CARTESIAN_POINT('',(32.27131288789,14.602567645925,-7.));
#709 = CARTESIAN_POINT('',(32.195937804993,14.509857254751,-7.));
#710 = CARTESIAN_POINT('',(32.12701787846,14.411315150363,-7.));
#711 = CARTESIAN_POINT('',(32.065318844722,14.307850284945,-7.));
#712 = CARTESIAN_POINT('',(31.957399922996,14.093141906546,-7.));
#713 = CARTESIAN_POINT('',(31.91117937725,13.981897085072,-7.));
#714 = CARTESIAN_POINT('',(31.873217635221,13.867794461091,-7.));
#715 = CARTESIAN_POINT('',(31.843787281972,13.751990860439,-7.));
#716 = CARTESIAN_POINT('',(31.822864474247,13.63564677398,-7.));
#717 = CARTESIAN_POINT('',(31.81019271194,13.519821896907,-7.));
#718 = ORIENTED_EDGE('',*,*,#719,.T.);
#719 = EDGE_CURVE('',#703,#196,#720,.T.);
#720 = B_SPLINE_CURVE_WITH_KNOTS('',2,(#721,#722,#723,#724,#725),
  .UNSPECIFIED.,.F.,.F.,(3,1,1,3),(-0.4284,1.347797125031E-14,7.,7.4284)
  ,.UNSPECIFIED.);
#721 = CARTESIAN_POINT('',(31.81019271194,13.519821896907,-7.4284));
#722 = CARTESIAN_POINT('',(31.81019271194,13.519821896907,-7.2142));
#723 = CARTESIAN_POINT('',(31.81019271194,13.519821896907,-3.5));
#724 = CARTESIAN_POINT('',(31.81019271194,13.519821896907,0.2142));
#725 = CARTESIAN_POINT('',(31.81019271194,13.519821896907,0.4284));
#726 = ORIENTED_EDGE('',*,*,#195,.F.);
#727 = ORIENTED_EDGE('',*,*,#678,.F.);
#728 = ( BOUNDED_SURFACE() B_SPLINE_SURFACE(2,2,(
    (#729,#730,#731,#732,#733)
    ,(#734,#735,#736,#737,#738)
    ,(#739,#740,#741,#742,#743
)),.UNSPECIFIED.,.F.,.F.,.F.) B_SPLINE_SURFACE_WITH_KNOTS((3,3),(3,1,1,3
    ),(0.,7.),(-0.4284,1.347797125031E-14,7.,7.4284),.UNSPECIFIED.) 
GEOMETRIC_REPRESENTATION_ITEM() RATIONAL_B_SPLINE_SURFACE((
    (1.,1.,1.,1.,1.)
    ,(0.937026825644,0.937026825644,0.937026825644,0.937026825644
      ,0.937026825644)
,(1.,1.,1.,1.,1.))) REPRESENTATION_ITEM('') SURFACE() );
#729 = CARTESIAN_POINT('',(32.437588449456,14.768047131758,-7.4284));
#730 = CARTESIAN_POINT('',(32.437588449456,14.768047131758,-7.2142));
#731 = CARTESIAN_POINT('',(32.437588449456,14.768047131758,-3.5));
#732 = CARTESIAN_POINT('',(32.437588449456,14.768047131758,0.2142));
#733 = CARTESIAN_POINT('',(32.437588449456,14.768047131758,0.4284));
#734 = CARTESIAN_POINT('',(31.89126549352,14.260858915522,-7.4284));
#735 = CARTESIAN_POINT('',(31.89126549352,14.260858915522,-7.2142));
#736 = CARTESIAN_POINT('',(31.89126549352,14.260858915522,-3.5));
#737 = CARTESIAN_POINT('',(31.89126549352,14.260858915522,0.2142));
#738 = CARTESIAN_POINT('',(31.89126549352,14.260858915522,0.4284));
#739 = CARTESIAN_POINT('',(31.81019271194,13.519821896907,-7.4284));
#740 = CARTESIAN_POINT('',(31.81019271194,13.519821896907,-7.2142));
#741 = CARTESIAN_POINT('',(31.81019271194,13.519821896907,-3.5));
#742 = CARTESIAN_POINT('',(31.81019271194,13.519821896907,0.2142));
#743 = CARTESIAN_POINT('',(31.81019271194,13.519821896907,0.4284));
#744 = ADVANCED_FACE('',(#745),#774,.F.);
#745 = FACE_BOUND('',#746,.T.);
#746 = EDGE_LOOP('',(#747,#758,#764,#765,#766,#767));
#747 = ORIENTED_EDGE('',*,*,#748,.T.);
#748 = EDGE_CURVE('',#749,#751,#753,.T.);
#749 = VERTEX_POINT('',#750);
#750 = CARTESIAN_POINT('',(1.494316687214E-14,-15.,-7.));
#751 = VERTEX_POINT('',#752);
#752 = CARTESIAN_POINT('',(31.81019271194,20.480178103093,-7.));
#753 = CIRCLE('',#754,32.);
#754 = AXIS2_PLACEMENT_3D('',#755,#756,#757);
#755 = CARTESIAN_POINT('',(0.,17.,-7.));
#756 = DIRECTION('',(0.,1.224646799147E-16,-1.));
#757 = DIRECTION('',(2.22044604925E-16,-1.,-1.224646799147E-16));
#758 = ORIENTED_EDGE('',*,*,#759,.T.);
#759 = EDGE_CURVE('',#751,#222,#760,.T.);
#760 = LINE('',#761,#762);
#761 = CARTESIAN_POINT('',(31.81019271194,20.480178103093,-7.));
#762 = VECTOR('',#763,1.);
#763 = DIRECTION('',(0.,-1.224646799147E-16,1.));
#764 = ORIENTED_EDGE('',*,*,#221,.F.);
#765 = ORIENTED_EDGE('',*,*,#212,.F.);
#766 = ORIENTED_EDGE('',*,*,#719,.F.);
#767 = ORIENTED_EDGE('',*,*,#768,.T.);
#768 = EDGE_CURVE('',#703,#749,#769,.T.);
#769 = CIRCLE('',#770,32.);
#770 = AXIS2_PLACEMENT_3D('',#771,#772,#773);
#771 = CARTESIAN_POINT('',(0.,17.,-7.));
#772 = DIRECTION('',(0.,1.224646799147E-16,-1.));
#773 = DIRECTION('',(2.22044604925E-16,-1.,-1.224646799147E-16));
#774 = CYLINDRICAL_SURFACE('',#775,32.);
#775 = AXIS2_PLACEMENT_3D('',#776,#777,#778);
#776 = CARTESIAN_POINT('',(0.,17.,0.));
#777 = DIRECTION('',(0.,-1.224646799147E-16,1.));
#778 = DIRECTION('',(2.22044604925E-16,-1.,-1.224646799147E-16));
#779 = ADVANCED_FACE('',(#780),#799,.T.);
#780 = FACE_BOUND('',#781,.T.);
#781 = EDGE_LOOP('',(#782,#791,#797,#798));
#782 = ORIENTED_EDGE('',*,*,#783,.T.);
#783 = EDGE_CURVE('',#751,#784,#786,.T.);
#784 = VERTEX_POINT('',#785);
#785 = CARTESIAN_POINT('',(32.437588449456,19.231952868242,-7.));
#786 = CIRCLE('',#787,2.);
#787 = AXIS2_PLACEMENT_3D('',#788,#789,#790);
#788 = CARTESIAN_POINT('',(33.798329756436,20.697689234536,-7.));
#789 = DIRECTION('',(0.,-1.224646799147E-16,1.));
#790 = DIRECTION('',(0.,-1.,-1.224646799147E-16));
#791 = ORIENTED_EDGE('',*,*,#792,.T.);
#792 = EDGE_CURVE('',#784,#231,#793,.T.);
#793 = LINE('',#794,#795);
#794 = CARTESIAN_POINT('',(32.437588449456,19.231952868242,-7.));
#795 = VECTOR('',#796,1.);
#796 = DIRECTION('',(0.,-1.224646799147E-16,1.));
#797 = ORIENTED_EDGE('',*,*,#230,.F.);
#798 = ORIENTED_EDGE('',*,*,#759,.F.);
#799 = CYLINDRICAL_SURFACE('',#800,2.);
#800 = AXIS2_PLACEMENT_3D('',#801,#802,#803);
#801 = CARTESIAN_POINT('',(33.798329756436,20.697689234536,-7.));
#802 = DIRECTION('',(0.,-1.224646799147E-16,1.));
#803 = DIRECTION('',(-0.994068522248,-0.108755565722,-1.331871554505E-17
    ));
#804 = ADVANCED_FACE('',(#805),#823,.T.);
#805 = FACE_BOUND('',#806,.T.);
#806 = EDGE_LOOP('',(#807,#815,#821,#822));
#807 = ORIENTED_EDGE('',*,*,#808,.F.);
#808 = EDGE_CURVE('',#809,#784,#811,.T.);
#809 = VERTEX_POINT('',#810);
#810 = CARTESIAN_POINT('',(32.687438845343,19.,-7.));
#811 = LINE('',#812,#813);
#812 = CARTESIAN_POINT('',(24.407918218806,26.686433916492,-7.));
#813 = VECTOR('',#814,1.);
#814 = DIRECTION('',(-0.732868183147,0.68037065349,3.287394418377E-16));
#815 = ORIENTED_EDGE('',*,*,#816,.T.);
#816 = EDGE_CURVE('',#809,#240,#817,.T.);
#817 = LINE('',#818,#819);
#818 = CARTESIAN_POINT('',(32.687438845343,19.,-7.));
#819 = VECTOR('',#820,1.);
#820 = DIRECTION('',(0.,-1.224646799147E-16,1.));
#821 = ORIENTED_EDGE('',*,*,#239,.T.);
#822 = ORIENTED_EDGE('',*,*,#792,.F.);
#823 = PLANE('',#824);
#824 = AXIS2_PLACEMENT_3D('',#825,#826,#827);
#825 = CARTESIAN_POINT('',(32.687438845343,19.,-7.));
#826 = DIRECTION('',(-0.68037065349,-0.732868183147,-8.975046746882E-17)
  );
#827 = DIRECTION('',(0.,-1.224646799147E-16,1.));
#828 = ADVANCED_FACE('',(#829),#841,.T.);
#829 = FACE_BOUND('',#830,.T.);
#830 = EDGE_LOOP('',(#831,#832,#833,#839,#840));
#831 = ORIENTED_EDGE('',*,*,#247,.F.);
#832 = ORIENTED_EDGE('',*,*,#816,.F.);
#833 = ORIENTED_EDGE('',*,*,#834,.T.);
#834 = EDGE_CURVE('',#809,#542,#835,.T.);
#835 = LINE('',#836,#837);
#836 = CARTESIAN_POINT('',(0.,19.,-7.));
#837 = VECTOR('',#838,1.);
#838 = DIRECTION('',(1.,0.,0.));
#839 = ORIENTED_EDGE('',*,*,#550,.T.);
#840 = ORIENTED_EDGE('',*,*,#579,.F.);
#841 = PLANE('',#842);
#842 = AXIS2_PLACEMENT_3D('',#843,#844,#845);
#843 = CARTESIAN_POINT('',(0.,19.,0.));
#844 = DIRECTION('',(0.,-1.,0.));
#845 = DIRECTION('',(0.,0.,-1.));
#846 = ADVANCED_FACE('',(#847),#873,.F.);
#847 = FACE_BOUND('',#848,.T.);
#848 = EDGE_LOOP('',(#849,#860,#866,#867));
#849 = ORIENTED_EDGE('',*,*,#850,.F.);
#850 = EDGE_CURVE('',#851,#853,#855,.T.);
#851 = VERTEX_POINT('',#852);
#852 = CARTESIAN_POINT('',(18.301470588235,14.297006417329,4.));
#853 = VERTEX_POINT('',#854);
#854 = CARTESIAN_POINT('',(17.201035247361,10.190125814741,4.));
#855 = CIRCLE('',#856,18.5);
#856 = AXIS2_PLACEMENT_3D('',#857,#858,#859);
#857 = CARTESIAN_POINT('',(-3.463824224942E-16,17.,4.));
#858 = DIRECTION('',(8.659560562355E-17,4.539896453678E-16,-1.));
#859 = DIRECTION('',(1.,-1.060490312471E-32,8.659560562355E-17));
#860 = ORIENTED_EDGE('',*,*,#861,.F.);
#861 = EDGE_CURVE('',#278,#851,#862,.T.);
#862 = LINE('',#863,#864);
#863 = CARTESIAN_POINT('',(18.301470588235,14.297006417329,4.));
#864 = VECTOR('',#865,1.);
#865 = DIRECTION('',(-8.659560562355E-17,-4.539896453678E-16,1.));
#866 = ORIENTED_EDGE('',*,*,#275,.F.);
#867 = ORIENTED_EDGE('',*,*,#868,.T.);
#868 = EDGE_CURVE('',#276,#853,#869,.T.);
#869 = LINE('',#870,#871);
#870 = CARTESIAN_POINT('',(17.201035247361,10.190125814741,4.));
#871 = VECTOR('',#872,1.);
#872 = DIRECTION('',(-8.659560562355E-17,-4.539896453678E-16,1.));
#873 = CYLINDRICAL_SURFACE('',#874,18.5);
#874 = AXIS2_PLACEMENT_3D('',#875,#876,#877);
#875 = CARTESIAN_POINT('',(-3.463824224942E-16,17.,4.));
#876 = DIRECTION('',(-8.659560562355E-17,-4.539896453678E-16,1.));
#877 = DIRECTION('',(1.,-1.060490312471E-32,8.659560562355E-17));
#878 = ADVANCED_FACE('',(#879),#898,.F.);
#879 = FACE_BOUND('',#880,.T.);
#880 = EDGE_LOOP('',(#881,#882,#890,#897));
#881 = ORIENTED_EDGE('',*,*,#484,.F.);
#882 = ORIENTED_EDGE('',*,*,#883,.T.);
#883 = EDGE_CURVE('',#476,#884,#886,.T.);
#884 = VERTEX_POINT('',#885);
#885 = CARTESIAN_POINT('',(14.49804166469,5.508403597023,4.));
#886 = LINE('',#887,#888);
#887 = CARTESIAN_POINT('',(14.49804166469,5.508403597023,4.));
#888 = VECTOR('',#889,1.);
#889 = DIRECTION('',(-8.659560562355E-17,-4.539896453678E-16,1.));
#890 = ORIENTED_EDGE('',*,*,#891,.T.);
#891 = EDGE_CURVE('',#884,#853,#892,.T.);
#892 = CIRCLE('',#893,3.);
#893 = AXIS2_PLACEMENT_3D('',#894,#895,#896);
#894 = CARTESIAN_POINT('',(14.722431864335,8.5,4.));
#895 = DIRECTION('',(1.516592855504E-16,-4.063698308792E-17,1.));
#896 = DIRECTION('',(0.5,0.866025403784,-4.063698308792E-17));
#897 = ORIENTED_EDGE('',*,*,#868,.F.);
#898 = CYLINDRICAL_SURFACE('',#899,3.);
#899 = AXIS2_PLACEMENT_3D('',#900,#901,#902);
#900 = CARTESIAN_POINT('',(14.722431864335,8.5,-1.7763568394E-15));
#901 = DIRECTION('',(-1.516592855504E-16,4.063698308792E-17,-1.));
#902 = DIRECTION('',(0.5,0.866025403784,-4.063698308792E-17));
#903 = ADVANCED_FACE('',(#904),#923,.F.);
#904 = FACE_BOUND('',#905,.T.);
#905 = EDGE_LOOP('',(#906,#915,#916,#917));
#906 = ORIENTED_EDGE('',*,*,#907,.F.);
#907 = EDGE_CURVE('',#884,#908,#910,.T.);
#908 = VERTEX_POINT('',#909);
#909 = CARTESIAN_POINT('',(11.491596402977,2.50195833531,4.));
#910 = CIRCLE('',#911,18.5);
#911 = AXIS2_PLACEMENT_3D('',#912,#913,#914);
#912 = CARTESIAN_POINT('',(-3.463824224942E-16,17.,4.));
#913 = DIRECTION('',(8.659560562355E-17,4.539896453678E-16,-1.));
#914 = DIRECTION('',(1.,-1.060490312471E-32,8.659560562355E-17));
#915 = ORIENTED_EDGE('',*,*,#883,.F.);
#916 = ORIENTED_EDGE('',*,*,#475,.F.);
#917 = ORIENTED_EDGE('',*,*,#918,.T.);
#918 = EDGE_CURVE('',#467,#908,#919,.T.);
#919 = LINE('',#920,#921);
#920 = CARTESIAN_POINT('',(11.491596402977,2.50195833531,4.));
#921 = VECTOR('',#922,1.);
#922 = DIRECTION('',(-8.659560562355E-17,-4.539896453678E-16,1.));
#923 = CYLINDRICAL_SURFACE('',#924,18.5);
#924 = AXIS2_PLACEMENT_3D('',#925,#926,#927);
#925 = CARTESIAN_POINT('',(-3.463824224942E-16,17.,4.));
#926 = DIRECTION('',(-8.659560562355E-17,-4.539896453678E-16,1.));
#927 = DIRECTION('',(1.,-1.060490312471E-32,8.659560562355E-17));
#928 = ADVANCED_FACE('',(#929),#948,.F.);
#929 = FACE_BOUND('',#930,.T.);
#930 = EDGE_LOOP('',(#931,#932,#940,#947));
#931 = ORIENTED_EDGE('',*,*,#466,.F.);
#932 = ORIENTED_EDGE('',*,*,#933,.T.);
#933 = EDGE_CURVE('',#458,#934,#936,.T.);
#934 = VERTEX_POINT('',#935);
#935 = CARTESIAN_POINT('',(6.809874185259,-0.201035247361,4.));
#936 = LINE('',#937,#938);
#937 = CARTESIAN_POINT('',(6.809874185259,-0.201035247361,4.));
#938 = VECTOR('',#939,1.);
#939 = DIRECTION('',(-8.659560562355E-17,-4.539896453678E-16,1.));
#940 = ORIENTED_EDGE('',*,*,#941,.T.);
#941 = EDGE_CURVE('',#934,#908,#942,.T.);
#942 = CIRCLE('',#943,3.);
#943 = AXIS2_PLACEMENT_3D('',#944,#945,#946);
#944 = CARTESIAN_POINT('',(8.5,2.277568135665,4.));
#945 = DIRECTION('',(7.03853193746E-17,-4.063698308792E-17,1.));
#946 = DIRECTION('',(0.866025403784,0.5,-4.063698308792E-17));
#947 = ORIENTED_EDGE('',*,*,#918,.F.);
#948 = CYLINDRICAL_SURFACE('',#949,3.);
#949 = AXIS2_PLACEMENT_3D('',#950,#951,#952);
#950 = CARTESIAN_POINT('',(8.5,2.277568135665,-1.7763568394E-15));
#951 = DIRECTION('',(-7.03853193746E-17,4.063698308792E-17,-1.));
#952 = DIRECTION('',(0.866025403784,0.5,-4.063698308792E-17));
#953 = ADVANCED_FACE('',(#954),#973,.F.);
#954 = FACE_BOUND('',#955,.T.);
#955 = EDGE_LOOP('',(#956,#965,#966,#967));
#956 = ORIENTED_EDGE('',*,*,#957,.F.);
#957 = EDGE_CURVE('',#934,#958,#960,.T.);
#958 = VERTEX_POINT('',#959);
#959 = CARTESIAN_POINT('',(2.70299358267,-1.301470588235,4.));
#960 = CIRCLE('',#961,18.5);
#961 = AXIS2_PLACEMENT_3D('',#962,#963,#964);
#962 = CARTESIAN_POINT('',(-3.463824224942E-16,17.,4.));
#963 = DIRECTION('',(8.659560562355E-17,4.539896453678E-16,-1.));
#964 = DIRECTION('',(1.,-1.060490312471E-32,8.659560562355E-17));
#965 = ORIENTED_EDGE('',*,*,#933,.F.);
#966 = ORIENTED_EDGE('',*,*,#457,.F.);
#967 = ORIENTED_EDGE('',*,*,#968,.T.);
#968 = EDGE_CURVE('',#449,#958,#969,.T.);
#969 = LINE('',#970,#971);
#970 = CARTESIAN_POINT('',(2.702993582671,-1.301470588235,4.));
#971 = VECTOR('',#972,1.);
#972 = DIRECTION('',(-8.659560562355E-17,-4.539896453678E-16,1.));
#973 = CYLINDRICAL_SURFACE('',#974,18.5);
#974 = AXIS2_PLACEMENT_3D('',#975,#976,#977);
#975 = CARTESIAN_POINT('',(-3.463824224942E-16,17.,4.));
#976 = DIRECTION('',(-8.659560562355E-17,-4.539896453678E-16,1.));
#977 = DIRECTION('',(1.,-1.060490312471E-32,8.659560562355E-17));
#978 = ADVANCED_FACE('',(#979),#998,.F.);
#979 = FACE_BOUND('',#980,.T.);
#980 = EDGE_LOOP('',(#981,#982,#990,#997));
#981 = ORIENTED_EDGE('',*,*,#448,.F.);
#982 = ORIENTED_EDGE('',*,*,#983,.T.);
#983 = EDGE_CURVE('',#440,#984,#986,.T.);
#984 = VERTEX_POINT('',#985);
#985 = CARTESIAN_POINT('',(-2.70299358267,-1.301470588235,4.));
#986 = LINE('',#987,#988);
#987 = CARTESIAN_POINT('',(-2.702993582671,-1.301470588235,4.));
#988 = VECTOR('',#989,1.);
#989 = DIRECTION('',(-8.659560562355E-17,-4.539896453678E-16,1.));
#990 = ORIENTED_EDGE('',*,*,#991,.T.);
#991 = EDGE_CURVE('',#984,#958,#992,.T.);
#992 = CIRCLE('',#993,3.);
#993 = AXIS2_PLACEMENT_3D('',#994,#995,#996);
#994 = CARTESIAN_POINT('',(0.,0.,4.));
#995 = DIRECTION('',(0.,0.,1.));
#996 = DIRECTION('',(1.,0.,0.));
#997 = ORIENTED_EDGE('',*,*,#968,.F.);
#998 = CYLINDRICAL_SURFACE('',#999,3.);
#999 = AXIS2_PLACEMENT_3D('',#1000,#1001,#1002);
#1000 = CARTESIAN_POINT('',(0.,0.,0.));
#1001 = DIRECTION('',(-0.,-0.,-1.));
#1002 = DIRECTION('',(1.,0.,0.));
#1003 = ADVANCED_FACE('',(#1004),#1023,.F.);
#1004 = FACE_BOUND('',#1005,.T.);
#1005 = EDGE_LOOP('',(#1006,#1015,#1016,#1017));
#1006 = ORIENTED_EDGE('',*,*,#1007,.F.);
#1007 = EDGE_CURVE('',#984,#1008,#1010,.T.);
#1008 = VERTEX_POINT('',#1009);
#1009 = CARTESIAN_POINT('',(-6.809874185259,-0.201035247361,4.));
#1010 = CIRCLE('',#1011,18.5);
#1011 = AXIS2_PLACEMENT_3D('',#1012,#1013,#1014);
#1012 = CARTESIAN_POINT('',(-3.463824224942E-16,17.,4.));
#1013 = DIRECTION('',(8.659560562355E-17,4.539896453678E-16,-1.));
#1014 = DIRECTION('',(1.,-1.060490312471E-32,8.659560562355E-17));
#1015 = ORIENTED_EDGE('',*,*,#983,.F.);
#1016 = ORIENTED_EDGE('',*,*,#439,.F.);
#1017 = ORIENTED_EDGE('',*,*,#1018,.T.);
#1018 = EDGE_CURVE('',#431,#1008,#1019,.T.);
#1019 = LINE('',#1020,#1021);
#1020 = CARTESIAN_POINT('',(-6.809874185259,-0.201035247361,4.));
#1021 = VECTOR('',#1022,1.);
#1022 = DIRECTION('',(-8.659560562355E-17,-4.539896453678E-16,1.));
#1023 = CYLINDRICAL_SURFACE('',#1024,18.5);
#1024 = AXIS2_PLACEMENT_3D('',#1025,#1026,#1027);
#1025 = CARTESIAN_POINT('',(-3.463824224942E-16,17.,4.));
#1026 = DIRECTION('',(-8.659560562355E-17,-4.539896453678E-16,1.));
#1027 = DIRECTION('',(1.,-1.060490312471E-32,8.659560562355E-17));
#1028 = ADVANCED_FACE('',(#1029),#1048,.F.);
#1029 = FACE_BOUND('',#1030,.T.);
#1030 = EDGE_LOOP('',(#1031,#1032,#1040,#1047));
#1031 = ORIENTED_EDGE('',*,*,#430,.F.);
#1032 = ORIENTED_EDGE('',*,*,#1033,.T.);
#1033 = EDGE_CURVE('',#422,#1034,#1036,.T.);
#1034 = VERTEX_POINT('',#1035);
#1035 = CARTESIAN_POINT('',(-11.49159640297,2.50195833531,4.));
#1036 = LINE('',#1037,#1038);
#1037 = CARTESIAN_POINT('',(-11.49159640297,2.50195833531,4.));
#1038 = VECTOR('',#1039,1.);
#1039 = DIRECTION('',(-8.659560562355E-17,-4.539896453678E-16,1.));
#1040 = ORIENTED_EDGE('',*,*,#1041,.T.);
#1041 = EDGE_CURVE('',#1034,#1008,#1042,.T.);
#1042 = CIRCLE('',#1043,3.);
#1043 = AXIS2_PLACEMENT_3D('',#1044,#1045,#1046);
#1044 = CARTESIAN_POINT('',(-8.5,2.277568135665,4.));
#1045 = DIRECTION('',(-4.063698308792E-17,7.03853193746E-17,1.));
#1046 = DIRECTION('',(0.866025403784,-0.5,7.03853193746E-17));
#1047 = ORIENTED_EDGE('',*,*,#1018,.F.);
#1048 = CYLINDRICAL_SURFACE('',#1049,3.);
#1049 = AXIS2_PLACEMENT_3D('',#1050,#1051,#1052);
#1050 = CARTESIAN_POINT('',(-8.5,2.277568135665,0.));
#1051 = DIRECTION('',(4.063698308792E-17,-7.03853193746E-17,-1.));
#1052 = DIRECTION('',(0.866025403784,-0.5,7.03853193746E-17));
#1053 = ADVANCED_FACE('',(#1054),#1073,.F.);
#1054 = FACE_BOUND('',#1055,.T.);
#1055 = EDGE_LOOP('',(#1056,#1065,#1066,#1067));
#1056 = ORIENTED_EDGE('',*,*,#1057,.F.);
#1057 = EDGE_CURVE('',#1034,#1058,#1060,.T.);
#1058 = VERTEX_POINT('',#1059);
#1059 = CARTESIAN_POINT('',(-14.49804166469,5.508403597023,4.));
#1060 = CIRCLE('',#1061,18.5);
#1061 = AXIS2_PLACEMENT_3D('',#1062,#1063,#1064);
#1062 = CARTESIAN_POINT('',(-3.463824224942E-16,17.,4.));
#1063 = DIRECTION('',(8.659560562355E-17,4.539896453678E-16,-1.));
#1064 = DIRECTION('',(1.,-1.060490312471E-32,8.659560562355E-17));
#1065 = ORIENTED_EDGE('',*,*,#1033,.F.);
#1066 = ORIENTED_EDGE('',*,*,#421,.F.);
#1067 = ORIENTED_EDGE('',*,*,#1068,.T.);
#1068 = EDGE_CURVE('',#413,#1058,#1069,.T.);
#1069 = LINE('',#1070,#1071);
#1070 = CARTESIAN_POINT('',(-14.49804166469,5.508403597023,4.));
#1071 = VECTOR('',#1072,1.);
#1072 = DIRECTION('',(-8.659560562355E-17,-4.539896453678E-16,1.));
#1073 = CYLINDRICAL_SURFACE('',#1074,18.5);
#1074 = AXIS2_PLACEMENT_3D('',#1075,#1076,#1077);
#1075 = CARTESIAN_POINT('',(-3.463824224942E-16,17.,4.));
#1076 = DIRECTION('',(-8.659560562355E-17,-4.539896453678E-16,1.));
#1077 = DIRECTION('',(1.,-1.060490312471E-32,8.659560562355E-17));
#1078 = ADVANCED_FACE('',(#1079),#1098,.F.);
#1079 = FACE_BOUND('',#1080,.T.);
#1080 = EDGE_LOOP('',(#1081,#1082,#1090,#1097));
#1081 = ORIENTED_EDGE('',*,*,#412,.F.);
#1082 = ORIENTED_EDGE('',*,*,#1083,.T.);
#1083 = EDGE_CURVE('',#404,#1084,#1086,.T.);
#1084 = VERTEX_POINT('',#1085);
#1085 = CARTESIAN_POINT('',(-17.20103524736,10.190125814741,4.));
#1086 = LINE('',#1087,#1088);
#1087 = CARTESIAN_POINT('',(-17.20103524736,10.190125814741,4.));
#1088 = VECTOR('',#1089,1.);
#1089 = DIRECTION('',(-8.659560562355E-17,-4.539896453678E-16,1.));
#1090 = ORIENTED_EDGE('',*,*,#1091,.T.);
#1091 = EDGE_CURVE('',#1084,#1058,#1092,.T.);
#1092 = CIRCLE('',#1093,3.);
#1093 = AXIS2_PLACEMENT_3D('',#1094,#1095,#1096);
#1094 = CARTESIAN_POINT('',(-14.72243186433,8.5,4.));
#1095 = DIRECTION('',(-4.063698308792E-17,1.516592855504E-16,1.));
#1096 = DIRECTION('',(0.5,-0.866025403784,1.516592855504E-16));
#1097 = ORIENTED_EDGE('',*,*,#1068,.F.);
#1098 = CYLINDRICAL_SURFACE('',#1099,3.);
#1099 = AXIS2_PLACEMENT_3D('',#1100,#1101,#1102);
#1100 = CARTESIAN_POINT('',(-14.72243186433,8.5,0.));
#1101 = DIRECTION('',(4.063698308792E-17,-1.516592855504E-16,-1.));
#1102 = DIRECTION('',(0.5,-0.866025403784,1.516592855504E-16));
#1103 = ADVANCED_FACE('',(#1104),#1123,.F.);
#1104 = FACE_BOUND('',#1105,.T.);
#1105 = EDGE_LOOP('',(#1106,#1115,#1116,#1117));
#1106 = ORIENTED_EDGE('',*,*,#1107,.F.);
#1107 = EDGE_CURVE('',#1084,#1108,#1110,.T.);
#1108 = VERTEX_POINT('',#1109);
#1109 = CARTESIAN_POINT('',(-18.30147058823,14.297006417329,4.));
#1110 = CIRCLE('',#1111,18.5);
#1111 = AXIS2_PLACEMENT_3D('',#1112,#1113,#1114);
#1112 = CARTESIAN_POINT('',(-3.463824224942E-16,17.,4.));
#1113 = DIRECTION('',(8.659560562355E-17,4.539896453678E-16,-1.));
#1114 = DIRECTION('',(1.,-1.060490312471E-32,8.659560562355E-17));
#1115 = ORIENTED_EDGE('',*,*,#1083,.F.);
#1116 = ORIENTED_EDGE('',*,*,#403,.F.);
#1117 = ORIENTED_EDGE('',*,*,#1118,.T.);
#1118 = EDGE_CURVE('',#395,#1108,#1119,.T.);
#1119 = LINE('',#1120,#1121);
#1120 = CARTESIAN_POINT('',(-18.30147058823,14.297006417329,4.));
#1121 = VECTOR('',#1122,1.);
#1122 = DIRECTION('',(-8.659560562355E-17,-4.539896453678E-16,1.));
#1123 = CYLINDRICAL_SURFACE('',#1124,18.5);
#1124 = AXIS2_PLACEMENT_3D('',#1125,#1126,#1127);
#1125 = CARTESIAN_POINT('',(-3.463824224942E-16,17.,4.));
#1126 = DIRECTION('',(-8.659560562355E-17,-4.539896453678E-16,1.));
#1127 = DIRECTION('',(1.,-1.060490312471E-32,8.659560562355E-17));
#1128 = ADVANCED_FACE('',(#1129),#1148,.F.);
#1129 = FACE_BOUND('',#1130,.T.);
#1130 = EDGE_LOOP('',(#1131,#1132,#1140,#1147));
#1131 = ORIENTED_EDGE('',*,*,#394,.F.);
#1132 = ORIENTED_EDGE('',*,*,#1133,.T.);
#1133 = EDGE_CURVE('',#386,#1134,#1136,.T.);
#1134 = VERTEX_POINT('',#1135);
#1135 = CARTESIAN_POINT('',(-18.30147058823,19.702993582671,4.));
#1136 = LINE('',#1137,#1138);
#1137 = CARTESIAN_POINT('',(-18.30147058823,19.702993582671,4.));
#1138 = VECTOR('',#1139,1.);
#1139 = DIRECTION('',(-8.659560562355E-17,-4.539896453678E-16,1.));
#1140 = ORIENTED_EDGE('',*,*,#1141,.T.);
#1141 = EDGE_CURVE('',#1134,#1108,#1142,.T.);
#1142 = CIRCLE('',#1143,3.);
#1143 = AXIS2_PLACEMENT_3D('',#1144,#1145,#1146);
#1144 = CARTESIAN_POINT('',(-17.,17.,4.));
#1145 = DIRECTION('',(2.465190328816E-32,2.22044604925E-16,1.));
#1146 = DIRECTION('',(-2.22044604925E-16,-1.,2.22044604925E-16));
#1147 = ORIENTED_EDGE('',*,*,#1118,.F.);
#1148 = CYLINDRICAL_SURFACE('',#1149,3.);
#1149 = AXIS2_PLACEMENT_3D('',#1150,#1151,#1152);
#1150 = CARTESIAN_POINT('',(-17.,17.,0.));
#1151 = DIRECTION('',(-2.465190328816E-32,-2.22044604925E-16,-1.));
#1152 = DIRECTION('',(-2.22044604925E-16,-1.,2.22044604925E-16));
#1153 = ADVANCED_FACE('',(#1154),#1173,.F.);
#1154 = FACE_BOUND('',#1155,.T.);
#1155 = EDGE_LOOP('',(#1156,#1165,#1166,#1167));
#1156 = ORIENTED_EDGE('',*,*,#1157,.F.);
#1157 = EDGE_CURVE('',#1134,#1158,#1160,.T.);
#1158 = VERTEX_POINT('',#1159);
#1159 = CARTESIAN_POINT('',(-17.20103524736,23.809874185259,4.));
#1160 = CIRCLE('',#1161,18.5);
#1161 = AXIS2_PLACEMENT_3D('',#1162,#1163,#1164);
#1162 = CARTESIAN_POINT('',(-3.463824224942E-16,17.,4.));
#1163 = DIRECTION('',(8.659560562355E-17,4.539896453678E-16,-1.));
#1164 = DIRECTION('',(1.,-1.060490312471E-32,8.659560562355E-17));
#1165 = ORIENTED_EDGE('',*,*,#1133,.F.);
#1166 = ORIENTED_EDGE('',*,*,#385,.F.);
#1167 = ORIENTED_EDGE('',*,*,#1168,.T.);
#1168 = EDGE_CURVE('',#377,#1158,#1169,.T.);
#1169 = LINE('',#1170,#1171);
#1170 = CARTESIAN_POINT('',(-17.20103524736,23.809874185259,4.));
#1171 = VECTOR('',#1172,1.);
#1172 = DIRECTION('',(-8.659560562355E-17,-4.539896453678E-16,1.));
#1173 = CYLINDRICAL_SURFACE('',#1174,18.5);
#1174 = AXIS2_PLACEMENT_3D('',#1175,#1176,#1177);
#1175 = CARTESIAN_POINT('',(-3.463824224942E-16,17.,4.));
#1176 = DIRECTION('',(-8.659560562355E-17,-4.539896453678E-16,1.));
#1177 = DIRECTION('',(1.,-1.060490312471E-32,8.659560562355E-17));
#1178 = ADVANCED_FACE('',(#1179),#1198,.F.);
#1179 = FACE_BOUND('',#1180,.T.);
#1180 = EDGE_LOOP('',(#1181,#1182,#1190,#1197));
#1181 = ORIENTED_EDGE('',*,*,#376,.F.);
#1182 = ORIENTED_EDGE('',*,*,#1183,.T.);
#1183 = EDGE_CURVE('',#368,#1184,#1186,.T.);
#1184 = VERTEX_POINT('',#1185);
#1185 = CARTESIAN_POINT('',(-14.49804166469,28.491596402977,4.));
#1186 = LINE('',#1187,#1188);
#1187 = CARTESIAN_POINT('',(-14.49804166469,28.491596402977,4.));
#1188 = VECTOR('',#1189,1.);
#1189 = DIRECTION('',(-8.659560562355E-17,-4.539896453678E-16,1.));
#1190 = ORIENTED_EDGE('',*,*,#1191,.T.);
#1191 = EDGE_CURVE('',#1184,#1158,#1192,.T.);
#1192 = CIRCLE('',#1193,3.);
#1193 = AXIS2_PLACEMENT_3D('',#1194,#1195,#1196);
#1194 = CARTESIAN_POINT('',(-14.72243186433,25.5,4.));
#1195 = DIRECTION('',(7.03853193746E-17,2.62681588013E-16,1.));
#1196 = DIRECTION('',(-0.5,-0.866025403784,2.62681588013E-16));
#1197 = ORIENTED_EDGE('',*,*,#1168,.F.);
#1198 = CYLINDRICAL_SURFACE('',#1199,3.);
#1199 = AXIS2_PLACEMENT_3D('',#1200,#1201,#1202);
#1200 = CARTESIAN_POINT('',(-14.72243186433,25.5,-1.7763568394E-15));
#1201 = DIRECTION('',(-7.03853193746E-17,-2.62681588013E-16,-1.));
#1202 = DIRECTION('',(-0.5,-0.866025403784,2.62681588013E-16));
#1203 = ADVANCED_FACE('',(#1204),#1223,.F.);
#1204 = FACE_BOUND('',#1205,.T.);
#1205 = EDGE_LOOP('',(#1206,#1215,#1216,#1217));
#1206 = ORIENTED_EDGE('',*,*,#1207,.F.);
#1207 = EDGE_CURVE('',#1184,#1208,#1210,.T.);
#1208 = VERTEX_POINT('',#1209);
#1209 = CARTESIAN_POINT('',(-11.49159640297,31.49804166469,4.));
#1210 = CIRCLE('',#1211,18.5);
#1211 = AXIS2_PLACEMENT_3D('',#1212,#1213,#1214);
#1212 = CARTESIAN_POINT('',(-3.463824224942E-16,17.,4.));
#1213 = DIRECTION('',(8.659560562355E-17,4.539896453678E-16,-1.));
#1214 = DIRECTION('',(1.,-1.060490312471E-32,8.659560562355E-17));
#1215 = ORIENTED_EDGE('',*,*,#1183,.F.);
#1216 = ORIENTED_EDGE('',*,*,#367,.F.);
#1217 = ORIENTED_EDGE('',*,*,#1218,.T.);
#1218 = EDGE_CURVE('',#359,#1208,#1219,.T.);
#1219 = LINE('',#1220,#1221);
#1220 = CARTESIAN_POINT('',(-11.49159640297,31.49804166469,4.));
#1221 = VECTOR('',#1222,1.);
#1222 = DIRECTION('',(-8.659560562355E-17,-4.539896453678E-16,1.));
#1223 = CYLINDRICAL_SURFACE('',#1224,18.5);
#1224 = AXIS2_PLACEMENT_3D('',#1225,#1226,#1227);
#1225 = CARTESIAN_POINT('',(-3.463824224942E-16,17.,4.));
#1226 = DIRECTION('',(-8.659560562355E-17,-4.539896453678E-16,1.));
#1227 = DIRECTION('',(1.,-1.060490312471E-32,8.659560562355E-17));
#1228 = ADVANCED_FACE('',(#1229),#1248,.F.);
#1229 = FACE_BOUND('',#1230,.T.);
#1230 = EDGE_LOOP('',(#1231,#1232,#1240,#1247));
#1231 = ORIENTED_EDGE('',*,*,#358,.F.);
#1232 = ORIENTED_EDGE('',*,*,#1233,.T.);
#1233 = EDGE_CURVE('',#350,#1234,#1236,.T.);
#1234 = VERTEX_POINT('',#1235);
#1235 = CARTESIAN_POINT('',(-6.809874185259,34.201035247361,4.));
#1236 = LINE('',#1237,#1238);
#1237 = CARTESIAN_POINT('',(-6.809874185259,34.201035247361,4.));
#1238 = VECTOR('',#1239,1.);
#1239 = DIRECTION('',(-8.659560562355E-17,-4.539896453678E-16,1.));
#1240 = ORIENTED_EDGE('',*,*,#1241,.T.);
#1241 = EDGE_CURVE('',#1234,#1208,#1242,.T.);
#1242 = CIRCLE('',#1243,3.);
#1243 = AXIS2_PLACEMENT_3D('',#1244,#1245,#1246);
#1244 = CARTESIAN_POINT('',(-8.5,31.722431864335,4.));
#1245 = DIRECTION('',(1.516592855504E-16,2.62681588013E-16,1.));
#1246 = DIRECTION('',(-0.866025403784,-0.5,2.62681588013E-16));
#1247 = ORIENTED_EDGE('',*,*,#1218,.F.);
#1248 = CYLINDRICAL_SURFACE('',#1249,3.);
#1249 = AXIS2_PLACEMENT_3D('',#1250,#1251,#1252);
#1250 = CARTESIAN_POINT('',(-8.5,31.722431864335,-1.7763568394E-15));
#1251 = DIRECTION('',(-1.516592855504E-16,-2.62681588013E-16,-1.));
#1252 = DIRECTION('',(-0.866025403784,-0.5,2.62681588013E-16));
#1253 = ADVANCED_FACE('',(#1254),#1273,.F.);
#1254 = FACE_BOUND('',#1255,.T.);
#1255 = EDGE_LOOP('',(#1256,#1265,#1266,#1267));
#1256 = ORIENTED_EDGE('',*,*,#1257,.F.);
#1257 = EDGE_CURVE('',#1234,#1258,#1260,.T.);
#1258 = VERTEX_POINT('',#1259);
#1259 = CARTESIAN_POINT('',(-2.702993582671,35.301470588235,4.));
#1260 = CIRCLE('',#1261,18.5);
#1261 = AXIS2_PLACEMENT_3D('',#1262,#1263,#1264);
#1262 = CARTESIAN_POINT('',(-3.463824224942E-16,17.,4.));
#1263 = DIRECTION('',(8.659560562355E-17,4.539896453678E-16,-1.));
#1264 = DIRECTION('',(1.,-1.060490312471E-32,8.659560562355E-17));
#1265 = ORIENTED_EDGE('',*,*,#1233,.F.);
#1266 = ORIENTED_EDGE('',*,*,#349,.F.);
#1267 = ORIENTED_EDGE('',*,*,#1268,.T.);
#1268 = EDGE_CURVE('',#341,#1258,#1269,.T.);
#1269 = LINE('',#1270,#1271);
#1270 = CARTESIAN_POINT('',(-2.702993582671,35.301470588235,4.));
#1271 = VECTOR('',#1272,1.);
#1272 = DIRECTION('',(-8.659560562355E-17,-4.539896453678E-16,1.));
#1273 = CYLINDRICAL_SURFACE('',#1274,18.5);
#1274 = AXIS2_PLACEMENT_3D('',#1275,#1276,#1277);
#1275 = CARTESIAN_POINT('',(-3.463824224942E-16,17.,4.));
#1276 = DIRECTION('',(-8.659560562355E-17,-4.539896453678E-16,1.));
#1277 = DIRECTION('',(1.,-1.060490312471E-32,8.659560562355E-17));
#1278 = ADVANCED_FACE('',(#1279),#1298,.F.);
#1279 = FACE_BOUND('',#1280,.T.);
#1280 = EDGE_LOOP('',(#1281,#1282,#1290,#1297));
#1281 = ORIENTED_EDGE('',*,*,#340,.F.);
#1282 = ORIENTED_EDGE('',*,*,#1283,.T.);
#1283 = EDGE_CURVE('',#332,#1284,#1286,.T.);
#1284 = VERTEX_POINT('',#1285);
#1285 = CARTESIAN_POINT('',(2.702993582671,35.301470588235,4.));
#1286 = LINE('',#1287,#1288);
#1287 = CARTESIAN_POINT('',(2.702993582671,35.301470588235,4.));
#1288 = VECTOR('',#1289,1.);
#1289 = DIRECTION('',(-8.659560562355E-17,-4.539896453678E-16,1.));
#1290 = ORIENTED_EDGE('',*,*,#1291,.T.);
#1291 = EDGE_CURVE('',#1284,#1258,#1292,.T.);
#1292 = CIRCLE('',#1293,3.);
#1293 = AXIS2_PLACEMENT_3D('',#1294,#1295,#1296);
#1294 = CARTESIAN_POINT('',(5.412568632426E-15,34.,4.));
#1295 = DIRECTION('',(2.22044604925E-16,2.22044604925E-16,1.));
#1296 = DIRECTION('',(-1.,1.224646799147E-16,2.22044604925E-16));
#1297 = ORIENTED_EDGE('',*,*,#1268,.F.);
#1298 = CYLINDRICAL_SURFACE('',#1299,3.);
#1299 = AXIS2_PLACEMENT_3D('',#1300,#1301,#1302);
#1300 = CARTESIAN_POINT('',(4.524390212726E-15,34.,-3.552713678801E-15)
  );
#1301 = DIRECTION('',(-2.22044604925E-16,-2.22044604925E-16,-1.));
#1302 = DIRECTION('',(-1.,1.224646799147E-16,2.22044604925E-16));
#1303 = ADVANCED_FACE('',(#1304),#1323,.F.);
#1304 = FACE_BOUND('',#1305,.T.);
#1305 = EDGE_LOOP('',(#1306,#1315,#1316,#1317));
#1306 = ORIENTED_EDGE('',*,*,#1307,.F.);
#1307 = EDGE_CURVE('',#1284,#1308,#1310,.T.);
#1308 = VERTEX_POINT('',#1309);
#1309 = CARTESIAN_POINT('',(6.809874185259,34.201035247361,4.));
#1310 = CIRCLE('',#1311,18.5);
#1311 = AXIS2_PLACEMENT_3D('',#1312,#1313,#1314);
#1312 = CARTESIAN_POINT('',(-3.463824224942E-16,17.,4.));
#1313 = DIRECTION('',(8.659560562355E-17,4.539896453678E-16,-1.));
#1314 = DIRECTION('',(1.,-1.060490312471E-32,8.659560562355E-17));
#1315 = ORIENTED_EDGE('',*,*,#1283,.F.);
#1316 = ORIENTED_EDGE('',*,*,#331,.F.);
#1317 = ORIENTED_EDGE('',*,*,#1318,.T.);
#1318 = EDGE_CURVE('',#323,#1308,#1319,.T.);
#1319 = LINE('',#1320,#1321);
#1320 = CARTESIAN_POINT('',(6.809874185259,34.201035247361,4.));
#1321 = VECTOR('',#1322,1.);
#1322 = DIRECTION('',(-8.659560562355E-17,-4.539896453678E-16,1.));
#1323 = CYLINDRICAL_SURFACE('',#1324,18.5);
#1324 = AXIS2_PLACEMENT_3D('',#1325,#1326,#1327);
#1325 = CARTESIAN_POINT('',(-3.463824224942E-16,17.,4.));
#1326 = DIRECTION('',(-8.659560562355E-17,-4.539896453678E-16,1.));
#1327 = DIRECTION('',(1.,-1.060490312471E-32,8.659560562355E-17));
#1328 = ADVANCED_FACE('',(#1329),#1348,.F.);
#1329 = FACE_BOUND('',#1330,.T.);
#1330 = EDGE_LOOP('',(#1331,#1332,#1340,#1347));
#1331 = ORIENTED_EDGE('',*,*,#322,.F.);
#1332 = ORIENTED_EDGE('',*,*,#1333,.T.);
#1333 = EDGE_CURVE('',#314,#1334,#1336,.T.);
#1334 = VERTEX_POINT('',#1335);
#1335 = CARTESIAN_POINT('',(11.491596402977,31.49804166469,4.));
#1336 = LINE('',#1337,#1338);
#1337 = CARTESIAN_POINT('',(11.491596402977,31.49804166469,4.));
#1338 = VECTOR('',#1339,1.);
#1339 = DIRECTION('',(-8.659560562355E-17,-4.539896453678E-16,1.));
#1340 = ORIENTED_EDGE('',*,*,#1341,.T.);
#1341 = EDGE_CURVE('',#1334,#1308,#1342,.T.);
#1342 = CIRCLE('',#1343,3.);
#1343 = AXIS2_PLACEMENT_3D('',#1344,#1345,#1346);
#1344 = CARTESIAN_POINT('',(8.5,31.722431864335,4.));
#1345 = DIRECTION('',(2.62681588013E-16,1.516592855504E-16,1.));
#1346 = DIRECTION('',(-0.866025403784,0.5,1.516592855504E-16));
#1347 = ORIENTED_EDGE('',*,*,#1318,.F.);
#1348 = CYLINDRICAL_SURFACE('',#1349,3.);
#1349 = AXIS2_PLACEMENT_3D('',#1350,#1351,#1352);
#1350 = CARTESIAN_POINT('',(8.5,31.722431864335,-5.329070518201E-15));
#1351 = DIRECTION('',(-2.62681588013E-16,-1.516592855504E-16,-1.));
#1352 = DIRECTION('',(-0.866025403784,0.5,1.516592855504E-16));
#1353 = ADVANCED_FACE('',(#1354),#1373,.F.);
#1354 = FACE_BOUND('',#1355,.T.);
#1355 = EDGE_LOOP('',(#1356,#1365,#1366,#1367));
#1356 = ORIENTED_EDGE('',*,*,#1357,.F.);
#1357 = EDGE_CURVE('',#1334,#1358,#1360,.T.);
#1358 = VERTEX_POINT('',#1359);
#1359 = CARTESIAN_POINT('',(14.49804166469,28.491596402977,4.));
#1360 = CIRCLE('',#1361,18.5);
#1361 = AXIS2_PLACEMENT_3D('',#1362,#1363,#1364);
#1362 = CARTESIAN_POINT('',(-3.463824224942E-16,17.,4.));
#1363 = DIRECTION('',(8.659560562355E-17,4.539896453678E-16,-1.));
#1364 = DIRECTION('',(1.,-1.060490312471E-32,8.659560562355E-17));
#1365 = ORIENTED_EDGE('',*,*,#1333,.F.);
#1366 = ORIENTED_EDGE('',*,*,#313,.F.);
#1367 = ORIENTED_EDGE('',*,*,#1368,.T.);
#1368 = EDGE_CURVE('',#305,#1358,#1369,.T.);
#1369 = LINE('',#1370,#1371);
#1370 = CARTESIAN_POINT('',(14.49804166469,28.491596402977,4.));
#1371 = VECTOR('',#1372,1.);
#1372 = DIRECTION('',(-8.659560562355E-17,-4.539896453678E-16,1.));
#1373 = CYLINDRICAL_SURFACE('',#1374,18.5);
#1374 = AXIS2_PLACEMENT_3D('',#1375,#1376,#1377);
#1375 = CARTESIAN_POINT('',(-3.463824224942E-16,17.,4.));
#1376 = DIRECTION('',(-8.659560562355E-17,-4.539896453678E-16,1.));
#1377 = DIRECTION('',(1.,-1.060490312471E-32,8.659560562355E-17));
#1378 = ADVANCED_FACE('',(#1379),#1398,.F.);
#1379 = FACE_BOUND('',#1380,.T.);
#1380 = EDGE_LOOP('',(#1381,#1382,#1390,#1397));
#1381 = ORIENTED_EDGE('',*,*,#304,.F.);
#1382 = ORIENTED_EDGE('',*,*,#1383,.T.);
#1383 = EDGE_CURVE('',#296,#1384,#1386,.T.);
#1384 = VERTEX_POINT('',#1385);
#1385 = CARTESIAN_POINT('',(17.201035247361,23.809874185259,4.));
#1386 = LINE('',#1387,#1388);
#1387 = CARTESIAN_POINT('',(17.201035247361,23.809874185259,4.));
#1388 = VECTOR('',#1389,1.);
#1389 = DIRECTION('',(-8.659560562355E-17,-4.539896453678E-16,1.));
#1390 = ORIENTED_EDGE('',*,*,#1391,.T.);
#1391 = EDGE_CURVE('',#1384,#1358,#1392,.T.);
#1392 = CIRCLE('',#1393,3.);
#1393 = AXIS2_PLACEMENT_3D('',#1394,#1395,#1396);
#1394 = CARTESIAN_POINT('',(14.722431864335,25.5,4.));
#1395 = DIRECTION('',(2.62681588013E-16,7.03853193746E-17,1.));
#1396 = DIRECTION('',(-0.5,0.866025403784,7.03853193746E-17));
#1397 = ORIENTED_EDGE('',*,*,#1368,.F.);
#1398 = CYLINDRICAL_SURFACE('',#1399,3.);
#1399 = AXIS2_PLACEMENT_3D('',#1400,#1401,#1402);
#1400 = CARTESIAN_POINT('',(14.722431864335,25.5,-5.329070518201E-15));
#1401 = DIRECTION('',(-2.62681588013E-16,-7.03853193746E-17,-1.));
#1402 = DIRECTION('',(-0.5,0.866025403784,7.03853193746E-17));
#1403 = ADVANCED_FACE('',(#1404),#1423,.F.);
#1404 = FACE_BOUND('',#1405,.T.);
#1405 = EDGE_LOOP('',(#1406,#1415,#1416,#1417));
#1406 = ORIENTED_EDGE('',*,*,#1407,.F.);
#1407 = EDGE_CURVE('',#1384,#1408,#1410,.T.);
#1408 = VERTEX_POINT('',#1409);
#1409 = CARTESIAN_POINT('',(18.301470588235,19.702993582671,4.));
#1410 = CIRCLE('',#1411,18.5);
#1411 = AXIS2_PLACEMENT_3D('',#1412,#1413,#1414);
#1412 = CARTESIAN_POINT('',(-3.463824224942E-16,17.,4.));
#1413 = DIRECTION('',(8.659560562355E-17,4.539896453678E-16,-1.));
#1414 = DIRECTION('',(1.,-1.060490312471E-32,8.659560562355E-17));
#1415 = ORIENTED_EDGE('',*,*,#1383,.F.);
#1416 = ORIENTED_EDGE('',*,*,#295,.F.);
#1417 = ORIENTED_EDGE('',*,*,#1418,.T.);
#1418 = EDGE_CURVE('',#287,#1408,#1419,.T.);
#1419 = LINE('',#1420,#1421);
#1420 = CARTESIAN_POINT('',(18.301470588235,19.702993582671,4.));
#1421 = VECTOR('',#1422,1.);
#1422 = DIRECTION('',(-8.659560562355E-17,-4.539896453678E-16,1.));
#1423 = CYLINDRICAL_SURFACE('',#1424,18.5);
#1424 = AXIS2_PLACEMENT_3D('',#1425,#1426,#1427);
#1425 = CARTESIAN_POINT('',(-3.463824224942E-16,17.,4.));
#1426 = DIRECTION('',(-8.659560562355E-17,-4.539896453678E-16,1.));
#1427 = DIRECTION('',(1.,-1.060490312471E-32,8.659560562355E-17));
#1428 = ADVANCED_FACE('',(#1429),#1441,.F.);
#1429 = FACE_BOUND('',#1430,.T.);
#1430 = EDGE_LOOP('',(#1431,#1432,#1433,#1440));
#1431 = ORIENTED_EDGE('',*,*,#286,.F.);
#1432 = ORIENTED_EDGE('',*,*,#861,.T.);
#1433 = ORIENTED_EDGE('',*,*,#1434,.T.);
#1434 = EDGE_CURVE('',#851,#1408,#1435,.T.);
#1435 = CIRCLE('',#1436,3.);
#1436 = AXIS2_PLACEMENT_3D('',#1437,#1438,#1439);
#1437 = CARTESIAN_POINT('',(17.,17.,4.));
#1438 = DIRECTION('',(2.22044604925E-16,-1.232595164408E-32,1.));
#1439 = DIRECTION('',(1.110223024625E-16,1.,-1.232595164408E-32));
#1440 = ORIENTED_EDGE('',*,*,#1418,.F.);
#1441 = CYLINDRICAL_SURFACE('',#1442,3.);
#1442 = AXIS2_PLACEMENT_3D('',#1443,#1444,#1445);
#1443 = CARTESIAN_POINT('',(17.,17.,-3.552713678801E-15));
#1444 = DIRECTION('',(-2.22044604925E-16,1.232595164408E-32,-1.));
#1445 = DIRECTION('',(1.110223024625E-16,1.,-1.232595164408E-32));
#1446 = ADVANCED_FACE('',(#1447),#1474,.F.);
#1447 = FACE_BOUND('',#1448,.T.);
#1448 = EDGE_LOOP('',(#1449,#1450,#1458,#1465,#1466,#1467));
#1449 = ORIENTED_EDGE('',*,*,#532,.F.);
#1450 = ORIENTED_EDGE('',*,*,#1451,.T.);
#1451 = EDGE_CURVE('',#533,#1452,#1454,.T.);
#1452 = VERTEX_POINT('',#1453);
#1453 = CARTESIAN_POINT('',(32.75,17.,-11.));
#1454 = LINE('',#1455,#1456);
#1455 = CARTESIAN_POINT('',(32.75,17.,-7.));
#1456 = VECTOR('',#1457,1.);
#1457 = DIRECTION('',(8.659560562355E-17,5.764543252825E-16,-1.));
#1458 = ORIENTED_EDGE('',*,*,#1459,.T.);
#1459 = EDGE_CURVE('',#1452,#1452,#1460,.T.);
#1460 = CIRCLE('',#1461,32.75);
#1461 = AXIS2_PLACEMENT_3D('',#1462,#1463,#1464);
#1462 = CARTESIAN_POINT('',(9.52551661859E-16,17.,-11.));
#1463 = DIRECTION('',(8.659560562355E-17,5.764543252825E-16,-1.));
#1464 = DIRECTION('',(1.,-1.060490312471E-32,8.659560562355E-17));
#1465 = ORIENTED_EDGE('',*,*,#1451,.F.);
#1466 = ORIENTED_EDGE('',*,*,#541,.F.);
#1467 = ORIENTED_EDGE('',*,*,#1468,.F.);
#1468 = EDGE_CURVE('',#525,#542,#1469,.T.);
#1469 = CIRCLE('',#1470,32.75);
#1470 = AXIS2_PLACEMENT_3D('',#1471,#1472,#1473);
#1471 = CARTESIAN_POINT('',(6.061692393648E-16,17.,-7.));
#1472 = DIRECTION('',(8.659560562355E-17,5.764543252825E-16,-1.));
#1473 = DIRECTION('',(1.,-1.060490312471E-32,8.659560562355E-17));
#1474 = CYLINDRICAL_SURFACE('',#1475,32.75);
#1475 = AXIS2_PLACEMENT_3D('',#1476,#1477,#1478);
#1476 = CARTESIAN_POINT('',(6.061692393648E-16,17.,-7.));
#1477 = DIRECTION('',(-8.659560562355E-17,-5.764543252825E-16,1.));
#1478 = DIRECTION('',(1.,-1.060490312471E-32,8.659560562355E-17));
#1479 = ADVANCED_FACE('',(#1480,#1483),#1486,.F.);
#1480 = FACE_BOUND('',#1481,.F.);
#1481 = EDGE_LOOP('',(#1482));
#1482 = ORIENTED_EDGE('',*,*,#606,.T.);
#1483 = FACE_BOUND('',#1484,.F.);
#1484 = EDGE_LOOP('',(#1485));
#1485 = ORIENTED_EDGE('',*,*,#1459,.T.);
#1486 = PLANE('',#1487);
#1487 = AXIS2_PLACEMENT_3D('',#1488,#1489,#1490);
#1488 = CARTESIAN_POINT('',(9.52551661859E-16,17.,-11.));
#1489 = DIRECTION('',(-8.659560562355E-17,-6.989190051972E-16,1.));
#1490 = DIRECTION('',(1.,-1.060490312471E-32,8.659560562355E-17));
#1491 = ADVANCED_FACE('',(#1492),#1512,.T.);
#1492 = FACE_BOUND('',#1493,.F.);
#1493 = EDGE_LOOP('',(#1494,#1503,#1504,#1505));
#1494 = ORIENTED_EDGE('',*,*,#1495,.F.);
#1495 = EDGE_CURVE('',#625,#1496,#1498,.T.);
#1496 = VERTEX_POINT('',#1497);
#1497 = CARTESIAN_POINT('',(16.5,17.,6.));
#1498 = CIRCLE('',#1499,1.);
#1499 = AXIS2_PLACEMENT_3D('',#1500,#1501,#1502);
#1500 = CARTESIAN_POINT('',(17.5,17.,6.));
#1501 = DIRECTION('',(4.235872758771E-17,-1.,-6.989190051972E-16));
#1502 = DIRECTION('',(1.,4.235872758771E-17,8.659560562355E-17));
#1503 = ORIENTED_EDGE('',*,*,#624,.F.);
#1504 = ORIENTED_EDGE('',*,*,#1495,.T.);
#1505 = ORIENTED_EDGE('',*,*,#1506,.T.);
#1506 = EDGE_CURVE('',#1496,#1496,#1507,.T.);
#1507 = CIRCLE('',#1508,16.5);
#1508 = AXIS2_PLACEMENT_3D('',#1509,#1510,#1511);
#1509 = CARTESIAN_POINT('',(-5.195736337413E-16,17.,6.));
#1510 = DIRECTION('',(8.659560562355E-17,6.989190051972E-16,-1.));
#1511 = DIRECTION('',(1.,4.235872758771E-17,8.659560562355E-17));
#1512 = TOROIDAL_SURFACE('',#1513,17.5,1.);
#1513 = AXIS2_PLACEMENT_3D('',#1514,#1515,#1516);
#1514 = CARTESIAN_POINT('',(-5.195736337413E-16,17.,6.));
#1515 = DIRECTION('',(-8.659560562355E-17,-6.989190051972E-16,1.));
#1516 = DIRECTION('',(1.,4.235872758771E-17,8.659560562355E-17));
#1517 = ADVANCED_FACE('',(#1518),#1529,.T.);
#1518 = FACE_BOUND('',#1519,.T.);
#1519 = EDGE_LOOP('',(#1520,#1521,#1522,#1523,#1524,#1525,#1526,#1527,
    #1528));
#1520 = ORIENTED_EDGE('',*,*,#668,.F.);
#1521 = ORIENTED_EDGE('',*,*,#652,.T.);
#1522 = ORIENTED_EDGE('',*,*,#1468,.T.);
#1523 = ORIENTED_EDGE('',*,*,#834,.F.);
#1524 = ORIENTED_EDGE('',*,*,#808,.T.);
#1525 = ORIENTED_EDGE('',*,*,#783,.F.);
#1526 = ORIENTED_EDGE('',*,*,#748,.F.);
#1527 = ORIENTED_EDGE('',*,*,#768,.F.);
#1528 = ORIENTED_EDGE('',*,*,#702,.F.);
#1529 = PLANE('',#1530);
#1530 = AXIS2_PLACEMENT_3D('',#1531,#1532,#1533);
#1531 = CARTESIAN_POINT('',(6.061692393648E-16,17.,-7.));
#1532 = DIRECTION('',(8.659560562355E-17,5.764543252825E-16,-1.));
#1533 = DIRECTION('',(1.,-1.060490312471E-32,8.659560562355E-17));
#1534 = ADVANCED_FACE('',(#1535,#1561),#1788,.T.);
#1535 = FACE_BOUND('',#1536,.T.);
#1536 = EDGE_LOOP('',(#1537,#1538,#1539,#1540,#1541,#1542,#1543,#1544,
    #1545,#1546,#1547,#1548,#1549,#1550,#1551,#1552,#1553,#1554,#1555,
    #1556,#1557,#1558,#1559,#1560));
#1537 = ORIENTED_EDGE('',*,*,#850,.T.);
#1538 = ORIENTED_EDGE('',*,*,#891,.F.);
#1539 = ORIENTED_EDGE('',*,*,#907,.T.);
#1540 = ORIENTED_EDGE('',*,*,#941,.F.);
#1541 = ORIENTED_EDGE('',*,*,#957,.T.);
#1542 = ORIENTED_EDGE('',*,*,#991,.F.);
#1543 = ORIENTED_EDGE('',*,*,#1007,.T.);
#1544 = ORIENTED_EDGE('',*,*,#1041,.F.);
#1545 = ORIENTED_EDGE('',*,*,#1057,.T.);
#1546 = ORIENTED_EDGE('',*,*,#1091,.F.);
#1547 = ORIENTED_EDGE('',*,*,#1107,.T.);
#1548 = ORIENTED_EDGE('',*,*,#1141,.F.);
#1549 = ORIENTED_EDGE('',*,*,#1157,.T.);
#1550 = ORIENTED_EDGE('',*,*,#1191,.F.);
#1551 = ORIENTED_EDGE('',*,*,#1207,.T.);
#1552 = ORIENTED_EDGE('',*,*,#1241,.F.);
#1553 = ORIENTED_EDGE('',*,*,#1257,.T.);
#1554 = ORIENTED_EDGE('',*,*,#1291,.F.);
#1555 = ORIENTED_EDGE('',*,*,#1307,.T.);
#1556 = ORIENTED_EDGE('',*,*,#1341,.F.);
#1557 = ORIENTED_EDGE('',*,*,#1357,.T.);
#1558 = ORIENTED_EDGE('',*,*,#1391,.F.);
#1559 = ORIENTED_EDGE('',*,*,#1407,.T.);
#1560 = ORIENTED_EDGE('',*,*,#1434,.F.);
#1561 = FACE_BOUND('',#1562,.T.);
#1562 = EDGE_LOOP('',(#1563,#1574,#1583,#1592,#1601,#1610,#1619,#1628,
    #1637,#1646,#1655,#1664,#1673,#1682,#1691,#1700,#1709,#1718,#1727,
    #1736,#1745,#1754,#1763,#1772,#1781));
#1563 = ORIENTED_EDGE('',*,*,#1564,.F.);
#1564 = EDGE_CURVE('',#1565,#1567,#1569,.T.);
#1565 = VERTEX_POINT('',#1566);
#1566 = CARTESIAN_POINT('',(16.735294117647,14.011701019669,4.));
#1567 = VERTEX_POINT('',#1568);
#1568 = CARTESIAN_POINT('',(15.987339335852,11.220295772246,4.));
#1569 = CIRCLE('',#1570,17.);
#1570 = AXIS2_PLACEMENT_3D('',#1571,#1572,#1573);
#1571 = CARTESIAN_POINT('',(-3.463824224942E-16,17.,4.));
#1572 = DIRECTION('',(8.659560562355E-17,3.31524965453E-16,-1.));
#1573 = DIRECTION('',(1.,-1.060490312471E-32,8.659560562355E-17));
#1574 = ORIENTED_EDGE('',*,*,#1575,.F.);
#1575 = EDGE_CURVE('',#1576,#1565,#1578,.T.);
#1576 = VERTEX_POINT('',#1577);
#1577 = CARTESIAN_POINT('',(17.,17.,4.));
#1578 = CIRCLE('',#1579,17.);
#1579 = AXIS2_PLACEMENT_3D('',#1580,#1581,#1582);
#1580 = CARTESIAN_POINT('',(-3.463824224942E-16,17.,4.));
#1581 = DIRECTION('',(8.659560562355E-17,3.31524965453E-16,-1.));
#1582 = DIRECTION('',(1.,-1.060490312471E-32,8.659560562355E-17));
#1583 = ORIENTED_EDGE('',*,*,#1584,.F.);
#1584 = EDGE_CURVE('',#1585,#1576,#1587,.T.);
#1585 = VERTEX_POINT('',#1586);
#1586 = CARTESIAN_POINT('',(16.735294117647,19.988298980331,4.));
#1587 = CIRCLE('',#1588,17.);
#1588 = AXIS2_PLACEMENT_3D('',#1589,#1590,#1591);
#1589 = CARTESIAN_POINT('',(-3.463824224942E-16,17.,4.));
#1590 = DIRECTION('',(8.659560562355E-17,3.31524965453E-16,-1.));
#1591 = DIRECTION('',(1.,-1.060490312471E-32,8.659560562355E-17));
#1592 = ORIENTED_EDGE('',*,*,#1593,.F.);
#1593 = EDGE_CURVE('',#1594,#1585,#1596,.T.);
#1594 = VERTEX_POINT('',#1595);
#1595 = CARTESIAN_POINT('',(15.987339335852,22.779704227754,4.));
#1596 = CIRCLE('',#1597,17.);
#1597 = AXIS2_PLACEMENT_3D('',#1598,#1599,#1600);
#1598 = CARTESIAN_POINT('',(-3.463824224942E-16,17.,4.));
#1599 = DIRECTION('',(8.659560562355E-17,3.31524965453E-16,-1.));
#1600 = DIRECTION('',(1.,-1.060490312471E-32,8.659560562355E-17));
#1601 = ORIENTED_EDGE('',*,*,#1602,.F.);
#1602 = EDGE_CURVE('',#1603,#1594,#1605,.T.);
#1603 = VERTEX_POINT('',#1604);
#1604 = CARTESIAN_POINT('',(12.999040355521,27.955589889893,4.));
#1605 = CIRCLE('',#1606,17.);
#1606 = AXIS2_PLACEMENT_3D('',#1607,#1608,#1609);
#1607 = CARTESIAN_POINT('',(-3.463824224942E-16,17.,4.));
#1608 = DIRECTION('',(8.659560562355E-17,3.31524965453E-16,-1.));
#1609 = DIRECTION('',(1.,-1.060490312471E-32,8.659560562355E-17));
#1610 = ORIENTED_EDGE('',*,*,#1611,.F.);
#1611 = EDGE_CURVE('',#1612,#1603,#1614,.T.);
#1612 = VERTEX_POINT('',#1613);
#1613 = CARTESIAN_POINT('',(10.955589889893,29.999040355521,4.));
#1614 = CIRCLE('',#1615,17.);
#1615 = AXIS2_PLACEMENT_3D('',#1616,#1617,#1618);
#1616 = CARTESIAN_POINT('',(-3.463824224942E-16,17.,4.));
#1617 = DIRECTION('',(8.659560562355E-17,3.31524965453E-16,-1.));
#1618 = DIRECTION('',(1.,-1.060490312471E-32,8.659560562355E-17));
#1619 = ORIENTED_EDGE('',*,*,#1620,.F.);
#1620 = EDGE_CURVE('',#1621,#1612,#1623,.T.);
#1621 = VERTEX_POINT('',#1622);
#1622 = CARTESIAN_POINT('',(5.779704227754,32.987339335852,4.));
#1623 = CIRCLE('',#1624,17.);
#1624 = AXIS2_PLACEMENT_3D('',#1625,#1626,#1627);
#1625 = CARTESIAN_POINT('',(-3.463824224942E-16,17.,4.));
#1626 = DIRECTION('',(8.659560562355E-17,3.31524965453E-16,-1.));
#1627 = DIRECTION('',(1.,-1.060490312471E-32,8.659560562355E-17));
#1628 = ORIENTED_EDGE('',*,*,#1629,.F.);
#1629 = EDGE_CURVE('',#1630,#1621,#1632,.T.);
#1630 = VERTEX_POINT('',#1631);
#1631 = CARTESIAN_POINT('',(2.988298980331,33.735294117647,4.));
#1632 = CIRCLE('',#1633,17.);
#1633 = AXIS2_PLACEMENT_3D('',#1634,#1635,#1636);
#1634 = CARTESIAN_POINT('',(-3.463824224942E-16,17.,4.));
#1635 = DIRECTION('',(8.659560562355E-17,3.31524965453E-16,-1.));
#1636 = DIRECTION('',(1.,-1.060490312471E-32,8.659560562355E-17));
#1637 = ORIENTED_EDGE('',*,*,#1638,.F.);
#1638 = EDGE_CURVE('',#1639,#1630,#1641,.T.);
#1639 = VERTEX_POINT('',#1640);
#1640 = CARTESIAN_POINT('',(-2.988298980331,33.735294117647,4.));
#1641 = CIRCLE('',#1642,17.);
#1642 = AXIS2_PLACEMENT_3D('',#1643,#1644,#1645);
#1643 = CARTESIAN_POINT('',(-3.463824224942E-16,17.,4.));
#1644 = DIRECTION('',(8.659560562355E-17,3.31524965453E-16,-1.));
#1645 = DIRECTION('',(1.,-1.060490312471E-32,8.659560562355E-17));
#1646 = ORIENTED_EDGE('',*,*,#1647,.F.);
#1647 = EDGE_CURVE('',#1648,#1639,#1650,.T.);
#1648 = VERTEX_POINT('',#1649);
#1649 = CARTESIAN_POINT('',(-5.779704227754,32.987339335852,4.));
#1650 = CIRCLE('',#1651,17.);
#1651 = AXIS2_PLACEMENT_3D('',#1652,#1653,#1654);
#1652 = CARTESIAN_POINT('',(-3.463824224942E-16,17.,4.));
#1653 = DIRECTION('',(8.659560562355E-17,3.31524965453E-16,-1.));
#1654 = DIRECTION('',(1.,-1.060490312471E-32,8.659560562355E-17));
#1655 = ORIENTED_EDGE('',*,*,#1656,.F.);
#1656 = EDGE_CURVE('',#1657,#1648,#1659,.T.);
#1657 = VERTEX_POINT('',#1658);
#1658 = CARTESIAN_POINT('',(-10.95558988989,29.999040355521,4.));
#1659 = CIRCLE('',#1660,17.);
#1660 = AXIS2_PLACEMENT_3D('',#1661,#1662,#1663);
#1661 = CARTESIAN_POINT('',(-3.463824224942E-16,17.,4.));
#1662 = DIRECTION('',(8.659560562355E-17,3.31524965453E-16,-1.));
#1663 = DIRECTION('',(1.,-1.060490312471E-32,8.659560562355E-17));
#1664 = ORIENTED_EDGE('',*,*,#1665,.F.);
#1665 = EDGE_CURVE('',#1666,#1657,#1668,.T.);
#1666 = VERTEX_POINT('',#1667);
#1667 = CARTESIAN_POINT('',(-12.99904035552,27.955589889893,4.));
#1668 = CIRCLE('',#1669,17.);
#1669 = AXIS2_PLACEMENT_3D('',#1670,#1671,#1672);
#1670 = CARTESIAN_POINT('',(-3.463824224942E-16,17.,4.));
#1671 = DIRECTION('',(8.659560562355E-17,3.31524965453E-16,-1.));
#1672 = DIRECTION('',(1.,-1.060490312471E-32,8.659560562355E-17));
#1673 = ORIENTED_EDGE('',*,*,#1674,.F.);
#1674 = EDGE_CURVE('',#1675,#1666,#1677,.T.);
#1675 = VERTEX_POINT('',#1676);
#1676 = CARTESIAN_POINT('',(-15.98733933585,22.779704227754,4.));
#1677 = CIRCLE('',#1678,17.);
#1678 = AXIS2_PLACEMENT_3D('',#1679,#1680,#1681);
#1679 = CARTESIAN_POINT('',(-3.463824224942E-16,17.,4.));
#1680 = DIRECTION('',(8.659560562355E-17,3.31524965453E-16,-1.));
#1681 = DIRECTION('',(1.,-1.060490312471E-32,8.659560562355E-17));
#1682 = ORIENTED_EDGE('',*,*,#1683,.F.);
#1683 = EDGE_CURVE('',#1684,#1675,#1686,.T.);
#1684 = VERTEX_POINT('',#1685);
#1685 = CARTESIAN_POINT('',(-16.73529411764,19.988298980331,4.));
#1686 = CIRCLE('',#1687,17.);
#1687 = AXIS2_PLACEMENT_3D('',#1688,#1689,#1690);
#1688 = CARTESIAN_POINT('',(-3.463824224942E-16,17.,4.));
#1689 = DIRECTION('',(8.659560562355E-17,3.31524965453E-16,-1.));
#1690 = DIRECTION('',(1.,-1.060490312471E-32,8.659560562355E-17));
#1691 = ORIENTED_EDGE('',*,*,#1692,.F.);
#1692 = EDGE_CURVE('',#1693,#1684,#1695,.T.);
#1693 = VERTEX_POINT('',#1694);
#1694 = CARTESIAN_POINT('',(-16.73529411764,14.011701019669,4.));
#1695 = CIRCLE('',#1696,17.);
#1696 = AXIS2_PLACEMENT_3D('',#1697,#1698,#1699);
#1697 = CARTESIAN_POINT('',(-3.463824224942E-16,17.,4.));
#1698 = DIRECTION('',(8.659560562355E-17,3.31524965453E-16,-1.));
#1699 = DIRECTION('',(1.,-1.060490312471E-32,8.659560562355E-17));
#1700 = ORIENTED_EDGE('',*,*,#1701,.F.);
#1701 = EDGE_CURVE('',#1702,#1693,#1704,.T.);
#1702 = VERTEX_POINT('',#1703);
#1703 = CARTESIAN_POINT('',(-15.98733933585,11.220295772246,4.));
#1704 = CIRCLE('',#1705,17.);
#1705 = AXIS2_PLACEMENT_3D('',#1706,#1707,#1708);
#1706 = CARTESIAN_POINT('',(-3.463824224942E-16,17.,4.));
#1707 = DIRECTION('',(8.659560562355E-17,3.31524965453E-16,-1.));
#1708 = DIRECTION('',(1.,-1.060490312471E-32,8.659560562355E-17));
#1709 = ORIENTED_EDGE('',*,*,#1710,.F.);
#1710 = EDGE_CURVE('',#1711,#1702,#1713,.T.);
#1711 = VERTEX_POINT('',#1712);
#1712 = CARTESIAN_POINT('',(-12.99904035552,6.044410110107,4.));
#1713 = CIRCLE('',#1714,17.);
#1714 = AXIS2_PLACEMENT_3D('',#1715,#1716,#1717);
#1715 = CARTESIAN_POINT('',(-3.463824224942E-16,17.,4.));
#1716 = DIRECTION('',(8.659560562355E-17,3.31524965453E-16,-1.));
#1717 = DIRECTION('',(1.,-1.060490312471E-32,8.659560562355E-17));
#1718 = ORIENTED_EDGE('',*,*,#1719,.F.);
#1719 = EDGE_CURVE('',#1720,#1711,#1722,.T.);
#1720 = VERTEX_POINT('',#1721);
#1721 = CARTESIAN_POINT('',(-10.95558988989,4.000959644479,4.));
#1722 = CIRCLE('',#1723,17.);
#1723 = AXIS2_PLACEMENT_3D('',#1724,#1725,#1726);
#1724 = CARTESIAN_POINT('',(-3.463824224942E-16,17.,4.));
#1725 = DIRECTION('',(8.659560562355E-17,3.31524965453E-16,-1.));
#1726 = DIRECTION('',(1.,-1.060490312471E-32,8.659560562355E-17));
#1727 = ORIENTED_EDGE('',*,*,#1728,.F.);
#1728 = EDGE_CURVE('',#1729,#1720,#1731,.T.);
#1729 = VERTEX_POINT('',#1730);
#1730 = CARTESIAN_POINT('',(-5.779704227754,1.012660664148,4.));
#1731 = CIRCLE('',#1732,17.);
#1732 = AXIS2_PLACEMENT_3D('',#1733,#1734,#1735);
#1733 = CARTESIAN_POINT('',(-3.463824224942E-16,17.,4.));
#1734 = DIRECTION('',(8.659560562355E-17,3.31524965453E-16,-1.));
#1735 = DIRECTION('',(1.,-1.060490312471E-32,8.659560562355E-17));
#1736 = ORIENTED_EDGE('',*,*,#1737,.F.);
#1737 = EDGE_CURVE('',#1738,#1729,#1740,.T.);
#1738 = VERTEX_POINT('',#1739);
#1739 = CARTESIAN_POINT('',(-2.988298980331,0.264705882353,4.));
#1740 = CIRCLE('',#1741,17.);
#1741 = AXIS2_PLACEMENT_3D('',#1742,#1743,#1744);
#1742 = CARTESIAN_POINT('',(-3.463824224942E-16,17.,4.));
#1743 = DIRECTION('',(8.659560562355E-17,3.31524965453E-16,-1.));
#1744 = DIRECTION('',(1.,-1.060490312471E-32,8.659560562355E-17));
#1745 = ORIENTED_EDGE('',*,*,#1746,.F.);
#1746 = EDGE_CURVE('',#1747,#1738,#1749,.T.);
#1747 = VERTEX_POINT('',#1748);
#1748 = CARTESIAN_POINT('',(2.988298980331,0.264705882353,4.));
#1749 = CIRCLE('',#1750,17.);
#1750 = AXIS2_PLACEMENT_3D('',#1751,#1752,#1753);
#1751 = CARTESIAN_POINT('',(-3.463824224942E-16,17.,4.));
#1752 = DIRECTION('',(8.659560562355E-17,3.31524965453E-16,-1.));
#1753 = DIRECTION('',(1.,-1.060490312471E-32,8.659560562355E-17));
#1754 = ORIENTED_EDGE('',*,*,#1755,.F.);
#1755 = EDGE_CURVE('',#1756,#1747,#1758,.T.);
#1756 = VERTEX_POINT('',#1757);
#1757 = CARTESIAN_POINT('',(5.779704227754,1.012660664148,4.));
#1758 = CIRCLE('',#1759,17.);
#1759 = AXIS2_PLACEMENT_3D('',#1760,#1761,#1762);
#1760 = CARTESIAN_POINT('',(-3.463824224942E-16,17.,4.));
#1761 = DIRECTION('',(8.659560562355E-17,3.31524965453E-16,-1.));
#1762 = DIRECTION('',(1.,-1.060490312471E-32,8.659560562355E-17));
#1763 = ORIENTED_EDGE('',*,*,#1764,.F.);
#1764 = EDGE_CURVE('',#1765,#1756,#1767,.T.);
#1765 = VERTEX_POINT('',#1766);
#1766 = CARTESIAN_POINT('',(10.955589889893,4.000959644479,4.));
#1767 = CIRCLE('',#1768,17.);
#1768 = AXIS2_PLACEMENT_3D('',#1769,#1770,#1771);
#1769 = CARTESIAN_POINT('',(-3.463824224942E-16,17.,4.));
#1770 = DIRECTION('',(8.659560562355E-17,3.31524965453E-16,-1.));
#1771 = DIRECTION('',(1.,-1.060490312471E-32,8.659560562355E-17));
#1772 = ORIENTED_EDGE('',*,*,#1773,.F.);
#1773 = EDGE_CURVE('',#1774,#1765,#1776,.T.);
#1774 = VERTEX_POINT('',#1775);
#1775 = CARTESIAN_POINT('',(12.999040355521,6.044410110107,4.));
#1776 = CIRCLE('',#1777,17.);
#1777 = AXIS2_PLACEMENT_3D('',#1778,#1779,#1780);
#1778 = CARTESIAN_POINT('',(-3.463824224942E-16,17.,4.));
#1779 = DIRECTION('',(8.659560562355E-17,3.31524965453E-16,-1.));
#1780 = DIRECTION('',(1.,-1.060490312471E-32,8.659560562355E-17));
#1781 = ORIENTED_EDGE('',*,*,#1782,.F.);
#1782 = EDGE_CURVE('',#1567,#1774,#1783,.T.);
#1783 = CIRCLE('',#1784,17.);
#1784 = AXIS2_PLACEMENT_3D('',#1785,#1786,#1787);
#1785 = CARTESIAN_POINT('',(-3.463824224942E-16,17.,4.));
#1786 = DIRECTION('',(8.659560562355E-17,3.31524965453E-16,-1.));
#1787 = DIRECTION('',(1.,-1.060490312471E-32,8.659560562355E-17));
#1788 = PLANE('',#1789);
#1789 = AXIS2_PLACEMENT_3D('',#1790,#1791,#1792);
#1790 = CARTESIAN_POINT('',(-1.065489460139E-15,17.,4.));
#1791 = DIRECTION('',(-0.,-0.,-1.));
#1792 = DIRECTION('',(-1.,0.,0.));
#1793 = ADVANCED_FACE('',(#1794),#1813,.F.);
#1794 = FACE_BOUND('',#1795,.T.);
#1795 = EDGE_LOOP('',(#1796,#1804,#1811,#1812));
#1796 = ORIENTED_EDGE('',*,*,#1797,.T.);
#1797 = EDGE_CURVE('',#1496,#1798,#1800,.T.);
#1798 = VERTEX_POINT('',#1799);
#1799 = CARTESIAN_POINT('',(16.5,17.,4.5));
#1800 = LINE('',#1801,#1802);
#1801 = CARTESIAN_POINT('',(16.5,17.,7.));
#1802 = VECTOR('',#1803,1.);
#1803 = DIRECTION('',(8.659560562355E-17,2.090602855383E-16,-1.));
#1804 = ORIENTED_EDGE('',*,*,#1805,.T.);
#1805 = EDGE_CURVE('',#1798,#1798,#1806,.T.);
#1806 = CIRCLE('',#1807,16.5);
#1807 = AXIS2_PLACEMENT_3D('',#1808,#1809,#1810);
#1808 = CARTESIAN_POINT('',(-3.89680225306E-16,17.,4.5));
#1809 = DIRECTION('',(8.659560562355E-17,2.090602855383E-16,-1.));
#1810 = DIRECTION('',(1.,-1.060490312471E-32,8.659560562355E-17));
#1811 = ORIENTED_EDGE('',*,*,#1797,.F.);
#1812 = ORIENTED_EDGE('',*,*,#1506,.F.);
#1813 = CYLINDRICAL_SURFACE('',#1814,16.5);
#1814 = AXIS2_PLACEMENT_3D('',#1815,#1816,#1817);
#1815 = CARTESIAN_POINT('',(-6.061692393648E-16,17.,7.));
#1816 = DIRECTION('',(-8.659560562355E-17,-2.090602855383E-16,1.));
#1817 = DIRECTION('',(1.,-1.060490312471E-32,8.659560562355E-17));
#1818 = ADVANCED_FACE('',(#1819),#1862,.F.);
#1819 = FACE_BOUND('',#1820,.T.);
#1820 = EDGE_LOOP('',(#1821,#1829,#1836,#1837,#1838,#1839,#1840,#1841,
    #1842,#1843,#1844,#1845,#1846,#1847,#1848,#1849,#1850,#1851,#1852,
    #1853,#1854,#1855,#1856,#1857,#1858,#1859,#1860,#1861));
#1821 = ORIENTED_EDGE('',*,*,#1822,.F.);
#1822 = EDGE_CURVE('',#1823,#1576,#1825,.T.);
#1823 = VERTEX_POINT('',#1824);
#1824 = CARTESIAN_POINT('',(17.,17.,4.5));
#1825 = LINE('',#1826,#1827);
#1826 = CARTESIAN_POINT('',(17.,17.,4.5));
#1827 = VECTOR('',#1828,1.);
#1828 = DIRECTION('',(8.659560562355E-17,3.31524965453E-16,-1.));
#1829 = ORIENTED_EDGE('',*,*,#1830,.F.);
#1830 = EDGE_CURVE('',#1823,#1823,#1831,.T.);
#1831 = CIRCLE('',#1832,17.);
#1832 = AXIS2_PLACEMENT_3D('',#1833,#1834,#1835);
#1833 = CARTESIAN_POINT('',(-3.89680225306E-16,17.,4.5));
#1834 = DIRECTION('',(8.659560562355E-17,3.31524965453E-16,-1.));
#1835 = DIRECTION('',(1.,-1.060490312471E-32,8.659560562355E-17));
#1836 = ORIENTED_EDGE('',*,*,#1822,.T.);
#1837 = ORIENTED_EDGE('',*,*,#1575,.T.);
#1838 = ORIENTED_EDGE('',*,*,#1564,.T.);
#1839 = ORIENTED_EDGE('',*,*,#1782,.T.);
#1840 = ORIENTED_EDGE('',*,*,#1773,.T.);
#1841 = ORIENTED_EDGE('',*,*,#1764,.T.);
#1842 = ORIENTED_EDGE('',*,*,#1755,.T.);
#1843 = ORIENTED_EDGE('',*,*,#1746,.T.);
#1844 = ORIENTED_EDGE('',*,*,#1737,.T.);
#1845 = ORIENTED_EDGE('',*,*,#1728,.T.);
#1846 = ORIENTED_EDGE('',*,*,#1719,.T.);
#1847 = ORIENTED_EDGE('',*,*,#1710,.T.);
#1848 = ORIENTED_EDGE('',*,*,#1701,.T.);
#1849 = ORIENTED_EDGE('',*,*,#1692,.T.);
#1850 = ORIENTED_EDGE('',*,*,#1683,.T.);
#1851 = ORIENTED_EDGE('',*,*,#1674,.T.);
#1852 = ORIENTED_EDGE('',*,*,#1665,.T.);
#1853 = ORIENTED_EDGE('',*,*,#1656,.T.);
#1854 = ORIENTED_EDGE('',*,*,#1647,.T.);
#1855 = ORIENTED_EDGE('',*,*,#1638,.T.);
#1856 = ORIENTED_EDGE('',*,*,#1629,.T.);
#1857 = ORIENTED_EDGE('',*,*,#1620,.T.);
#1858 = ORIENTED_EDGE('',*,*,#1611,.T.);
#1859 = ORIENTED_EDGE('',*,*,#1602,.T.);
#1860 = ORIENTED_EDGE('',*,*,#1593,.T.);
#1861 = ORIENTED_EDGE('',*,*,#1584,.T.);
#1862 = CYLINDRICAL_SURFACE('',#1863,17.);
#1863 = AXIS2_PLACEMENT_3D('',#1864,#1865,#1866);
#1864 = CARTESIAN_POINT('',(-3.89680225306E-16,17.,4.5));
#1865 = DIRECTION('',(-8.659560562355E-17,-3.31524965453E-16,1.));
#1866 = DIRECTION('',(1.,-1.060490312471E-32,8.659560562355E-17));
#1867 = ADVANCED_FACE('',(#1868,#1871),#1874,.T.);
#1868 = FACE_BOUND('',#1869,.T.);
#1869 = EDGE_LOOP('',(#1870));
#1870 = ORIENTED_EDGE('',*,*,#1830,.T.);
#1871 = FACE_BOUND('',#1872,.T.);
#1872 = EDGE_LOOP('',(#1873));
#1873 = ORIENTED_EDGE('',*,*,#1805,.F.);
#1874 = PLANE('',#1875);
#1875 = AXIS2_PLACEMENT_3D('',#1876,#1877,#1878);
#1876 = CARTESIAN_POINT('',(-3.89680225306E-16,17.,4.5));
#1877 = DIRECTION('',(8.659560562355E-17,3.31524965453E-16,-1.));
#1878 = DIRECTION('',(1.,-1.060490312471E-32,8.659560562355E-17));
#1879 = ( GEOMETRIC_REPRESENTATION_CONTEXT(3) 
GLOBAL_UNCERTAINTY_ASSIGNED_CONTEXT((#1883)) 
GLOBAL_UNIT_ASSIGNED_CONTEXT((#1880,#1881,#1882)) REPRESENTATION_CONTEXT
('Context #1','3D Context with UNIT and UNCERTAINTY') );
#1880 = ( LENGTH_UNIT() NAMED_UNIT(*) SI_UNIT(.MILLI.,.METRE.) );
#1881 = ( NAMED_UNIT(*) PLANE_ANGLE_UNIT() SI_UNIT($,.RADIAN.) );
#1882 = ( NAMED_UNIT(*) SI_UNIT($,.STERADIAN.) SOLID_ANGLE_UNIT() );
#1883 = UNCERTAINTY_MEASURE_WITH_UNIT(LENGTH_MEASURE(1.E-07),#1880,
  'distance_accuracy_value','confusion accuracy');
#1884 = PRODUCT_RELATED_PRODUCT_CATEGORY('part',$,(#7));
#1885 = MECHANICAL_DESIGN_GEOMETRIC_PRESENTATION_REPRESENTATION('',(
    #1886),#1879);
#1886 = STYLED_ITEM('color',(#1887),#15);
#1887 = PRESENTATION_STYLE_ASSIGNMENT((#1888,#1894));
#1888 = SURFACE_STYLE_USAGE(.BOTH.,#1889);
#1889 = SURFACE_SIDE_STYLE('',(#1890));
#1890 = SURFACE_STYLE_FILL_AREA(#1891);
#1891 = FILL_AREA_STYLE('',(#1892));
#1892 = FILL_AREA_STYLE_COLOUR('',#1893);
#1893 = COLOUR_RGB('',0.447058818107,0.474509808674,0.501960817233);
#1894 = CURVE_STYLE('',#1895,POSITIVE_LENGTH_MEASURE(0.1),#1896);
#1895 = DRAUGHTING_PRE_DEFINED_CURVE_FONT('continuous');
#1896 = COLOUR_RGB('',9.803921802644E-02,9.803921802644E-02,
  9.803921802644E-02);
ENDSEC;
END-ISO-10303-21;
