ISO-10303-21;
HEADER;
FILE_DESCRIPTION(('FreeCAD Model'),'2;1');
FILE_NAME('Open CASCADE Shape Model','2026-09-05T14:57:59',(''),(''),
  'Open CASCADE STEP processor 7.8','FreeCAD','Unknown');
FILE_SCHEMA(('AUTOMOTIVE_DESIGN { 1 0 10303 214 1 1 1 1 }'));
ENDSEC;
DATA;
#1 = APPLICATION_PROTOCOL_DEFINITION('international standard',
  'automotive_design',2000,#2);
#2 = APPLICATION_CONTEXT(
  'core data for automotive mechanical design processes');
#3 = SHAPE_DEFINITION_REPRESENTATION(#4,#10);
#4 = PRODUCT_DEFINITION_SHAPE('','',#5);
#5 = PRODUCT_DEFINITION('design','',#6,#9);
#6 = PRODUCT_DEFINITION_FORMATION('','',#7);
#7 = PRODUCT('Fillet031','Fillet031','',(#8));
#8 = PRODUCT_CONTEXT('',#2,'mechanical');
#9 = PRODUCT_DEFINITION_CONTEXT('part definition',#2,'design');
#10 = ADVANCED_BREP_SHAPE_REPRESENTATION('',(#11,#15),#1953);
#11 = AXIS2_PLACEMENT_3D('',#12,#13,#14);
#12 = CARTESIAN_POINT('',(0.,0.,0.));
#13 = DIRECTION('',(0.,0.,1.));
#14 = DIRECTION('',(1.,0.,-0.));
#15 = MANIFOLD_SOLID_BREP('',#16);
#16 = CLOSED_SHELL('',(#17,#266,#292,#543,#585,#617,#642,#667,#692,#717,
    #742,#767,#792,#817,#842,#867,#892,#917,#942,#967,#992,#1017,#1042,
    #1067,#1092,#1117,#1142,#1167,#1185,#1210,#1235,#1260,#1345,#1365,
    #1385,#1405,#1436,#1461,#1486,#1510,#1566,#1584,#1609,#1634,#1659,
    #1748,#1772,#1797,#1814,#1867,#1891,#1915,#1932,#1941));
#17 = ADVANCED_FACE('',(#18),#261,.T.);
#18 = FACE_BOUND('',#19,.F.);
#19 = EDGE_LOOP('',(#20,#30,#39,#48,#57,#66,#75,#84,#93,#102,#111,#120,
    #129,#138,#147,#156,#165,#174,#183,#192,#201,#210,#219,#228,#237,
    #246,#253,#254));
#20 = ORIENTED_EDGE('',*,*,#21,.F.);
#21 = EDGE_CURVE('',#22,#24,#26,.T.);
#22 = VERTEX_POINT('',#23);
#23 = CARTESIAN_POINT('',(16.,-17.,3.5));
#24 = VERTEX_POINT('',#25);
#25 = CARTESIAN_POINT('',(16.,-17.,5.5));
#26 = LINE('',#27,#28);
#27 = CARTESIAN_POINT('',(16.,-17.,3.5));
#28 = VECTOR('',#29,1.);
#29 = DIRECTION('',(-1.318039815089E-16,-1.224646799147E-16,1.));
#30 = ORIENTED_EDGE('',*,*,#31,.F.);
#31 = EDGE_CURVE('',#32,#22,#34,.T.);
#32 = VERTEX_POINT('',#33);
#33 = CARTESIAN_POINT('',(15.764705882353,-19.73387059732,3.5));
#34 = CIRCLE('',#35,16.);
#35 = AXIS2_PLACEMENT_3D('',#36,#37,#38);
#36 = CARTESIAN_POINT('',(4.268644844189E-16,-17.,3.5));
#37 = DIRECTION('',(-1.31803981509E-16,-1.224646799147E-16,1.));
#38 = DIRECTION('',(1.,1.318039815089E-16,1.31803981509E-16));
#39 = ORIENTED_EDGE('',*,*,#40,.F.);
#40 = EDGE_CURVE('',#41,#32,#43,.T.);
#41 = VERTEX_POINT('',#42);
#42 = CARTESIAN_POINT('',(15.019571075969,-22.51475155323,3.5));
#43 = CIRCLE('',#44,16.);
#44 = AXIS2_PLACEMENT_3D('',#45,#46,#47);
#45 = CARTESIAN_POINT('',(4.268644844189E-16,-17.,3.5));
#46 = DIRECTION('',(-1.31803981509E-16,-1.224646799147E-16,1.));
#47 = DIRECTION('',(1.,1.318039815089E-16,1.31803981509E-16));
#48 = ORIENTED_EDGE('',*,*,#49,.F.);
#49 = EDGE_CURVE('',#50,#41,#52,.T.);
#50 = VERTEX_POINT('',#51);
#51 = CARTESIAN_POINT('',(12.285700478646,-27.24995432911,3.5));
#52 = CIRCLE('',#53,16.);
#53 = AXIS2_PLACEMENT_3D('',#54,#55,#56);
#54 = CARTESIAN_POINT('',(4.268644844189E-16,-17.,3.5));
#55 = DIRECTION('',(-1.31803981509E-16,-1.224646799147E-16,1.));
#56 = DIRECTION('',(1.,1.318039815089E-16,1.31803981509E-16));
#57 = ORIENTED_EDGE('',*,*,#58,.F.);
#58 = EDGE_CURVE('',#59,#50,#61,.T.);
#59 = VERTEX_POINT('',#60);
#60 = CARTESIAN_POINT('',(10.249954329117,-29.28570047864,3.5));
#61 = CIRCLE('',#62,16.);
#62 = AXIS2_PLACEMENT_3D('',#63,#64,#65);
#63 = CARTESIAN_POINT('',(4.268644844189E-16,-17.,3.5));
#64 = DIRECTION('',(-1.31803981509E-16,-1.224646799147E-16,1.));
#65 = DIRECTION('',(1.,1.318039815089E-16,1.31803981509E-16));
#66 = ORIENTED_EDGE('',*,*,#67,.F.);
#67 = EDGE_CURVE('',#68,#59,#70,.T.);
#68 = VERTEX_POINT('',#69);
#69 = CARTESIAN_POINT('',(5.514751553236,-32.01957107596,3.5));
#70 = CIRCLE('',#71,16.);
#71 = AXIS2_PLACEMENT_3D('',#72,#73,#74);
#72 = CARTESIAN_POINT('',(4.268644844189E-16,-17.,3.5));
#73 = DIRECTION('',(-1.31803981509E-16,-1.224646799147E-16,1.));
#74 = DIRECTION('',(1.,1.318039815089E-16,1.31803981509E-16));
#75 = ORIENTED_EDGE('',*,*,#76,.F.);
#76 = EDGE_CURVE('',#77,#68,#79,.T.);
#77 = VERTEX_POINT('',#78);
#78 = CARTESIAN_POINT('',(2.733870597323,-32.76470588235,3.5));
#79 = CIRCLE('',#80,16.);
#80 = AXIS2_PLACEMENT_3D('',#81,#82,#83);
#81 = CARTESIAN_POINT('',(4.268644844189E-16,-17.,3.5));
#82 = DIRECTION('',(-1.31803981509E-16,-1.224646799147E-16,1.));
#83 = DIRECTION('',(1.,1.318039815089E-16,1.31803981509E-16));
#84 = ORIENTED_EDGE('',*,*,#85,.F.);
#85 = EDGE_CURVE('',#86,#77,#88,.T.);
#86 = VERTEX_POINT('',#87);
#87 = CARTESIAN_POINT('',(-2.733870597323,-32.76470588235,3.5));
#88 = CIRCLE('',#89,16.);
#89 = AXIS2_PLACEMENT_3D('',#90,#91,#92);
#90 = CARTESIAN_POINT('',(4.268644844189E-16,-17.,3.5));
#91 = DIRECTION('',(-1.31803981509E-16,-1.224646799147E-16,1.));
#92 = DIRECTION('',(1.,1.318039815089E-16,1.31803981509E-16));
#93 = ORIENTED_EDGE('',*,*,#94,.F.);
#94 = EDGE_CURVE('',#95,#86,#97,.T.);
#95 = VERTEX_POINT('',#96);
#96 = CARTESIAN_POINT('',(-5.514751553236,-32.01957107596,3.5));
#97 = CIRCLE('',#98,16.);
#98 = AXIS2_PLACEMENT_3D('',#99,#100,#101);
#99 = CARTESIAN_POINT('',(4.268644844189E-16,-17.,3.5));
#100 = DIRECTION('',(-1.31803981509E-16,-1.224646799147E-16,1.));
#101 = DIRECTION('',(1.,1.318039815089E-16,1.31803981509E-16));
#102 = ORIENTED_EDGE('',*,*,#103,.F.);
#103 = EDGE_CURVE('',#104,#95,#106,.T.);
#104 = VERTEX_POINT('',#105);
#105 = CARTESIAN_POINT('',(-10.24995432911,-29.28570047864,3.5));
#106 = CIRCLE('',#107,16.);
#107 = AXIS2_PLACEMENT_3D('',#108,#109,#110);
#108 = CARTESIAN_POINT('',(4.268644844189E-16,-17.,3.5));
#109 = DIRECTION('',(-1.31803981509E-16,-1.224646799147E-16,1.));
#110 = DIRECTION('',(1.,1.318039815089E-16,1.31803981509E-16));
#111 = ORIENTED_EDGE('',*,*,#112,.F.);
#112 = EDGE_CURVE('',#113,#104,#115,.T.);
#113 = VERTEX_POINT('',#114);
#114 = CARTESIAN_POINT('',(-12.28570047864,-27.24995432911,3.5));
#115 = CIRCLE('',#116,16.);
#116 = AXIS2_PLACEMENT_3D('',#117,#118,#119);
#117 = CARTESIAN_POINT('',(4.268644844189E-16,-17.,3.5));
#118 = DIRECTION('',(-1.31803981509E-16,-1.224646799147E-16,1.));
#119 = DIRECTION('',(1.,1.318039815089E-16,1.31803981509E-16));
#120 = ORIENTED_EDGE('',*,*,#121,.F.);
#121 = EDGE_CURVE('',#122,#113,#124,.T.);
#122 = VERTEX_POINT('',#123);
#123 = CARTESIAN_POINT('',(-15.01957107596,-22.51475155323,3.5));
#124 = CIRCLE('',#125,16.);
#125 = AXIS2_PLACEMENT_3D('',#126,#127,#128);
#126 = CARTESIAN_POINT('',(4.268644844189E-16,-17.,3.5));
#127 = DIRECTION('',(-1.31803981509E-16,-1.224646799147E-16,1.));
#128 = DIRECTION('',(1.,1.318039815089E-16,1.31803981509E-16));
#129 = ORIENTED_EDGE('',*,*,#130,.F.);
#130 = EDGE_CURVE('',#131,#122,#133,.T.);
#131 = VERTEX_POINT('',#132);
#132 = CARTESIAN_POINT('',(-15.76470588235,-19.73387059732,3.5));
#133 = CIRCLE('',#134,16.);
#134 = AXIS2_PLACEMENT_3D('',#135,#136,#137);
#135 = CARTESIAN_POINT('',(4.268644844189E-16,-17.,3.5));
#136 = DIRECTION('',(-1.31803981509E-16,-1.224646799147E-16,1.));
#137 = DIRECTION('',(1.,1.318039815089E-16,1.31803981509E-16));
#138 = ORIENTED_EDGE('',*,*,#139,.F.);
#139 = EDGE_CURVE('',#140,#131,#142,.T.);
#140 = VERTEX_POINT('',#141);
#141 = CARTESIAN_POINT('',(-15.76470588235,-14.26612940267,3.5));
#142 = CIRCLE('',#143,16.);
#143 = AXIS2_PLACEMENT_3D('',#144,#145,#146);
#144 = CARTESIAN_POINT('',(4.268644844189E-16,-17.,3.5));
#145 = DIRECTION('',(-1.31803981509E-16,-1.224646799147E-16,1.));
#146 = DIRECTION('',(1.,1.318039815089E-16,1.31803981509E-16));
#147 = ORIENTED_EDGE('',*,*,#148,.F.);
#148 = EDGE_CURVE('',#149,#140,#151,.T.);
#149 = VERTEX_POINT('',#150);
#150 = CARTESIAN_POINT('',(-15.01957107596,-11.48524844676,3.5));
#151 = CIRCLE('',#152,16.);
#152 = AXIS2_PLACEMENT_3D('',#153,#154,#155);
#153 = CARTESIAN_POINT('',(4.268644844189E-16,-17.,3.5));
#154 = DIRECTION('',(-1.31803981509E-16,-1.224646799147E-16,1.));
#155 = DIRECTION('',(1.,1.318039815089E-16,1.31803981509E-16));
#156 = ORIENTED_EDGE('',*,*,#157,.F.);
#157 = EDGE_CURVE('',#158,#149,#160,.T.);
#158 = VERTEX_POINT('',#159);
#159 = CARTESIAN_POINT('',(-12.28570047864,-6.750045670883,3.5));
#160 = CIRCLE('',#161,16.);
#161 = AXIS2_PLACEMENT_3D('',#162,#163,#164);
#162 = CARTESIAN_POINT('',(4.268644844189E-16,-17.,3.5));
#163 = DIRECTION('',(-1.31803981509E-16,-1.224646799147E-16,1.));
#164 = DIRECTION('',(1.,1.318039815089E-16,1.31803981509E-16));
#165 = ORIENTED_EDGE('',*,*,#166,.F.);
#166 = EDGE_CURVE('',#167,#158,#169,.T.);
#167 = VERTEX_POINT('',#168);
#168 = CARTESIAN_POINT('',(-10.24995432911,-4.714299521354,3.5));
#169 = CIRCLE('',#170,16.);
#170 = AXIS2_PLACEMENT_3D('',#171,#172,#173);
#171 = CARTESIAN_POINT('',(4.268644844189E-16,-17.,3.5));
#172 = DIRECTION('',(-1.31803981509E-16,-1.224646799147E-16,1.));
#173 = DIRECTION('',(1.,1.318039815089E-16,1.31803981509E-16));
#174 = ORIENTED_EDGE('',*,*,#175,.F.);
#175 = EDGE_CURVE('',#176,#167,#178,.T.);
#176 = VERTEX_POINT('',#177);
#177 = CARTESIAN_POINT('',(-5.514751553236,-1.980428924031,3.5));
#178 = CIRCLE('',#179,16.);
#179 = AXIS2_PLACEMENT_3D('',#180,#181,#182);
#180 = CARTESIAN_POINT('',(4.268644844189E-16,-17.,3.5));
#181 = DIRECTION('',(-1.31803981509E-16,-1.224646799147E-16,1.));
#182 = DIRECTION('',(1.,1.318039815089E-16,1.31803981509E-16));
#183 = ORIENTED_EDGE('',*,*,#184,.F.);
#184 = EDGE_CURVE('',#185,#176,#187,.T.);
#185 = VERTEX_POINT('',#186);
#186 = CARTESIAN_POINT('',(-2.733870597323,-1.235294117647,3.5));
#187 = CIRCLE('',#188,16.);
#188 = AXIS2_PLACEMENT_3D('',#189,#190,#191);
#189 = CARTESIAN_POINT('',(4.268644844189E-16,-17.,3.5));
#190 = DIRECTION('',(-1.31803981509E-16,-1.224646799147E-16,1.));
#191 = DIRECTION('',(1.,1.318039815089E-16,1.31803981509E-16));
#192 = ORIENTED_EDGE('',*,*,#193,.F.);
#193 = EDGE_CURVE('',#194,#185,#196,.T.);
#194 = VERTEX_POINT('',#195);
#195 = CARTESIAN_POINT('',(2.733870597323,-1.235294117647,3.5));
#196 = CIRCLE('',#197,16.);
#197 = AXIS2_PLACEMENT_3D('',#198,#199,#200);
#198 = CARTESIAN_POINT('',(4.268644844189E-16,-17.,3.5));
#199 = DIRECTION('',(-1.31803981509E-16,-1.224646799147E-16,1.));
#200 = DIRECTION('',(1.,1.318039815089E-16,1.31803981509E-16));
#201 = ORIENTED_EDGE('',*,*,#202,.F.);
#202 = EDGE_CURVE('',#203,#194,#205,.T.);
#203 = VERTEX_POINT('',#204);
#204 = CARTESIAN_POINT('',(5.514751553236,-1.980428924031,3.5));
#205 = CIRCLE('',#206,16.);
#206 = AXIS2_PLACEMENT_3D('',#207,#208,#209);
#207 = CARTESIAN_POINT('',(4.268644844189E-16,-17.,3.5));
#208 = DIRECTION('',(-1.31803981509E-16,-1.224646799147E-16,1.));
#209 = DIRECTION('',(1.,1.318039815089E-16,1.31803981509E-16));
#210 = ORIENTED_EDGE('',*,*,#211,.F.);
#211 = EDGE_CURVE('',#212,#203,#214,.T.);
#212 = VERTEX_POINT('',#213);
#213 = CARTESIAN_POINT('',(10.249954329117,-4.714299521354,3.5));
#214 = CIRCLE('',#215,16.);
#215 = AXIS2_PLACEMENT_3D('',#216,#217,#218);
#216 = CARTESIAN_POINT('',(4.268644844189E-16,-17.,3.5));
#217 = DIRECTION('',(-1.31803981509E-16,-1.224646799147E-16,1.));
#218 = DIRECTION('',(1.,1.318039815089E-16,1.31803981509E-16));
#219 = ORIENTED_EDGE('',*,*,#220,.F.);
#220 = EDGE_CURVE('',#221,#212,#223,.T.);
#221 = VERTEX_POINT('',#222);
#222 = CARTESIAN_POINT('',(12.285700478646,-6.750045670883,3.5));
#223 = CIRCLE('',#224,16.);
#224 = AXIS2_PLACEMENT_3D('',#225,#226,#227);
#225 = CARTESIAN_POINT('',(4.268644844189E-16,-17.,3.5));
#226 = DIRECTION('',(-1.31803981509E-16,-1.224646799147E-16,1.));
#227 = DIRECTION('',(1.,1.318039815089E-16,1.31803981509E-16));
#228 = ORIENTED_EDGE('',*,*,#229,.F.);
#229 = EDGE_CURVE('',#230,#221,#232,.T.);
#230 = VERTEX_POINT('',#231);
#231 = CARTESIAN_POINT('',(15.019571075969,-11.48524844676,3.5));
#232 = CIRCLE('',#233,16.);
#233 = AXIS2_PLACEMENT_3D('',#234,#235,#236);
#234 = CARTESIAN_POINT('',(4.268644844189E-16,-17.,3.5));
#235 = DIRECTION('',(-1.31803981509E-16,-1.224646799147E-16,1.));
#236 = DIRECTION('',(1.,1.318039815089E-16,1.31803981509E-16));
#237 = ORIENTED_EDGE('',*,*,#238,.F.);
#238 = EDGE_CURVE('',#239,#230,#241,.T.);
#239 = VERTEX_POINT('',#240);
#240 = CARTESIAN_POINT('',(15.764705882353,-14.26612940267,3.5));
#241 = CIRCLE('',#242,16.);
#242 = AXIS2_PLACEMENT_3D('',#243,#244,#245);
#243 = CARTESIAN_POINT('',(4.268644844189E-16,-17.,3.5));
#244 = DIRECTION('',(-1.31803981509E-16,-1.224646799147E-16,1.));
#245 = DIRECTION('',(1.,1.318039815089E-16,1.31803981509E-16));
#246 = ORIENTED_EDGE('',*,*,#247,.F.);
#247 = EDGE_CURVE('',#22,#239,#248,.T.);
#248 = CIRCLE('',#249,16.);
#249 = AXIS2_PLACEMENT_3D('',#250,#251,#252);
#250 = CARTESIAN_POINT('',(4.268644844189E-16,-17.,3.5));
#251 = DIRECTION('',(-1.31803981509E-16,-1.224646799147E-16,1.));
#252 = DIRECTION('',(1.,1.318039815089E-16,1.31803981509E-16));
#253 = ORIENTED_EDGE('',*,*,#21,.T.);
#254 = ORIENTED_EDGE('',*,*,#255,.T.);
#255 = EDGE_CURVE('',#24,#24,#256,.T.);
#256 = CIRCLE('',#257,16.);
#257 = AXIS2_PLACEMENT_3D('',#258,#259,#260);
#258 = CARTESIAN_POINT('',(1.63256521401E-16,-17.,5.5));
#259 = DIRECTION('',(-1.31803981509E-16,-1.224646799147E-16,1.));
#260 = DIRECTION('',(1.,2.296986474197E-16,1.31803981509E-16));
#261 = CYLINDRICAL_SURFACE('',#262,16.);
#262 = AXIS2_PLACEMENT_3D('',#263,#264,#265);
#263 = CARTESIAN_POINT('',(4.268644844189E-16,-17.,3.5));
#264 = DIRECTION('',(1.318039815089E-16,1.224646799147E-16,-1.));
#265 = DIRECTION('',(1.,1.318039815089E-16,1.31803981509E-16));
#266 = ADVANCED_FACE('',(#267),#287,.T.);
#267 = FACE_BOUND('',#268,.T.);
#268 = EDGE_LOOP('',(#269,#278,#279,#280));
#269 = ORIENTED_EDGE('',*,*,#270,.F.);
#270 = EDGE_CURVE('',#24,#271,#273,.T.);
#271 = VERTEX_POINT('',#272);
#272 = CARTESIAN_POINT('',(15.,-17.,6.5));
#273 = CIRCLE('',#274,1.);
#274 = AXIS2_PLACEMENT_3D('',#275,#276,#277);
#275 = CARTESIAN_POINT('',(15.,-17.,5.5));
#276 = DIRECTION('',(2.296986474197E-16,-1.,-1.224646799147E-16));
#277 = DIRECTION('',(1.,2.296986474197E-16,1.31803981509E-16));
#278 = ORIENTED_EDGE('',*,*,#255,.T.);
#279 = ORIENTED_EDGE('',*,*,#270,.T.);
#280 = ORIENTED_EDGE('',*,*,#281,.F.);
#281 = EDGE_CURVE('',#271,#271,#282,.T.);
#282 = CIRCLE('',#283,15.);
#283 = AXIS2_PLACEMENT_3D('',#284,#285,#286);
#284 = CARTESIAN_POINT('',(3.1452539892E-17,-17.,6.5));
#285 = DIRECTION('',(-1.31803981509E-16,-1.224646799147E-16,1.));
#286 = DIRECTION('',(1.,2.296986474197E-16,1.31803981509E-16));
#287 = TOROIDAL_SURFACE('',#288,15.,1.);
#288 = AXIS2_PLACEMENT_3D('',#289,#290,#291);
#289 = CARTESIAN_POINT('',(1.63256521401E-16,-17.,5.5));
#290 = DIRECTION('',(-1.31803981509E-16,-1.224646799147E-16,1.));
#291 = DIRECTION('',(1.,2.296986474197E-16,1.31803981509E-16));
#292 = ADVANCED_FACE('',(#293,#320),#538,.F.);
#293 = FACE_BOUND('',#294,.T.);
#294 = EDGE_LOOP('',(#295,#296,#297,#298,#299,#300,#301,#302,#303,#304,
    #305,#306,#307,#308,#309,#310,#311,#312,#313,#314,#315,#316,#317,
    #318,#319));
#295 = ORIENTED_EDGE('',*,*,#247,.F.);
#296 = ORIENTED_EDGE('',*,*,#31,.F.);
#297 = ORIENTED_EDGE('',*,*,#40,.F.);
#298 = ORIENTED_EDGE('',*,*,#49,.F.);
#299 = ORIENTED_EDGE('',*,*,#58,.F.);
#300 = ORIENTED_EDGE('',*,*,#67,.F.);
#301 = ORIENTED_EDGE('',*,*,#76,.F.);
#302 = ORIENTED_EDGE('',*,*,#85,.F.);
#303 = ORIENTED_EDGE('',*,*,#94,.F.);
#304 = ORIENTED_EDGE('',*,*,#103,.F.);
#305 = ORIENTED_EDGE('',*,*,#112,.F.);
#306 = ORIENTED_EDGE('',*,*,#121,.F.);
#307 = ORIENTED_EDGE('',*,*,#130,.F.);
#308 = ORIENTED_EDGE('',*,*,#139,.F.);
#309 = ORIENTED_EDGE('',*,*,#148,.F.);
#310 = ORIENTED_EDGE('',*,*,#157,.F.);
#311 = ORIENTED_EDGE('',*,*,#166,.F.);
#312 = ORIENTED_EDGE('',*,*,#175,.F.);
#313 = ORIENTED_EDGE('',*,*,#184,.F.);
#314 = ORIENTED_EDGE('',*,*,#193,.F.);
#315 = ORIENTED_EDGE('',*,*,#202,.F.);
#316 = ORIENTED_EDGE('',*,*,#211,.F.);
#317 = ORIENTED_EDGE('',*,*,#220,.F.);
#318 = ORIENTED_EDGE('',*,*,#229,.F.);
#319 = ORIENTED_EDGE('',*,*,#238,.F.);
#320 = FACE_BOUND('',#321,.F.);
#321 = EDGE_LOOP('',(#322,#333,#342,#351,#360,#369,#378,#387,#396,#405,
    #414,#423,#432,#441,#450,#459,#468,#477,#486,#495,#504,#513,#522,
    #531));
#322 = ORIENTED_EDGE('',*,*,#323,.T.);
#323 = EDGE_CURVE('',#324,#326,#328,.T.);
#324 = VERTEX_POINT('',#325);
#325 = CARTESIAN_POINT('',(13.910657236267,-22.61191725305,3.5));
#326 = VERTEX_POINT('',#327);
#327 = CARTESIAN_POINT('',(11.815391523212,-26.24102392342,3.5));
#328 = CIRCLE('',#329,3.);
#329 = AXIS2_PLACEMENT_3D('',#330,#331,#332);
#330 = CARTESIAN_POINT('',(14.722431864335,-25.5,3.5));
#331 = DIRECTION('',(7.03853193746E-17,2.62681588013E-16,1.));
#332 = DIRECTION('',(-0.5,-0.866025403784,2.62681588013E-16));
#333 = ORIENTED_EDGE('',*,*,#334,.F.);
#334 = EDGE_CURVE('',#335,#326,#337,.T.);
#335 = VERTEX_POINT('',#336);
#336 = CARTESIAN_POINT('',(9.24102392342,-28.81539152321,3.5));
#337 = CIRCLE('',#338,15.);
#338 = AXIS2_PLACEMENT_3D('',#339,#340,#341);
#339 = CARTESIAN_POINT('',(4.268644844189E-16,-17.,3.5));
#340 = DIRECTION('',(-1.31803981509E-16,-1.224646799147E-16,1.));
#341 = DIRECTION('',(1.,1.318039815089E-16,1.31803981509E-16));
#342 = ORIENTED_EDGE('',*,*,#343,.T.);
#343 = EDGE_CURVE('',#335,#344,#346,.T.);
#344 = VERTEX_POINT('',#345);
#345 = CARTESIAN_POINT('',(5.611917253051,-30.91065723626,3.5));
#346 = CIRCLE('',#347,3.);
#347 = AXIS2_PLACEMENT_3D('',#348,#349,#350);
#348 = CARTESIAN_POINT('',(8.5,-31.72243186433,3.5));
#349 = DIRECTION('',(1.516592855504E-16,2.62681588013E-16,1.));
#350 = DIRECTION('',(-0.866025403784,-0.5,2.62681588013E-16));
#351 = ORIENTED_EDGE('',*,*,#352,.F.);
#352 = EDGE_CURVE('',#353,#344,#355,.T.);
#353 = VERTEX_POINT('',#354);
#354 = CARTESIAN_POINT('',(2.095265713055,-31.85294117647,3.5));
#355 = CIRCLE('',#356,15.);
#356 = AXIS2_PLACEMENT_3D('',#357,#358,#359);
#357 = CARTESIAN_POINT('',(4.268644844189E-16,-17.,3.5));
#358 = DIRECTION('',(-1.31803981509E-16,-1.224646799147E-16,1.));
#359 = DIRECTION('',(1.,1.318039815089E-16,1.31803981509E-16));
#360 = ORIENTED_EDGE('',*,*,#361,.T.);
#361 = EDGE_CURVE('',#353,#362,#364,.T.);
#362 = VERTEX_POINT('',#363);
#363 = CARTESIAN_POINT('',(-2.095265713055,-31.85294117647,3.5));
#364 = CIRCLE('',#365,3.);
#365 = AXIS2_PLACEMENT_3D('',#366,#367,#368);
#366 = CARTESIAN_POINT('',(-1.304743441313E-15,-34.,3.5));
#367 = DIRECTION('',(2.22044604925E-16,2.22044604925E-16,1.));
#368 = DIRECTION('',(-1.,1.224646799147E-16,2.22044604925E-16));
#369 = ORIENTED_EDGE('',*,*,#370,.F.);
#370 = EDGE_CURVE('',#371,#362,#373,.T.);
#371 = VERTEX_POINT('',#372);
#372 = CARTESIAN_POINT('',(-5.611917253051,-30.91065723626,3.5));
#373 = CIRCLE('',#374,15.);
#374 = AXIS2_PLACEMENT_3D('',#375,#376,#377);
#375 = CARTESIAN_POINT('',(4.268644844189E-16,-17.,3.5));
#376 = DIRECTION('',(-1.31803981509E-16,-1.224646799147E-16,1.));
#377 = DIRECTION('',(1.,1.318039815089E-16,1.31803981509E-16));
#378 = ORIENTED_EDGE('',*,*,#379,.T.);
#379 = EDGE_CURVE('',#371,#380,#382,.T.);
#380 = VERTEX_POINT('',#381);
#381 = CARTESIAN_POINT('',(-9.24102392342,-28.81539152321,3.5));
#382 = CIRCLE('',#383,3.);
#383 = AXIS2_PLACEMENT_3D('',#384,#385,#386);
#384 = CARTESIAN_POINT('',(-8.5,-31.72243186433,3.5));
#385 = DIRECTION('',(2.62681588013E-16,1.516592855504E-16,1.));
#386 = DIRECTION('',(-0.866025403784,0.5,1.516592855504E-16));
#387 = ORIENTED_EDGE('',*,*,#388,.F.);
#388 = EDGE_CURVE('',#389,#380,#391,.T.);
#389 = VERTEX_POINT('',#390);
#390 = CARTESIAN_POINT('',(-11.81539152321,-26.24102392342,3.5));
#391 = CIRCLE('',#392,15.);
#392 = AXIS2_PLACEMENT_3D('',#393,#394,#395);
#393 = CARTESIAN_POINT('',(4.268644844189E-16,-17.,3.5));
#394 = DIRECTION('',(-1.31803981509E-16,-1.224646799147E-16,1.));
#395 = DIRECTION('',(1.,1.318039815089E-16,1.31803981509E-16));
#396 = ORIENTED_EDGE('',*,*,#397,.T.);
#397 = EDGE_CURVE('',#389,#398,#400,.T.);
#398 = VERTEX_POINT('',#399);
#399 = CARTESIAN_POINT('',(-13.91065723626,-22.61191725305,3.5));
#400 = CIRCLE('',#401,3.);
#401 = AXIS2_PLACEMENT_3D('',#402,#403,#404);
#402 = CARTESIAN_POINT('',(-14.72243186433,-25.5,3.5));
#403 = DIRECTION('',(2.62681588013E-16,7.03853193746E-17,1.));
#404 = DIRECTION('',(-0.5,0.866025403784,7.03853193746E-17));
#405 = ORIENTED_EDGE('',*,*,#406,.F.);
#406 = EDGE_CURVE('',#407,#398,#409,.T.);
#407 = VERTEX_POINT('',#408);
#408 = CARTESIAN_POINT('',(-14.85294117647,-19.09526571305,3.5));
#409 = CIRCLE('',#410,15.);
#410 = AXIS2_PLACEMENT_3D('',#411,#412,#413);
#411 = CARTESIAN_POINT('',(4.268644844189E-16,-17.,3.5));
#412 = DIRECTION('',(-1.31803981509E-16,-1.224646799147E-16,1.));
#413 = DIRECTION('',(1.,1.318039815089E-16,1.31803981509E-16));
#414 = ORIENTED_EDGE('',*,*,#415,.T.);
#415 = EDGE_CURVE('',#407,#416,#418,.T.);
#416 = VERTEX_POINT('',#417);
#417 = CARTESIAN_POINT('',(-14.85294117647,-14.90473428694,3.5));
#418 = CIRCLE('',#419,3.);
#419 = AXIS2_PLACEMENT_3D('',#420,#421,#422);
#420 = CARTESIAN_POINT('',(-17.,-17.,3.5));
#421 = DIRECTION('',(2.22044604925E-16,-1.232595164408E-32,1.));
#422 = DIRECTION('',(1.110223024625E-16,1.,-1.232595164408E-32));
#423 = ORIENTED_EDGE('',*,*,#424,.F.);
#424 = EDGE_CURVE('',#425,#416,#427,.T.);
#425 = VERTEX_POINT('',#426);
#426 = CARTESIAN_POINT('',(-13.91065723626,-11.38808274694,3.5));
#427 = CIRCLE('',#428,15.);
#428 = AXIS2_PLACEMENT_3D('',#429,#430,#431);
#429 = CARTESIAN_POINT('',(4.268644844189E-16,-17.,3.5));
#430 = DIRECTION('',(-1.31803981509E-16,-1.224646799147E-16,1.));
#431 = DIRECTION('',(1.,1.318039815089E-16,1.31803981509E-16));
#432 = ORIENTED_EDGE('',*,*,#433,.T.);
#433 = EDGE_CURVE('',#425,#434,#436,.T.);
#434 = VERTEX_POINT('',#435);
#435 = CARTESIAN_POINT('',(-11.81539152321,-7.75897607658,3.5));
#436 = CIRCLE('',#437,3.);
#437 = AXIS2_PLACEMENT_3D('',#438,#439,#440);
#438 = CARTESIAN_POINT('',(-14.72243186433,-8.5,3.5));
#439 = DIRECTION('',(1.516592855504E-16,-4.063698308792E-17,1.));
#440 = DIRECTION('',(0.5,0.866025403784,-4.063698308792E-17));
#441 = ORIENTED_EDGE('',*,*,#442,.F.);
#442 = EDGE_CURVE('',#443,#434,#445,.T.);
#443 = VERTEX_POINT('',#444);
#444 = CARTESIAN_POINT('',(-9.24102392342,-5.184608476788,3.5));
#445 = CIRCLE('',#446,15.);
#446 = AXIS2_PLACEMENT_3D('',#447,#448,#449);
#447 = CARTESIAN_POINT('',(4.268644844189E-16,-17.,3.5));
#448 = DIRECTION('',(-1.31803981509E-16,-1.224646799147E-16,1.));
#449 = DIRECTION('',(1.,1.318039815089E-16,1.31803981509E-16));
#450 = ORIENTED_EDGE('',*,*,#451,.T.);
#451 = EDGE_CURVE('',#443,#452,#454,.T.);
#452 = VERTEX_POINT('',#453);
#453 = CARTESIAN_POINT('',(-5.611917253051,-3.089342763733,3.5));
#454 = CIRCLE('',#455,3.);
#455 = AXIS2_PLACEMENT_3D('',#456,#457,#458);
#456 = CARTESIAN_POINT('',(-8.5,-2.277568135665,3.5));
#457 = DIRECTION('',(7.03853193746E-17,-4.063698308792E-17,1.));
#458 = DIRECTION('',(0.866025403784,0.5,-4.063698308792E-17));
#459 = ORIENTED_EDGE('',*,*,#460,.F.);
#460 = EDGE_CURVE('',#461,#452,#463,.T.);
#461 = VERTEX_POINT('',#462);
#462 = CARTESIAN_POINT('',(-2.095265713055,-2.147058823529,3.5));
#463 = CIRCLE('',#464,15.);
#464 = AXIS2_PLACEMENT_3D('',#465,#466,#467);
#465 = CARTESIAN_POINT('',(4.268644844189E-16,-17.,3.5));
#466 = DIRECTION('',(-1.31803981509E-16,-1.224646799147E-16,1.));
#467 = DIRECTION('',(1.,1.318039815089E-16,1.31803981509E-16));
#468 = ORIENTED_EDGE('',*,*,#469,.T.);
#469 = EDGE_CURVE('',#461,#470,#472,.T.);
#470 = VERTEX_POINT('',#471);
#471 = CARTESIAN_POINT('',(2.095265713055,-2.147058823529,3.5));
#472 = CIRCLE('',#473,3.);
#473 = AXIS2_PLACEMENT_3D('',#474,#475,#476);
#474 = CARTESIAN_POINT('',(0.,0.,3.5));
#475 = DIRECTION('',(0.,0.,1.));
#476 = DIRECTION('',(1.,0.,0.));
#477 = ORIENTED_EDGE('',*,*,#478,.F.);
#478 = EDGE_CURVE('',#479,#470,#481,.T.);
#479 = VERTEX_POINT('',#480);
#480 = CARTESIAN_POINT('',(5.611917253051,-3.089342763733,3.5));
#481 = CIRCLE('',#482,15.);
#482 = AXIS2_PLACEMENT_3D('',#483,#484,#485);
#483 = CARTESIAN_POINT('',(4.268644844189E-16,-17.,3.5));
#484 = DIRECTION('',(-1.31803981509E-16,-1.224646799147E-16,1.));
#485 = DIRECTION('',(1.,1.318039815089E-16,1.31803981509E-16));
#486 = ORIENTED_EDGE('',*,*,#487,.T.);
#487 = EDGE_CURVE('',#479,#488,#490,.T.);
#488 = VERTEX_POINT('',#489);
#489 = CARTESIAN_POINT('',(9.24102392342,-5.184608476788,3.5));
#490 = CIRCLE('',#491,3.);
#491 = AXIS2_PLACEMENT_3D('',#492,#493,#494);
#492 = CARTESIAN_POINT('',(8.5,-2.277568135665,3.5));
#493 = DIRECTION('',(-4.063698308792E-17,7.03853193746E-17,1.));
#494 = DIRECTION('',(0.866025403784,-0.5,7.03853193746E-17));
#495 = ORIENTED_EDGE('',*,*,#496,.F.);
#496 = EDGE_CURVE('',#497,#488,#499,.T.);
#497 = VERTEX_POINT('',#498);
#498 = CARTESIAN_POINT('',(11.815391523212,-7.75897607658,3.5));
#499 = CIRCLE('',#500,15.);
#500 = AXIS2_PLACEMENT_3D('',#501,#502,#503);
#501 = CARTESIAN_POINT('',(4.268644844189E-16,-17.,3.5));
#502 = DIRECTION('',(-1.31803981509E-16,-1.224646799147E-16,1.));
#503 = DIRECTION('',(1.,1.318039815089E-16,1.31803981509E-16));
#504 = ORIENTED_EDGE('',*,*,#505,.T.);
#505 = EDGE_CURVE('',#497,#506,#508,.T.);
#506 = VERTEX_POINT('',#507);
#507 = CARTESIAN_POINT('',(13.910657236267,-11.38808274694,3.5));
#508 = CIRCLE('',#509,3.);
#509 = AXIS2_PLACEMENT_3D('',#510,#511,#512);
#510 = CARTESIAN_POINT('',(14.722431864335,-8.5,3.5));
#511 = DIRECTION('',(-4.063698308792E-17,1.516592855504E-16,1.));
#512 = DIRECTION('',(0.5,-0.866025403784,1.516592855504E-16));
#513 = ORIENTED_EDGE('',*,*,#514,.F.);
#514 = EDGE_CURVE('',#515,#506,#517,.T.);
#515 = VERTEX_POINT('',#516);
#516 = CARTESIAN_POINT('',(14.852941176471,-14.90473428694,3.5));
#517 = CIRCLE('',#518,15.);
#518 = AXIS2_PLACEMENT_3D('',#519,#520,#521);
#519 = CARTESIAN_POINT('',(4.268644844189E-16,-17.,3.5));
#520 = DIRECTION('',(-1.31803981509E-16,-1.224646799147E-16,1.));
#521 = DIRECTION('',(1.,1.318039815089E-16,1.31803981509E-16));
#522 = ORIENTED_EDGE('',*,*,#523,.T.);
#523 = EDGE_CURVE('',#515,#524,#526,.T.);
#524 = VERTEX_POINT('',#525);
#525 = CARTESIAN_POINT('',(14.852941176471,-19.09526571305,3.5));
#526 = CIRCLE('',#527,3.);
#527 = AXIS2_PLACEMENT_3D('',#528,#529,#530);
#528 = CARTESIAN_POINT('',(17.,-17.,3.5));
#529 = DIRECTION('',(2.465190328816E-32,2.22044604925E-16,1.));
#530 = DIRECTION('',(-2.22044604925E-16,-1.,2.22044604925E-16));
#531 = ORIENTED_EDGE('',*,*,#532,.F.);
#532 = EDGE_CURVE('',#324,#524,#533,.T.);
#533 = CIRCLE('',#534,15.);
#534 = AXIS2_PLACEMENT_3D('',#535,#536,#537);
#535 = CARTESIAN_POINT('',(4.268644844189E-16,-17.,3.5));
#536 = DIRECTION('',(-1.31803981509E-16,-1.224646799147E-16,1.));
#537 = DIRECTION('',(1.,1.318039815089E-16,1.31803981509E-16));
#538 = PLANE('',#539);
#539 = AXIS2_PLACEMENT_3D('',#540,#541,#542);
#540 = CARTESIAN_POINT('',(4.268644844189E-16,-17.,3.5));
#541 = DIRECTION('',(-1.318039815089E-16,-1.224646799147E-16,1.));
#542 = DIRECTION('',(1.,1.318039815089E-16,1.31803981509E-16));
#543 = ADVANCED_FACE('',(#544,#547,#558,#569),#580,.T.);
#544 = FACE_BOUND('',#545,.T.);
#545 = EDGE_LOOP('',(#546));
#546 = ORIENTED_EDGE('',*,*,#281,.T.);
#547 = FACE_BOUND('',#548,.T.);
#548 = EDGE_LOOP('',(#549));
#549 = ORIENTED_EDGE('',*,*,#550,.F.);
#550 = EDGE_CURVE('',#551,#551,#553,.T.);
#551 = VERTEX_POINT('',#552);
#552 = CARTESIAN_POINT('',(-6.393266739737,-22.25,6.5));
#553 = CIRCLE('',#554,2.7);
#554 = AXIS2_PLACEMENT_3D('',#555,#556,#557);
#555 = CARTESIAN_POINT('',(-9.093266739737,-22.25,6.5));
#556 = DIRECTION('',(0.,0.,1.));
#557 = DIRECTION('',(1.,0.,0.));
#558 = FACE_BOUND('',#559,.T.);
#559 = EDGE_LOOP('',(#560));
#560 = ORIENTED_EDGE('',*,*,#561,.F.);
#561 = EDGE_CURVE('',#562,#562,#564,.T.);
#562 = VERTEX_POINT('',#563);
#563 = CARTESIAN_POINT('',(11.793266739737,-22.25,6.5));
#564 = CIRCLE('',#565,2.7);
#565 = AXIS2_PLACEMENT_3D('',#566,#567,#568);
#566 = CARTESIAN_POINT('',(9.093266739737,-22.25,6.5));
#567 = DIRECTION('',(0.,0.,1.));
#568 = DIRECTION('',(1.,0.,0.));
#569 = FACE_BOUND('',#570,.T.);
#570 = EDGE_LOOP('',(#571));
#571 = ORIENTED_EDGE('',*,*,#572,.F.);
#572 = EDGE_CURVE('',#573,#573,#575,.T.);
#573 = VERTEX_POINT('',#574);
#574 = CARTESIAN_POINT('',(2.7,-6.5,6.5));
#575 = CIRCLE('',#576,2.7);
#576 = AXIS2_PLACEMENT_3D('',#577,#578,#579);
#577 = CARTESIAN_POINT('',(3.552713678801E-15,-6.5,6.5));
#578 = DIRECTION('',(0.,0.,1.));
#579 = DIRECTION('',(1.,0.,0.));
#580 = PLANE('',#581);
#581 = AXIS2_PLACEMENT_3D('',#582,#583,#584);
#582 = CARTESIAN_POINT('',(3.145253989205E-17,-17.,6.5));
#583 = DIRECTION('',(-1.318039815089E-16,-1.224646799147E-16,1.));
#584 = DIRECTION('',(1.,1.318039815089E-16,1.31803981509E-16));
#585 = ADVANCED_FACE('',(#586),#612,.F.);
#586 = FACE_BOUND('',#587,.T.);
#587 = EDGE_LOOP('',(#588,#599,#605,#606));
#588 = ORIENTED_EDGE('',*,*,#589,.F.);
#589 = EDGE_CURVE('',#590,#592,#594,.T.);
#590 = VERTEX_POINT('',#591);
#591 = CARTESIAN_POINT('',(13.910657236267,-22.61191725305,
    8.206298212935E-16));
#592 = VERTEX_POINT('',#593);
#593 = CARTESIAN_POINT('',(11.815391523212,-26.24102392342,
    1.010716671076E-15));
#594 = CIRCLE('',#595,3.);
#595 = AXIS2_PLACEMENT_3D('',#596,#597,#598);
#596 = CARTESIAN_POINT('',(14.722431864335,-25.5,1.196550429368E-15));
#597 = DIRECTION('',(7.03853193746E-17,2.62681588013E-16,1.));
#598 = DIRECTION('',(-0.5,-0.866025403784,2.62681588013E-16));
#599 = ORIENTED_EDGE('',*,*,#600,.F.);
#600 = EDGE_CURVE('',#324,#590,#601,.T.);
#601 = LINE('',#602,#603);
#602 = CARTESIAN_POINT('',(13.910657236267,-22.61191725305,
    1.146218359043E-15));
#603 = VECTOR('',#604,1.);
#604 = DIRECTION('',(1.318039815089E-16,1.224646799147E-16,-1.));
#605 = ORIENTED_EDGE('',*,*,#323,.T.);
#606 = ORIENTED_EDGE('',*,*,#607,.T.);
#607 = EDGE_CURVE('',#326,#592,#608,.T.);
#608 = LINE('',#609,#610);
#609 = CARTESIAN_POINT('',(11.815391523212,-26.24102392342,
    4.256166089804E-16));
#610 = VECTOR('',#611,1.);
#611 = DIRECTION('',(1.318039815089E-16,1.224646799147E-16,-1.));
#612 = CYLINDRICAL_SURFACE('',#613,3.);
#613 = AXIS2_PLACEMENT_3D('',#614,#615,#616);
#614 = CARTESIAN_POINT('',(14.722431864335,-25.5,1.196550429368E-15));
#615 = DIRECTION('',(-7.03853193746E-17,-2.62681588013E-16,-1.));
#616 = DIRECTION('',(-0.5,-0.866025403784,2.62681588013E-16));
#617 = ADVANCED_FACE('',(#618),#637,.T.);
#618 = FACE_BOUND('',#619,.F.);
#619 = EDGE_LOOP('',(#620,#628,#629,#630));
#620 = ORIENTED_EDGE('',*,*,#621,.F.);
#621 = EDGE_CURVE('',#335,#622,#624,.T.);
#622 = VERTEX_POINT('',#623);
#623 = CARTESIAN_POINT('',(9.24102392342,-28.81539152321,
    7.366171638503E-16));
#624 = LINE('',#625,#626);
#625 = CARTESIAN_POINT('',(9.24102392342,-28.81539152321,
    -2.289643946313E-16));
#626 = VECTOR('',#627,1.);
#627 = DIRECTION('',(1.318039815089E-16,1.224646799147E-16,-1.));
#628 = ORIENTED_EDGE('',*,*,#334,.T.);
#629 = ORIENTED_EDGE('',*,*,#607,.T.);
#630 = ORIENTED_EDGE('',*,*,#631,.F.);
#631 = EDGE_CURVE('',#622,#592,#632,.T.);
#632 = CIRCLE('',#633,15.);
#633 = AXIS2_PLACEMENT_3D('',#634,#635,#636);
#634 = CARTESIAN_POINT('',(8.881784197001E-16,-17.,0.));
#635 = DIRECTION('',(-1.31803981509E-16,-1.224646799147E-16,1.));
#636 = DIRECTION('',(1.,1.318039815089E-16,1.31803981509E-16));
#637 = CYLINDRICAL_SURFACE('',#638,15.);
#638 = AXIS2_PLACEMENT_3D('',#639,#640,#641);
#639 = CARTESIAN_POINT('',(8.881784197001E-16,-17.,0.));
#640 = DIRECTION('',(1.318039815089E-16,1.224646799147E-16,-1.));
#641 = DIRECTION('',(1.,1.318039815089E-16,1.31803981509E-16));
#642 = ADVANCED_FACE('',(#643),#662,.F.);
#643 = FACE_BOUND('',#644,.T.);
#644 = EDGE_LOOP('',(#645,#654,#655,#656));
#645 = ORIENTED_EDGE('',*,*,#646,.F.);
#646 = EDGE_CURVE('',#622,#647,#649,.T.);
#647 = VERTEX_POINT('',#648);
#648 = CARTESIAN_POINT('',(5.611917253051,-30.91065723626,
    9.195415119842E-16));
#649 = CIRCLE('',#650,3.);
#650 = AXIS2_PLACEMENT_3D('',#651,#652,#653);
#651 = CARTESIAN_POINT('',(8.5,-31.72243186433,2.578207854357E-15));
#652 = DIRECTION('',(1.516592855504E-16,2.62681588013E-16,1.));
#653 = DIRECTION('',(-0.866025403784,-0.5,2.62681588013E-16));
#654 = ORIENTED_EDGE('',*,*,#621,.F.);
#655 = ORIENTED_EDGE('',*,*,#343,.T.);
#656 = ORIENTED_EDGE('',*,*,#657,.T.);
#657 = EDGE_CURVE('',#344,#647,#658,.T.);
#658 = LINE('',#659,#660);
#659 = CARTESIAN_POINT('',(5.611917253051,-30.91065723626,
    -9.638911479921E-16));
#660 = VECTOR('',#661,1.);
#661 = DIRECTION('',(1.318039815089E-16,1.224646799147E-16,-1.));
#662 = CYLINDRICAL_SURFACE('',#663,3.);
#663 = AXIS2_PLACEMENT_3D('',#664,#665,#666);
#664 = CARTESIAN_POINT('',(8.5,-31.72243186433,2.578207854357E-15));
#665 = DIRECTION('',(-1.516592855504E-16,-2.62681588013E-16,-1.));
#666 = DIRECTION('',(-0.866025403784,-0.5,2.62681588013E-16));
#667 = ADVANCED_FACE('',(#668),#687,.T.);
#668 = FACE_BOUND('',#669,.F.);
#669 = EDGE_LOOP('',(#670,#678,#679,#680));
#670 = ORIENTED_EDGE('',*,*,#671,.F.);
#671 = EDGE_CURVE('',#353,#672,#674,.T.);
#672 = VERTEX_POINT('',#673);
#673 = CARTESIAN_POINT('',(2.095265713055,-31.85294117647,
    6.449883421834E-16));
#674 = LINE('',#675,#676);
#675 = CARTESIAN_POINT('',(2.095265713055,-31.85294117647,
    -1.542796323669E-15));
#676 = VECTOR('',#677,1.);
#677 = DIRECTION('',(1.318039815089E-16,1.224646799147E-16,-1.));
#678 = ORIENTED_EDGE('',*,*,#352,.T.);
#679 = ORIENTED_EDGE('',*,*,#657,.T.);
#680 = ORIENTED_EDGE('',*,*,#681,.F.);
#681 = EDGE_CURVE('',#672,#647,#682,.T.);
#682 = CIRCLE('',#683,15.);
#683 = AXIS2_PLACEMENT_3D('',#684,#685,#686);
#684 = CARTESIAN_POINT('',(8.881784197001E-16,-17.,0.));
#685 = DIRECTION('',(-1.31803981509E-16,-1.224646799147E-16,1.));
#686 = DIRECTION('',(1.,1.318039815089E-16,1.31803981509E-16));
#687 = CYLINDRICAL_SURFACE('',#688,15.);
#688 = AXIS2_PLACEMENT_3D('',#689,#690,#691);
#689 = CARTESIAN_POINT('',(8.881784197001E-16,-17.,0.));
#690 = DIRECTION('',(1.318039815089E-16,1.224646799147E-16,-1.));
#691 = DIRECTION('',(1.,1.318039815089E-16,1.31803981509E-16));
#692 = ADVANCED_FACE('',(#693),#712,.F.);
#693 = FACE_BOUND('',#694,.T.);
#694 = EDGE_LOOP('',(#695,#704,#705,#706));
#695 = ORIENTED_EDGE('',*,*,#696,.F.);
#696 = EDGE_CURVE('',#672,#697,#699,.T.);
#697 = VERTEX_POINT('',#698);
#698 = CARTESIAN_POINT('',(-2.095265713055,-31.85294117647,
    8.340664263518E-16));
#699 = CIRCLE('',#700,3.);
#700 = AXIS2_PLACEMENT_3D('',#701,#702,#703);
#701 = CARTESIAN_POINT('',(-2.08189955855E-15,-34.,3.774758283726E-15));
#702 = DIRECTION('',(2.22044604925E-16,2.22044604925E-16,1.));
#703 = DIRECTION('',(-1.,1.224646799147E-16,2.22044604925E-16));
#704 = ORIENTED_EDGE('',*,*,#671,.F.);
#705 = ORIENTED_EDGE('',*,*,#361,.T.);
#706 = ORIENTED_EDGE('',*,*,#707,.T.);
#707 = EDGE_CURVE('',#362,#697,#708,.T.);
#708 = LINE('',#709,#710);
#709 = CARTESIAN_POINT('',(-2.095265713055,-31.85294117647,
    -2.095125050269E-15));
#710 = VECTOR('',#711,1.);
#711 = DIRECTION('',(1.318039815089E-16,1.224646799147E-16,-1.));
#712 = CYLINDRICAL_SURFACE('',#713,3.);
#713 = AXIS2_PLACEMENT_3D('',#714,#715,#716);
#714 = CARTESIAN_POINT('',(-2.08189955855E-15,-34.,3.774758283726E-15));
#715 = DIRECTION('',(-2.22044604925E-16,-2.22044604925E-16,-1.));
#716 = DIRECTION('',(-1.,1.224646799147E-16,2.22044604925E-16));
#717 = ADVANCED_FACE('',(#718),#737,.T.);
#718 = FACE_BOUND('',#719,.F.);
#719 = EDGE_LOOP('',(#720,#728,#729,#730));
#720 = ORIENTED_EDGE('',*,*,#721,.F.);
#721 = EDGE_CURVE('',#371,#722,#724,.T.);
#722 = VERTEX_POINT('',#723);
#723 = CARTESIAN_POINT('',(-5.611917253051,-30.91065723626,
    5.70295225062E-16));
#724 = LINE('',#725,#726);
#725 = CARTESIAN_POINT('',(-5.611917253051,-30.91065723626,
    -2.443237223694E-15));
#726 = VECTOR('',#727,1.);
#727 = DIRECTION('',(1.318039815089E-16,1.224646799147E-16,-1.));
#728 = ORIENTED_EDGE('',*,*,#370,.T.);
#729 = ORIENTED_EDGE('',*,*,#707,.T.);
#730 = ORIENTED_EDGE('',*,*,#731,.F.);
#731 = EDGE_CURVE('',#722,#697,#732,.T.);
#732 = CIRCLE('',#733,15.);
#733 = AXIS2_PLACEMENT_3D('',#734,#735,#736);
#734 = CARTESIAN_POINT('',(8.881784197001E-16,-17.,0.));
#735 = DIRECTION('',(-1.31803981509E-16,-1.224646799147E-16,1.));
#736 = DIRECTION('',(1.,1.318039815089E-16,1.31803981509E-16));
#737 = CYLINDRICAL_SURFACE('',#738,15.);
#738 = AXIS2_PLACEMENT_3D('',#739,#740,#741);
#739 = CARTESIAN_POINT('',(8.881784197001E-16,-17.,0.));
#740 = DIRECTION('',(1.318039815089E-16,1.224646799147E-16,-1.));
#741 = DIRECTION('',(1.,1.318039815089E-16,1.31803981509E-16));
#742 = ADVANCED_FACE('',(#743),#762,.F.);
#743 = FACE_BOUND('',#744,.T.);
#744 = EDGE_LOOP('',(#745,#754,#755,#756));
#745 = ORIENTED_EDGE('',*,*,#746,.F.);
#746 = EDGE_CURVE('',#722,#747,#749,.T.);
#747 = VERTEX_POINT('',#748);
#748 = CARTESIAN_POINT('',(-9.24102392342,-28.81539152321,
    7.771943943475E-16));
#749 = CIRCLE('',#750,3.);
#750 = AXIS2_PLACEMENT_3D('',#751,#752,#753);
#751 = CARTESIAN_POINT('',(-8.5,-31.72243186433,4.46558699622E-15));
#752 = DIRECTION('',(2.62681588013E-16,1.516592855504E-16,1.));
#753 = DIRECTION('',(-0.866025403784,0.5,1.516592855504E-16));
#754 = ORIENTED_EDGE('',*,*,#721,.F.);
#755 = ORIENTED_EDGE('',*,*,#379,.T.);
#756 = ORIENTED_EDGE('',*,*,#757,.T.);
#757 = EDGE_CURVE('',#380,#747,#758,.T.);
#758 = LINE('',#759,#760);
#759 = CARTESIAN_POINT('',(-9.24102392342,-28.81539152321,
    -2.664971887284E-15));
#760 = VECTOR('',#761,1.);
#761 = DIRECTION('',(1.318039815089E-16,1.224646799147E-16,-1.));
#762 = CYLINDRICAL_SURFACE('',#763,3.);
#763 = AXIS2_PLACEMENT_3D('',#764,#765,#766);
#764 = CARTESIAN_POINT('',(-8.5,-31.72243186433,4.46558699622E-15));
#765 = DIRECTION('',(-2.62681588013E-16,-1.516592855504E-16,-1.));
#766 = DIRECTION('',(-0.866025403784,0.5,1.516592855504E-16));
#767 = ADVANCED_FACE('',(#768),#787,.T.);
#768 = FACE_BOUND('',#769,.F.);
#769 = EDGE_LOOP('',(#770,#778,#779,#780));
#770 = ORIENTED_EDGE('',*,*,#771,.F.);
#771 = EDGE_CURVE('',#389,#772,#774,.T.);
#772 = VERTEX_POINT('',#773);
#773 = CARTESIAN_POINT('',(-11.81539152321,-26.24102392342,
    5.325517728989E-16));
#774 = LINE('',#775,#776);
#775 = CARTESIAN_POINT('',(-11.81539152321,-26.24102392342,
    -2.689014682712E-15));
#776 = VECTOR('',#777,1.);
#777 = DIRECTION('',(1.318039815089E-16,1.224646799147E-16,-1.));
#778 = ORIENTED_EDGE('',*,*,#388,.T.);
#779 = ORIENTED_EDGE('',*,*,#757,.T.);
#780 = ORIENTED_EDGE('',*,*,#781,.F.);
#781 = EDGE_CURVE('',#772,#747,#782,.T.);
#782 = CIRCLE('',#783,15.);
#783 = AXIS2_PLACEMENT_3D('',#784,#785,#786);
#784 = CARTESIAN_POINT('',(8.881784197001E-16,-17.,0.));
#785 = DIRECTION('',(-1.31803981509E-16,-1.224646799147E-16,1.));
#786 = DIRECTION('',(1.,1.318039815089E-16,1.31803981509E-16));
#787 = CYLINDRICAL_SURFACE('',#788,15.);
#788 = AXIS2_PLACEMENT_3D('',#789,#790,#791);
#789 = CARTESIAN_POINT('',(8.881784197001E-16,-17.,0.));
#790 = DIRECTION('',(1.318039815089E-16,1.224646799147E-16,-1.));
#791 = DIRECTION('',(1.,1.318039815089E-16,1.31803981509E-16));
#792 = ADVANCED_FACE('',(#793),#812,.F.);
#793 = FACE_BOUND('',#794,.T.);
#794 = EDGE_LOOP('',(#795,#804,#805,#806));
#795 = ORIENTED_EDGE('',*,*,#796,.F.);
#796 = EDGE_CURVE('',#772,#797,#799,.T.);
#797 = VERTEX_POINT('',#798);
#798 = CARTESIAN_POINT('',(-13.91065723626,-22.61191725305,
    7.641642310186E-16));
#799 = CIRCLE('',#800,3.);
#800 = AXIS2_PLACEMENT_3D('',#801,#802,#803);
#801 = CARTESIAN_POINT('',(-14.72243186433,-25.5,4.46558699622E-15));
#802 = DIRECTION('',(2.62681588013E-16,7.03853193746E-17,1.));
#803 = DIRECTION('',(-0.5,0.866025403784,7.03853193746E-17));
#804 = ORIENTED_EDGE('',*,*,#771,.F.);
#805 = ORIENTED_EDGE('',*,*,#397,.T.);
#806 = ORIENTED_EDGE('',*,*,#807,.T.);
#807 = EDGE_CURVE('',#398,#797,#808,.T.);
#808 = LINE('',#809,#810);
#809 = CARTESIAN_POINT('',(-13.91065723626,-22.61191725305,
    -2.520741659249E-15));
#810 = VECTOR('',#811,1.);
#811 = DIRECTION('',(1.318039815089E-16,1.224646799147E-16,-1.));
#812 = CYLINDRICAL_SURFACE('',#813,3.);
#813 = AXIS2_PLACEMENT_3D('',#814,#815,#816);
#814 = CARTESIAN_POINT('',(-14.72243186433,-25.5,4.46558699622E-15));
#815 = DIRECTION('',(-2.62681588013E-16,-7.03853193746E-17,-1.));
#816 = DIRECTION('',(-0.5,0.866025403784,7.03853193746E-17));
#817 = ADVANCED_FACE('',(#818),#837,.T.);
#818 = FACE_BOUND('',#819,.F.);
#819 = EDGE_LOOP('',(#820,#828,#829,#830));
#820 = ORIENTED_EDGE('',*,*,#821,.F.);
#821 = EDGE_CURVE('',#407,#822,#824,.T.);
#822 = VERTEX_POINT('',#823);
#823 = CARTESIAN_POINT('',(-14.85294117647,-19.09526571305,
    5.418713132207E-16));
#824 = LINE('',#825,#826);
#825 = CARTESIAN_POINT('',(-14.85294117647,-19.09526571305,
    -2.214272829063E-15));
#826 = VECTOR('',#827,1.);
#827 = DIRECTION('',(1.318039815089E-16,1.224646799147E-16,-1.));
#828 = ORIENTED_EDGE('',*,*,#406,.T.);
#829 = ORIENTED_EDGE('',*,*,#807,.T.);
#830 = ORIENTED_EDGE('',*,*,#831,.F.);
#831 = EDGE_CURVE('',#822,#797,#832,.T.);
#832 = CIRCLE('',#833,15.);
#833 = AXIS2_PLACEMENT_3D('',#834,#835,#836);
#834 = CARTESIAN_POINT('',(8.881784197001E-16,-17.,0.));
#835 = DIRECTION('',(-1.31803981509E-16,-1.224646799147E-16,1.));
#836 = DIRECTION('',(1.,1.318039815089E-16,1.31803981509E-16));
#837 = CYLINDRICAL_SURFACE('',#838,15.);
#838 = AXIS2_PLACEMENT_3D('',#839,#840,#841);
#839 = CARTESIAN_POINT('',(8.881784197001E-16,-17.,0.));
#840 = DIRECTION('',(1.318039815089E-16,1.224646799147E-16,-1.));
#841 = DIRECTION('',(1.,1.318039815089E-16,1.31803981509E-16));
#842 = ADVANCED_FACE('',(#843),#862,.F.);
#843 = FACE_BOUND('',#844,.T.);
#844 = EDGE_LOOP('',(#845,#854,#855,#856));
#845 = ORIENTED_EDGE('',*,*,#846,.F.);
#846 = EDGE_CURVE('',#822,#847,#849,.T.);
#847 = VERTEX_POINT('',#848);
#848 = CARTESIAN_POINT('',(-14.85294117647,-14.90473428694,
    7.984673581064E-16));
#849 = CIRCLE('',#850,3.);
#850 = AXIS2_PLACEMENT_3D('',#851,#852,#853);
#851 = CARTESIAN_POINT('',(-17.,-17.,3.774758283726E-15));
#852 = DIRECTION('',(2.22044604925E-16,-1.232595164408E-32,1.));
#853 = DIRECTION('',(1.110223024625E-16,1.,-1.232595164408E-32));
#854 = ORIENTED_EDGE('',*,*,#821,.F.);
#855 = ORIENTED_EDGE('',*,*,#415,.T.);
#856 = ORIENTED_EDGE('',*,*,#857,.T.);
#857 = EDGE_CURVE('',#416,#847,#858,.T.);
#858 = LINE('',#859,#860);
#859 = CARTESIAN_POINT('',(-14.85294117647,-14.90473428694,
    -1.701080739291E-15));
#860 = VECTOR('',#861,1.);
#861 = DIRECTION('',(1.318039815089E-16,1.224646799147E-16,-1.));
#862 = CYLINDRICAL_SURFACE('',#863,3.);
#863 = AXIS2_PLACEMENT_3D('',#864,#865,#866);
#864 = CARTESIAN_POINT('',(-17.,-17.,3.774758283726E-15));
#865 = DIRECTION('',(-2.22044604925E-16,1.232595164408E-32,-1.));
#866 = DIRECTION('',(1.110223024625E-16,1.,-1.232595164408E-32));
#867 = ADVANCED_FACE('',(#868),#887,.T.);
#868 = FACE_BOUND('',#869,.F.);
#869 = EDGE_LOOP('',(#870,#878,#879,#880));
#870 = ORIENTED_EDGE('',*,*,#871,.F.);
#871 = EDGE_CURVE('',#425,#872,#874,.T.);
#872 = VERTEX_POINT('',#873);
#873 = CARTESIAN_POINT('',(-13.91065723626,-11.38808274694,
    5.957566827244E-16));
#874 = LINE('',#875,#876);
#875 = CARTESIAN_POINT('',(-13.91065723626,-11.38808274694,
    -1.146218359043E-15));
#876 = VECTOR('',#877,1.);
#877 = DIRECTION('',(1.318039815089E-16,1.224646799147E-16,-1.));
#878 = ORIENTED_EDGE('',*,*,#424,.T.);
#879 = ORIENTED_EDGE('',*,*,#857,.T.);
#880 = ORIENTED_EDGE('',*,*,#881,.F.);
#881 = EDGE_CURVE('',#872,#847,#882,.T.);
#882 = CIRCLE('',#883,15.);
#883 = AXIS2_PLACEMENT_3D('',#884,#885,#886);
#884 = CARTESIAN_POINT('',(8.881784197001E-16,-17.,0.));
#885 = DIRECTION('',(-1.31803981509E-16,-1.224646799147E-16,1.));
#886 = DIRECTION('',(1.,1.318039815089E-16,1.31803981509E-16));
#887 = CYLINDRICAL_SURFACE('',#888,15.);
#888 = AXIS2_PLACEMENT_3D('',#889,#890,#891);
#889 = CARTESIAN_POINT('',(8.881784197001E-16,-17.,0.));
#890 = DIRECTION('',(1.318039815089E-16,1.224646799147E-16,-1.));
#891 = DIRECTION('',(1.,1.318039815089E-16,1.31803981509E-16));
#892 = ADVANCED_FACE('',(#893),#912,.F.);
#893 = FACE_BOUND('',#894,.T.);
#894 = EDGE_LOOP('',(#895,#904,#905,#906));
#895 = ORIENTED_EDGE('',*,*,#896,.F.);
#896 = EDGE_CURVE('',#872,#897,#899,.T.);
#897 = VERTEX_POINT('',#898);
#898 = CARTESIAN_POINT('',(-11.81539152321,-7.75897607658,
    8.709122804098E-16));
#899 = CIRCLE('',#900,3.);
#900 = AXIS2_PLACEMENT_3D('',#901,#902,#903);
#901 = CARTESIAN_POINT('',(-14.72243186433,-8.5,2.578207854357E-15));
#902 = DIRECTION('',(1.516592855504E-16,-4.063698308792E-17,1.));
#903 = DIRECTION('',(0.5,0.866025403784,-4.063698308792E-17));
#904 = ORIENTED_EDGE('',*,*,#871,.F.);
#905 = ORIENTED_EDGE('',*,*,#433,.T.);
#906 = ORIENTED_EDGE('',*,*,#907,.T.);
#907 = EDGE_CURVE('',#434,#897,#908,.T.);
#908 = LINE('',#909,#910);
#909 = CARTESIAN_POINT('',(-11.81539152321,-7.75897607658,
    -4.256166089804E-16));
#910 = VECTOR('',#911,1.);
#911 = DIRECTION('',(1.318039815089E-16,1.224646799147E-16,-1.));
#912 = CYLINDRICAL_SURFACE('',#913,3.);
#913 = AXIS2_PLACEMENT_3D('',#914,#915,#916);
#914 = CARTESIAN_POINT('',(-14.72243186433,-8.5,2.578207854357E-15));
#915 = DIRECTION('',(-1.516592855504E-16,4.063698308792E-17,-1.));
#916 = DIRECTION('',(0.5,0.866025403784,-4.063698308792E-17));
#917 = ADVANCED_FACE('',(#918),#937,.T.);
#918 = FACE_BOUND('',#919,.F.);
#919 = EDGE_LOOP('',(#920,#928,#929,#930));
#920 = ORIENTED_EDGE('',*,*,#921,.F.);
#921 = EDGE_CURVE('',#443,#922,#924,.T.);
#922 = VERTEX_POINT('',#923);
#923 = CARTESIAN_POINT('',(-9.24102392342,-5.184608476788,
    6.797693401677E-16));
#924 = LINE('',#925,#926);
#925 = CARTESIAN_POINT('',(-9.24102392342,-5.184608476788,
    2.289643946313E-16));
#926 = VECTOR('',#927,1.);
#927 = DIRECTION('',(1.318039815089E-16,1.224646799147E-16,-1.));
#928 = ORIENTED_EDGE('',*,*,#442,.T.);
#929 = ORIENTED_EDGE('',*,*,#907,.T.);
#930 = ORIENTED_EDGE('',*,*,#931,.F.);
#931 = EDGE_CURVE('',#922,#897,#932,.T.);
#932 = CIRCLE('',#933,15.);
#933 = AXIS2_PLACEMENT_3D('',#934,#935,#936);
#934 = CARTESIAN_POINT('',(8.881784197001E-16,-17.,0.));
#935 = DIRECTION('',(-1.31803981509E-16,-1.224646799147E-16,1.));
#936 = DIRECTION('',(1.,1.318039815089E-16,1.31803981509E-16));
#937 = CYLINDRICAL_SURFACE('',#938,15.);
#938 = AXIS2_PLACEMENT_3D('',#939,#940,#941);
#939 = CARTESIAN_POINT('',(8.881784197001E-16,-17.,0.));
#940 = DIRECTION('',(1.318039815089E-16,1.224646799147E-16,-1.));
#941 = DIRECTION('',(1.,1.318039815089E-16,1.31803981509E-16));
#942 = ADVANCED_FACE('',(#943),#962,.F.);
#943 = FACE_BOUND('',#944,.T.);
#944 = EDGE_LOOP('',(#945,#954,#955,#956));
#945 = ORIENTED_EDGE('',*,*,#946,.F.);
#946 = EDGE_CURVE('',#922,#947,#949,.T.);
#947 = VERTEX_POINT('',#948);
#948 = CARTESIAN_POINT('',(-5.611917253051,-3.089342763733,
    9.62087439502E-16));
#949 = CIRCLE('',#950,3.);
#950 = AXIS2_PLACEMENT_3D('',#951,#952,#953);
#951 = CARTESIAN_POINT('',(-8.5,-2.277568135665,1.196550429368E-15));
#952 = DIRECTION('',(7.03853193746E-17,-4.063698308792E-17,1.));
#953 = DIRECTION('',(0.866025403784,0.5,-4.063698308792E-17));
#954 = ORIENTED_EDGE('',*,*,#921,.F.);
#955 = ORIENTED_EDGE('',*,*,#451,.T.);
#956 = ORIENTED_EDGE('',*,*,#957,.T.);
#957 = EDGE_CURVE('',#452,#947,#958,.T.);
#958 = LINE('',#959,#960);
#959 = CARTESIAN_POINT('',(-5.611917253051,-3.089342763733,
    9.638911479921E-16));
#960 = VECTOR('',#961,1.);
#961 = DIRECTION('',(1.318039815089E-16,1.224646799147E-16,-1.));
#962 = CYLINDRICAL_SURFACE('',#963,3.);
#963 = AXIS2_PLACEMENT_3D('',#964,#965,#966);
#964 = CARTESIAN_POINT('',(-8.5,-2.277568135665,1.196550429368E-15));
#965 = DIRECTION('',(-7.03853193746E-17,4.063698308792E-17,-1.));
#966 = DIRECTION('',(0.866025403784,0.5,-4.063698308792E-17));
#967 = ADVANCED_FACE('',(#968),#987,.T.);
#968 = FACE_BOUND('',#969,.F.);
#969 = EDGE_LOOP('',(#970,#978,#979,#980));
#970 = ORIENTED_EDGE('',*,*,#971,.F.);
#971 = EDGE_CURVE('',#461,#972,#974,.T.);
#972 = VERTEX_POINT('',#973);
#973 = CARTESIAN_POINT('',(-2.095265713055,-2.147058823529,
    7.713981618345E-16));
#974 = LINE('',#975,#976);
#975 = CARTESIAN_POINT('',(-2.095265713055,-2.147058823529,
    1.542796323669E-15));
#976 = VECTOR('',#977,1.);
#977 = DIRECTION('',(1.318039815089E-16,1.224646799147E-16,-1.));
#978 = ORIENTED_EDGE('',*,*,#460,.T.);
#979 = ORIENTED_EDGE('',*,*,#957,.T.);
#980 = ORIENTED_EDGE('',*,*,#981,.F.);
#981 = EDGE_CURVE('',#972,#947,#982,.T.);
#982 = CIRCLE('',#983,15.);
#983 = AXIS2_PLACEMENT_3D('',#984,#985,#986);
#984 = CARTESIAN_POINT('',(8.881784197001E-16,-17.,0.));
#985 = DIRECTION('',(-1.31803981509E-16,-1.224646799147E-16,1.));
#986 = DIRECTION('',(1.,1.318039815089E-16,1.31803981509E-16));
#987 = CYLINDRICAL_SURFACE('',#988,15.);
#988 = AXIS2_PLACEMENT_3D('',#989,#990,#991);
#989 = CARTESIAN_POINT('',(8.881784197001E-16,-17.,0.));
#990 = DIRECTION('',(1.318039815089E-16,1.224646799147E-16,-1.));
#991 = DIRECTION('',(1.,1.318039815089E-16,1.31803981509E-16));
#992 = ADVANCED_FACE('',(#993),#1012,.F.);
#993 = FACE_BOUND('',#994,.T.);
#994 = EDGE_LOOP('',(#995,#1004,#1005,#1006));
#995 = ORIENTED_EDGE('',*,*,#996,.F.);
#996 = EDGE_CURVE('',#972,#997,#999,.T.);
#997 = VERTEX_POINT('',#998);
#998 = CARTESIAN_POINT('',(2.095265713055,-2.147058823529,
    1.047562525134E-15));
#999 = CIRCLE('',#1000,3.);
#1000 = AXIS2_PLACEMENT_3D('',#1001,#1002,#1003);
#1001 = CARTESIAN_POINT('',(0.,0.,0.));
#1002 = DIRECTION('',(0.,0.,1.));
#1003 = DIRECTION('',(1.,0.,0.));
#1004 = ORIENTED_EDGE('',*,*,#971,.F.);
#1005 = ORIENTED_EDGE('',*,*,#469,.T.);
#1006 = ORIENTED_EDGE('',*,*,#1007,.T.);
#1007 = EDGE_CURVE('',#470,#997,#1008,.T.);
#1008 = LINE('',#1009,#1010);
#1009 = CARTESIAN_POINT('',(2.095265713055,-2.147058823529,
    2.095125050269E-15));
#1010 = VECTOR('',#1011,1.);
#1011 = DIRECTION('',(1.318039815089E-16,1.224646799147E-16,-1.));
#1012 = CYLINDRICAL_SURFACE('',#1013,3.);
#1013 = AXIS2_PLACEMENT_3D('',#1014,#1015,#1016);
#1014 = CARTESIAN_POINT('',(0.,0.,0.));
#1015 = DIRECTION('',(-0.,-0.,-1.));
#1016 = DIRECTION('',(1.,0.,0.));
#1017 = ADVANCED_FACE('',(#1018),#1037,.T.);
#1018 = FACE_BOUND('',#1019,.F.);
#1019 = EDGE_LOOP('',(#1020,#1028,#1029,#1030));
#1020 = ORIENTED_EDGE('',*,*,#1021,.F.);
#1021 = EDGE_CURVE('',#479,#1022,#1024,.T.);
#1022 = VERTEX_POINT('',#1023);
#1023 = CARTESIAN_POINT('',(5.611917253051,-3.089342763733,
    8.460912789559E-16));
#1024 = LINE('',#1025,#1026);
#1025 = CARTESIAN_POINT('',(5.611917253051,-3.089342763733,
    2.443237223694E-15));
#1026 = VECTOR('',#1027,1.);
#1027 = DIRECTION('',(1.318039815089E-16,1.224646799147E-16,-1.));
#1028 = ORIENTED_EDGE('',*,*,#478,.T.);
#1029 = ORIENTED_EDGE('',*,*,#1007,.T.);
#1030 = ORIENTED_EDGE('',*,*,#1031,.F.);
#1031 = EDGE_CURVE('',#1022,#997,#1032,.T.);
#1032 = CIRCLE('',#1033,15.);
#1033 = AXIS2_PLACEMENT_3D('',#1034,#1035,#1036);
#1034 = CARTESIAN_POINT('',(8.881784197001E-16,-17.,0.));
#1035 = DIRECTION('',(-1.31803981509E-16,-1.224646799147E-16,1.));
#1036 = DIRECTION('',(1.,1.318039815089E-16,1.31803981509E-16));
#1037 = CYLINDRICAL_SURFACE('',#1038,15.);
#1038 = AXIS2_PLACEMENT_3D('',#1039,#1040,#1041);
#1039 = CARTESIAN_POINT('',(8.881784197001E-16,-17.,0.));
#1040 = DIRECTION('',(1.318039815089E-16,1.224646799147E-16,-1.));
#1041 = DIRECTION('',(1.,1.318039815089E-16,1.31803981509E-16));
#1042 = ADVANCED_FACE('',(#1043),#1062,.F.);
#1043 = FACE_BOUND('',#1044,.T.);
#1044 = EDGE_LOOP('',(#1045,#1054,#1055,#1056));
#1045 = ORIENTED_EDGE('',*,*,#1046,.F.);
#1046 = EDGE_CURVE('',#1022,#1047,#1049,.T.);
#1047 = VERTEX_POINT('',#1048);
#1048 = CARTESIAN_POINT('',(9.24102392342,-5.184608476788,
    1.104434557139E-15));
#1049 = CIRCLE('',#1050,3.);
#1050 = AXIS2_PLACEMENT_3D('',#1051,#1052,#1053);
#1051 = CARTESIAN_POINT('',(8.5,-2.277568135665,-6.908287124946E-16));
#1052 = DIRECTION('',(-4.063698308792E-17,7.03853193746E-17,1.));
#1053 = DIRECTION('',(0.866025403784,-0.5,7.03853193746E-17));
#1054 = ORIENTED_EDGE('',*,*,#1021,.F.);
#1055 = ORIENTED_EDGE('',*,*,#487,.T.);
#1056 = ORIENTED_EDGE('',*,*,#1057,.T.);
#1057 = EDGE_CURVE('',#488,#1047,#1058,.T.);
#1058 = LINE('',#1059,#1060);
#1059 = CARTESIAN_POINT('',(9.24102392342,-5.184608476788,
    2.664971887284E-15));
#1060 = VECTOR('',#1061,1.);
#1061 = DIRECTION('',(1.318039815089E-16,1.224646799147E-16,-1.));
#1062 = CYLINDRICAL_SURFACE('',#1063,3.);
#1063 = AXIS2_PLACEMENT_3D('',#1064,#1065,#1066);
#1064 = CARTESIAN_POINT('',(8.5,-2.277568135665,-6.908287124946E-16));
#1065 = DIRECTION('',(4.063698308792E-17,-7.03853193746E-17,-1.));
#1066 = DIRECTION('',(0.866025403784,-0.5,7.03853193746E-17));
#1067 = ADVANCED_FACE('',(#1068),#1087,.T.);
#1068 = FACE_BOUND('',#1069,.F.);
#1069 = EDGE_LOOP('',(#1070,#1078,#1079,#1080));
#1070 = ORIENTED_EDGE('',*,*,#1071,.F.);
#1071 = EDGE_CURVE('',#497,#1072,#1074,.T.);
#1072 = VERTEX_POINT('',#1073);
#1073 = CARTESIAN_POINT('',(11.815391523212,-7.75897607658,
    8.83834731119E-16));
#1074 = LINE('',#1075,#1076);
#1075 = CARTESIAN_POINT('',(11.815391523212,-7.75897607658,
    2.689014682712E-15));
#1076 = VECTOR('',#1077,1.);
#1077 = DIRECTION('',(1.318039815089E-16,1.224646799147E-16,-1.));
#1078 = ORIENTED_EDGE('',*,*,#496,.T.);
#1079 = ORIENTED_EDGE('',*,*,#1057,.T.);
#1080 = ORIENTED_EDGE('',*,*,#1081,.F.);
#1081 = EDGE_CURVE('',#1072,#1047,#1082,.T.);
#1082 = CIRCLE('',#1083,15.);
#1083 = AXIS2_PLACEMENT_3D('',#1084,#1085,#1086);
#1084 = CARTESIAN_POINT('',(8.881784197001E-16,-17.,0.));
#1085 = DIRECTION('',(-1.31803981509E-16,-1.224646799147E-16,1.));
#1086 = DIRECTION('',(1.,1.318039815089E-16,1.31803981509E-16));
#1087 = CYLINDRICAL_SURFACE('',#1088,15.);
#1088 = AXIS2_PLACEMENT_3D('',#1089,#1090,#1091);
#1089 = CARTESIAN_POINT('',(8.881784197001E-16,-17.,0.));
#1090 = DIRECTION('',(1.318039815089E-16,1.224646799147E-16,-1.));
#1091 = DIRECTION('',(1.,1.318039815089E-16,1.31803981509E-16));
#1092 = ADVANCED_FACE('',(#1093),#1112,.F.);
#1093 = FACE_BOUND('',#1094,.T.);
#1094 = EDGE_LOOP('',(#1095,#1104,#1105,#1106));
#1095 = ORIENTED_EDGE('',*,*,#1096,.F.);
#1096 = EDGE_CURVE('',#1072,#1097,#1099,.T.);
#1097 = VERTEX_POINT('',#1098);
#1098 = CARTESIAN_POINT('',(13.910657236267,-11.38808274694,
    1.117464720468E-15));
#1099 = CIRCLE('',#1100,3.);
#1100 = AXIS2_PLACEMENT_3D('',#1101,#1102,#1103);
#1101 = CARTESIAN_POINT('',(14.722431864335,-8.5,-6.908287124946E-16));
#1102 = DIRECTION('',(-4.063698308792E-17,1.516592855504E-16,1.));
#1103 = DIRECTION('',(0.5,-0.866025403784,1.516592855504E-16));
#1104 = ORIENTED_EDGE('',*,*,#1071,.F.);
#1105 = ORIENTED_EDGE('',*,*,#505,.T.);
#1106 = ORIENTED_EDGE('',*,*,#1107,.T.);
#1107 = EDGE_CURVE('',#506,#1097,#1108,.T.);
#1108 = LINE('',#1109,#1110);
#1109 = CARTESIAN_POINT('',(13.910657236267,-11.38808274694,
    2.520741659249E-15));
#1110 = VECTOR('',#1111,1.);
#1111 = DIRECTION('',(1.318039815089E-16,1.224646799147E-16,-1.));
#1112 = CYLINDRICAL_SURFACE('',#1113,3.);
#1113 = AXIS2_PLACEMENT_3D('',#1114,#1115,#1116);
#1114 = CARTESIAN_POINT('',(14.722431864335,-8.5,-6.908287124946E-16));
#1115 = DIRECTION('',(4.063698308792E-17,-1.516592855504E-16,-1.));
#1116 = DIRECTION('',(0.5,-0.866025403784,1.516592855504E-16));
#1117 = ADVANCED_FACE('',(#1118),#1137,.T.);
#1118 = FACE_BOUND('',#1119,.F.);
#1119 = EDGE_LOOP('',(#1120,#1128,#1129,#1130));
#1120 = ORIENTED_EDGE('',*,*,#1121,.F.);
#1121 = EDGE_CURVE('',#515,#1122,#1124,.T.);
#1122 = VERTEX_POINT('',#1123);
#1123 = CARTESIAN_POINT('',(14.852941176471,-14.90473428694,
    8.745151907972E-16));
#1124 = LINE('',#1125,#1126);
#1125 = CARTESIAN_POINT('',(14.852941176471,-14.90473428694,
    2.214272829063E-15));
#1126 = VECTOR('',#1127,1.);
#1127 = DIRECTION('',(1.318039815089E-16,1.224646799147E-16,-1.));
#1128 = ORIENTED_EDGE('',*,*,#514,.T.);
#1129 = ORIENTED_EDGE('',*,*,#1107,.T.);
#1130 = ORIENTED_EDGE('',*,*,#1131,.F.);
#1131 = EDGE_CURVE('',#1122,#1097,#1132,.T.);
#1132 = CIRCLE('',#1133,15.);
#1133 = AXIS2_PLACEMENT_3D('',#1134,#1135,#1136);
#1134 = CARTESIAN_POINT('',(8.881784197001E-16,-17.,0.));
#1135 = DIRECTION('',(-1.31803981509E-16,-1.224646799147E-16,1.));
#1136 = DIRECTION('',(1.,1.318039815089E-16,1.31803981509E-16));
#1137 = CYLINDRICAL_SURFACE('',#1138,15.);
#1138 = AXIS2_PLACEMENT_3D('',#1139,#1140,#1141);
#1139 = CARTESIAN_POINT('',(8.881784197001E-16,-17.,0.));
#1140 = DIRECTION('',(1.318039815089E-16,1.224646799147E-16,-1.));
#1141 = DIRECTION('',(1.,1.318039815089E-16,1.31803981509E-16));
#1142 = ADVANCED_FACE('',(#1143),#1162,.F.);
#1143 = FACE_BOUND('',#1144,.T.);
#1144 = EDGE_LOOP('',(#1145,#1154,#1155,#1156));
#1145 = ORIENTED_EDGE('',*,*,#1146,.F.);
#1146 = EDGE_CURVE('',#1122,#1147,#1149,.T.);
#1147 = VERTEX_POINT('',#1148);
#1148 = CARTESIAN_POINT('',(14.852941176471,-19.09526571305,
    1.08316159338E-15));
#1149 = CIRCLE('',#1150,3.);
#1150 = AXIS2_PLACEMENT_3D('',#1151,#1152,#1153);
#1151 = CARTESIAN_POINT('',(17.,-17.,4.190823558987E-31));
#1152 = DIRECTION('',(2.465190328816E-32,2.22044604925E-16,1.));
#1153 = DIRECTION('',(-2.22044604925E-16,-1.,2.22044604925E-16));
#1154 = ORIENTED_EDGE('',*,*,#1121,.F.);
#1155 = ORIENTED_EDGE('',*,*,#523,.T.);
#1156 = ORIENTED_EDGE('',*,*,#1157,.T.);
#1157 = EDGE_CURVE('',#524,#1147,#1158,.T.);
#1158 = LINE('',#1159,#1160);
#1159 = CARTESIAN_POINT('',(14.852941176471,-19.09526571305,
    1.701080739291E-15));
#1160 = VECTOR('',#1161,1.);
#1161 = DIRECTION('',(1.318039815089E-16,1.224646799147E-16,-1.));
#1162 = CYLINDRICAL_SURFACE('',#1163,3.);
#1163 = AXIS2_PLACEMENT_3D('',#1164,#1165,#1166);
#1164 = CARTESIAN_POINT('',(17.,-17.,4.190823558987E-31));
#1165 = DIRECTION('',(-2.465190328816E-32,-2.22044604925E-16,-1.));
#1166 = DIRECTION('',(-2.22044604925E-16,-1.,2.22044604925E-16));
#1167 = ADVANCED_FACE('',(#1168),#1180,.T.);
#1168 = FACE_BOUND('',#1169,.F.);
#1169 = EDGE_LOOP('',(#1170,#1171,#1172,#1173));
#1170 = ORIENTED_EDGE('',*,*,#600,.F.);
#1171 = ORIENTED_EDGE('',*,*,#532,.T.);
#1172 = ORIENTED_EDGE('',*,*,#1157,.T.);
#1173 = ORIENTED_EDGE('',*,*,#1174,.F.);
#1174 = EDGE_CURVE('',#590,#1147,#1175,.T.);
#1175 = CIRCLE('',#1176,15.);
#1176 = AXIS2_PLACEMENT_3D('',#1177,#1178,#1179);
#1177 = CARTESIAN_POINT('',(8.881784197001E-16,-17.,0.));
#1178 = DIRECTION('',(-1.31803981509E-16,-1.224646799147E-16,1.));
#1179 = DIRECTION('',(1.,1.318039815089E-16,1.31803981509E-16));
#1180 = CYLINDRICAL_SURFACE('',#1181,15.);
#1181 = AXIS2_PLACEMENT_3D('',#1182,#1183,#1184);
#1182 = CARTESIAN_POINT('',(8.881784197001E-16,-17.,0.));
#1183 = DIRECTION('',(1.318039815089E-16,1.224646799147E-16,-1.));
#1184 = DIRECTION('',(1.,1.318039815089E-16,1.31803981509E-16));
#1185 = ADVANCED_FACE('',(#1186),#1205,.F.);
#1186 = FACE_BOUND('',#1187,.T.);
#1187 = EDGE_LOOP('',(#1188,#1196,#1197,#1198));
#1188 = ORIENTED_EDGE('',*,*,#1189,.F.);
#1189 = EDGE_CURVE('',#551,#1190,#1192,.T.);
#1190 = VERTEX_POINT('',#1191);
#1191 = CARTESIAN_POINT('',(-6.393266739737,-22.25,3.8));
#1192 = LINE('',#1193,#1194);
#1193 = CARTESIAN_POINT('',(-6.393266739737,-22.25,6.5));
#1194 = VECTOR('',#1195,1.);
#1195 = DIRECTION('',(0.,0.,-1.));
#1196 = ORIENTED_EDGE('',*,*,#550,.T.);
#1197 = ORIENTED_EDGE('',*,*,#1189,.T.);
#1198 = ORIENTED_EDGE('',*,*,#1199,.F.);
#1199 = EDGE_CURVE('',#1190,#1190,#1200,.T.);
#1200 = CIRCLE('',#1201,2.7);
#1201 = AXIS2_PLACEMENT_3D('',#1202,#1203,#1204);
#1202 = CARTESIAN_POINT('',(-9.093266739737,-22.25,3.8));
#1203 = DIRECTION('',(0.,0.,1.));
#1204 = DIRECTION('',(1.,0.,0.));
#1205 = CYLINDRICAL_SURFACE('',#1206,2.7);
#1206 = AXIS2_PLACEMENT_3D('',#1207,#1208,#1209);
#1207 = CARTESIAN_POINT('',(-9.093266739737,-22.25,6.5));
#1208 = DIRECTION('',(-0.,-0.,-1.));
#1209 = DIRECTION('',(1.,0.,0.));
#1210 = ADVANCED_FACE('',(#1211),#1230,.F.);
#1211 = FACE_BOUND('',#1212,.T.);
#1212 = EDGE_LOOP('',(#1213,#1221,#1222,#1223));
#1213 = ORIENTED_EDGE('',*,*,#1214,.F.);
#1214 = EDGE_CURVE('',#562,#1215,#1217,.T.);
#1215 = VERTEX_POINT('',#1216);
#1216 = CARTESIAN_POINT('',(11.793266739737,-22.25,3.8));
#1217 = LINE('',#1218,#1219);
#1218 = CARTESIAN_POINT('',(11.793266739737,-22.25,6.5));
#1219 = VECTOR('',#1220,1.);
#1220 = DIRECTION('',(0.,0.,-1.));
#1221 = ORIENTED_EDGE('',*,*,#561,.T.);
#1222 = ORIENTED_EDGE('',*,*,#1214,.T.);
#1223 = ORIENTED_EDGE('',*,*,#1224,.F.);
#1224 = EDGE_CURVE('',#1215,#1215,#1225,.T.);
#1225 = CIRCLE('',#1226,2.7);
#1226 = AXIS2_PLACEMENT_3D('',#1227,#1228,#1229);
#1227 = CARTESIAN_POINT('',(9.093266739737,-22.25,3.8));
#1228 = DIRECTION('',(0.,0.,1.));
#1229 = DIRECTION('',(1.,0.,0.));
#1230 = CYLINDRICAL_SURFACE('',#1231,2.7);
#1231 = AXIS2_PLACEMENT_3D('',#1232,#1233,#1234);
#1232 = CARTESIAN_POINT('',(9.093266739737,-22.25,6.5));
#1233 = DIRECTION('',(-0.,-0.,-1.));
#1234 = DIRECTION('',(1.,0.,0.));
#1235 = ADVANCED_FACE('',(#1236),#1255,.F.);
#1236 = FACE_BOUND('',#1237,.T.);
#1237 = EDGE_LOOP('',(#1238,#1246,#1247,#1248));
#1238 = ORIENTED_EDGE('',*,*,#1239,.F.);
#1239 = EDGE_CURVE('',#573,#1240,#1242,.T.);
#1240 = VERTEX_POINT('',#1241);
#1241 = CARTESIAN_POINT('',(2.7,-6.5,3.8));
#1242 = LINE('',#1243,#1244);
#1243 = CARTESIAN_POINT('',(2.7,-6.5,6.5));
#1244 = VECTOR('',#1245,1.);
#1245 = DIRECTION('',(0.,0.,-1.));
#1246 = ORIENTED_EDGE('',*,*,#572,.T.);
#1247 = ORIENTED_EDGE('',*,*,#1239,.T.);
#1248 = ORIENTED_EDGE('',*,*,#1249,.F.);
#1249 = EDGE_CURVE('',#1240,#1240,#1250,.T.);
#1250 = CIRCLE('',#1251,2.7);
#1251 = AXIS2_PLACEMENT_3D('',#1252,#1253,#1254);
#1252 = CARTESIAN_POINT('',(3.552713678801E-15,-6.5,3.8));
#1253 = DIRECTION('',(0.,0.,1.));
#1254 = DIRECTION('',(1.,0.,0.));
#1255 = CYLINDRICAL_SURFACE('',#1256,2.7);
#1256 = AXIS2_PLACEMENT_3D('',#1257,#1258,#1259);
#1257 = CARTESIAN_POINT('',(3.552713678801E-15,-6.5,6.5));
#1258 = DIRECTION('',(-0.,-0.,-1.));
#1259 = DIRECTION('',(1.,0.,0.));
#1260 = ADVANCED_FACE('',(#1261,#1287),#1340,.F.);
#1261 = FACE_BOUND('',#1262,.F.);
#1262 = EDGE_LOOP('',(#1263,#1264,#1265,#1266,#1267,#1268,#1269,#1270,
    #1271,#1272,#1273,#1274,#1275,#1276,#1277,#1278,#1279,#1280,#1281,
    #1282,#1283,#1284,#1285,#1286));
#1263 = ORIENTED_EDGE('',*,*,#996,.F.);
#1264 = ORIENTED_EDGE('',*,*,#981,.T.);
#1265 = ORIENTED_EDGE('',*,*,#946,.F.);
#1266 = ORIENTED_EDGE('',*,*,#931,.T.);
#1267 = ORIENTED_EDGE('',*,*,#896,.F.);
#1268 = ORIENTED_EDGE('',*,*,#881,.T.);
#1269 = ORIENTED_EDGE('',*,*,#846,.F.);
#1270 = ORIENTED_EDGE('',*,*,#831,.T.);
#1271 = ORIENTED_EDGE('',*,*,#796,.F.);
#1272 = ORIENTED_EDGE('',*,*,#781,.T.);
#1273 = ORIENTED_EDGE('',*,*,#746,.F.);
#1274 = ORIENTED_EDGE('',*,*,#731,.T.);
#1275 = ORIENTED_EDGE('',*,*,#696,.F.);
#1276 = ORIENTED_EDGE('',*,*,#681,.T.);
#1277 = ORIENTED_EDGE('',*,*,#646,.F.);
#1278 = ORIENTED_EDGE('',*,*,#631,.T.);
#1279 = ORIENTED_EDGE('',*,*,#589,.F.);
#1280 = ORIENTED_EDGE('',*,*,#1174,.T.);
#1281 = ORIENTED_EDGE('',*,*,#1146,.F.);
#1282 = ORIENTED_EDGE('',*,*,#1131,.T.);
#1283 = ORIENTED_EDGE('',*,*,#1096,.F.);
#1284 = ORIENTED_EDGE('',*,*,#1081,.T.);
#1285 = ORIENTED_EDGE('',*,*,#1046,.F.);
#1286 = ORIENTED_EDGE('',*,*,#1031,.T.);
#1287 = FACE_BOUND('',#1288,.F.);
#1288 = EDGE_LOOP('',(#1289,#1299,#1308,#1316,#1325,#1333));
#1289 = ORIENTED_EDGE('',*,*,#1290,.F.);
#1290 = EDGE_CURVE('',#1291,#1293,#1295,.T.);
#1291 = VERTEX_POINT('',#1292);
#1292 = CARTESIAN_POINT('',(-1.6454482672,-4.55000000002,
    1.33226762955E-15));
#1293 = VERTEX_POINT('',#1294);
#1294 = CARTESIAN_POINT('',(-11.60474041072,-21.79999999996,
    -2.22044604925E-15));
#1295 = LINE('',#1296,#1297);
#1296 = CARTESIAN_POINT('',(-1.6454482672,-4.55000000002,
    1.307808631952E-15));
#1297 = VECTOR('',#1298,1.);
#1298 = DIRECTION('',(-0.500000000001,-0.866025403784,-1.71959514627E-16
    ));
#1299 = ORIENTED_EDGE('',*,*,#1300,.F.);
#1300 = EDGE_CURVE('',#1301,#1291,#1303,.T.);
#1301 = VERTEX_POINT('',#1302);
#1302 = CARTESIAN_POINT('',(1.645448267188,-4.550000000002,
    1.7763568394E-15));
#1303 = CIRCLE('',#1304,1.9);
#1304 = AXIS2_PLACEMENT_3D('',#1305,#1306,#1307);
#1305 = CARTESIAN_POINT('',(-8.040275673677E-13,-5.500000000004,
    1.408343819019E-15));
#1306 = DIRECTION('',(-1.31803981509E-16,-1.224646799147E-16,1.));
#1307 = DIRECTION('',(1.,1.318039815089E-16,1.31803981509E-16));
#1308 = ORIENTED_EDGE('',*,*,#1309,.F.);
#1309 = EDGE_CURVE('',#1310,#1301,#1312,.T.);
#1310 = VERTEX_POINT('',#1311);
#1311 = CARTESIAN_POINT('',(11.604740410646,-21.79999999994,
    8.881784197001E-16));
#1312 = LINE('',#1313,#1314);
#1313 = CARTESIAN_POINT('',(11.604740410683,-21.79999999992,
    9.417205269244E-16));
#1314 = VECTOR('',#1315,1.);
#1315 = DIRECTION('',(-0.500000000001,0.866025403784,4.015553311787E-17)
  );
#1316 = ORIENTED_EDGE('',*,*,#1317,.F.);
#1317 = EDGE_CURVE('',#1318,#1310,#1320,.T.);
#1318 = VERTEX_POINT('',#1319);
#1319 = CARTESIAN_POINT('',(9.95929214342,-24.64999999996,
    4.440892098501E-16));
#1320 = CIRCLE('',#1321,1.9);
#1321 = AXIS2_PLACEMENT_3D('',#1322,#1323,#1324);
#1322 = CARTESIAN_POINT('',(9.95929214342,-22.74999999996,
    6.085024480077E-16));
#1323 = DIRECTION('',(-1.31803981509E-16,-1.224646799147E-16,1.));
#1324 = DIRECTION('',(1.,1.318039815089E-16,1.31803981509E-16));
#1325 = ORIENTED_EDGE('',*,*,#1326,.F.);
#1326 = EDGE_CURVE('',#1327,#1318,#1329,.T.);
#1327 = VERTEX_POINT('',#1328);
#1328 = CARTESIAN_POINT('',(-9.959292143535,-24.64999999996,
    -2.22044604925E-15));
#1329 = LINE('',#1330,#1331);
#1330 = CARTESIAN_POINT('',(-9.959292143535,-24.64999999996,
    -2.249529158872E-15));
#1331 = VECTOR('',#1332,1.);
#1332 = DIRECTION('',(1.,-1.828181960185E-13,1.318039815089E-16));
#1333 = ORIENTED_EDGE('',*,*,#1334,.F.);
#1334 = EDGE_CURVE('',#1293,#1327,#1335,.T.);
#1335 = CIRCLE('',#1336,1.9);
#1336 = AXIS2_PLACEMENT_3D('',#1337,#1338,#1339);
#1337 = CARTESIAN_POINT('',(-9.959292143535,-22.74999999996,
    -2.016846267034E-15));
#1338 = DIRECTION('',(-1.31803981509E-16,-1.224646799147E-16,1.));
#1339 = DIRECTION('',(1.,1.318039815089E-16,1.31803981509E-16));
#1340 = PLANE('',#1341);
#1341 = AXIS2_PLACEMENT_3D('',#1342,#1343,#1344);
#1342 = CARTESIAN_POINT('',(8.881784197001E-16,-17.,0.));
#1343 = DIRECTION('',(-1.318039815089E-16,-1.224646799147E-16,1.));
#1344 = DIRECTION('',(1.,1.318039815089E-16,1.31803981509E-16));
#1345 = ADVANCED_FACE('',(#1346,#1349),#1360,.T.);
#1346 = FACE_BOUND('',#1347,.T.);
#1347 = EDGE_LOOP('',(#1348));
#1348 = ORIENTED_EDGE('',*,*,#1199,.T.);
#1349 = FACE_BOUND('',#1350,.T.);
#1350 = EDGE_LOOP('',(#1351));
#1351 = ORIENTED_EDGE('',*,*,#1352,.F.);
#1352 = EDGE_CURVE('',#1353,#1353,#1355,.T.);
#1353 = VERTEX_POINT('',#1354);
#1354 = CARTESIAN_POINT('',(-7.593266739737,-22.25,3.8));
#1355 = CIRCLE('',#1356,1.5);
#1356 = AXIS2_PLACEMENT_3D('',#1357,#1358,#1359);
#1357 = CARTESIAN_POINT('',(-9.093266739737,-22.25,3.8));
#1358 = DIRECTION('',(0.,0.,1.));
#1359 = DIRECTION('',(1.,0.,0.));
#1360 = PLANE('',#1361);
#1361 = AXIS2_PLACEMENT_3D('',#1362,#1363,#1364);
#1362 = CARTESIAN_POINT('',(-9.093266739737,-22.25,3.8));
#1363 = DIRECTION('',(0.,0.,1.));
#1364 = DIRECTION('',(1.,0.,0.));
#1365 = ADVANCED_FACE('',(#1366,#1369),#1380,.T.);
#1366 = FACE_BOUND('',#1367,.T.);
#1367 = EDGE_LOOP('',(#1368));
#1368 = ORIENTED_EDGE('',*,*,#1224,.T.);
#1369 = FACE_BOUND('',#1370,.T.);
#1370 = EDGE_LOOP('',(#1371));
#1371 = ORIENTED_EDGE('',*,*,#1372,.F.);
#1372 = EDGE_CURVE('',#1373,#1373,#1375,.T.);
#1373 = VERTEX_POINT('',#1374);
#1374 = CARTESIAN_POINT('',(10.593266739737,-22.25,3.8));
#1375 = CIRCLE('',#1376,1.5);
#1376 = AXIS2_PLACEMENT_3D('',#1377,#1378,#1379);
#1377 = CARTESIAN_POINT('',(9.093266739737,-22.25,3.8));
#1378 = DIRECTION('',(0.,0.,1.));
#1379 = DIRECTION('',(1.,0.,0.));
#1380 = PLANE('',#1381);
#1381 = AXIS2_PLACEMENT_3D('',#1382,#1383,#1384);
#1382 = CARTESIAN_POINT('',(9.093266739737,-22.25,3.8));
#1383 = DIRECTION('',(0.,0.,1.));
#1384 = DIRECTION('',(1.,0.,0.));
#1385 = ADVANCED_FACE('',(#1386,#1389),#1400,.T.);
#1386 = FACE_BOUND('',#1387,.T.);
#1387 = EDGE_LOOP('',(#1388));
#1388 = ORIENTED_EDGE('',*,*,#1249,.T.);
#1389 = FACE_BOUND('',#1390,.T.);
#1390 = EDGE_LOOP('',(#1391));
#1391 = ORIENTED_EDGE('',*,*,#1392,.F.);
#1392 = EDGE_CURVE('',#1393,#1393,#1395,.T.);
#1393 = VERTEX_POINT('',#1394);
#1394 = CARTESIAN_POINT('',(1.5,-6.5,3.8));
#1395 = CIRCLE('',#1396,1.5);
#1396 = AXIS2_PLACEMENT_3D('',#1397,#1398,#1399);
#1397 = CARTESIAN_POINT('',(3.552713678801E-15,-6.5,3.8));
#1398 = DIRECTION('',(0.,0.,1.));
#1399 = DIRECTION('',(1.,0.,0.));
#1400 = PLANE('',#1401);
#1401 = AXIS2_PLACEMENT_3D('',#1402,#1403,#1404);
#1402 = CARTESIAN_POINT('',(3.552713678801E-15,-6.5,3.8));
#1403 = DIRECTION('',(0.,0.,1.));
#1404 = DIRECTION('',(1.,0.,0.));
#1405 = ADVANCED_FACE('',(#1406),#1431,.T.);
#1406 = FACE_BOUND('',#1407,.T.);
#1407 = EDGE_LOOP('',(#1408,#1416,#1424,#1430));
#1408 = ORIENTED_EDGE('',*,*,#1409,.T.);
#1409 = EDGE_CURVE('',#1291,#1410,#1412,.T.);
#1410 = VERTEX_POINT('',#1411);
#1411 = CARTESIAN_POINT('',(-1.6454482672,-4.55000000002,-2.8));
#1412 = LINE('',#1413,#1414);
#1413 = CARTESIAN_POINT('',(-1.6454482672,-4.55000000002,
    1.33226762955E-15));
#1414 = VECTOR('',#1415,1.);
#1415 = DIRECTION('',(1.318039815089E-16,1.224646799147E-16,-1.));
#1416 = ORIENTED_EDGE('',*,*,#1417,.T.);
#1417 = EDGE_CURVE('',#1410,#1418,#1420,.T.);
#1418 = VERTEX_POINT('',#1419);
#1419 = CARTESIAN_POINT('',(-11.60474041072,-21.79999999996,-2.8));
#1420 = LINE('',#1421,#1422);
#1421 = CARTESIAN_POINT('',(-1.6454482672,-4.55000000002,-2.8));
#1422 = VECTOR('',#1423,1.);
#1423 = DIRECTION('',(-0.500000000001,-0.866025403784,-1.71959514627E-16
    ));
#1424 = ORIENTED_EDGE('',*,*,#1425,.F.);
#1425 = EDGE_CURVE('',#1293,#1418,#1426,.T.);
#1426 = LINE('',#1427,#1428);
#1427 = CARTESIAN_POINT('',(-11.60474041072,-21.79999999996,
    -2.22044604925E-15));
#1428 = VECTOR('',#1429,1.);
#1429 = DIRECTION('',(1.318039815089E-16,1.224646799147E-16,-1.));
#1430 = ORIENTED_EDGE('',*,*,#1290,.F.);
#1431 = PLANE('',#1432);
#1432 = AXIS2_PLACEMENT_3D('',#1433,#1434,#1435);
#1433 = CARTESIAN_POINT('',(-1.6454482672,-4.55000000002,
    1.33226762955E-15));
#1434 = DIRECTION('',(-0.866025403784,0.500000000001,-5.291325634905E-17
    ));
#1435 = DIRECTION('',(-0.500000000001,-0.866025403784,-1.71959514627E-16
    ));
#1436 = ADVANCED_FACE('',(#1437),#1456,.T.);
#1437 = FACE_BOUND('',#1438,.T.);
#1438 = EDGE_LOOP('',(#1439,#1447,#1454,#1455));
#1439 = ORIENTED_EDGE('',*,*,#1440,.T.);
#1440 = EDGE_CURVE('',#1301,#1441,#1443,.T.);
#1441 = VERTEX_POINT('',#1442);
#1442 = CARTESIAN_POINT('',(1.645448267188,-4.550000000002,-2.8));
#1443 = LINE('',#1444,#1445);
#1444 = CARTESIAN_POINT('',(1.645448267188,-4.550000000002,
    1.7763568394E-15));
#1445 = VECTOR('',#1446,1.);
#1446 = DIRECTION('',(1.318039815089E-16,1.224646799147E-16,-1.));
#1447 = ORIENTED_EDGE('',*,*,#1448,.T.);
#1448 = EDGE_CURVE('',#1441,#1410,#1449,.T.);
#1449 = CIRCLE('',#1450,1.9);
#1450 = AXIS2_PLACEMENT_3D('',#1451,#1452,#1453);
#1451 = CARTESIAN_POINT('',(-8.036585162194E-13,-5.500000000004,-2.8));
#1452 = DIRECTION('',(-1.31803981509E-16,-1.224646799147E-16,1.));
#1453 = DIRECTION('',(1.,1.318039815089E-16,1.31803981509E-16));
#1454 = ORIENTED_EDGE('',*,*,#1409,.F.);
#1455 = ORIENTED_EDGE('',*,*,#1300,.F.);
#1456 = CYLINDRICAL_SURFACE('',#1457,1.9);
#1457 = AXIS2_PLACEMENT_3D('',#1458,#1459,#1460);
#1458 = CARTESIAN_POINT('',(-8.040275673677E-13,-5.500000000004,
    1.33226762955E-15));
#1459 = DIRECTION('',(-1.318039815089E-16,-1.224646799147E-16,1.));
#1460 = DIRECTION('',(1.,1.318039815089E-16,1.31803981509E-16));
#1461 = ADVANCED_FACE('',(#1462),#1481,.T.);
#1462 = FACE_BOUND('',#1463,.T.);
#1463 = EDGE_LOOP('',(#1464,#1465,#1474,#1480));
#1464 = ORIENTED_EDGE('',*,*,#1425,.T.);
#1465 = ORIENTED_EDGE('',*,*,#1466,.T.);
#1466 = EDGE_CURVE('',#1418,#1467,#1469,.T.);
#1467 = VERTEX_POINT('',#1468);
#1468 = CARTESIAN_POINT('',(-9.959292143535,-24.64999999996,-2.8));
#1469 = CIRCLE('',#1470,1.9);
#1470 = AXIS2_PLACEMENT_3D('',#1471,#1472,#1473);
#1471 = CARTESIAN_POINT('',(-9.959292143535,-22.74999999996,-2.8));
#1472 = DIRECTION('',(-1.31803981509E-16,-1.224646799147E-16,1.));
#1473 = DIRECTION('',(1.,1.318039815089E-16,1.31803981509E-16));
#1474 = ORIENTED_EDGE('',*,*,#1475,.F.);
#1475 = EDGE_CURVE('',#1327,#1467,#1476,.T.);
#1476 = LINE('',#1477,#1478);
#1477 = CARTESIAN_POINT('',(-9.959292143535,-24.64999999996,
    -2.22044604925E-15));
#1478 = VECTOR('',#1479,1.);
#1479 = DIRECTION('',(1.318039815089E-16,1.224646799147E-16,-1.));
#1480 = ORIENTED_EDGE('',*,*,#1334,.F.);
#1481 = CYLINDRICAL_SURFACE('',#1482,1.9);
#1482 = AXIS2_PLACEMENT_3D('',#1483,#1484,#1485);
#1483 = CARTESIAN_POINT('',(-9.959292143535,-22.74999999996,
    -2.22044604925E-15));
#1484 = DIRECTION('',(-1.318039815089E-16,-1.224646799147E-16,1.));
#1485 = DIRECTION('',(1.,1.318039815089E-16,1.31803981509E-16));
#1486 = ADVANCED_FACE('',(#1487),#1505,.T.);
#1487 = FACE_BOUND('',#1488,.T.);
#1488 = EDGE_LOOP('',(#1489,#1497,#1503,#1504));
#1489 = ORIENTED_EDGE('',*,*,#1490,.T.);
#1490 = EDGE_CURVE('',#1310,#1491,#1493,.T.);
#1491 = VERTEX_POINT('',#1492);
#1492 = CARTESIAN_POINT('',(11.604740410646,-21.79999999994,-2.8));
#1493 = LINE('',#1494,#1495);
#1494 = CARTESIAN_POINT('',(11.604740410646,-21.79999999994,
    8.881784197001E-16));
#1495 = VECTOR('',#1496,1.);
#1496 = DIRECTION('',(1.318039815089E-16,1.224646799147E-16,-1.));
#1497 = ORIENTED_EDGE('',*,*,#1498,.T.);
#1498 = EDGE_CURVE('',#1491,#1441,#1499,.T.);
#1499 = LINE('',#1500,#1501);
#1500 = CARTESIAN_POINT('',(11.604740410683,-21.79999999992,-2.8));
#1501 = VECTOR('',#1502,1.);
#1502 = DIRECTION('',(-0.500000000001,0.866025403784,4.015553311787E-17)
  );
#1503 = ORIENTED_EDGE('',*,*,#1440,.F.);
#1504 = ORIENTED_EDGE('',*,*,#1309,.F.);
#1505 = PLANE('',#1506);
#1506 = AXIS2_PLACEMENT_3D('',#1507,#1508,#1509);
#1507 = CARTESIAN_POINT('',(11.604740410683,-21.79999999992,
    8.881784197001E-16));
#1508 = DIRECTION('',(0.866025403784,0.500000000001,1.753779362641E-16)
  );
#1509 = DIRECTION('',(-0.500000000001,0.866025403784,4.015553311787E-17)
  );
#1510 = ADVANCED_FACE('',(#1511),#1561,.T.);
#1511 = FACE_BOUND('',#1512,.T.);
#1512 = EDGE_LOOP('',(#1513,#1514,#1515,#1523,#1531,#1539,#1547,#1555));
#1513 = ORIENTED_EDGE('',*,*,#1326,.F.);
#1514 = ORIENTED_EDGE('',*,*,#1475,.T.);
#1515 = ORIENTED_EDGE('',*,*,#1516,.T.);
#1516 = EDGE_CURVE('',#1467,#1517,#1519,.T.);
#1517 = VERTEX_POINT('',#1518);
#1518 = CARTESIAN_POINT('',(-1.000000000001,-24.64999999996,-2.8));
#1519 = LINE('',#1520,#1521);
#1520 = CARTESIAN_POINT('',(-9.959292143535,-24.64999999996,-2.8));
#1521 = VECTOR('',#1522,1.);
#1522 = DIRECTION('',(1.,-1.828181960185E-13,1.318039815089E-16));
#1523 = ORIENTED_EDGE('',*,*,#1524,.F.);
#1524 = EDGE_CURVE('',#1525,#1517,#1527,.T.);
#1525 = VERTEX_POINT('',#1526);
#1526 = CARTESIAN_POINT('',(-1.000000000001,-24.64999999996,-0.8));
#1527 = LINE('',#1528,#1529);
#1528 = CARTESIAN_POINT('',(-1.000000000001,-24.64999999996,-0.8));
#1529 = VECTOR('',#1530,1.);
#1530 = DIRECTION('',(2.80012859875E-29,2.22044604925E-16,-1.));
#1531 = ORIENTED_EDGE('',*,*,#1532,.F.);
#1532 = EDGE_CURVE('',#1533,#1525,#1535,.T.);
#1533 = VERTEX_POINT('',#1534);
#1534 = CARTESIAN_POINT('',(0.999999999999,-24.64999999996,-0.8));
#1535 = LINE('',#1536,#1537);
#1536 = CARTESIAN_POINT('',(0.999999999999,-24.64999999996,-0.8));
#1537 = VECTOR('',#1538,1.);
#1538 = DIRECTION('',(-1.,1.8295E-13,1.262177448354E-29));
#1539 = ORIENTED_EDGE('',*,*,#1540,.T.);
#1540 = EDGE_CURVE('',#1533,#1541,#1543,.T.);
#1541 = VERTEX_POINT('',#1542);
#1542 = CARTESIAN_POINT('',(0.999999999999,-24.64999999996,-2.8));
#1543 = LINE('',#1544,#1545);
#1544 = CARTESIAN_POINT('',(0.999999999999,-24.64999999996,-0.8));
#1545 = VECTOR('',#1546,1.);
#1546 = DIRECTION('',(2.80012859875E-29,2.22044604925E-16,-1.));
#1547 = ORIENTED_EDGE('',*,*,#1548,.T.);
#1548 = EDGE_CURVE('',#1541,#1549,#1551,.T.);
#1549 = VERTEX_POINT('',#1550);
#1550 = CARTESIAN_POINT('',(9.95929214342,-24.64999999996,-2.8));
#1551 = LINE('',#1552,#1553);
#1552 = CARTESIAN_POINT('',(-9.959292143535,-24.64999999996,-2.8));
#1553 = VECTOR('',#1554,1.);
#1554 = DIRECTION('',(1.,-1.828181960185E-13,1.318039815089E-16));
#1555 = ORIENTED_EDGE('',*,*,#1556,.F.);
#1556 = EDGE_CURVE('',#1318,#1549,#1557,.T.);
#1557 = LINE('',#1558,#1559);
#1558 = CARTESIAN_POINT('',(9.95929214342,-24.64999999996,
    4.440892098501E-16));
#1559 = VECTOR('',#1560,1.);
#1560 = DIRECTION('',(1.318039815089E-16,1.224646799147E-16,-1.));
#1561 = PLANE('',#1562);
#1562 = AXIS2_PLACEMENT_3D('',#1563,#1564,#1565);
#1563 = CARTESIAN_POINT('',(-9.959292143535,-24.64999999996,
    -2.22044604925E-15));
#1564 = DIRECTION('',(-1.828181960185E-13,-1.,-1.224646799148E-16));
#1565 = DIRECTION('',(1.,-1.828181960185E-13,1.318039815089E-16));
#1566 = ADVANCED_FACE('',(#1567),#1579,.T.);
#1567 = FACE_BOUND('',#1568,.T.);
#1568 = EDGE_LOOP('',(#1569,#1570,#1577,#1578));
#1569 = ORIENTED_EDGE('',*,*,#1556,.T.);
#1570 = ORIENTED_EDGE('',*,*,#1571,.T.);
#1571 = EDGE_CURVE('',#1549,#1491,#1572,.T.);
#1572 = CIRCLE('',#1573,1.9);
#1573 = AXIS2_PLACEMENT_3D('',#1574,#1575,#1576);
#1574 = CARTESIAN_POINT('',(9.95929214342,-22.74999999996,-2.8));
#1575 = DIRECTION('',(-1.31803981509E-16,-1.224646799147E-16,1.));
#1576 = DIRECTION('',(1.,1.318039815089E-16,1.31803981509E-16));
#1577 = ORIENTED_EDGE('',*,*,#1490,.F.);
#1578 = ORIENTED_EDGE('',*,*,#1317,.F.);
#1579 = CYLINDRICAL_SURFACE('',#1580,1.9);
#1580 = AXIS2_PLACEMENT_3D('',#1581,#1582,#1583);
#1581 = CARTESIAN_POINT('',(9.95929214342,-22.74999999996,
    4.440892098501E-16));
#1582 = DIRECTION('',(-1.318039815089E-16,-1.224646799147E-16,1.));
#1583 = DIRECTION('',(1.,1.318039815089E-16,1.31803981509E-16));
#1584 = ADVANCED_FACE('',(#1585),#1604,.F.);
#1585 = FACE_BOUND('',#1586,.T.);
#1586 = EDGE_LOOP('',(#1587,#1595,#1596,#1597));
#1587 = ORIENTED_EDGE('',*,*,#1588,.F.);
#1588 = EDGE_CURVE('',#1353,#1589,#1591,.T.);
#1589 = VERTEX_POINT('',#1590);
#1590 = CARTESIAN_POINT('',(-7.593266739737,-22.25,-2.8));
#1591 = LINE('',#1592,#1593);
#1592 = CARTESIAN_POINT('',(-7.593266739737,-22.25,3.8));
#1593 = VECTOR('',#1594,1.);
#1594 = DIRECTION('',(-6.125362121295E-17,0.,-1.));
#1595 = ORIENTED_EDGE('',*,*,#1352,.T.);
#1596 = ORIENTED_EDGE('',*,*,#1588,.T.);
#1597 = ORIENTED_EDGE('',*,*,#1598,.T.);
#1598 = EDGE_CURVE('',#1589,#1589,#1599,.T.);
#1599 = CIRCLE('',#1600,1.5);
#1600 = AXIS2_PLACEMENT_3D('',#1601,#1602,#1603);
#1601 = CARTESIAN_POINT('',(-9.093266739737,-22.25,-2.8));
#1602 = DIRECTION('',(0.,0.,-1.));
#1603 = DIRECTION('',(1.,0.,0.));
#1604 = CYLINDRICAL_SURFACE('',#1605,1.5);
#1605 = AXIS2_PLACEMENT_3D('',#1606,#1607,#1608);
#1606 = CARTESIAN_POINT('',(-9.093266739737,-22.25,3.8));
#1607 = DIRECTION('',(-0.,-0.,-1.));
#1608 = DIRECTION('',(1.,0.,0.));
#1609 = ADVANCED_FACE('',(#1610),#1629,.F.);
#1610 = FACE_BOUND('',#1611,.T.);
#1611 = EDGE_LOOP('',(#1612,#1620,#1621,#1622));
#1612 = ORIENTED_EDGE('',*,*,#1613,.F.);
#1613 = EDGE_CURVE('',#1373,#1614,#1616,.T.);
#1614 = VERTEX_POINT('',#1615);
#1615 = CARTESIAN_POINT('',(10.593266739737,-22.25,-2.8));
#1616 = LINE('',#1617,#1618);
#1617 = CARTESIAN_POINT('',(10.593266739737,-22.25,3.8));
#1618 = VECTOR('',#1619,1.);
#1619 = DIRECTION('',(-6.125362121295E-17,0.,-1.));
#1620 = ORIENTED_EDGE('',*,*,#1372,.T.);
#1621 = ORIENTED_EDGE('',*,*,#1613,.T.);
#1622 = ORIENTED_EDGE('',*,*,#1623,.T.);
#1623 = EDGE_CURVE('',#1614,#1614,#1624,.T.);
#1624 = CIRCLE('',#1625,1.5);
#1625 = AXIS2_PLACEMENT_3D('',#1626,#1627,#1628);
#1626 = CARTESIAN_POINT('',(9.093266739737,-22.25,-2.8));
#1627 = DIRECTION('',(0.,0.,-1.));
#1628 = DIRECTION('',(1.,0.,0.));
#1629 = CYLINDRICAL_SURFACE('',#1630,1.5);
#1630 = AXIS2_PLACEMENT_3D('',#1631,#1632,#1633);
#1631 = CARTESIAN_POINT('',(9.093266739737,-22.25,3.8));
#1632 = DIRECTION('',(-0.,-0.,-1.));
#1633 = DIRECTION('',(1.,0.,0.));
#1634 = ADVANCED_FACE('',(#1635),#1654,.F.);
#1635 = FACE_BOUND('',#1636,.T.);
#1636 = EDGE_LOOP('',(#1637,#1645,#1646,#1647));
#1637 = ORIENTED_EDGE('',*,*,#1638,.F.);
#1638 = EDGE_CURVE('',#1393,#1639,#1641,.T.);
#1639 = VERTEX_POINT('',#1640);
#1640 = CARTESIAN_POINT('',(1.5,-6.5,-2.8));
#1641 = LINE('',#1642,#1643);
#1642 = CARTESIAN_POINT('',(1.5,-6.5,3.8));
#1643 = VECTOR('',#1644,1.);
#1644 = DIRECTION('',(-6.125362121295E-17,0.,-1.));
#1645 = ORIENTED_EDGE('',*,*,#1392,.T.);
#1646 = ORIENTED_EDGE('',*,*,#1638,.T.);
#1647 = ORIENTED_EDGE('',*,*,#1648,.T.);
#1648 = EDGE_CURVE('',#1639,#1639,#1649,.T.);
#1649 = CIRCLE('',#1650,1.5);
#1650 = AXIS2_PLACEMENT_3D('',#1651,#1652,#1653);
#1651 = CARTESIAN_POINT('',(3.552713678801E-15,-6.5,-2.8));
#1652 = DIRECTION('',(0.,0.,-1.));
#1653 = DIRECTION('',(1.,0.,0.));
#1654 = CYLINDRICAL_SURFACE('',#1655,1.5);
#1655 = AXIS2_PLACEMENT_3D('',#1656,#1657,#1658);
#1656 = CARTESIAN_POINT('',(3.552713678801E-15,-6.5,3.8));
#1657 = DIRECTION('',(-0.,-0.,-1.));
#1658 = DIRECTION('',(1.,0.,0.));
#1659 = ADVANCED_FACE('',(#1660,#1734,#1737,#1740),#1743,.F.);
#1660 = FACE_BOUND('',#1661,.F.);
#1661 = EDGE_LOOP('',(#1662,#1663,#1664,#1665,#1666,#1674,#1683,#1691,
    #1699,#1707,#1716,#1725,#1731,#1732,#1733));
#1662 = ORIENTED_EDGE('',*,*,#1448,.T.);
#1663 = ORIENTED_EDGE('',*,*,#1417,.T.);
#1664 = ORIENTED_EDGE('',*,*,#1466,.T.);
#1665 = ORIENTED_EDGE('',*,*,#1516,.T.);
#1666 = ORIENTED_EDGE('',*,*,#1667,.F.);
#1667 = EDGE_CURVE('',#1668,#1517,#1670,.T.);
#1668 = VERTEX_POINT('',#1669);
#1669 = CARTESIAN_POINT('',(-1.000000000001,-21.38748219369,-2.8));
#1670 = LINE('',#1671,#1672);
#1671 = CARTESIAN_POINT('',(-0.999999999999,-9.149999999967,-2.8));
#1672 = VECTOR('',#1673,1.);
#1673 = DIRECTION('',(-1.8295E-13,-1.,-2.22044604925E-16));
#1674 = ORIENTED_EDGE('',*,*,#1675,.T.);
#1675 = EDGE_CURVE('',#1668,#1676,#1678,.T.);
#1676 = VERTEX_POINT('',#1677);
#1677 = CARTESIAN_POINT('',(-0.999999999999,-12.6125178063,-2.8));
#1678 = CIRCLE('',#1679,4.5);
#1679 = AXIS2_PLACEMENT_3D('',#1680,#1681,#1682);
#1680 = CARTESIAN_POINT('',(1.257229567925E-15,-17.,-2.8));
#1681 = DIRECTION('',(1.31803981509E-16,1.737228954161E-32,-1.));
#1682 = DIRECTION('',(1.,1.318039815089E-16,1.31803981509E-16));
#1683 = ORIENTED_EDGE('',*,*,#1684,.F.);
#1684 = EDGE_CURVE('',#1685,#1676,#1687,.T.);
#1685 = VERTEX_POINT('',#1686);
#1686 = CARTESIAN_POINT('',(-0.999999999999,-9.149999999967,-2.8));
#1687 = LINE('',#1688,#1689);
#1688 = CARTESIAN_POINT('',(-0.999999999999,-9.149999999967,-2.8));
#1689 = VECTOR('',#1690,1.);
#1690 = DIRECTION('',(-1.8295E-13,-1.,-2.22044604925E-16));
#1691 = ORIENTED_EDGE('',*,*,#1692,.F.);
#1692 = EDGE_CURVE('',#1693,#1685,#1695,.T.);
#1693 = VERTEX_POINT('',#1694);
#1694 = CARTESIAN_POINT('',(1.000000000001,-9.149999999967,-2.8));
#1695 = LINE('',#1696,#1697);
#1696 = CARTESIAN_POINT('',(1.000000000001,-9.149999999967,-2.8));
#1697 = VECTOR('',#1698,1.);
#1698 = DIRECTION('',(-1.,1.8295E-13,1.262177448354E-29));
#1699 = ORIENTED_EDGE('',*,*,#1700,.T.);
#1700 = EDGE_CURVE('',#1693,#1701,#1703,.T.);
#1701 = VERTEX_POINT('',#1702);
#1702 = CARTESIAN_POINT('',(1.000000000001,-12.6125178063,-2.8));
#1703 = LINE('',#1704,#1705);
#1704 = CARTESIAN_POINT('',(1.000000000001,-9.149999999967,-2.8));
#1705 = VECTOR('',#1706,1.);
#1706 = DIRECTION('',(-1.8295E-13,-1.,-2.22044604925E-16));
#1707 = ORIENTED_EDGE('',*,*,#1708,.T.);
#1708 = EDGE_CURVE('',#1701,#1709,#1711,.T.);
#1709 = VERTEX_POINT('',#1710);
#1710 = CARTESIAN_POINT('',(4.5,-17.,-2.8));
#1711 = CIRCLE('',#1712,4.5);
#1712 = AXIS2_PLACEMENT_3D('',#1713,#1714,#1715);
#1713 = CARTESIAN_POINT('',(1.257229567925E-15,-17.,-2.8));
#1714 = DIRECTION('',(1.31803981509E-16,1.737228954161E-32,-1.));
#1715 = DIRECTION('',(1.,1.318039815089E-16,1.31803981509E-16));
#1716 = ORIENTED_EDGE('',*,*,#1717,.T.);
#1717 = EDGE_CURVE('',#1709,#1718,#1720,.T.);
#1718 = VERTEX_POINT('',#1719);
#1719 = CARTESIAN_POINT('',(0.999999999999,-21.38748219369,-2.8));
#1720 = CIRCLE('',#1721,4.5);
#1721 = AXIS2_PLACEMENT_3D('',#1722,#1723,#1724);
#1722 = CARTESIAN_POINT('',(1.257229567925E-15,-17.,-2.8));
#1723 = DIRECTION('',(1.31803981509E-16,1.737228954161E-32,-1.));
#1724 = DIRECTION('',(1.,1.318039815089E-16,1.31803981509E-16));
#1725 = ORIENTED_EDGE('',*,*,#1726,.T.);
#1726 = EDGE_CURVE('',#1718,#1541,#1727,.T.);
#1727 = LINE('',#1728,#1729);
#1728 = CARTESIAN_POINT('',(1.000000000001,-9.149999999967,-2.8));
#1729 = VECTOR('',#1730,1.);
#1730 = DIRECTION('',(-1.8295E-13,-1.,-2.22044604925E-16));
#1731 = ORIENTED_EDGE('',*,*,#1548,.T.);
#1732 = ORIENTED_EDGE('',*,*,#1571,.T.);
#1733 = ORIENTED_EDGE('',*,*,#1498,.T.);
#1734 = FACE_BOUND('',#1735,.F.);
#1735 = EDGE_LOOP('',(#1736));
#1736 = ORIENTED_EDGE('',*,*,#1598,.T.);
#1737 = FACE_BOUND('',#1738,.F.);
#1738 = EDGE_LOOP('',(#1739));
#1739 = ORIENTED_EDGE('',*,*,#1623,.T.);
#1740 = FACE_BOUND('',#1741,.F.);
#1741 = EDGE_LOOP('',(#1742));
#1742 = ORIENTED_EDGE('',*,*,#1648,.T.);
#1743 = PLANE('',#1744);
#1744 = AXIS2_PLACEMENT_3D('',#1745,#1746,#1747);
#1745 = CARTESIAN_POINT('',(-3.308536277043E-11,-16.99999999997,-2.8));
#1746 = DIRECTION('',(-1.318039815089E-16,-1.224646799147E-16,1.));
#1747 = DIRECTION('',(1.,1.318039815089E-16,1.31803981509E-16));
#1748 = ADVANCED_FACE('',(#1749),#1767,.T.);
#1749 = FACE_BOUND('',#1750,.T.);
#1750 = EDGE_LOOP('',(#1751,#1759,#1765,#1766));
#1751 = ORIENTED_EDGE('',*,*,#1752,.F.);
#1752 = EDGE_CURVE('',#1753,#1533,#1755,.T.);
#1753 = VERTEX_POINT('',#1754);
#1754 = CARTESIAN_POINT('',(0.999999999999,-21.38748219369,-0.8));
#1755 = LINE('',#1756,#1757);
#1756 = CARTESIAN_POINT('',(1.000000000001,-9.149999999967,-0.8));
#1757 = VECTOR('',#1758,1.);
#1758 = DIRECTION('',(-1.8295E-13,-1.,-2.22044604925E-16));
#1759 = ORIENTED_EDGE('',*,*,#1760,.F.);
#1760 = EDGE_CURVE('',#1718,#1753,#1761,.T.);
#1761 = LINE('',#1762,#1763);
#1762 = CARTESIAN_POINT('',(0.999999999999,-21.38748219369,2.2));
#1763 = VECTOR('',#1764,1.);
#1764 = DIRECTION('',(-1.318039815089E-16,2.410956141582E-29,1.));
#1765 = ORIENTED_EDGE('',*,*,#1726,.T.);
#1766 = ORIENTED_EDGE('',*,*,#1540,.F.);
#1767 = PLANE('',#1768);
#1768 = AXIS2_PLACEMENT_3D('',#1769,#1770,#1771);
#1769 = CARTESIAN_POINT('',(1.000000000001,-9.149999999967,-0.8));
#1770 = DIRECTION('',(-1.,1.8295E-13,1.262177448354E-29));
#1771 = DIRECTION('',(-1.8295E-13,-1.,-2.22044604925E-16));
#1772 = ADVANCED_FACE('',(#1773),#1792,.T.);
#1773 = FACE_BOUND('',#1774,.T.);
#1774 = EDGE_LOOP('',(#1775,#1783,#1790,#1791));
#1775 = ORIENTED_EDGE('',*,*,#1776,.F.);
#1776 = EDGE_CURVE('',#1777,#1525,#1779,.T.);
#1777 = VERTEX_POINT('',#1778);
#1778 = CARTESIAN_POINT('',(-1.000000000001,-21.38748219369,-0.8));
#1779 = LINE('',#1780,#1781);
#1780 = CARTESIAN_POINT('',(-0.999999999999,-9.149999999967,-0.8));
#1781 = VECTOR('',#1782,1.);
#1782 = DIRECTION('',(-1.8295E-13,-1.,-2.22044604925E-16));
#1783 = ORIENTED_EDGE('',*,*,#1784,.T.);
#1784 = EDGE_CURVE('',#1777,#1753,#1785,.T.);
#1785 = CIRCLE('',#1786,4.5);
#1786 = AXIS2_PLACEMENT_3D('',#1787,#1788,#1789);
#1787 = CARTESIAN_POINT('',(1.110223024625E-15,-17.,-0.8));
#1788 = DIRECTION('',(-1.318039815089E-16,2.409218912628E-29,1.));
#1789 = DIRECTION('',(1.,1.318039815089E-16,1.318039815089E-16));
#1790 = ORIENTED_EDGE('',*,*,#1752,.T.);
#1791 = ORIENTED_EDGE('',*,*,#1532,.T.);
#1792 = PLANE('',#1793);
#1793 = AXIS2_PLACEMENT_3D('',#1794,#1795,#1796);
#1794 = CARTESIAN_POINT('',(1.000000000001,-9.149999999967,-0.8));
#1795 = DIRECTION('',(2.80012859875E-29,2.22044604925E-16,-1.));
#1796 = DIRECTION('',(-1.8295E-13,-1.,-2.22044604925E-16));
#1797 = ADVANCED_FACE('',(#1798),#1809,.F.);
#1798 = FACE_BOUND('',#1799,.F.);
#1799 = EDGE_LOOP('',(#1800,#1801,#1807,#1808));
#1800 = ORIENTED_EDGE('',*,*,#1776,.F.);
#1801 = ORIENTED_EDGE('',*,*,#1802,.F.);
#1802 = EDGE_CURVE('',#1668,#1777,#1803,.T.);
#1803 = LINE('',#1804,#1805);
#1804 = CARTESIAN_POINT('',(-1.000000000001,-21.38748219369,2.2));
#1805 = VECTOR('',#1806,1.);
#1806 = DIRECTION('',(-1.318039815089E-16,2.410956141582E-29,1.));
#1807 = ORIENTED_EDGE('',*,*,#1667,.T.);
#1808 = ORIENTED_EDGE('',*,*,#1524,.F.);
#1809 = PLANE('',#1810);
#1810 = AXIS2_PLACEMENT_3D('',#1811,#1812,#1813);
#1811 = CARTESIAN_POINT('',(-0.999999999999,-9.149999999967,-0.8));
#1812 = DIRECTION('',(-1.,1.8295E-13,1.262177448354E-29));
#1813 = DIRECTION('',(-1.8295E-13,-1.,-2.22044604925E-16));
#1814 = ADVANCED_FACE('',(#1815),#1862,.F.);
#1815 = FACE_BOUND('',#1816,.T.);
#1816 = EDGE_LOOP('',(#1817,#1826,#1832,#1833,#1834,#1835,#1836,#1837,
    #1845,#1854,#1860,#1861));
#1817 = ORIENTED_EDGE('',*,*,#1818,.F.);
#1818 = EDGE_CURVE('',#1819,#1819,#1821,.T.);
#1819 = VERTEX_POINT('',#1820);
#1820 = CARTESIAN_POINT('',(4.5,-17.,2.2));
#1821 = CIRCLE('',#1822,4.5);
#1822 = AXIS2_PLACEMENT_3D('',#1823,#1824,#1825);
#1823 = CARTESIAN_POINT('',(5.982096603805E-16,-17.,2.2));
#1824 = DIRECTION('',(1.31803981509E-16,1.737228954161E-32,-1.));
#1825 = DIRECTION('',(1.,1.318039815089E-16,1.31803981509E-16));
#1826 = ORIENTED_EDGE('',*,*,#1827,.T.);
#1827 = EDGE_CURVE('',#1819,#1709,#1828,.T.);
#1828 = LINE('',#1829,#1830);
#1829 = CARTESIAN_POINT('',(4.5,-17.,2.2));
#1830 = VECTOR('',#1831,1.);
#1831 = DIRECTION('',(1.318039815089E-16,-2.410956141582E-29,-1.));
#1832 = ORIENTED_EDGE('',*,*,#1717,.T.);
#1833 = ORIENTED_EDGE('',*,*,#1760,.T.);
#1834 = ORIENTED_EDGE('',*,*,#1784,.F.);
#1835 = ORIENTED_EDGE('',*,*,#1802,.F.);
#1836 = ORIENTED_EDGE('',*,*,#1675,.T.);
#1837 = ORIENTED_EDGE('',*,*,#1838,.T.);
#1838 = EDGE_CURVE('',#1676,#1839,#1841,.T.);
#1839 = VERTEX_POINT('',#1840);
#1840 = CARTESIAN_POINT('',(-0.999999999999,-12.6125178063,-0.8));
#1841 = LINE('',#1842,#1843);
#1842 = CARTESIAN_POINT('',(-0.999999999999,-12.6125178063,2.2));
#1843 = VECTOR('',#1844,1.);
#1844 = DIRECTION('',(-1.318039815089E-16,2.410956141582E-29,1.));
#1845 = ORIENTED_EDGE('',*,*,#1846,.F.);
#1846 = EDGE_CURVE('',#1847,#1839,#1849,.T.);
#1847 = VERTEX_POINT('',#1848);
#1848 = CARTESIAN_POINT('',(1.000000000001,-12.6125178063,-0.8));
#1849 = CIRCLE('',#1850,4.5);
#1850 = AXIS2_PLACEMENT_3D('',#1851,#1852,#1853);
#1851 = CARTESIAN_POINT('',(1.110223024625E-15,-17.,-0.8));
#1852 = DIRECTION('',(-1.318039815089E-16,2.409218912628E-29,1.));
#1853 = DIRECTION('',(1.,1.318039815089E-16,1.318039815089E-16));
#1854 = ORIENTED_EDGE('',*,*,#1855,.F.);
#1855 = EDGE_CURVE('',#1701,#1847,#1856,.T.);
#1856 = LINE('',#1857,#1858);
#1857 = CARTESIAN_POINT('',(1.000000000001,-12.6125178063,2.2));
#1858 = VECTOR('',#1859,1.);
#1859 = DIRECTION('',(-1.318039815089E-16,2.410956141582E-29,1.));
#1860 = ORIENTED_EDGE('',*,*,#1708,.T.);
#1861 = ORIENTED_EDGE('',*,*,#1827,.F.);
#1862 = CYLINDRICAL_SURFACE('',#1863,4.5);
#1863 = AXIS2_PLACEMENT_3D('',#1864,#1865,#1866);
#1864 = CARTESIAN_POINT('',(5.982096603805E-16,-17.,2.2));
#1865 = DIRECTION('',(-1.318039815089E-16,2.410956141582E-29,1.));
#1866 = DIRECTION('',(1.,1.318039815089E-16,1.31803981509E-16));
#1867 = ADVANCED_FACE('',(#1868),#1886,.F.);
#1868 = FACE_BOUND('',#1869,.F.);
#1869 = EDGE_LOOP('',(#1870,#1878,#1884,#1885));
#1870 = ORIENTED_EDGE('',*,*,#1871,.F.);
#1871 = EDGE_CURVE('',#1872,#1839,#1874,.T.);
#1872 = VERTEX_POINT('',#1873);
#1873 = CARTESIAN_POINT('',(-0.999999999999,-9.149999999967,-0.8));
#1874 = LINE('',#1875,#1876);
#1875 = CARTESIAN_POINT('',(-0.999999999999,-9.149999999967,-0.8));
#1876 = VECTOR('',#1877,1.);
#1877 = DIRECTION('',(-1.8295E-13,-1.,-2.22044604925E-16));
#1878 = ORIENTED_EDGE('',*,*,#1879,.T.);
#1879 = EDGE_CURVE('',#1872,#1685,#1880,.T.);
#1880 = LINE('',#1881,#1882);
#1881 = CARTESIAN_POINT('',(-0.999999999999,-9.149999999967,-0.8));
#1882 = VECTOR('',#1883,1.);
#1883 = DIRECTION('',(2.80012859875E-29,2.22044604925E-16,-1.));
#1884 = ORIENTED_EDGE('',*,*,#1684,.T.);
#1885 = ORIENTED_EDGE('',*,*,#1838,.T.);
#1886 = PLANE('',#1887);
#1887 = AXIS2_PLACEMENT_3D('',#1888,#1889,#1890);
#1888 = CARTESIAN_POINT('',(-0.999999999999,-9.149999999967,-0.8));
#1889 = DIRECTION('',(-1.,1.8295E-13,1.262177448354E-29));
#1890 = DIRECTION('',(-1.8295E-13,-1.,-2.22044604925E-16));
#1891 = ADVANCED_FACE('',(#1892),#1910,.T.);
#1892 = FACE_BOUND('',#1893,.T.);
#1893 = EDGE_LOOP('',(#1894,#1902,#1908,#1909));
#1894 = ORIENTED_EDGE('',*,*,#1895,.F.);
#1895 = EDGE_CURVE('',#1896,#1847,#1898,.T.);
#1896 = VERTEX_POINT('',#1897);
#1897 = CARTESIAN_POINT('',(1.000000000001,-9.149999999967,-0.8));
#1898 = LINE('',#1899,#1900);
#1899 = CARTESIAN_POINT('',(1.000000000001,-9.149999999967,-0.8));
#1900 = VECTOR('',#1901,1.);
#1901 = DIRECTION('',(-1.8295E-13,-1.,-2.22044604925E-16));
#1902 = ORIENTED_EDGE('',*,*,#1903,.T.);
#1903 = EDGE_CURVE('',#1896,#1693,#1904,.T.);
#1904 = LINE('',#1905,#1906);
#1905 = CARTESIAN_POINT('',(1.000000000001,-9.149999999967,-0.8));
#1906 = VECTOR('',#1907,1.);
#1907 = DIRECTION('',(2.80012859875E-29,2.22044604925E-16,-1.));
#1908 = ORIENTED_EDGE('',*,*,#1700,.T.);
#1909 = ORIENTED_EDGE('',*,*,#1855,.T.);
#1910 = PLANE('',#1911);
#1911 = AXIS2_PLACEMENT_3D('',#1912,#1913,#1914);
#1912 = CARTESIAN_POINT('',(1.000000000001,-9.149999999967,-0.8));
#1913 = DIRECTION('',(-1.,1.8295E-13,1.262177448354E-29));
#1914 = DIRECTION('',(-1.8295E-13,-1.,-2.22044604925E-16));
#1915 = ADVANCED_FACE('',(#1916),#1927,.T.);
#1916 = FACE_BOUND('',#1917,.T.);
#1917 = EDGE_LOOP('',(#1918,#1919,#1925,#1926));
#1918 = ORIENTED_EDGE('',*,*,#1903,.F.);
#1919 = ORIENTED_EDGE('',*,*,#1920,.T.);
#1920 = EDGE_CURVE('',#1896,#1872,#1921,.T.);
#1921 = LINE('',#1922,#1923);
#1922 = CARTESIAN_POINT('',(1.000000000001,-9.149999999967,-0.8));
#1923 = VECTOR('',#1924,1.);
#1924 = DIRECTION('',(-1.,1.8295E-13,1.262177448354E-29));
#1925 = ORIENTED_EDGE('',*,*,#1879,.T.);
#1926 = ORIENTED_EDGE('',*,*,#1692,.F.);
#1927 = PLANE('',#1928);
#1928 = AXIS2_PLACEMENT_3D('',#1929,#1930,#1931);
#1929 = CARTESIAN_POINT('',(1.000000000001,-9.149999999967,-0.8));
#1930 = DIRECTION('',(-1.8295E-13,-1.,-2.22044604925E-16));
#1931 = DIRECTION('',(-1.,1.8295E-13,1.262177448354E-29));
#1932 = ADVANCED_FACE('',(#1933),#1936,.T.);
#1933 = FACE_BOUND('',#1934,.F.);
#1934 = EDGE_LOOP('',(#1935));
#1935 = ORIENTED_EDGE('',*,*,#1818,.F.);
#1936 = PLANE('',#1937);
#1937 = AXIS2_PLACEMENT_3D('',#1938,#1939,#1940);
#1938 = CARTESIAN_POINT('',(5.982096603805E-16,-17.,2.2));
#1939 = DIRECTION('',(1.318039815089E-16,-2.410956141582E-29,-1.));
#1940 = DIRECTION('',(1.,1.318039815089E-16,1.31803981509E-16));
#1941 = ADVANCED_FACE('',(#1942),#1948,.T.);
#1942 = FACE_BOUND('',#1943,.T.);
#1943 = EDGE_LOOP('',(#1944,#1945,#1946,#1947));
#1944 = ORIENTED_EDGE('',*,*,#1871,.F.);
#1945 = ORIENTED_EDGE('',*,*,#1920,.F.);
#1946 = ORIENTED_EDGE('',*,*,#1895,.T.);
#1947 = ORIENTED_EDGE('',*,*,#1846,.T.);
#1948 = PLANE('',#1949);
#1949 = AXIS2_PLACEMENT_3D('',#1950,#1951,#1952);
#1950 = CARTESIAN_POINT('',(1.000000000001,-9.149999999967,-0.8));
#1951 = DIRECTION('',(2.80012859875E-29,2.22044604925E-16,-1.));
#1952 = DIRECTION('',(-1.8295E-13,-1.,-2.22044604925E-16));
#1953 = ( GEOMETRIC_REPRESENTATION_CONTEXT(3) 
GLOBAL_UNCERTAINTY_ASSIGNED_CONTEXT((#1957)) 
GLOBAL_UNIT_ASSIGNED_CONTEXT((#1954,#1955,#1956)) REPRESENTATION_CONTEXT
('Context #1','3D Context with UNIT and UNCERTAINTY') );
#1954 = ( LENGTH_UNIT() NAMED_UNIT(*) SI_UNIT(.MILLI.,.METRE.) );
#1955 = ( NAMED_UNIT(*) PLANE_ANGLE_UNIT() SI_UNIT($,.RADIAN.) );
#1956 = ( NAMED_UNIT(*) SI_UNIT($,.STERADIAN.) SOLID_ANGLE_UNIT() );
#1957 = UNCERTAINTY_MEASURE_WITH_UNIT(LENGTH_MEASURE(1.E-07),#1954,
  'distance_accuracy_value','confusion accuracy');
#1958 = PRODUCT_RELATED_PRODUCT_CATEGORY('part',$,(#7));
#1959 = MECHANICAL_DESIGN_GEOMETRIC_PRESENTATION_REPRESENTATION('',(
    #1960),#1953);
#1960 = STYLED_ITEM('color',(#1961),#15);
#1961 = PRESENTATION_STYLE_ASSIGNMENT((#1962,#1968));
#1962 = SURFACE_STYLE_USAGE(.BOTH.,#1963);
#1963 = SURFACE_SIDE_STYLE('',(#1964));
#1964 = SURFACE_STYLE_FILL_AREA(#1965);
#1965 = FILL_AREA_STYLE('',(#1966));
#1966 = FILL_AREA_STYLE_COLOUR('',#1967);
#1967 = COLOUR_RGB('',0.447058818107,0.474509808674,0.501960817233);
#1968 = CURVE_STYLE('',#1969,POSITIVE_LENGTH_MEASURE(0.1),#1970);
#1969 = DRAUGHTING_PRE_DEFINED_CURVE_FONT('continuous');
#1970 = COLOUR_RGB('',9.803921802644E-02,9.803921802644E-02,
  9.803921802644E-02);
ENDSEC;
END-ISO-10303-21;
