ISO-10303-21;
HEADER;
FILE_DESCRIPTION(('FreeCAD Model'),'2;1');
FILE_NAME('Open CASCADE Shape Model','2026-09-02T20:01:04',(''),(''),
  'Open CASCADE STEP processor 7.8','FreeCAD','Unknown');
FILE_SCHEMA(('AUTOMOTIVE_DESIGN { 1 0 10303 214 1 1 1 1 }'));
ENDSEC;
DATA;
#1 = APPLICATION_PROTOCOL_DEFINITION('international standard',
  'automotive_design',2000,#2);
#2 = APPLICATION_CONTEXT(
  'core data for automotive mechanical design processes');
#3 = SHAPE_DEFINITION_REPRESENTATION(#4,#10);
#4 = PRODUCT_DEFINITION_SHAPE('','',#5);
#5 = PRODUCT_DEFINITION('design','',#6,#9);
#6 = PRODUCT_DEFINITION_FORMATION('','',#7);
#7 = PRODUCT('Fillet035','Fillet035','',(#8));
#8 = PRODUCT_CONTEXT('',#2,'mechanical');
#9 = PRODUCT_DEFINITION_CONTEXT('part definition',#2,'design');
#10 = ADVANCED_BREP_SHAPE_REPRESENTATION('',(#11,#15),#948);
#11 = AXIS2_PLACEMENT_3D('',#12,#13,#14);
#12 = CARTESIAN_POINT('',(0.,0.,0.));
#13 = DIRECTION('',(0.,0.,1.));
#14 = DIRECTION('',(1.,0.,-0.));
#15 = MANIFOLD_SOLID_BREP('',#16);
#16 = CLOSED_SHELL('',(#17,#180,#245,#373,#420,#480,#505,#529,#673,#698,
    #740,#764,#782,#815,#832,#849,#861,#905,#930));
#17 = ADVANCED_FACE('',(#18),#175,.F.);
#18 = FACE_BOUND('',#19,.F.);
#19 = EDGE_LOOP('',(#20,#30,#61,#70,#79,#110,#118,#126,#135,#143,#152,
    #160,#169));
#20 = ORIENTED_EDGE('',*,*,#21,.F.);
#21 = EDGE_CURVE('',#22,#24,#26,.T.);
#22 = VERTEX_POINT('',#23);
#23 = CARTESIAN_POINT('',(-14.42350935875,-1.,-3.5));
#24 = VERTEX_POINT('',#25);
#25 = CARTESIAN_POINT('',(-7.75,-1.,-3.5));
#26 = LINE('',#27,#28);
#27 = CARTESIAN_POINT('',(-17.,-1.,-3.5));
#28 = VECTOR('',#29,1.);
#29 = DIRECTION('',(1.,1.110223024625E-16,0.));
#30 = ORIENTED_EDGE('',*,*,#31,.T.);
#31 = EDGE_CURVE('',#22,#32,#34,.T.);
#32 = VERTEX_POINT('',#33);
#33 = CARTESIAN_POINT('',(-15.78739214496,-2.489709116095,-3.5));
#34 = B_SPLINE_CURVE_WITH_KNOTS('',7,(#35,#36,#37,#38,#39,#40,#41,#42,
    #43,#44,#45,#46,#47,#48,#49,#50,#51,#52,#53,#54,#55,#56,#57,#58,#59,
    #60),.UNSPECIFIED.,.F.,.F.,(8,6,6,6,8),(0.,0.32176098689,
    0.689146238073,0.823987893394,1.),.UNSPECIFIED.);
#35 = CARTESIAN_POINT('',(-14.42351146623,-1.,-3.5));
#36 = CARTESIAN_POINT('',(-14.52135067706,-1.,-3.5));
#37 = CARTESIAN_POINT('',(-14.62195590214,-1.007747837833,-3.5));
#38 = CARTESIAN_POINT('',(-14.72427124879,-1.024003685277,-3.5));
#39 = CARTESIAN_POINT('',(-14.82702347826,-1.049338348379,-3.5));
#40 = CARTESIAN_POINT('',(-14.92877717414,-1.084061716547,-3.5));
#41 = CARTESIAN_POINT('',(-15.0280109085,-1.128170456314,-3.5));
#42 = CARTESIAN_POINT('',(-15.23191733272,-1.241995093954,-3.5));
#43 = CARTESIAN_POINT('',(-15.33542695633,-1.31448857907,-3.5));
#44 = CARTESIAN_POINT('',(-15.43142199395,-1.398263741997,-3.5));
#45 = CARTESIAN_POINT('',(-15.51770825167,-1.492197908875,-3.5));
#46 = CARTESIAN_POINT('',(-15.5924017296,-1.594628565414,-3.5));
#47 = CARTESIAN_POINT('',(-15.65414252057,-1.703368246064,-3.5));
#48 = CARTESIAN_POINT('',(-15.72006201766,-1.857214378912,-3.5));
#49 = CARTESIAN_POINT('',(-15.73594158258,-1.899037585747,-3.5));
#50 = CARTESIAN_POINT('',(-15.74997467224,-1.941257900841,-3.5));
#51 = CARTESIAN_POINT('',(-15.76214863147,-1.983753235535,-3.5));
#52 = CARTESIAN_POINT('',(-15.77246582159,-2.026401676915,-3.5));
#53 = CARTESIAN_POINT('',(-15.7809431183,-2.069083327846,-3.5));
#54 = CARTESIAN_POINT('',(-15.79631408983,-2.167287213971,-3.5));
#55 = CARTESIAN_POINT('',(-15.80193329146,-2.222753811498,-3.5));
#56 = CARTESIAN_POINT('',(-15.80453677714,-2.277822432159,-3.5));
#57 = CARTESIAN_POINT('',(-15.80423291968,-2.332253929797,-3.5));
#58 = CARTESIAN_POINT('',(-15.80116202597,-2.385832801502,-3.5));
#59 = CARTESIAN_POINT('',(-15.79548835654,-2.438370561674,-3.5));
#60 = CARTESIAN_POINT('',(-15.78739214496,-2.489709116095,-3.5));
#61 = ORIENTED_EDGE('',*,*,#62,.F.);
#62 = EDGE_CURVE('',#63,#32,#65,.T.);
#63 = VERTEX_POINT('',#64);
#64 = CARTESIAN_POINT('',(15.982503002402,0.,-3.5));
#65 = CIRCLE('',#66,15.982503002402);
#66 = AXIS2_PLACEMENT_3D('',#67,#68,#69);
#67 = CARTESIAN_POINT('',(0.,0.,-3.5));
#68 = DIRECTION('',(0.,0.,-1.));
#69 = DIRECTION('',(1.,0.,0.));
#70 = ORIENTED_EDGE('',*,*,#71,.F.);
#71 = EDGE_CURVE('',#72,#63,#74,.T.);
#72 = VERTEX_POINT('',#73);
#73 = CARTESIAN_POINT('',(-15.78739214496,2.489709116095,-3.5));
#74 = CIRCLE('',#75,15.982503002402);
#75 = AXIS2_PLACEMENT_3D('',#76,#77,#78);
#76 = CARTESIAN_POINT('',(0.,0.,-3.5));
#77 = DIRECTION('',(0.,0.,-1.));
#78 = DIRECTION('',(1.,0.,0.));
#79 = ORIENTED_EDGE('',*,*,#80,.F.);
#80 = EDGE_CURVE('',#81,#72,#83,.T.);
#81 = VERTEX_POINT('',#82);
#82 = CARTESIAN_POINT('',(-14.42350935875,1.,-3.5));
#83 = B_SPLINE_CURVE_WITH_KNOTS('',7,(#84,#85,#86,#87,#88,#89,#90,#91,
    #92,#93,#94,#95,#96,#97,#98,#99,#100,#101,#102,#103,#104,#105,#106,
    #107,#108,#109),.UNSPECIFIED.,.F.,.F.,(8,6,6,6,8),(0.,0.321760986889
    ,0.689146238072,0.823987893393,1.),.UNSPECIFIED.);
#84 = CARTESIAN_POINT('',(-14.42351146623,1.,-3.5));
#85 = CARTESIAN_POINT('',(-14.52135067706,1.,-3.5));
#86 = CARTESIAN_POINT('',(-14.62195590214,1.007747837833,-3.5));
#87 = CARTESIAN_POINT('',(-14.72427124878,1.024003685277,-3.5));
#88 = CARTESIAN_POINT('',(-14.82702347826,1.049338348378,-3.5));
#89 = CARTESIAN_POINT('',(-14.92877717414,1.084061716546,-3.5));
#90 = CARTESIAN_POINT('',(-15.0280109085,1.128170456314,-3.5));
#91 = CARTESIAN_POINT('',(-15.23191733272,1.241995093953,-3.5));
#92 = CARTESIAN_POINT('',(-15.33542695633,1.314488579068,-3.5));
#93 = CARTESIAN_POINT('',(-15.43142199395,1.398263741996,-3.5));
#94 = CARTESIAN_POINT('',(-15.51770825167,1.492197908872,-3.5));
#95 = CARTESIAN_POINT('',(-15.5924017296,1.594628565413,-3.5));
#96 = CARTESIAN_POINT('',(-15.65414252057,1.703368246062,-3.5));
#97 = CARTESIAN_POINT('',(-15.72006201766,1.85721437891,-3.5));
#98 = CARTESIAN_POINT('',(-15.73594158258,1.899037585745,-3.5));
#99 = CARTESIAN_POINT('',(-15.74997467224,1.941257900839,-3.5));
#100 = CARTESIAN_POINT('',(-15.76214863147,1.983753235533,-3.5));
#101 = CARTESIAN_POINT('',(-15.77246582159,2.026401676913,-3.5));
#102 = CARTESIAN_POINT('',(-15.7809431183,2.069083327844,-3.5));
#103 = CARTESIAN_POINT('',(-15.79631408983,2.16728721397,-3.5));
#104 = CARTESIAN_POINT('',(-15.80193329146,2.222753811496,-3.5));
#105 = CARTESIAN_POINT('',(-15.80453677714,2.277822432158,-3.5));
#106 = CARTESIAN_POINT('',(-15.80423291968,2.332253929796,-3.5));
#107 = CARTESIAN_POINT('',(-15.80116202597,2.385832801501,-3.5));
#108 = CARTESIAN_POINT('',(-15.79548835654,2.438370561674,-3.5));
#109 = CARTESIAN_POINT('',(-15.78739214496,2.489709116095,-3.5));
#110 = ORIENTED_EDGE('',*,*,#111,.T.);
#111 = EDGE_CURVE('',#81,#112,#114,.T.);
#112 = VERTEX_POINT('',#113);
#113 = CARTESIAN_POINT('',(-7.75,1.,-3.5));
#114 = LINE('',#115,#116);
#115 = CARTESIAN_POINT('',(-17.,1.,-3.5));
#116 = VECTOR('',#117,1.);
#117 = DIRECTION('',(1.,1.110223024625E-16,0.));
#118 = ORIENTED_EDGE('',*,*,#119,.F.);
#119 = EDGE_CURVE('',#120,#112,#122,.T.);
#120 = VERTEX_POINT('',#121);
#121 = CARTESIAN_POINT('',(-7.75,10.305702305035,-3.5));
#122 = LINE('',#123,#124);
#123 = CARTESIAN_POINT('',(-7.75,-8.604228440845E-16,-3.5));
#124 = VECTOR('',#125,1.);
#125 = DIRECTION('',(1.110223024625E-16,-1.,0.));
#126 = ORIENTED_EDGE('',*,*,#127,.F.);
#127 = EDGE_CURVE('',#128,#120,#130,.T.);
#128 = VERTEX_POINT('',#129);
#129 = CARTESIAN_POINT('',(-5.05,11.864548031847,-3.5));
#130 = CIRCLE('',#131,1.8);
#131 = AXIS2_PLACEMENT_3D('',#132,#133,#134);
#132 = CARTESIAN_POINT('',(-5.95,10.305702305035,-3.5));
#133 = DIRECTION('',(-0.,0.,1.));
#134 = DIRECTION('',(1.110223024625E-16,-1.,0.));
#135 = ORIENTED_EDGE('',*,*,#136,.F.);
#136 = EDGE_CURVE('',#137,#128,#139,.T.);
#137 = VERTEX_POINT('',#138);
#138 = CARTESIAN_POINT('',(12.8,1.558845726812,-3.5));
#139 = LINE('',#140,#141);
#140 = CARTESIAN_POINT('',(3.875,6.711696879329,-3.5));
#141 = VECTOR('',#142,1.);
#142 = DIRECTION('',(-0.866025403784,0.5,0.));
#143 = ORIENTED_EDGE('',*,*,#144,.F.);
#144 = EDGE_CURVE('',#145,#137,#147,.T.);
#145 = VERTEX_POINT('',#146);
#146 = CARTESIAN_POINT('',(12.8,-1.558845726812,-3.5));
#147 = CIRCLE('',#148,1.8);
#148 = AXIS2_PLACEMENT_3D('',#149,#150,#151);
#149 = CARTESIAN_POINT('',(11.9,1.521165399304E-15,-3.5));
#150 = DIRECTION('',(-0.,0.,1.));
#151 = DIRECTION('',(1.110223024625E-16,-1.,0.));
#152 = ORIENTED_EDGE('',*,*,#153,.F.);
#153 = EDGE_CURVE('',#154,#145,#156,.T.);
#154 = VERTEX_POINT('',#155);
#155 = CARTESIAN_POINT('',(-5.05,-11.86454803184,-3.5));
#156 = LINE('',#157,#158);
#157 = CARTESIAN_POINT('',(3.875,-6.711696879329,-3.5));
#158 = VECTOR('',#159,1.);
#159 = DIRECTION('',(0.866025403784,0.5,0.));
#160 = ORIENTED_EDGE('',*,*,#161,.F.);
#161 = EDGE_CURVE('',#162,#154,#164,.T.);
#162 = VERTEX_POINT('',#163);
#163 = CARTESIAN_POINT('',(-7.75,-10.30570230503,-3.5));
#164 = CIRCLE('',#165,1.8);
#165 = AXIS2_PLACEMENT_3D('',#166,#167,#168);
#166 = CARTESIAN_POINT('',(-5.95,-10.30570230503,-3.5));
#167 = DIRECTION('',(-0.,0.,1.));
#168 = DIRECTION('',(1.110223024625E-16,-1.,0.));
#169 = ORIENTED_EDGE('',*,*,#170,.F.);
#170 = EDGE_CURVE('',#24,#162,#171,.T.);
#171 = LINE('',#172,#173);
#172 = CARTESIAN_POINT('',(-7.75,-8.604228440845E-16,-3.5));
#173 = VECTOR('',#174,1.);
#174 = DIRECTION('',(1.110223024625E-16,-1.,0.));
#175 = PLANE('',#176);
#176 = AXIS2_PLACEMENT_3D('',#177,#178,#179);
#177 = CARTESIAN_POINT('',(0.,0.,-3.5));
#178 = DIRECTION('',(0.,0.,1.));
#179 = DIRECTION('',(1.110223024625E-16,-1.,0.));
#180 = ADVANCED_FACE('',(#181),#240,.T.);
#181 = FACE_BOUND('',#182,.T.);
#182 = EDGE_LOOP('',(#183,#184,#201,#209,#218,#226,#234));
#183 = ORIENTED_EDGE('',*,*,#21,.F.);
#184 = ORIENTED_EDGE('',*,*,#185,.T.);
#185 = EDGE_CURVE('',#22,#186,#188,.T.);
#186 = VERTEX_POINT('',#187);
#187 = CARTESIAN_POINT('',(-13.96183106674,-1.,-1.5));
#188 = B_SPLINE_CURVE_WITH_KNOTS('',6,(#189,#190,#191,#192,#193,#194,
    #195,#196,#197,#198,#199,#200),.UNSPECIFIED.,.F.,.F.,(7,5,7),(
    -7.858574359795E-02,5.655612998888E-02,3.575434658223),
  .UNSPECIFIED.);
#189 = CARTESIAN_POINT('',(-14.63496671536,-1.,-4.088757653147));
#190 = CARTESIAN_POINT('',(-14.6258737704,-1.,-4.064643810716));
#191 = CARTESIAN_POINT('',(-14.61678082543,-1.,-4.040529968286));
#192 = CARTESIAN_POINT('',(-14.60768788047,-1.,-4.016416125855));
#193 = CARTESIAN_POINT('',(-14.59859493551,-1.,-3.992302283424));
#194 = CARTESIAN_POINT('',(-14.58950199055,-1.,-3.968188440994));
#195 = CARTESIAN_POINT('',(-14.3436432828,-1.,-3.316188658326));
#196 = CARTESIAN_POINT('',(-14.15170570362,-1.,-2.670797952647));
#197 = CARTESIAN_POINT('',(-14.00653794338,-1.,-2.012839481661));
#198 = CARTESIAN_POINT('',(-13.90911196608,-1.,-1.344537395076));
#199 = CARTESIAN_POINT('',(-13.86055718324,-1.,-0.672664530381));
#200 = CARTESIAN_POINT('',(-13.86046634146,-1.,-1.58650352775E-03));
#201 = ORIENTED_EDGE('',*,*,#202,.T.);
#202 = EDGE_CURVE('',#186,#203,#205,.T.);
#203 = VERTEX_POINT('',#204);
#204 = CARTESIAN_POINT('',(-11.05,-1.,-1.5));
#205 = LINE('',#206,#207);
#206 = CARTESIAN_POINT('',(-17.,-1.,-1.5));
#207 = VECTOR('',#208,1.);
#208 = DIRECTION('',(1.,1.110223024625E-16,0.));
#209 = ORIENTED_EDGE('',*,*,#210,.F.);
#210 = EDGE_CURVE('',#211,#203,#213,.T.);
#211 = VERTEX_POINT('',#212);
#212 = CARTESIAN_POINT('',(-9.75,-1.,-0.2));
#213 = CIRCLE('',#214,1.3);
#214 = AXIS2_PLACEMENT_3D('',#215,#216,#217);
#215 = CARTESIAN_POINT('',(-11.05,-1.,-0.2));
#216 = DIRECTION('',(-1.110223024625E-16,1.,0.));
#217 = DIRECTION('',(-1.,-1.110223024625E-16,0.));
#218 = ORIENTED_EDGE('',*,*,#219,.T.);
#219 = EDGE_CURVE('',#211,#220,#222,.T.);
#220 = VERTEX_POINT('',#221);
#221 = CARTESIAN_POINT('',(-9.75,-1.,3.2));
#222 = LINE('',#223,#224);
#223 = CARTESIAN_POINT('',(-9.75,-1.,-3.5));
#224 = VECTOR('',#225,1.);
#225 = DIRECTION('',(0.,0.,1.));
#226 = ORIENTED_EDGE('',*,*,#227,.T.);
#227 = EDGE_CURVE('',#220,#228,#230,.T.);
#228 = VERTEX_POINT('',#229);
#229 = CARTESIAN_POINT('',(-7.75,-1.,3.2));
#230 = LINE('',#231,#232);
#231 = CARTESIAN_POINT('',(-9.75,-1.,3.2));
#232 = VECTOR('',#233,1.);
#233 = DIRECTION('',(1.,1.110223024625E-16,0.));
#234 = ORIENTED_EDGE('',*,*,#235,.F.);
#235 = EDGE_CURVE('',#24,#228,#236,.T.);
#236 = LINE('',#237,#238);
#237 = CARTESIAN_POINT('',(-7.75,-1.,-3.5));
#238 = VECTOR('',#239,1.);
#239 = DIRECTION('',(0.,0.,1.));
#240 = PLANE('',#241);
#241 = AXIS2_PLACEMENT_3D('',#242,#243,#244);
#242 = CARTESIAN_POINT('',(-10.87978564541,-1.,-1.129574065926));
#243 = DIRECTION('',(-1.110223024625E-16,1.,-0.));
#244 = DIRECTION('',(0.,0.,-1.));
#245 = ADVANCED_FACE('',(#246),#336,.T.);
#246 = FACE_BOUND('',#247,.T.);
#247 = EDGE_LOOP('',(#248,#311,#319,#320,#321));
#248 = ORIENTED_EDGE('',*,*,#249,.T.);
#249 = EDGE_CURVE('',#250,#252,#254,.T.);
#250 = VERTEX_POINT('',#251);
#251 = CARTESIAN_POINT('',(-15.14452603296,-2.512751312138,
    -0.176991148859));
#252 = VERTEX_POINT('',#253);
#253 = CARTESIAN_POINT('',(-14.01606353354,-1.001111077053,-1.5));
#254 = B_SPLINE_CURVE_WITH_KNOTS('',7,(#255,#256,#257,#258,#259,#260,
    #261,#262,#263,#264,#265,#266,#267,#268,#269,#270,#271,#272,#273,
    #274,#275,#276,#277,#278,#279,#280,#281,#282,#283,#284,#285,#286,
    #287,#288,#289,#290,#291,#292,#293,#294,#295,#296,#297,#298,#299,
    #300,#301,#302,#303,#304,#305,#306,#307,#308,#309,#310),
  .UNSPECIFIED.,.F.,.F.,(8,6,6,6,6,6,6,6,6,8),(0.,4.091222402737E-03,
    1.01293948572E-02,5.305170810119E-02,0.362183180765,0.542728428034,
    0.652946942969,0.760158948822,0.881141905182,1.),.UNSPECIFIED.);
#255 = CARTESIAN_POINT('',(-15.14453897355,-2.512750779089,
    -0.177718901412));
#256 = CARTESIAN_POINT('',(-15.14470673052,-2.511739693764,
    -0.177718885258));
#257 = CARTESIAN_POINT('',(-15.14491884284,-2.510567028029,
    -0.178783119114));
#258 = CARTESIAN_POINT('',(-15.14511328207,-2.509518232242,
    -0.180027805601));
#259 = CARTESIAN_POINT('',(-15.14526298681,-2.508706564422,
    -0.180964379756));
#260 = CARTESIAN_POINT('',(-15.14537586273,-2.508073090253,
    -0.181499509023));
#261 = CARTESIAN_POINT('',(-15.14549478256,-2.507386683076,
    -0.181935093263));
#262 = CARTESIAN_POINT('',(-15.1459969007,-2.504557590728,
    -0.184493106705));
#263 = CARTESIAN_POINT('',(-15.14629332135,-2.502874731804,
    -0.186020907194));
#264 = CARTESIAN_POINT('',(-15.14658750533,-2.50119124896,
    -0.187549689129));
#265 = CARTESIAN_POINT('',(-15.14687942956,-2.499507263632,
    -0.189079502593));
#266 = CARTESIAN_POINT('',(-15.14716906106,-2.497822960026,
    -0.190610427624));
#267 = CARTESIAN_POINT('',(-15.14745652599,-2.496137512611,
    -0.192142072301));
#268 = CARTESIAN_POINT('',(-15.14976948107,-2.482464039991,
    -0.204568289408));
#269 = CARTESIAN_POINT('',(-15.15168605875,-2.470428282547,
    -0.215502453714));
#270 = CARTESIAN_POINT('',(-15.1534926432,-2.458327781274,
    -0.226467364498));
#271 = CARTESIAN_POINT('',(-15.15518510638,-2.446179960517,
    -0.237468929556));
#272 = CARTESIAN_POINT('',(-15.15676376591,-2.433974210375,
    -0.248499931572));
#273 = CARTESIAN_POINT('',(-15.15822595929,-2.421719024964,
    -0.259562008413));
#274 = CARTESIAN_POINT('',(-15.1692534904,-2.320793002628,
    -0.350528893823));
#275 = CARTESIAN_POINT('',(-15.17282657103,-2.229622014053,
    -0.431885371797));
#276 = CARTESIAN_POINT('',(-15.16969689211,-2.136609227581,
    -0.514190943227));
#277 = CARTESIAN_POINT('',(-15.15932221167,-2.04262326663,
    -0.596829409938));
#278 = CARTESIAN_POINT('',(-15.14124614276,-1.948660591382,
    -0.679089569528));
#279 = CARTESIAN_POINT('',(-15.11513267046,-1.855843674617,
    -0.760158989946));
#280 = CARTESIAN_POINT('',(-15.06080467985,-1.712510593121,
    -0.885250578169));
#281 = CARTESIAN_POINT('',(-15.03798465164,-1.660464672531,
    -0.930650703744));
#282 = CARTESIAN_POINT('',(-15.0123493153,-1.609460614194,
    -0.975144713871));
#283 = CARTESIAN_POINT('',(-14.98389788632,-1.559751887882,
    -1.018532565967));
#284 = CARTESIAN_POINT('',(-14.95266346351,-1.511599532935,
    -1.060600644727));
#285 = CARTESIAN_POINT('',(-14.91872051877,-1.465262802158,
    -1.101127902242));
#286 = CARTESIAN_POINT('',(-14.85989122055,-1.393955913346,
    -1.163563427142));
#287 = CARTESIAN_POINT('',(-14.83662738606,-1.367693750724,
    -1.186574929092));
#288 = CARTESIAN_POINT('',(-14.81242796777,-1.342255389672,
    -1.208880850296));
#289 = CARTESIAN_POINT('',(-14.78732782181,-1.317694531502,
    -1.23043178268));
#290 = CARTESIAN_POINT('',(-14.76136860834,-1.294061406759,
    -1.251179961166));
#291 = CARTESIAN_POINT('',(-14.73459883188,-1.271401584873,
    -1.271080386377));
#292 = CARTESIAN_POINT('',(-14.6802997493,-1.228698458021,
    -1.308584916384));
#293 = CARTESIAN_POINT('',(-14.65281068038,-1.208600310907,
    -1.326237145804));
#294 = CARTESIAN_POINT('',(-14.62465766521,-1.189497206005,
    -1.343010593095));
#295 = CARTESIAN_POINT('',(-14.59589703248,-1.171419921265,
    -1.35887146461));
#296 = CARTESIAN_POINT('',(-14.56658962224,-1.15439267106,
    -1.373790933983));
#297 = CARTESIAN_POINT('',(-14.53679995873,-1.13843262819,
    -1.387745860556));
#298 = CARTESIAN_POINT('',(-14.47251123693,-1.106754578719,
    -1.415359567822));
#299 = CARTESIAN_POINT('',(-14.43789781864,-1.091330518569,
    -1.428750490049));
#300 = CARTESIAN_POINT('',(-14.40285208736,-1.077291649078,
    -1.440867774152));
#301 = CARTESIAN_POINT('',(-14.36747303076,-1.064638953212,
    -1.451698487364));
#302 = CARTESIAN_POINT('',(-14.33185960429,-1.053361241753,
    -1.461240754466));
#303 = CARTESIAN_POINT('',(-14.29610863003,-1.04343638181,
    -1.469503247756));
#304 = CARTESIAN_POINT('',(-14.22514545661,-1.026379781053,
    -1.483383138008));
#305 = CARTESIAN_POINT('',(-14.1899340874,-1.019201922275,
    -1.489044546096));
#306 = CARTESIAN_POINT('',(-14.15476607173,-1.013268811795,
    -1.493506473141));
#307 = CARTESIAN_POINT('',(-14.11972329053,-1.008541383821,
    -1.496795748427));
#308 = CARTESIAN_POINT('',(-14.08488118449,-1.004973666293,
    -1.498946800665));
#309 = CARTESIAN_POINT('',(-14.05030791638,-1.002514803228,-1.5));
#310 = CARTESIAN_POINT('',(-14.01606353354,-1.001111077053,-1.5));
#311 = ORIENTED_EDGE('',*,*,#312,.T.);
#312 = EDGE_CURVE('',#252,#186,#313,.T.);
#313 = B_SPLINE_CURVE_WITH_KNOTS('',4,(#314,#315,#316,#317,#318),
  .UNSPECIFIED.,.F.,.F.,(5,5),(0.,1.),.PIECEWISE_BEZIER_KNOTS.);
#314 = CARTESIAN_POINT('',(-14.01606353354,-1.001111077053,-1.5));
#315 = CARTESIAN_POINT('',(-14.00243810439,-1.000552551246,-1.5));
#316 = CARTESIAN_POINT('',(-13.98885435092,-1.000183134042,-1.5));
#317 = CARTESIAN_POINT('',(-13.97531751504,-1.,-1.5));
#318 = CARTESIAN_POINT('',(-13.96183255849,-1.,-1.5));
#319 = ORIENTED_EDGE('',*,*,#185,.F.);
#320 = ORIENTED_EDGE('',*,*,#31,.T.);
#321 = ORIENTED_EDGE('',*,*,#322,.T.);
#322 = EDGE_CURVE('',#32,#250,#323,.T.);
#323 = B_SPLINE_CURVE_WITH_KNOTS('',6,(#324,#325,#326,#327,#328,#329,
    #330,#331,#332,#333,#334,#335),.UNSPECIFIED.,.F.,.F.,(7,5,7),(
    -7.858574359795E-02,5.655612998888E-02,3.575434658223),
  .UNSPECIFIED.);
#324 = CARTESIAN_POINT('',(-15.84235225611,-2.487832122439,
    -3.644518471801));
#325 = CARTESIAN_POINT('',(-15.83216212976,-2.488180134882,
    -3.61772337518));
#326 = CARTESIAN_POINT('',(-15.82238404653,-2.488514075258,
    -3.592011752421));
#327 = CARTESIAN_POINT('',(-15.81301800644,-2.488833943567,
    -3.567383603523));
#328 = CARTESIAN_POINT('',(-15.80406400948,-2.48913973981,
    -3.543838928487));
#329 = CARTESIAN_POINT('',(-15.79552205566,-2.489431463986,
    -3.521377727313));
#330 = CARTESIAN_POINT('',(-15.57570225629,-2.496938733536,
    -2.943358127081));
#331 = CARTESIAN_POINT('',(-15.40392071431,-2.50307536404,
    -2.370983535802));
#332 = CARTESIAN_POINT('',(-15.27377419399,-2.507887401985,
    -1.786707626832));
#333 = CARTESIAN_POINT('',(-15.1866332621,-2.511168055423,
    -1.193912203974));
#334 = CARTESIAN_POINT('',(-15.14292847281,-2.512810630969,
    -0.597645397501));
#335 = CARTESIAN_POINT('',(-15.14292831848,-2.512811561039,
    -3.673940397442E-15));
#336 = ( BOUNDED_SURFACE() B_SPLINE_SURFACE(2,6,(
    (#337,#338,#339,#340,#341,#342,#343,#344,#345,#346,#347,#348)
    ,(#349,#350,#351,#352,#353,#354,#355,#356,#357,#358,#359,#360)
    ,(#361,#362,#363,#364,#365,#366,#367,#368,#369,#370,#371,#372
)),.UNSPECIFIED.,.F.,.F.,.F.) B_SPLINE_SURFACE_WITH_KNOTS((3,3),(7,5,7),
  (0.,3.518878528234),(-7.858574359795E-02,5.655612998888E-02,
3.575434658223),.UNSPECIFIED.) GEOMETRIC_REPRESENTATION_ITEM() 
RATIONAL_B_SPLINE_SURFACE((
    (1.,1.,1.,1.,1.,1.,1.,1.,1.,1.,1.,1.)
    ,(0.653479116229,0.653560824482,0.653609849433,0.653626191083
      ,0.653609849433,0.653560824482,0.651351563854,0.649537357572
      ,0.648109170052,0.64713348216,0.646645001001,0.646644724405)
,(1.,1.,1.,1.,1.,1.,1.,1.,1.,1.,1.,1.
))) REPRESENTATION_ITEM('') SURFACE() );
#337 = CARTESIAN_POINT('',(-14.63496671536,-1.,-4.088757653147));
#338 = CARTESIAN_POINT('',(-14.6258737704,-1.,-4.064643810716));
#339 = CARTESIAN_POINT('',(-14.61678082543,-1.,-4.040529968286));
#340 = CARTESIAN_POINT('',(-14.60768788047,-1.,-4.016416125855));
#341 = CARTESIAN_POINT('',(-14.59859493551,-1.,-3.992302283424));
#342 = CARTESIAN_POINT('',(-14.58950199055,-1.,-3.968188440994));
#343 = CARTESIAN_POINT('',(-14.3436432828,-1.,-3.316188658326));
#344 = CARTESIAN_POINT('',(-14.15170570362,-1.,-2.670797952647));
#345 = CARTESIAN_POINT('',(-14.00653794338,-1.,-2.012839481661));
#346 = CARTESIAN_POINT('',(-13.90911196608,-1.,-1.344537395076));
#347 = CARTESIAN_POINT('',(-13.86055718324,-1.,-0.672664530381));
#348 = CARTESIAN_POINT('',(-13.86046634146,-1.,-1.58650352775E-03));
#349 = CARTESIAN_POINT('',(-16.04622709054,-1.,-3.569528040788));
#350 = CARTESIAN_POINT('',(-16.03629885315,-1.,-3.542085354847));
#351 = CARTESIAN_POINT('',(-16.02683683179,-1.,-3.51593133873));
#352 = CARTESIAN_POINT('',(-16.01783950215,-1.,-3.491061779125));
#353 = CARTESIAN_POINT('',(-16.00930547967,-1.,-3.467472848937));
#354 = CARTESIAN_POINT('',(-16.0012335188,-1.,-3.445161105319));
#355 = CARTESIAN_POINT('',(-15.79477187858,-1.,-2.87447955034));
#356 = CARTESIAN_POINT('',(-15.63487917732,-1.,-2.312323383697));
#357 = CARTESIAN_POINT('',(-15.5146069426,-1.,-1.741089037306));
#358 = CARTESIAN_POINT('',(-15.43435375578,-1.,-1.163551576264));
#359 = CARTESIAN_POINT('',(-15.39394476395,-1.,-0.582960539126));
#360 = CARTESIAN_POINT('',(-15.39396367309,-1.,3.105499288163E-04));
#361 = CARTESIAN_POINT('',(-15.84235225611,-2.487832122439,
    -3.644518471801));
#362 = CARTESIAN_POINT('',(-15.83216212976,-2.488180134882,
    -3.61772337518));
#363 = CARTESIAN_POINT('',(-15.82238404653,-2.488514075258,
    -3.592011752421));
#364 = CARTESIAN_POINT('',(-15.81301800644,-2.488833943567,
    -3.567383603523));
#365 = CARTESIAN_POINT('',(-15.80406400948,-2.48913973981,
    -3.543838928487));
#366 = CARTESIAN_POINT('',(-15.79552205566,-2.489431463986,
    -3.521377727313));
#367 = CARTESIAN_POINT('',(-15.57570225629,-2.496938733536,
    -2.943358127081));
#368 = CARTESIAN_POINT('',(-15.40392071431,-2.50307536404,
    -2.370983535802));
#369 = CARTESIAN_POINT('',(-15.27377419399,-2.507887401985,
    -1.786707626832));
#370 = CARTESIAN_POINT('',(-15.1866332621,-2.511168055423,
    -1.193912203974));
#371 = CARTESIAN_POINT('',(-15.14292847281,-2.512810630969,
    -0.597645397501));
#372 = CARTESIAN_POINT('',(-15.14292831848,-2.512811561039,
    -3.673940397442E-15));
#373 = ADVANCED_FACE('',(#374),#415,.F.);
#374 = FACE_BOUND('',#375,.F.);
#375 = EDGE_LOOP('',(#376,#384,#385,#393,#399,#400,#401,#409));
#376 = ORIENTED_EDGE('',*,*,#377,.F.);
#377 = EDGE_CURVE('',#120,#378,#380,.T.);
#378 = VERTEX_POINT('',#379);
#379 = CARTESIAN_POINT('',(-7.75,10.305702305035,3.5));
#380 = LINE('',#381,#382);
#381 = CARTESIAN_POINT('',(-7.75,10.305702305035,-3.5));
#382 = VECTOR('',#383,1.);
#383 = DIRECTION('',(0.,0.,1.));
#384 = ORIENTED_EDGE('',*,*,#119,.T.);
#385 = ORIENTED_EDGE('',*,*,#386,.T.);
#386 = EDGE_CURVE('',#112,#387,#389,.T.);
#387 = VERTEX_POINT('',#388);
#388 = CARTESIAN_POINT('',(-7.75,1.,3.2));
#389 = LINE('',#390,#391);
#390 = CARTESIAN_POINT('',(-7.75,1.,-3.5));
#391 = VECTOR('',#392,1.);
#392 = DIRECTION('',(0.,0.,1.));
#393 = ORIENTED_EDGE('',*,*,#394,.T.);
#394 = EDGE_CURVE('',#387,#228,#395,.T.);
#395 = LINE('',#396,#397);
#396 = CARTESIAN_POINT('',(-7.75,1.,3.2));
#397 = VECTOR('',#398,1.);
#398 = DIRECTION('',(1.110223024625E-16,-1.,0.));
#399 = ORIENTED_EDGE('',*,*,#235,.F.);
#400 = ORIENTED_EDGE('',*,*,#170,.T.);
#401 = ORIENTED_EDGE('',*,*,#402,.F.);
#402 = EDGE_CURVE('',#403,#162,#405,.T.);
#403 = VERTEX_POINT('',#404);
#404 = CARTESIAN_POINT('',(-7.75,-10.30570230503,3.5));
#405 = LINE('',#406,#407);
#406 = CARTESIAN_POINT('',(-7.75,-10.30570230503,-3.5));
#407 = VECTOR('',#408,1.);
#408 = DIRECTION('',(-0.,0.,-1.));
#409 = ORIENTED_EDGE('',*,*,#410,.F.);
#410 = EDGE_CURVE('',#378,#403,#411,.T.);
#411 = LINE('',#412,#413);
#412 = CARTESIAN_POINT('',(-7.75,-8.604228440845E-16,3.5));
#413 = VECTOR('',#414,1.);
#414 = DIRECTION('',(1.110223024625E-16,-1.,0.));
#415 = PLANE('',#416);
#416 = AXIS2_PLACEMENT_3D('',#417,#418,#419);
#417 = CARTESIAN_POINT('',(-7.75,-8.604228440845E-16,-3.5));
#418 = DIRECTION('',(-1.,-1.110223024625E-16,-0.));
#419 = DIRECTION('',(0.,0.,-1.));
#420 = ADVANCED_FACE('',(#421),#475,.F.);
#421 = FACE_BOUND('',#422,.T.);
#422 = EDGE_LOOP('',(#423,#424,#425,#434,#441,#442,#443,#460));
#423 = ORIENTED_EDGE('',*,*,#322,.F.);
#424 = ORIENTED_EDGE('',*,*,#62,.F.);
#425 = ORIENTED_EDGE('',*,*,#426,.T.);
#426 = EDGE_CURVE('',#63,#427,#429,.T.);
#427 = VERTEX_POINT('',#428);
#428 = CARTESIAN_POINT('',(15.35,0.,-1.224646799147E-15));
#429 = CIRCLE('',#430,10.);
#430 = AXIS2_PLACEMENT_3D('',#431,#432,#433);
#431 = CARTESIAN_POINT('',(25.35,0.,0.));
#432 = DIRECTION('',(-0.,1.,0.));
#433 = DIRECTION('',(1.,0.,0.));
#434 = ORIENTED_EDGE('',*,*,#435,.F.);
#435 = EDGE_CURVE('',#427,#427,#436,.T.);
#436 = CIRCLE('',#437,15.35);
#437 = AXIS2_PLACEMENT_3D('',#438,#439,#440);
#438 = CARTESIAN_POINT('',(0.,0.,-1.224646799147E-15));
#439 = DIRECTION('',(0.,0.,1.));
#440 = DIRECTION('',(1.,0.,0.));
#441 = ORIENTED_EDGE('',*,*,#426,.F.);
#442 = ORIENTED_EDGE('',*,*,#71,.F.);
#443 = ORIENTED_EDGE('',*,*,#444,.T.);
#444 = EDGE_CURVE('',#72,#445,#447,.T.);
#445 = VERTEX_POINT('',#446);
#446 = CARTESIAN_POINT('',(-15.14452608394,2.512751320594,
    -0.176991148745));
#447 = B_SPLINE_CURVE_WITH_KNOTS('',6,(#448,#449,#450,#451,#452,#453,
    #454,#455,#456,#457,#458,#459),.UNSPECIFIED.,.F.,.F.,(7,5,7),(
    -7.858574359777E-02,5.655612998892E-02,3.575434658223),
  .UNSPECIFIED.);
#448 = CARTESIAN_POINT('',(-15.84235225611,2.487832122439,
    -3.644518471801));
#449 = CARTESIAN_POINT('',(-15.83216212976,2.488180134882,-3.61772337518
    ));
#450 = CARTESIAN_POINT('',(-15.82238404653,2.488514075258,
    -3.592011752421));
#451 = CARTESIAN_POINT('',(-15.81301800644,2.488833943567,
    -3.567383603523));
#452 = CARTESIAN_POINT('',(-15.80406400948,2.48913973981,-3.543838928487
    ));
#453 = CARTESIAN_POINT('',(-15.79552205566,2.489431463986,
    -3.521377727313));
#454 = CARTESIAN_POINT('',(-15.57570225629,2.496938733536,
    -2.943358127081));
#455 = CARTESIAN_POINT('',(-15.40392071431,2.50307536404,-2.370983535804
    ));
#456 = CARTESIAN_POINT('',(-15.27377419399,2.507887401985,
    -1.786707626831));
#457 = CARTESIAN_POINT('',(-15.18663326211,2.511168055423,
    -1.193912203975));
#458 = CARTESIAN_POINT('',(-15.14292847281,2.512810630969,
    -0.597645397502));
#459 = CARTESIAN_POINT('',(-15.14292831848,2.512811561039,
    -3.673940397442E-15));
#460 = ORIENTED_EDGE('',*,*,#461,.F.);
#461 = EDGE_CURVE('',#250,#445,#462,.T.);
#462 = ( BOUNDED_CURVE() B_SPLINE_CURVE(6,(#463,#464,#465,#466,#467,#468
    ,#469,#470,#471,#472,#473,#474),.UNSPECIFIED.,.F.,.F.) 
B_SPLINE_CURVE_WITH_KNOTS((7,5,7),(-2.008536617562,2.001396696271,
4.009933313832),.UNSPECIFIED.) CURVE() GEOMETRIC_REPRESENTATION_ITEM() 
RATIONAL_B_SPLINE_CURVE((1.,1.,1.,1.,1.,1.,1.,1.,1.,1.,1.,1.)) 
REPRESENTATION_ITEM('') );
#463 = CARTESIAN_POINT('',(-15.06166729151,-2.96930460226,
    -0.176991141305));
#464 = CARTESIAN_POINT('',(-15.19015055507,-2.31757888792,-0.17699116057
    ));
#465 = CARTESIAN_POINT('',(-15.2846230498,-1.660030678225,
    -0.176991141003));
#466 = CARTESIAN_POINT('',(-15.34499655648,-0.998092495755,
    -0.176991156284));
#467 = CARTESIAN_POINT('',(-15.37090391284,-0.333592463207,
    -0.176991148695));
#468 = CARTESIAN_POINT('',(-15.3623427218,0.330619867731,-0.176991150426
    ));
#469 = CARTESIAN_POINT('',(-15.29793797747,1.32444342602,-0.176991150438
    ));
#470 = CARTESIAN_POINT('',(-15.26782791983,1.655541990627,
    -0.176991150681));
#471 = CARTESIAN_POINT('',(-15.22912188125,1.985795100986,
    -0.176991150058));
#472 = CARTESIAN_POINT('',(-15.18184368079,2.314981277646,
    -0.176991150505));
#473 = CARTESIAN_POINT('',(-15.12601630186,2.642902687794,
    -0.176991150955));
#474 = CARTESIAN_POINT('',(-15.06165759747,2.969353774449,
    -0.176991141304));
#475 = TOROIDAL_SURFACE('',#476,25.35,10.);
#476 = AXIS2_PLACEMENT_3D('',#477,#478,#479);
#477 = CARTESIAN_POINT('',(0.,0.,0.));
#478 = DIRECTION('',(-0.,-0.,-1.));
#479 = DIRECTION('',(1.,0.,0.));
#480 = ADVANCED_FACE('',(#481),#500,.F.);
#481 = FACE_BOUND('',#482,.F.);
#482 = EDGE_LOOP('',(#483,#492,#493,#494));
#483 = ORIENTED_EDGE('',*,*,#484,.F.);
#484 = EDGE_CURVE('',#403,#485,#487,.T.);
#485 = VERTEX_POINT('',#486);
#486 = CARTESIAN_POINT('',(-5.05,-11.86454803184,3.5));
#487 = CIRCLE('',#488,1.8);
#488 = AXIS2_PLACEMENT_3D('',#489,#490,#491);
#489 = CARTESIAN_POINT('',(-5.95,-10.30570230503,3.5));
#490 = DIRECTION('',(-0.,0.,1.));
#491 = DIRECTION('',(1.110223024625E-16,-1.,0.));
#492 = ORIENTED_EDGE('',*,*,#402,.T.);
#493 = ORIENTED_EDGE('',*,*,#161,.T.);
#494 = ORIENTED_EDGE('',*,*,#495,.T.);
#495 = EDGE_CURVE('',#154,#485,#496,.T.);
#496 = LINE('',#497,#498);
#497 = CARTESIAN_POINT('',(-5.05,-11.86454803184,-3.5));
#498 = VECTOR('',#499,1.);
#499 = DIRECTION('',(0.,0.,1.));
#500 = CYLINDRICAL_SURFACE('',#501,1.8);
#501 = AXIS2_PLACEMENT_3D('',#502,#503,#504);
#502 = CARTESIAN_POINT('',(-5.95,-10.30570230503,-3.5));
#503 = DIRECTION('',(0.,0.,1.));
#504 = DIRECTION('',(1.110223024625E-16,-1.,0.));
#505 = ADVANCED_FACE('',(#506),#524,.F.);
#506 = FACE_BOUND('',#507,.F.);
#507 = EDGE_LOOP('',(#508,#509,#510,#518));
#508 = ORIENTED_EDGE('',*,*,#495,.F.);
#509 = ORIENTED_EDGE('',*,*,#153,.T.);
#510 = ORIENTED_EDGE('',*,*,#511,.F.);
#511 = EDGE_CURVE('',#512,#145,#514,.T.);
#512 = VERTEX_POINT('',#513);
#513 = CARTESIAN_POINT('',(12.8,-1.558845726812,3.5));
#514 = LINE('',#515,#516);
#515 = CARTESIAN_POINT('',(12.8,-1.558845726812,-3.5));
#516 = VECTOR('',#517,1.);
#517 = DIRECTION('',(-0.,0.,-1.));
#518 = ORIENTED_EDGE('',*,*,#519,.F.);
#519 = EDGE_CURVE('',#485,#512,#520,.T.);
#520 = LINE('',#521,#522);
#521 = CARTESIAN_POINT('',(3.875,-6.711696879329,3.5));
#522 = VECTOR('',#523,1.);
#523 = DIRECTION('',(0.866025403784,0.5,0.));
#524 = PLANE('',#525);
#525 = AXIS2_PLACEMENT_3D('',#526,#527,#528);
#526 = CARTESIAN_POINT('',(3.875,-6.711696879329,-3.5));
#527 = DIRECTION('',(0.5,-0.866025403784,0.));
#528 = DIRECTION('',(0.866025403784,0.5,0.));
#529 = ADVANCED_FACE('',(#530),#636,.F.);
#530 = FACE_BOUND('',#531,.F.);
#531 = EDGE_LOOP('',(#532,#609,#619,#634,#635));
#532 = ORIENTED_EDGE('',*,*,#533,.T.);
#533 = EDGE_CURVE('',#445,#534,#536,.T.);
#534 = VERTEX_POINT('',#535);
#535 = CARTESIAN_POINT('',(-14.01606280427,1.001111047159,-1.5));
#536 = B_SPLINE_CURVE_WITH_KNOTS('',8,(#537,#538,#539,#540,#541,#542,
    #543,#544,#545,#546,#547,#548,#549,#550,#551,#552,#553,#554,#555,
    #556,#557,#558,#559,#560,#561,#562,#563,#564,#565,#566,#567,#568,
    #569,#570,#571,#572,#573,#574,#575,#576,#577,#578,#579,#580,#581,
    #582,#583,#584,#585,#586,#587,#588,#589,#590,#591,#592,#593,#594,
    #595,#596,#597,#598,#599,#600,#601,#602,#603,#604,#605,#606,#607,
    #608),.UNSPECIFIED.,.F.,.F.,(9,7,7,7,7,7,7,7,7,7,9),(0.,
    1.468019249426E-03,5.470148336869E-03,3.298930257494E-02,
    0.128158171965,0.344243290225,0.46173784724,0.61366983679,
    0.759750303539,0.880838330999,1.),.UNSPECIFIED.);
#537 = CARTESIAN_POINT('',(-15.14454038465,2.512750725959,
    -0.177796725424));
#538 = CARTESIAN_POINT('',(-15.14462400029,2.51224676849,-0.177796726933
    ));
#539 = CARTESIAN_POINT('',(-15.14470036368,2.511817782725,
    -0.178096820382));
#540 = CARTESIAN_POINT('',(-15.14476973632,2.511434858634,
    -0.178440469432));
#541 = CARTESIAN_POINT('',(-15.14483201594,2.511088115421,
    -0.178727033075));
#542 = CARTESIAN_POINT('',(-15.14488788362,2.510773954585,
    -0.178958910992));
#543 = CARTESIAN_POINT('',(-15.1449399509,2.510482312981,-0.179188688917
    ));
#544 = CARTESIAN_POINT('',(-15.14499390678,2.510183915878,
    -0.179466283989));
#545 = CARTESIAN_POINT('',(-15.14523893532,2.50881868517,-0.180657948853
    ));
#546 = CARTESIAN_POINT('',(-15.14541450711,2.507838493659,
    -0.181539265707));
#547 = CARTESIAN_POINT('',(-15.14558915274,2.506859324498,
    -0.182421513135));
#548 = CARTESIAN_POINT('',(-15.14576303082,2.505880158937,
    -0.183304140051));
#549 = CARTESIAN_POINT('',(-15.14593577429,2.504903323058,
    -0.184188233615));
#550 = CARTESIAN_POINT('',(-15.14610748932,2.503928140543,
    -0.185073487265));
#551 = CARTESIAN_POINT('',(-15.14627866491,2.50295150565,-0.185958474996
    ));
#552 = CARTESIAN_POINT('',(-15.14762019186,2.495263385979,-0.19293481007
    ));
#553 = CARTESIAN_POINT('',(-15.14875485564,2.488552472747,
    -0.199045631898));
#554 = CARTESIAN_POINT('',(-15.14985823136,2.481807851928,
    -0.205160089197));
#555 = CARTESIAN_POINT('',(-15.15092462887,2.475064172541,
    -0.211294010171));
#556 = CARTESIAN_POINT('',(-15.15195899026,2.468288616085,
    -0.217431698193));
#557 = CARTESIAN_POINT('',(-15.15295742428,2.461504443681,
    -0.223583658076));
#558 = CARTESIAN_POINT('',(-15.15392143577,2.454700683573,
    -0.229744392839));
#559 = CARTESIAN_POINT('',(-15.15806227632,2.424296407588,-0.25725566224
    ));
#560 = CARTESIAN_POINT('',(-15.16085408088,2.400515091486,
    -0.278714073231));
#561 = CARTESIAN_POINT('',(-15.16321460766,2.37654894708,-0.30028054896)
  );
#562 = CARTESIAN_POINT('',(-15.16513300006,2.352410998522,-0.32194505279
    ));
#563 = CARTESIAN_POINT('',(-15.16659863569,2.32811515566,-0.343697338007
    ));
#564 = CARTESIAN_POINT('',(-15.16760117701,2.303676023631,
    -0.365526868106));
#565 = CARTESIAN_POINT('',(-15.16813062209,2.279108712453,
    -0.387422737077));
#566 = CARTESIAN_POINT('',(-15.16828346509,2.198391467879,-0.45921396935
    ));
#567 = CARTESIAN_POINT('',(-15.16590082453,2.141775309554,
    -0.509336271754));
#568 = CARTESIAN_POINT('',(-15.16091727595,2.084760019505,
    -0.559610688668));
#569 = CARTESIAN_POINT('',(-15.15322867013,2.027543498191,
    -0.609895632267));
#570 = CARTESIAN_POINT('',(-15.14274210694,1.970339812177,
    -0.660037567514));
#571 = CARTESIAN_POINT('',(-15.12937917595,1.913377307639,
    -0.709870844546));
#572 = CARTESIAN_POINT('',(-15.11307919704,1.856896723868,
    -0.759217531055));
#573 = CARTESIAN_POINT('',(-15.08332088985,1.770837094042,
    -0.834351012694));
#574 = CARTESIAN_POINT('',(-15.07195953033,1.740742366991,
    -0.860613978181));
#575 = CARTESIAN_POINT('',(-15.05971228727,1.710905718777,
    -0.886645325253));
#576 = CARTESIAN_POINT('',(-15.04657516697,1.68136903051,-0.912412791188
    ));
#577 = CARTESIAN_POINT('',(-15.03254659885,1.652175168132,
    -0.937882828181));
#578 = CARTESIAN_POINT('',(-15.01762775698,1.62336767928,-0.963020765111
    ));
#579 = CARTESIAN_POINT('',(-15.00182288168,1.594990490162,
    -0.987790969294));
#580 = CARTESIAN_POINT('',(-14.96356648248,1.53100643103,-1.043664687157
    ));
#581 = CARTESIAN_POINT('',(-14.94052460999,1.495718290141,
    -1.074496566655));
#582 = CARTESIAN_POINT('',(-14.91603050685,1.461318500821,-1.10457384978
    ));
#583 = CARTESIAN_POINT('',(-14.89011086571,1.427902964048,
    -1.133815002409));
#584 = CARTESIAN_POINT('',(-14.86280333766,1.395566072054,
    -1.162137474867));
#585 = CARTESIAN_POINT('',(-14.83415732132,1.364398619673,
    -1.189459423533));
#586 = CARTESIAN_POINT('',(-14.80423475186,1.334485715698,
    -1.215701432453));
#587 = CARTESIAN_POINT('',(-14.7431857356,1.27842444487,-1.264908841996)
  );
#588 = CARTESIAN_POINT('',(-14.71214913251,1.252174483115,
    -1.287962374308));
#589 = CARTESIAN_POINT('',(-14.68006816362,1.227224639147,
    -1.309881227467));
#590 = CARTESIAN_POINT('',(-14.6470202962,1.203636065509,-1.330603129834
    ));
#591 = CARTESIAN_POINT('',(-14.61309219183,1.181460131156,
    -1.350072576763));
#592 = CARTESIAN_POINT('',(-14.57837851635,1.160737315495,
    -1.368242264816));
#593 = CARTESIAN_POINT('',(-14.54298074973,1.141496102438,
    -1.385074525983));
#594 = CARTESIAN_POINT('',(-14.47718604766,1.109043449611,
    -1.413364586862));
#595 = CARTESIAN_POINT('',(-14.44696853322,1.095363117651,
    -1.425249642584));
#596 = CARTESIAN_POINT('',(-14.41641401939,1.082719921695,
    -1.436182569621));
#597 = CARTESIAN_POINT('',(-14.38558411499,1.07111620359,-1.446153791466
    ));
#598 = CARTESIAN_POINT('',(-14.35454068272,1.060548063461,
    -1.455159324487));
#599 = CARTESIAN_POINT('',(-14.32334505079,1.051005819265,
    -1.463200587853));
#600 = CARTESIAN_POINT('',(-14.29205722467,1.042474466354,
    -1.470284213469));
#601 = CARTESIAN_POINT('',(-14.22991126852,1.027513764873,
    -1.482461856162));
#602 = CARTESIAN_POINT('',(-14.19905366639,1.02105304227,-1.487585810714
    ));
#603 = CARTESIAN_POINT('',(-14.1682172731,1.015533074056,-1.49180471993)
  );
#604 = CARTESIAN_POINT('',(-14.13745425232,1.010930465012,
    -1.495134248611));
#605 = CARTESIAN_POINT('',(-14.10681363339,1.007218084734,
    -1.497594099037));
#606 = CARTESIAN_POINT('',(-14.07634099409,1.004365832515,-1.49920738403
    ));
#607 = CARTESIAN_POINT('',(-14.04607814341,1.002341402219,-1.5));
#608 = CARTESIAN_POINT('',(-14.01606280427,1.001111047159,-1.5));
#609 = ORIENTED_EDGE('',*,*,#610,.T.);
#610 = EDGE_CURVE('',#534,#611,#613,.T.);
#611 = VERTEX_POINT('',#612);
#612 = CARTESIAN_POINT('',(-13.96183106674,1.,-1.5));
#613 = B_SPLINE_CURVE_WITH_KNOTS('',4,(#614,#615,#616,#617,#618),
  .UNSPECIFIED.,.F.,.F.,(5,5),(0.,1.),.PIECEWISE_BEZIER_KNOTS.);
#614 = CARTESIAN_POINT('',(-14.01606280427,1.001111047159,-1.5));
#615 = CARTESIAN_POINT('',(-14.00243755933,1.000552536426,-1.5));
#616 = CARTESIAN_POINT('',(-13.98885398779,1.000183129133,-1.5));
#617 = CARTESIAN_POINT('',(-13.97531733514,1.,-1.5));
#618 = CARTESIAN_POINT('',(-13.96183255849,1.,-1.5));
#619 = ORIENTED_EDGE('',*,*,#620,.F.);
#620 = EDGE_CURVE('',#81,#611,#621,.T.);
#621 = B_SPLINE_CURVE_WITH_KNOTS('',6,(#622,#623,#624,#625,#626,#627,
    #628,#629,#630,#631,#632,#633),.UNSPECIFIED.,.F.,.F.,(7,5,7),(
    -7.858574359777E-02,5.655612998892E-02,3.575434658223),
  .UNSPECIFIED.);
#622 = CARTESIAN_POINT('',(-14.63496671536,1.,-4.088757653147));
#623 = CARTESIAN_POINT('',(-14.6258737704,1.,-4.064643810716));
#624 = CARTESIAN_POINT('',(-14.61678082543,1.,-4.040529968286));
#625 = CARTESIAN_POINT('',(-14.60768788047,1.,-4.016416125855));
#626 = CARTESIAN_POINT('',(-14.59859493551,1.,-3.992302283424));
#627 = CARTESIAN_POINT('',(-14.58950199055,1.,-3.968188440994));
#628 = CARTESIAN_POINT('',(-14.3436432828,1.,-3.316188658326));
#629 = CARTESIAN_POINT('',(-14.15170570362,1.,-2.670797952648));
#630 = CARTESIAN_POINT('',(-14.00653794338,1.,-2.012839481661));
#631 = CARTESIAN_POINT('',(-13.90911196608,1.,-1.344537395077));
#632 = CARTESIAN_POINT('',(-13.86055718324,1.,-0.672664530381));
#633 = CARTESIAN_POINT('',(-13.86046634146,1.,-1.586503527337E-03));
#634 = ORIENTED_EDGE('',*,*,#80,.T.);
#635 = ORIENTED_EDGE('',*,*,#444,.T.);
#636 = ( BOUNDED_SURFACE() B_SPLINE_SURFACE(2,6,(
    (#637,#638,#639,#640,#641,#642,#643,#644,#645,#646,#647,#648)
    ,(#649,#650,#651,#652,#653,#654,#655,#656,#657,#658,#659,#660)
    ,(#661,#662,#663,#664,#665,#666,#667,#668,#669,#670,#671,#672
)),.UNSPECIFIED.,.F.,.F.,.F.) B_SPLINE_SURFACE_WITH_KNOTS((3,3),(7,5,7),
  (0.,3.518878528234),(-7.858574359777E-02,5.655612998892E-02,
3.575434658223),.UNSPECIFIED.) GEOMETRIC_REPRESENTATION_ITEM() 
RATIONAL_B_SPLINE_SURFACE((
    (1.,1.,1.,1.,1.,1.,1.,1.,1.,1.,1.,1.)
    ,(0.653479116229,0.653560824482,0.653609849433,0.653626191083
      ,0.653609849433,0.653560824482,0.651351563854,0.649537357572
      ,0.648109170052,0.64713348216,0.646645001001,0.646644724405)
,(1.,1.,1.,1.,1.,1.,1.,1.,1.,1.,1.,1.
))) REPRESENTATION_ITEM('') SURFACE() );
#637 = CARTESIAN_POINT('',(-14.63496671536,1.,-4.088757653147));
#638 = CARTESIAN_POINT('',(-14.6258737704,1.,-4.064643810716));
#639 = CARTESIAN_POINT('',(-14.61678082543,1.,-4.040529968286));
#640 = CARTESIAN_POINT('',(-14.60768788047,1.,-4.016416125855));
#641 = CARTESIAN_POINT('',(-14.59859493551,1.,-3.992302283424));
#642 = CARTESIAN_POINT('',(-14.58950199055,1.,-3.968188440994));
#643 = CARTESIAN_POINT('',(-14.3436432828,1.,-3.316188658326));
#644 = CARTESIAN_POINT('',(-14.15170570362,1.,-2.670797952648));
#645 = CARTESIAN_POINT('',(-14.00653794338,1.,-2.012839481661));
#646 = CARTESIAN_POINT('',(-13.90911196608,1.,-1.344537395077));
#647 = CARTESIAN_POINT('',(-13.86055718324,1.,-0.672664530381));
#648 = CARTESIAN_POINT('',(-13.86046634146,1.,-1.586503527337E-03));
#649 = CARTESIAN_POINT('',(-16.04622709054,1.,-3.569528040788));
#650 = CARTESIAN_POINT('',(-16.03629885315,1.,-3.542085354847));
#651 = CARTESIAN_POINT('',(-16.02683683179,1.,-3.515931338729));
#652 = CARTESIAN_POINT('',(-16.01783950215,1.,-3.491061779125));
#653 = CARTESIAN_POINT('',(-16.00930547967,1.,-3.467472848937));
#654 = CARTESIAN_POINT('',(-16.0012335188,1.,-3.445161105319));
#655 = CARTESIAN_POINT('',(-15.79477187858,1.,-2.87447955034));
#656 = CARTESIAN_POINT('',(-15.63487917732,1.,-2.312323383699));
#657 = CARTESIAN_POINT('',(-15.5146069426,1.,-1.741089037305));
#658 = CARTESIAN_POINT('',(-15.43435375578,1.,-1.163551576265));
#659 = CARTESIAN_POINT('',(-15.39394476395,1.,-0.582960539127));
#660 = CARTESIAN_POINT('',(-15.39396367309,1.,3.105499287346E-04));
#661 = CARTESIAN_POINT('',(-15.84235225611,2.487832122439,
    -3.644518471801));
#662 = CARTESIAN_POINT('',(-15.83216212976,2.488180134882,-3.61772337518
    ));
#663 = CARTESIAN_POINT('',(-15.82238404653,2.488514075258,
    -3.592011752421));
#664 = CARTESIAN_POINT('',(-15.81301800644,2.488833943567,
    -3.567383603523));
#665 = CARTESIAN_POINT('',(-15.80406400948,2.48913973981,-3.543838928487
    ));
#666 = CARTESIAN_POINT('',(-15.79552205566,2.489431463986,
    -3.521377727313));
#667 = CARTESIAN_POINT('',(-15.57570225629,2.496938733536,
    -2.943358127081));
#668 = CARTESIAN_POINT('',(-15.40392071431,2.50307536404,-2.370983535804
    ));
#669 = CARTESIAN_POINT('',(-15.27377419399,2.507887401985,
    -1.786707626831));
#670 = CARTESIAN_POINT('',(-15.18663326211,2.511168055423,
    -1.193912203975));
#671 = CARTESIAN_POINT('',(-15.14292847281,2.512810630969,
    -0.597645397502));
#672 = CARTESIAN_POINT('',(-15.14292831848,2.512811561039,
    -3.673940397442E-15));
#673 = ADVANCED_FACE('',(#674),#693,.F.);
#674 = FACE_BOUND('',#675,.F.);
#675 = EDGE_LOOP('',(#676,#685,#686,#687));
#676 = ORIENTED_EDGE('',*,*,#677,.F.);
#677 = EDGE_CURVE('',#512,#678,#680,.T.);
#678 = VERTEX_POINT('',#679);
#679 = CARTESIAN_POINT('',(12.8,1.558845726812,3.5));
#680 = CIRCLE('',#681,1.8);
#681 = AXIS2_PLACEMENT_3D('',#682,#683,#684);
#682 = CARTESIAN_POINT('',(11.9,1.521165399304E-15,3.5));
#683 = DIRECTION('',(-0.,0.,1.));
#684 = DIRECTION('',(1.110223024625E-16,-1.,0.));
#685 = ORIENTED_EDGE('',*,*,#511,.T.);
#686 = ORIENTED_EDGE('',*,*,#144,.T.);
#687 = ORIENTED_EDGE('',*,*,#688,.T.);
#688 = EDGE_CURVE('',#137,#678,#689,.T.);
#689 = LINE('',#690,#691);
#690 = CARTESIAN_POINT('',(12.8,1.558845726812,-3.5));
#691 = VECTOR('',#692,1.);
#692 = DIRECTION('',(0.,0.,1.));
#693 = CYLINDRICAL_SURFACE('',#694,1.8);
#694 = AXIS2_PLACEMENT_3D('',#695,#696,#697);
#695 = CARTESIAN_POINT('',(11.9,1.521165399304E-15,-3.5));
#696 = DIRECTION('',(0.,0.,1.));
#697 = DIRECTION('',(1.110223024625E-16,-1.,0.));
#698 = ADVANCED_FACE('',(#699),#735,.T.);
#699 = FACE_BOUND('',#700,.T.);
#700 = EDGE_LOOP('',(#701,#709,#710,#711,#712,#720,#728));
#701 = ORIENTED_EDGE('',*,*,#702,.F.);
#702 = EDGE_CURVE('',#611,#703,#705,.T.);
#703 = VERTEX_POINT('',#704);
#704 = CARTESIAN_POINT('',(-11.05,1.,-1.5));
#705 = LINE('',#706,#707);
#706 = CARTESIAN_POINT('',(-17.,1.,-1.5));
#707 = VECTOR('',#708,1.);
#708 = DIRECTION('',(1.,1.110223024625E-16,0.));
#709 = ORIENTED_EDGE('',*,*,#620,.F.);
#710 = ORIENTED_EDGE('',*,*,#111,.T.);
#711 = ORIENTED_EDGE('',*,*,#386,.T.);
#712 = ORIENTED_EDGE('',*,*,#713,.F.);
#713 = EDGE_CURVE('',#714,#387,#716,.T.);
#714 = VERTEX_POINT('',#715);
#715 = CARTESIAN_POINT('',(-9.75,1.,3.2));
#716 = LINE('',#717,#718);
#717 = CARTESIAN_POINT('',(-9.75,1.,3.2));
#718 = VECTOR('',#719,1.);
#719 = DIRECTION('',(1.,1.110223024625E-16,0.));
#720 = ORIENTED_EDGE('',*,*,#721,.F.);
#721 = EDGE_CURVE('',#722,#714,#724,.T.);
#722 = VERTEX_POINT('',#723);
#723 = CARTESIAN_POINT('',(-9.75,1.,-0.2));
#724 = LINE('',#725,#726);
#725 = CARTESIAN_POINT('',(-9.75,1.,-3.5));
#726 = VECTOR('',#727,1.);
#727 = DIRECTION('',(0.,0.,1.));
#728 = ORIENTED_EDGE('',*,*,#729,.T.);
#729 = EDGE_CURVE('',#722,#703,#730,.T.);
#730 = CIRCLE('',#731,1.3);
#731 = AXIS2_PLACEMENT_3D('',#732,#733,#734);
#732 = CARTESIAN_POINT('',(-11.05,1.,-0.2));
#733 = DIRECTION('',(-1.110223024625E-16,1.,0.));
#734 = DIRECTION('',(-1.,-1.110223024625E-16,0.));
#735 = PLANE('',#736);
#736 = AXIS2_PLACEMENT_3D('',#737,#738,#739);
#737 = CARTESIAN_POINT('',(-10.87978564541,1.,-1.129574065926));
#738 = DIRECTION('',(1.110223024625E-16,-1.,0.));
#739 = DIRECTION('',(0.,0.,1.));
#740 = ADVANCED_FACE('',(#741),#759,.F.);
#741 = FACE_BOUND('',#742,.F.);
#742 = EDGE_LOOP('',(#743,#744,#745,#753));
#743 = ORIENTED_EDGE('',*,*,#688,.F.);
#744 = ORIENTED_EDGE('',*,*,#136,.T.);
#745 = ORIENTED_EDGE('',*,*,#746,.F.);
#746 = EDGE_CURVE('',#747,#128,#749,.T.);
#747 = VERTEX_POINT('',#748);
#748 = CARTESIAN_POINT('',(-5.05,11.864548031847,3.5));
#749 = LINE('',#750,#751);
#750 = CARTESIAN_POINT('',(-5.05,11.864548031847,-3.5));
#751 = VECTOR('',#752,1.);
#752 = DIRECTION('',(-0.,0.,-1.));
#753 = ORIENTED_EDGE('',*,*,#754,.F.);
#754 = EDGE_CURVE('',#678,#747,#755,.T.);
#755 = LINE('',#756,#757);
#756 = CARTESIAN_POINT('',(3.875,6.711696879329,3.5));
#757 = VECTOR('',#758,1.);
#758 = DIRECTION('',(-0.866025403784,0.5,0.));
#759 = PLANE('',#760);
#760 = AXIS2_PLACEMENT_3D('',#761,#762,#763);
#761 = CARTESIAN_POINT('',(3.875,6.711696879329,-3.5));
#762 = DIRECTION('',(0.5,0.866025403784,0.));
#763 = DIRECTION('',(-0.866025403784,0.5,0.));
#764 = ADVANCED_FACE('',(#765),#777,.F.);
#765 = FACE_BOUND('',#766,.F.);
#766 = EDGE_LOOP('',(#767,#774,#775,#776));
#767 = ORIENTED_EDGE('',*,*,#768,.F.);
#768 = EDGE_CURVE('',#747,#378,#769,.T.);
#769 = CIRCLE('',#770,1.8);
#770 = AXIS2_PLACEMENT_3D('',#771,#772,#773);
#771 = CARTESIAN_POINT('',(-5.95,10.305702305035,3.5));
#772 = DIRECTION('',(-0.,0.,1.));
#773 = DIRECTION('',(1.110223024625E-16,-1.,0.));
#774 = ORIENTED_EDGE('',*,*,#746,.T.);
#775 = ORIENTED_EDGE('',*,*,#127,.T.);
#776 = ORIENTED_EDGE('',*,*,#377,.T.);
#777 = CYLINDRICAL_SURFACE('',#778,1.8);
#778 = AXIS2_PLACEMENT_3D('',#779,#780,#781);
#779 = CARTESIAN_POINT('',(-5.95,10.305702305035,-3.5));
#780 = DIRECTION('',(0.,0.,1.));
#781 = DIRECTION('',(1.110223024625E-16,-1.,0.));
#782 = ADVANCED_FACE('',(#783),#810,.F.);
#783 = FACE_BOUND('',#784,.F.);
#784 = EDGE_LOOP('',(#785,#786,#787,#802,#803,#804));
#785 = ORIENTED_EDGE('',*,*,#702,.F.);
#786 = ORIENTED_EDGE('',*,*,#610,.F.);
#787 = ORIENTED_EDGE('',*,*,#788,.F.);
#788 = EDGE_CURVE('',#252,#534,#789,.T.);
#789 = ( BOUNDED_CURVE() B_SPLINE_CURVE(6,(#790,#791,#792,#793,#794,#795
    ,#796,#797,#798,#799,#800,#801),.UNSPECIFIED.,.F.,.F.) 
B_SPLINE_CURVE_WITH_KNOTS((7,5,7),(-2.008536617562,2.001396696271,
4.009933313832),.UNSPECIFIED.) CURVE() GEOMETRIC_REPRESENTATION_ITEM() 
RATIONAL_B_SPLINE_CURVE((1.,1.,1.,1.,1.,1.,1.,1.,1.,1.,1.,1.)) 
REPRESENTATION_ITEM('') );
#790 = CARTESIAN_POINT('',(-13.78617865674,-2.71910601119,-1.5));
#791 = CARTESIAN_POINT('',(-13.90408561068,-2.121297316145,-1.5));
#792 = CARTESIAN_POINT('',(-13.99050263397,-1.519129985335,-1.5));
#793 = CARTESIAN_POINT('',(-14.04574389623,-0.914011840857,-1.5));
#794 = CARTESIAN_POINT('',(-14.06946988731,-0.305041623672,-1.5));
#795 = CARTESIAN_POINT('',(-14.06163586191,0.302572288686,-1.5));
#796 = CARTESIAN_POINT('',(-14.00268490045,1.212276263227,-1.5));
#797 = CARTESIAN_POINT('',(-13.97511802754,1.515410672094,-1.5));
#798 = CARTESIAN_POINT('',(-13.93968780003,1.817729541245,-1.5));
#799 = CARTESIAN_POINT('',(-13.8963967193,2.11916655558,-1.5));
#800 = CARTESIAN_POINT('',(-13.84523068215,2.419707165581,-1.5));
#801 = CARTESIAN_POINT('',(-13.78616976066,2.719151115471,-1.5));
#802 = ORIENTED_EDGE('',*,*,#312,.T.);
#803 = ORIENTED_EDGE('',*,*,#202,.T.);
#804 = ORIENTED_EDGE('',*,*,#805,.T.);
#805 = EDGE_CURVE('',#203,#703,#806,.T.);
#806 = LINE('',#807,#808);
#807 = CARTESIAN_POINT('',(-11.05,-1.,-1.5));
#808 = VECTOR('',#809,1.);
#809 = DIRECTION('',(-1.110223024625E-16,1.,0.));
#810 = PLANE('',#811);
#811 = AXIS2_PLACEMENT_3D('',#812,#813,#814);
#812 = CARTESIAN_POINT('',(-17.,1.,-1.5));
#813 = DIRECTION('',(0.,0.,1.));
#814 = DIRECTION('',(1.110223024625E-16,-1.,0.));
#815 = ADVANCED_FACE('',(#816),#827,.F.);
#816 = FACE_BOUND('',#817,.F.);
#817 = EDGE_LOOP('',(#818,#819,#825,#826));
#818 = ORIENTED_EDGE('',*,*,#713,.F.);
#819 = ORIENTED_EDGE('',*,*,#820,.T.);
#820 = EDGE_CURVE('',#714,#220,#821,.T.);
#821 = LINE('',#822,#823);
#822 = CARTESIAN_POINT('',(-9.75,1.,3.2));
#823 = VECTOR('',#824,1.);
#824 = DIRECTION('',(1.110223024625E-16,-1.,0.));
#825 = ORIENTED_EDGE('',*,*,#227,.T.);
#826 = ORIENTED_EDGE('',*,*,#394,.F.);
#827 = PLANE('',#828);
#828 = AXIS2_PLACEMENT_3D('',#829,#830,#831);
#829 = CARTESIAN_POINT('',(-9.75,1.,3.2));
#830 = DIRECTION('',(0.,0.,1.));
#831 = DIRECTION('',(1.110223024625E-16,-1.,0.));
#832 = ADVANCED_FACE('',(#833),#844,.T.);
#833 = FACE_BOUND('',#834,.T.);
#834 = EDGE_LOOP('',(#835,#836,#837,#838));
#835 = ORIENTED_EDGE('',*,*,#210,.T.);
#836 = ORIENTED_EDGE('',*,*,#805,.T.);
#837 = ORIENTED_EDGE('',*,*,#729,.F.);
#838 = ORIENTED_EDGE('',*,*,#839,.F.);
#839 = EDGE_CURVE('',#211,#722,#840,.T.);
#840 = LINE('',#841,#842);
#841 = CARTESIAN_POINT('',(-9.75,-1.,-0.2));
#842 = VECTOR('',#843,1.);
#843 = DIRECTION('',(-1.110223024625E-16,1.,0.));
#844 = CYLINDRICAL_SURFACE('',#845,1.3);
#845 = AXIS2_PLACEMENT_3D('',#846,#847,#848);
#846 = CARTESIAN_POINT('',(-11.05,-1.,-0.2));
#847 = DIRECTION('',(-1.110223024625E-16,1.,0.));
#848 = DIRECTION('',(1.,1.110223024625E-16,-0.));
#849 = ADVANCED_FACE('',(#850),#856,.T.);
#850 = FACE_BOUND('',#851,.T.);
#851 = EDGE_LOOP('',(#852,#853,#854,#855));
#852 = ORIENTED_EDGE('',*,*,#219,.F.);
#853 = ORIENTED_EDGE('',*,*,#839,.T.);
#854 = ORIENTED_EDGE('',*,*,#721,.T.);
#855 = ORIENTED_EDGE('',*,*,#820,.T.);
#856 = PLANE('',#857);
#857 = AXIS2_PLACEMENT_3D('',#858,#859,#860);
#858 = CARTESIAN_POINT('',(-9.75,1.,-3.5));
#859 = DIRECTION('',(1.,1.110223024625E-16,0.));
#860 = DIRECTION('',(0.,0.,1.));
#861 = ADVANCED_FACE('',(#862),#868,.F.);
#862 = FACE_BOUND('',#863,.F.);
#863 = EDGE_LOOP('',(#864,#865,#866,#867));
#864 = ORIENTED_EDGE('',*,*,#249,.T.);
#865 = ORIENTED_EDGE('',*,*,#788,.T.);
#866 = ORIENTED_EDGE('',*,*,#533,.F.);
#867 = ORIENTED_EDGE('',*,*,#461,.F.);
#868 = ( BOUNDED_SURFACE() B_SPLINE_SURFACE(2,6,(
    (#869,#870,#871,#872,#873,#874,#875,#876,#877,#878,#879,#880)
    ,(#881,#882,#883,#884,#885,#886,#887,#888,#889,#890,#891,#892)
    ,(#893,#894,#895,#896,#897,#898,#899,#900,#901,#902,#903,#904
)),.UNSPECIFIED.,.F.,.F.,.F.) B_SPLINE_SURFACE_WITH_KNOTS((3,3),(7,5,7),
  (0.,6.018469931394),(-2.008536617562,2.001396696271,4.009933313832),
.UNSPECIFIED.) GEOMETRIC_REPRESENTATION_ITEM() RATIONAL_B_SPLINE_SURFACE
((
    (1.,1.,1.,1.,1.,1.,1.,1.,1.,1.,1.,1.)
    ,(0.700821260354,0.70082126564,0.700821260271,0.700821264464
      ,0.700821262381,0.700821262856,0.70082126286,0.700821262926
      ,0.700821262755,0.700821262878,0.700821263001,0.700821260353)
,(1.,1.,1.,1.,1.,1.,1.,1.,1.,1.,1.,1.
))) REPRESENTATION_ITEM('') SURFACE() );
#869 = CARTESIAN_POINT('',(-15.06166729151,-2.96930460226,
    -0.176991141305));
#870 = CARTESIAN_POINT('',(-15.19015055507,-2.31757888792,-0.17699116057
    ));
#871 = CARTESIAN_POINT('',(-15.2846230498,-1.660030678225,
    -0.176991141003));
#872 = CARTESIAN_POINT('',(-15.34499655648,-0.998092495755,
    -0.176991156284));
#873 = CARTESIAN_POINT('',(-15.37090391284,-0.333592463207,
    -0.176991148695));
#874 = CARTESIAN_POINT('',(-15.3623427218,0.330619867731,-0.176991150426
    ));
#875 = CARTESIAN_POINT('',(-15.29793797747,1.32444342602,-0.176991150438
    ));
#876 = CARTESIAN_POINT('',(-15.26782791983,1.655541990627,
    -0.176991150681));
#877 = CARTESIAN_POINT('',(-15.22912188125,1.985795100986,
    -0.176991150058));
#878 = CARTESIAN_POINT('',(-15.18184368079,2.314981277646,
    -0.176991150505));
#879 = CARTESIAN_POINT('',(-15.12601630186,2.642902687794,
    -0.176991150955));
#880 = CARTESIAN_POINT('',(-15.06165759747,2.969353774449,
    -0.176991141304));
#881 = CARTESIAN_POINT('',(-15.08464907801,-2.973812686804,-1.5));
#882 = CARTESIAN_POINT('',(-15.21332288522,-2.321115495328,-1.5));
#883 = CARTESIAN_POINT('',(-15.30794054586,-1.662569423148,-1.5));
#884 = CARTESIAN_POINT('',(-15.36840650719,-0.99960746857,-1.5));
#885 = CARTESIAN_POINT('',(-15.39435317675,-0.334106890322,-1.5));
#886 = CARTESIAN_POINT('',(-15.38577888145,0.331125229514,-1.5));
#887 = CARTESIAN_POINT('',(-15.32127587075,1.326464455979,-1.5));
#888 = CARTESIAN_POINT('',(-15.29111998965,1.658066879533,-1.5));
#889 = CARTESIAN_POINT('',(-15.25235492823,1.988823308927,-1.5));
#890 = CARTESIAN_POINT('',(-15.20500488729,2.31850947066,-1.5));
#891 = CARTESIAN_POINT('',(-15.14909351951,2.646924229671,-1.5));
#892 = CARTESIAN_POINT('',(-15.08463936959,2.97386193229,-1.5));
#893 = CARTESIAN_POINT('',(-13.78617865674,-2.71910601119,-1.5));
#894 = CARTESIAN_POINT('',(-13.90408561068,-2.121297316145,-1.5));
#895 = CARTESIAN_POINT('',(-13.99050263397,-1.519129985335,-1.5));
#896 = CARTESIAN_POINT('',(-14.04574389623,-0.914011840857,-1.5));
#897 = CARTESIAN_POINT('',(-14.06946988731,-0.305041623672,-1.5));
#898 = CARTESIAN_POINT('',(-14.06163586191,0.302572288686,-1.5));
#899 = CARTESIAN_POINT('',(-14.00268490045,1.212276263227,-1.5));
#900 = CARTESIAN_POINT('',(-13.97511802754,1.515410672094,-1.5));
#901 = CARTESIAN_POINT('',(-13.93968780003,1.817729541245,-1.5));
#902 = CARTESIAN_POINT('',(-13.8963967193,2.11916655558,-1.5));
#903 = CARTESIAN_POINT('',(-13.84523068215,2.419707165581,-1.5));
#904 = CARTESIAN_POINT('',(-13.78616976066,2.719151115471,-1.5));
#905 = ADVANCED_FACE('',(#906,#917),#925,.T.);
#906 = FACE_BOUND('',#907,.T.);
#907 = EDGE_LOOP('',(#908));
#908 = ORIENTED_EDGE('',*,*,#909,.F.);
#909 = EDGE_CURVE('',#910,#910,#912,.T.);
#910 = VERTEX_POINT('',#911);
#911 = CARTESIAN_POINT('',(15.982503002402,0.,3.5));
#912 = CIRCLE('',#913,15.982503002402);
#913 = AXIS2_PLACEMENT_3D('',#914,#915,#916);
#914 = CARTESIAN_POINT('',(0.,0.,3.5));
#915 = DIRECTION('',(0.,0.,-1.));
#916 = DIRECTION('',(1.,0.,0.));
#917 = FACE_BOUND('',#918,.T.);
#918 = EDGE_LOOP('',(#919,#920,#921,#922,#923,#924));
#919 = ORIENTED_EDGE('',*,*,#754,.F.);
#920 = ORIENTED_EDGE('',*,*,#677,.F.);
#921 = ORIENTED_EDGE('',*,*,#519,.F.);
#922 = ORIENTED_EDGE('',*,*,#484,.F.);
#923 = ORIENTED_EDGE('',*,*,#410,.F.);
#924 = ORIENTED_EDGE('',*,*,#768,.F.);
#925 = PLANE('',#926);
#926 = AXIS2_PLACEMENT_3D('',#927,#928,#929);
#927 = CARTESIAN_POINT('',(0.,0.,3.5));
#928 = DIRECTION('',(0.,0.,1.));
#929 = DIRECTION('',(1.110223024625E-16,-1.,0.));
#930 = ADVANCED_FACE('',(#931),#943,.F.);
#931 = FACE_BOUND('',#932,.T.);
#932 = EDGE_LOOP('',(#933,#940,#941,#942));
#933 = ORIENTED_EDGE('',*,*,#934,.F.);
#934 = EDGE_CURVE('',#427,#910,#935,.T.);
#935 = CIRCLE('',#936,10.);
#936 = AXIS2_PLACEMENT_3D('',#937,#938,#939);
#937 = CARTESIAN_POINT('',(25.35,0.,0.));
#938 = DIRECTION('',(-0.,1.,0.));
#939 = DIRECTION('',(1.,0.,0.));
#940 = ORIENTED_EDGE('',*,*,#435,.F.);
#941 = ORIENTED_EDGE('',*,*,#934,.T.);
#942 = ORIENTED_EDGE('',*,*,#909,.F.);
#943 = TOROIDAL_SURFACE('',#944,25.35,10.);
#944 = AXIS2_PLACEMENT_3D('',#945,#946,#947);
#945 = CARTESIAN_POINT('',(0.,0.,0.));
#946 = DIRECTION('',(-0.,-0.,-1.));
#947 = DIRECTION('',(1.,0.,0.));
#948 = ( GEOMETRIC_REPRESENTATION_CONTEXT(3) 
GLOBAL_UNCERTAINTY_ASSIGNED_CONTEXT((#952)) GLOBAL_UNIT_ASSIGNED_CONTEXT
((#949,#950,#951)) REPRESENTATION_CONTEXT('Context #1',
  '3D Context with UNIT and UNCERTAINTY') );
#949 = ( LENGTH_UNIT() NAMED_UNIT(*) SI_UNIT(.MILLI.,.METRE.) );
#950 = ( NAMED_UNIT(*) PLANE_ANGLE_UNIT() SI_UNIT($,.RADIAN.) );
#951 = ( NAMED_UNIT(*) SI_UNIT($,.STERADIAN.) SOLID_ANGLE_UNIT() );
#952 = UNCERTAINTY_MEASURE_WITH_UNIT(LENGTH_MEASURE(2.E-04),#949,
  'distance_accuracy_value','confusion accuracy');
#953 = PRODUCT_RELATED_PRODUCT_CATEGORY('part',$,(#7));
#954 = MECHANICAL_DESIGN_GEOMETRIC_PRESENTATION_REPRESENTATION('',(#955)
  ,#948);
#955 = STYLED_ITEM('color',(#956),#15);
#956 = PRESENTATION_STYLE_ASSIGNMENT((#957,#963));
#957 = SURFACE_STYLE_USAGE(.BOTH.,#958);
#958 = SURFACE_SIDE_STYLE('',(#959));
#959 = SURFACE_STYLE_FILL_AREA(#960);
#960 = FILL_AREA_STYLE('',(#961));
#961 = FILL_AREA_STYLE_COLOUR('',#962);
#962 = COLOUR_RGB('',0.447058818107,0.474509808674,0.501960817233);
#963 = CURVE_STYLE('',#964,POSITIVE_LENGTH_MEASURE(0.1),#965);
#964 = DRAUGHTING_PRE_DEFINED_CURVE_FONT('continuous');
#965 = COLOUR_RGB('',9.803921802644E-02,9.803921802644E-02,
  9.803921802644E-02);
ENDSEC;
END-ISO-10303-21;
