<?xml version="1.0" encoding="UTF-8" standalone="no"?>
<!DOCTYPE svg PUBLIC "-//W3C//DTD SVG 1.1//EN" "http://www.w3.org/Graphics/SVG/1.1/DTD/svg11.dtd">
<svg width="100%" height="100%" viewBox="0 0 2000 1200" version="1.1" xmlns="http://www.w3.org/2000/svg" xmlns:xlink="http://www.w3.org/1999/xlink" xml:space="preserve" xmlns:serif="http://www.serif.com/" style="fill-rule:evenodd;clip-rule:evenodd;stroke-linecap:round;stroke-linejoin:round;stroke-miterlimit:1.5;">
    <g transform="matrix(1,0,0,1.018072,-306,-22.807229)">
        <path d="M2145.51,930C1986.945,931.966 1981.06,784.611 2121.293,782.663C2131.683,730.134 2225.638,711.032 2201.293,831.775C2193.011,872.85 2180.088,892.398 2175.437,907.746C2171.659,920.909 2159.432,929.827 2145.51,930Z" style="fill:rgb(17,131,165);"/>
    </g>
    <g transform="matrix(-1,0,0,1.018072,3445.37329,-22.807229)">
        <path d="M2145.51,930C1986.945,931.966 1981.06,784.611 2121.293,782.663C2131.683,730.134 2225.638,711.032 2201.293,831.775C2193.011,872.85 2180.088,892.398 2175.437,907.746C2171.659,920.909 2159.432,929.827 2145.51,930Z" style="fill:rgb(17,131,165);"/>
    </g>
    <g transform="matrix(3,0,0,3,-1364,-214.815112)">
        <path d="M590,280C605.022,257.639 639.674,180.89 640,180C655.491,137.786 712.846,159.972 715,180C715.207,181.925 722.744,282.938 722.744,282.938" style="fill:none;stroke:rgb(93,215,251);stroke-width:4.17px;"/>
    </g>
    <g transform="matrix(3,0,0,3,-1364,-214.815112)">
        <path d="M722.621,281.308C726.331,330.869 730,380 730,380" style="fill:none;stroke:rgb(93,215,251);stroke-width:1.39px;"/>
    </g>
    <g transform="matrix(3,0,0,3,-1314,-214.815112)">
        <g transform="matrix(0.333333,-0,-0,0.333333,438,71.605037)">
            <path d="M861.263,539.589L847.941,549.988L833.217,541.69" style="fill:none;stroke:rgb(10,74,94);stroke-width:6.25px;stroke-linejoin:miter;stroke-miterlimit:10;"/>
            <path d="M833.029,351.536C835.936,389.888 841.627,465.708 847.941,549.988" style="fill:none;stroke:rgb(10,74,94);stroke-width:6.25px;"/>
        </g>
    </g>
    <g transform="matrix(3,0,0,3,-1364,-214.815112)">
        <path d="M570,300C570,300 523.333,336.667 520,360C516.667,383.333 544.883,430 544.883,430" style="fill:none;stroke:rgb(93,215,251);stroke-width:4.17px;"/>
    </g>
    <g transform="matrix(3,0,0,3,-520,-214.815112)">
        <path d="M624.667,319.605C624.667,319.605 592.685,339.382 591.883,362.938C591.081,386.502 591.333,430 591.333,430" style="fill:none;stroke:rgb(93,215,251);stroke-width:4.17px;"/>
    </g>
    <g transform="matrix(3,0,0,3,-1559,-244.815112)">
        <circle cx="785" cy="395" r="15" style="fill:rgb(10,74,94);"/>
    </g>
    <g transform="matrix(1,0,0,1,-1364,-214.815112)">
        <g transform="matrix(1,-0,-0,1,1364,214.815112)">
            <path d="M768.436,854.959L780.505,866.79L774.226,882.482" style="fill:none;stroke:rgb(10,74,94);stroke-width:6.25px;stroke-linejoin:miter;stroke-miterlimit:10;"/>
            <path d="M787.148,1014.667C749.92,1010.282 721,978.584 721,940.185C721,904.103 746.535,873.937 780.505,866.79" style="fill:none;stroke:rgb(10,74,94);stroke-width:6.25px;"/>
        </g>
    </g>
    <g transform="matrix(2.836711,-2.836711,3.394113,3.394113,-2160.122917,1324.545903)">
        <path d="M580,273.986L580,276.014C580,278.214 577.863,280 575.231,280L554.769,280C552.137,280 550,278.214 550,276.014L550,273.986C550,271.786 552.137,270 554.769,270L575.231,270C577.863,270 580,271.786 580,273.986Z" style="fill:rgb(17,131,165);"/>
    </g>
    <g transform="matrix(3,0,0,3,-1634,-214.815112)">
        <path d="M830,100C847.018,105.533 810.427,145.128 805,170C805,170 769.825,334.151 761.673,372.194C760.697,376.747 756.673,380 752.017,380C723.558,380 627.233,380 598.291,380C592.521,380 587.167,377 584.155,372.079C578.224,362.399 572.205,345.958 590,335C628.85,311.077 654.949,318.27 720,330C699.667,230.94 778.906,211.766 750.36,175.36C721.813,138.953 789.767,86.918 830,100Z" style="fill:rgb(17,131,165);"/>
    </g>
    <g transform="matrix(2.645907,-1.413922,1.413922,2.645907,-1749.363479,700.50803)">
        <path d="M540,417.5L540,437.5C540,438.88 538.88,440 537.5,440L532.5,440C531.12,440 530,438.88 530,437.5L530,417.5C530,416.12 531.12,415 532.5,415L537.5,415C538.88,415 540,416.12 540,417.5Z" style="fill:rgb(17,131,165);"/>
    </g>
    <g transform="matrix(2.993412,-0.198701,0.161749,2.436738,-866.854617,-302.853295)">
        <path d="M540,418.071L540,436.929C540,438.624 538.88,440 537.5,440L532.5,440C531.12,440 530,438.624 530,436.929L530,418.071C530,416.376 531.12,415 532.5,415L537.5,415C538.88,415 540,416.376 540,418.071Z" style="fill:rgb(10,74,94);"/>
    </g>
    <g transform="matrix(3,0,0,3,-1375.343845,-151.012052)">
        <g transform="matrix(20.833333,0,0,20.833333,816.77355,371.144667)">
        </g>
        <text x="750.235px" y="371.145px" style="font-family:'Bahnschrift-Regular', 'Bahnschrift', sans-serif;font-size:20.833px;fill:rgb(10,74,94);">MOTO<tspan x="803.193px " y="371.145px ">R</tspan></text>
    </g>
    <g transform="matrix(3,0,0,3,-1399.343845,-460.053291)">
        <g transform="matrix(20.833333,0,0,20.833333,817.760285,371.144667)">
        </g>
        <text x="750.235px" y="371.145px" style="font-family:'Bahnschrift-Regular', 'Bahnschrift', sans-serif;font-size:20.833px;fill:rgb(10,74,94);">C<tspan x="762.92px 775.066px " y="371.145px 371.145px ">LA</tspan>MP</text>
    </g>
    <g transform="matrix(3,0,0,3,-350.351474,-189.315112)">
        <path d="M540,417.5L540,437.5C540,438.88 538.88,440 537.5,440L532.5,440C531.12,440 530,438.88 530,437.5L530,417.5C530,416.12 531.12,415 532.5,415L537.5,415C538.88,415 540,416.12 540,417.5Z" style="fill:rgb(17,131,165);"/>
    </g>
    <g transform="matrix(-3,0,0,3,3659.648526,-214.815112)">
        <path d="M624.667,319.605C624.667,319.605 592.685,339.382 591.883,362.938C591.081,386.502 591.333,430 591.333,430" style="fill:none;stroke:rgb(93,215,251);stroke-width:4.17px;"/>
    </g>
    <g transform="matrix(-3,0,0,3,3490,-189.315112)">
        <path d="M540,417.5L540,437.5C540,438.88 538.88,440 537.5,440L532.5,440C531.12,440 530,438.88 530,437.5L530,417.5C530,416.12 531.12,415 532.5,415L537.5,415C538.88,415 540,416.12 540,417.5Z" style="fill:rgb(17,131,165);"/>
    </g>
    <g transform="matrix(3,0,0,3,-1304,-214.815112)">
        <path d="M560,290C619.287,348.818 639.313,386.214 649.114,422.938" style="fill:rgb(17,131,165);stroke:rgb(93,215,251);stroke-width:25px;stroke-linecap:butt;"/>
    </g>
    <g transform="matrix(0.80034,-0.221584,-0.140959,-0.509132,79.514828,1843.601129)">
        <path d="M894.5,1049.315L850.5,1132.315C846.134,1140.549 845.193,1152.01 848.085,1161.717C850.978,1171.425 857.181,1177.625 864,1177.625L952,1177.625C958.819,1177.625 965.022,1171.425 967.915,1161.717C970.807,1152.01 969.866,1140.549 965.5,1132.315L921.5,1049.315C918.162,1043.016 913.216,1039.375 908,1039.375C902.784,1039.375 897.838,1043.016 894.5,1049.315ZM908.084,1115.458C900.859,1115.458 894.994,1106.238 894.994,1094.881C894.994,1083.524 900.859,1074.304 908.084,1074.304C915.308,1074.304 921.174,1083.524 921.174,1094.881C921.174,1106.238 915.308,1115.458 908.084,1115.458Z" style="fill:rgb(17,131,165);"/>
    </g>
    <g transform="matrix(1,0,0,1,-289,-306)">
        <path d="M1760,562L1760,620" style="fill:none;stroke:rgb(93,215,251);stroke-width:75px;stroke-linecap:butt;"/>
    </g>
    <g transform="matrix(1,0,0,1,-90,-306)">
        <path d="M1760,562L1760,620" style="fill:none;stroke:rgb(93,215,251);stroke-width:75px;stroke-linecap:butt;"/>
    </g>
    <g transform="matrix(1,0,0,1,-189.353509,448)">
        <path d="M1760,312L1760,620" style="fill:none;stroke:rgb(93,215,251);stroke-width:75px;stroke-linecap:butt;"/>
    </g>
    <g transform="matrix(0.981328,0,0,1.018072,-265.083993,-22.807229)">
        <path d="M1941.293,100C1941.293,100 2084.434,86.13 2131.293,222.781C2157.788,300.046 2106.144,318.07 2071.293,379.941C2055.262,408.4 2114.94,519.895 2121.293,782.663C2123.303,865.805 2180.088,892.398 2175.437,907.746C2171.659,920.909 2159.433,930 2145.51,930L1594.49,930C1580.567,930 1568.341,920.909 1564.563,907.746C1559.912,892.398 1616.697,865.805 1618.707,782.663C1625.06,519.895 1684.738,408.4 1668.707,379.941C1633.856,318.07 1582.212,300.046 1608.707,222.781C1655.566,86.13 1798.707,100 1798.707,100L1941.293,100ZM1826.747,309.385C1824.571,298.756 1814.018,291.862 1803.196,294L1724.767,309.494C1713.945,311.631 1706.926,321.997 1709.103,332.626C1711.279,343.256 1721.832,350.15 1732.654,348.012L1811.083,332.518C1821.905,330.38 1828.924,320.015 1826.747,309.385ZM1913.253,309.385C1911.076,320.015 1918.095,330.38 1928.917,332.518L2007.346,348.012C2018.168,350.15 2028.721,343.256 2030.897,332.626C2033.074,321.997 2026.055,311.631 2015.233,309.494L1936.804,294C1925.982,291.862 1915.429,298.756 1913.253,309.385Z" style="fill:rgb(17,131,165);"/>
    </g>
    <g transform="matrix(1,0,0,1,-289,-6)">
        <path d="M1760,312L1760,620" style="fill:none;stroke:rgb(93,215,251);stroke-width:75px;stroke-linecap:butt;"/>
    </g>
    <g transform="matrix(1,0,0,1,-90,-6)">
        <path d="M1760,312L1760,620" style="fill:none;stroke:rgb(93,215,251);stroke-width:75px;stroke-linecap:butt;"/>
    </g>
    <g transform="matrix(1,0,0,1,-289,324)">
        <path d="M1760,312L1760,620" style="fill:none;stroke:rgb(93,215,251);stroke-width:4.17px;"/>
    </g>
    <g transform="matrix(1,0,0,1,-90,324)">
        <path d="M1760,312L1760,620" style="fill:none;stroke:rgb(93,215,251);stroke-width:4.17px;"/>
    </g>
    <g transform="matrix(0.830448,-0,-0,-0.528285,817.087031,1680.121832)">
        <path d="M894.5,1049.315L850.5,1132.315C846.134,1140.549 845.193,1152.01 848.085,1161.717C850.978,1171.425 857.181,1177.625 864,1177.625L952,1177.625C958.819,1177.625 965.022,1171.425 967.915,1161.717C970.807,1152.01 969.866,1140.549 965.5,1132.315L921.5,1049.315C918.162,1043.016 913.216,1039.375 908,1039.375C902.784,1039.375 897.838,1043.016 894.5,1049.315ZM908.084,1115.458C900.859,1115.458 894.994,1106.238 894.994,1094.881C894.994,1083.524 900.859,1074.304 908.084,1074.304C915.308,1074.304 921.174,1083.524 921.174,1094.881C921.174,1106.238 915.308,1115.458 908.084,1115.458Z" style="fill:rgb(17,131,165);"/>
    </g>
    <g transform="matrix(1,0,0,1,-299,-6)">
        <path d="M1820,618.438L1810,656.136C1810,662.132 1805.132,667 1799.136,667L1740.864,667C1734.868,667 1730,662.132 1730,656.136L1720,618.438C1720,612.442 1724.868,607.575 1730.864,607.575L1809.136,607.575C1815.132,607.575 1820,612.442 1820,618.438Z" style="fill:rgb(10,74,94);"/>
    </g>
    <g transform="matrix(1,0,0,1,-100,-6)">
        <path d="M1820,618.438L1810,656.136C1810,662.132 1805.132,667 1799.136,667L1740.864,667C1734.868,667 1730,662.132 1730,656.136L1720,618.438C1720,612.442 1724.868,607.575 1730.864,607.575L1809.136,607.575C1815.132,607.575 1820,612.442 1820,618.438Z" style="fill:rgb(10,74,94);"/>
    </g>
    <g transform="matrix(1,0,0,1,-269,-6)">
        <path d="M1760,907.185L1760,985.185C1760,988.496 1757.311,991.185 1754,991.185L1726,991.185C1722.689,991.185 1720,988.496 1720,985.185L1720,907.185C1720,903.873 1722.689,901.185 1726,901.185L1754,901.185C1757.311,901.185 1760,903.873 1760,907.185Z" style="fill:rgb(10,74,94);"/>
    </g>
    <g transform="matrix(1.125,0,0,0.911111,-455,78.105323)">
        <path d="M1760,903.654L1760,988.715C1760,990.078 1759.104,991.185 1758,991.185L1722,991.185C1720.896,991.185 1720,990.078 1720,988.715L1720,903.654C1720,902.291 1720.896,901.185 1722,901.185L1758,901.185C1759.104,901.185 1760,902.291 1760,903.654Z" style="fill:rgb(10,74,94);"/>
    </g>
    <g transform="matrix(-1,0,0,1,3410,-6)">
        <path d="M1760,907.185L1760,985.185C1760,988.496 1757.311,991.185 1754,991.185L1726,991.185C1722.689,991.185 1720,988.496 1720,985.185L1720,907.185C1720,903.873 1722.689,901.185 1726,901.185L1754,901.185C1757.311,901.185 1760,903.873 1760,907.185Z" style="fill:rgb(10,74,94);"/>
    </g>
    <g transform="matrix(-1.125,0,0,0.911111,3596,78.105323)">
        <path d="M1760,903.654L1760,988.715C1760,990.078 1759.104,991.185 1758,991.185L1722,991.185C1720.896,991.185 1720,990.078 1720,988.715L1720,903.654C1720,902.291 1720.896,901.185 1722,901.185L1758,901.185C1759.104,901.185 1760,902.291 1760,903.654Z" style="fill:rgb(10,74,94);"/>
    </g>
</svg>
