ISO-10303-21;
HEADER;
FILE_DESCRIPTION(('FreeCAD Model'),'2;1');
FILE_NAME('Open CASCADE Shape Model','2026-08-02T12:28:54',(''),(''),
  'Open CASCADE STEP processor 7.8','FreeCAD','Unknown');
FILE_SCHEMA(('AUTOMOTIVE_DESIGN { 1 0 10303 214 1 1 1 1 }'));
ENDSEC;
DATA;
#1 = APPLICATION_PROTOCOL_DEFINITION('international standard',
  'automotive_design',2000,#2);
#2 = APPLICATION_CONTEXT(
  'core data for automotive mechanical design processes');
#3 = SHAPE_DEFINITION_REPRESENTATION(#4,#10);
#4 = PRODUCT_DEFINITION_SHAPE('','',#5);
#5 = PRODUCT_DEFINITION('design','',#6,#9);
#6 = PRODUCT_DEFINITION_FORMATION('','',#7);
#7 = PRODUCT('Fillet003','Fillet003','',(#8));
#8 = PRODUCT_CONTEXT('',#2,'mechanical');
#9 = PRODUCT_DEFINITION_CONTEXT('part definition',#2,'design');
#10 = ADVANCED_BREP_SHAPE_REPRESENTATION('',(#11,#15),#1498);
#11 = AXIS2_PLACEMENT_3D('',#12,#13,#14);
#12 = CARTESIAN_POINT('',(0.,0.,0.));
#13 = DIRECTION('',(0.,0.,1.));
#14 = DIRECTION('',(1.,0.,-0.));
#15 = MANIFOLD_SOLID_BREP('',#16);
#16 = CLOSED_SHELL('',(#17,#103,#216,#286,#319,#352,#385,#418,#428,#453,
    #479,#505,#539,#565,#669,#695,#799,#830,#848,#866,#899,#917,#951,
    #975,#1000,#1012,#1038,#1064,#1090,#1115,#1133,#1151,#1185,#1209,
    #1234,#1246,#1272,#1298,#1324,#1349,#1367,#1384,#1401,#1418,#1435,
    #1452,#1469,#1486));
#17 = ADVANCED_FACE('',(#18,#64),#98,.T.);
#18 = FACE_BOUND('',#19,.T.);
#19 = EDGE_LOOP('',(#20,#30,#38,#46));
#20 = ORIENTED_EDGE('',*,*,#21,.F.);
#21 = EDGE_CURVE('',#22,#24,#26,.T.);
#22 = VERTEX_POINT('',#23);
#23 = CARTESIAN_POINT('',(8.100782949089,3.921392050249,0.));
#24 = VERTEX_POINT('',#25);
#25 = CARTESIAN_POINT('',(8.100782949089,7.918255304165,0.));
#26 = LINE('',#27,#28);
#27 = CARTESIAN_POINT('',(8.100782949089,-7.5,-5.E-16));
#28 = VECTOR('',#29,1.);
#29 = DIRECTION('',(-1.48E-15,1.,-0.));
#30 = ORIENTED_EDGE('',*,*,#31,.T.);
#31 = EDGE_CURVE('',#22,#32,#34,.T.);
#32 = VERTEX_POINT('',#33);
#33 = CARTESIAN_POINT('',(8.100782949089,-3.921392050249,0.));
#34 = LINE('',#35,#36);
#35 = CARTESIAN_POINT('',(8.100782949089,-7.5,-5.E-16));
#36 = VECTOR('',#37,1.);
#37 = DIRECTION('',(1.48E-15,-1.,0.));
#38 = ORIENTED_EDGE('',*,*,#39,.T.);
#39 = EDGE_CURVE('',#32,#40,#42,.T.);
#40 = VERTEX_POINT('',#41);
#41 = CARTESIAN_POINT('',(8.100782949087,-7.918255304165,1.6E-14));
#42 = LINE('',#43,#44);
#43 = CARTESIAN_POINT('',(8.100782949089,-7.5,-5.E-16));
#44 = VECTOR('',#45,1.);
#45 = DIRECTION('',(1.48E-15,-1.,0.));
#46 = ORIENTED_EDGE('',*,*,#47,.F.);
#47 = EDGE_CURVE('',#24,#40,#48,.T.);
#48 = ( BOUNDED_CURVE() B_SPLINE_CURVE(14,(#49,#50,#51,#52,#53,#54,#55,
    #56,#57,#58,#59,#60,#61,#62,#63),.UNSPECIFIED.,.F.,.F.) 
B_SPLINE_CURVE_WITH_KNOTS((15,15),(1.20036915073,48.026332233575),
.PIECEWISE_BEZIER_KNOTS.) CURVE() GEOMETRIC_REPRESENTATION_ITEM() 
RATIONAL_B_SPLINE_CURVE((1.,1.,1.,1.,1.,1.,0.999999999999,1.000000000001
    ,0.999999999999,1.000000000001,0.999999999999,1.000000000001,1.,1.,
1.)) REPRESENTATION_ITEM('') );
#49 = CARTESIAN_POINT('',(9.479892149718,6.305007824492,-0.331491132217)
  );
#50 = CARTESIAN_POINT('',(7.09023112035,9.719093528427,0.242902425507));
#51 = CARTESIAN_POINT('',(3.333732569511,12.121030958848,1.145837419505)
  );
#52 = CARTESIAN_POINT('',(-1.27266841962,12.874285695506,2.253060167802)
  );
#53 = CARTESIAN_POINT('',(-5.866202879727,11.732673257947,3.357190238423
    ));
#54 = CARTESIAN_POINT('',(-9.758632068015,9.025483190966,4.292798352748)
  );
#55 = CARTESIAN_POINT('',(-12.53166491609,4.939869137399,4.959341508395)
  );
#56 = CARTESIAN_POINT('',(-13.51416385745,-8.117951E-11,5.195500970037)
  );
#57 = CARTESIAN_POINT('',(-12.5316649161,-4.939869137255,4.959341508398)
  );
#58 = CARTESIAN_POINT('',(-9.758632068007,-9.025483191066,4.292798352744
    ));
#59 = CARTESIAN_POINT('',(-5.866202879731,-11.73267325789,3.357190238426
    ));
#60 = CARTESIAN_POINT('',(-1.272668419619,-12.87428569553,2.253060167801
    ));
#61 = CARTESIAN_POINT('',(3.333732569512,-12.12103095884,1.145837419505)
  );
#62 = CARTESIAN_POINT('',(7.09023112035,-9.719093528429,0.242902425507)
  );
#63 = CARTESIAN_POINT('',(9.479892149718,-6.305007824492,-0.331491132217
    ));
#64 = FACE_BOUND('',#65,.T.);
#65 = EDGE_LOOP('',(#66,#76,#84,#92));
#66 = ORIENTED_EDGE('',*,*,#67,.T.);
#67 = EDGE_CURVE('',#68,#70,#72,.T.);
#68 = VERTEX_POINT('',#69);
#69 = CARTESIAN_POINT('',(9.479892149718,-14.,-0.331491132217));
#70 = VERTEX_POINT('',#71);
#71 = CARTESIAN_POINT('',(9.479892149718,14.,-0.331491132217));
#72 = LINE('',#73,#74);
#73 = CARTESIAN_POINT('',(9.479892149718,-15.,-0.331491132217));
#74 = VECTOR('',#75,1.);
#75 = DIRECTION('',(0.,1.,0.));
#76 = ORIENTED_EDGE('',*,*,#77,.F.);
#77 = EDGE_CURVE('',#78,#70,#80,.T.);
#78 = VERTEX_POINT('',#79);
#79 = CARTESIAN_POINT('',(-31.17905860785,14.,9.441543240433));
#80 = LINE('',#81,#82);
#81 = CARTESIAN_POINT('',(-31.17905860785,14.,9.441543240433));
#82 = VECTOR('',#83,1.);
#83 = DIRECTION('',(0.972306460647,1.4E-16,-0.233709534644));
#84 = ORIENTED_EDGE('',*,*,#85,.F.);
#85 = EDGE_CURVE('',#86,#78,#88,.T.);
#86 = VERTEX_POINT('',#87);
#87 = CARTESIAN_POINT('',(-31.17905860785,-14.,9.441543240433));
#88 = LINE('',#89,#90);
#89 = CARTESIAN_POINT('',(-31.17905860785,-15.,9.441543240433));
#90 = VECTOR('',#91,1.);
#91 = DIRECTION('',(0.,1.,0.));
#92 = ORIENTED_EDGE('',*,*,#93,.T.);
#93 = EDGE_CURVE('',#86,#68,#94,.T.);
#94 = LINE('',#95,#96);
#95 = CARTESIAN_POINT('',(-31.17905860785,-14.,9.441543240433));
#96 = VECTOR('',#97,1.);
#97 = DIRECTION('',(0.972306460647,1.4E-16,-0.233709534644));
#98 = PLANE('',#99);
#99 = AXIS2_PLACEMENT_3D('',#100,#101,#102);
#100 = CARTESIAN_POINT('',(9.479892149718,-15.,-0.331491132217));
#101 = DIRECTION('',(0.233709534644,0.,0.972306460647));
#102 = DIRECTION('',(-0.972306460647,0.,0.233709534644));
#103 = ADVANCED_FACE('',(#104,#200),#211,.T.);
#104 = FACE_BOUND('',#105,.T.);
#105 = EDGE_LOOP('',(#106,#117,#157,#158,#159,#160));
#106 = ORIENTED_EDGE('',*,*,#107,.T.);
#107 = EDGE_CURVE('',#108,#110,#112,.T.);
#108 = VERTEX_POINT('',#109);
#109 = CARTESIAN_POINT('',(-0.373699143107,8.992238261436,0.));
#110 = VERTEX_POINT('',#111);
#111 = CARTESIAN_POINT('',(-0.373699143107,-8.992238261436,0.));
#112 = CIRCLE('',#113,9.);
#113 = AXIS2_PLACEMENT_3D('',#114,#115,#116);
#114 = CARTESIAN_POINT('',(0.,0.,0.));
#115 = DIRECTION('',(0.,0.,1.));
#116 = DIRECTION('',(1.,0.,0.));
#117 = ORIENTED_EDGE('',*,*,#118,.F.);
#118 = EDGE_CURVE('',#40,#110,#119,.T.);
#119 = B_SPLINE_CURVE_WITH_KNOTS('',8,(#120,#121,#122,#123,#124,#125,
    #126,#127,#128,#129,#130,#131,#132,#133,#134,#135,#136,#137,#138,
    #139,#140,#141,#142,#143,#144,#145,#146,#147,#148,#149,#150,#151,
    #152,#153,#154,#155,#156),.UNSPECIFIED.,.F.,.F.,(9,7,7,7,7,9),(0.,
    0.188890257254,0.41073946171,0.639262753775,0.98086166053,1.),
  .UNSPECIFIED.);
#120 = CARTESIAN_POINT('',(8.100782949102,-7.918255304158,0.));
#121 = CARTESIAN_POINT('',(8.100782949102,-7.816706095522,0.));
#122 = CARTESIAN_POINT('',(8.087338584383,-7.724489195527,0.));
#123 = CARTESIAN_POINT('',(8.059411707731,-7.643370451571,0.));
#124 = CARTESIAN_POINT('',(8.016034778479,-7.575086489036,0.));
#125 = CARTESIAN_POINT('',(7.95637936309,-7.521193716254,0.));
#126 = CARTESIAN_POINT('',(7.879864887611,-7.482770287347,0.));
#127 = CARTESIAN_POINT('',(7.786263837113,-7.460168156431,0.));
#128 = CARTESIAN_POINT('',(7.545973773024,-7.444607960851,0.));
#129 = CARTESIAN_POINT('',(7.392848377736,-7.457509489734,0.));
#130 = CARTESIAN_POINT('',(7.216671893752,-7.491120716603,0.));
#131 = CARTESIAN_POINT('',(7.018417549563,-7.543462683712,0.));
#132 = CARTESIAN_POINT('',(6.799712126495,-7.611243320051,0.));
#133 = CARTESIAN_POINT('',(6.562649701935,-7.690693100963,0.));
#134 = CARTESIAN_POINT('',(6.309542522036,-7.778170466614,0.));
#135 = CARTESIAN_POINT('',(5.767909069389,-7.965421118393,0.));
#136 = CARTESIAN_POINT('',(5.478528163103,-8.065491846915,0.));
#137 = CARTESIAN_POINT('',(5.177068582542,-8.167083026237,0.));
#138 = CARTESIAN_POINT('',(4.866069923021,-8.267080019944,0.));
#139 = CARTESIAN_POINT('',(4.547964475718,-8.363068689349,0.));
#140 = CARTESIAN_POINT('',(4.22496551922,-8.453317243665,0.));
#141 = CARTESIAN_POINT('',(3.899014183885,-8.536631634056,0.));
#142 = CARTESIAN_POINT('',(3.082628392465,-8.725294583821,0.));
#143 = CARTESIAN_POINT('',(2.590668942247,-8.821133704616,0.));
#144 = CARTESIAN_POINT('',(2.101598342697,-8.897211793129,0.));
#145 = CARTESIAN_POINT('',(1.619881932952,-8.953122500501,0.));
#146 = CARTESIAN_POINT('',(1.148702235295,-8.989726205201,0.));
#147 = CARTESIAN_POINT('',(0.690285524248,-9.008421485134,0.));
#148 = CARTESIAN_POINT('',(0.246131279501,-9.010886493824,0.));
#149 = CARTESIAN_POINT('',(-0.206826861732,-8.998201536283,0.));
#150 = CARTESIAN_POINT('',(-0.230810132991,-8.997483112339,0.));
#151 = CARTESIAN_POINT('',(-0.254745539393,-8.996719552647,0.));
#152 = CARTESIAN_POINT('',(-0.278632922083,-8.995911165764,0.));
#153 = CARTESIAN_POINT('',(-0.30247212743,-8.995058260811,0.));
#154 = CARTESIAN_POINT('',(-0.32626300704,-8.994161147469,0.));
#155 = CARTESIAN_POINT('',(-0.350005417745,-8.993220135986,0.));
#156 = CARTESIAN_POINT('',(-0.373699221608,-8.992235537167,0.));
#157 = ORIENTED_EDGE('',*,*,#39,.F.);
#158 = ORIENTED_EDGE('',*,*,#31,.F.);
#159 = ORIENTED_EDGE('',*,*,#21,.T.);
#160 = ORIENTED_EDGE('',*,*,#161,.T.);
#161 = EDGE_CURVE('',#24,#108,#162,.T.);
#162 = B_SPLINE_CURVE_WITH_KNOTS('',8,(#163,#164,#165,#166,#167,#168,
    #169,#170,#171,#172,#173,#174,#175,#176,#177,#178,#179,#180,#181,
    #182,#183,#184,#185,#186,#187,#188,#189,#190,#191,#192,#193,#194,
    #195,#196,#197,#198,#199),.UNSPECIFIED.,.F.,.F.,(9,7,7,7,7,9),(0.,
    0.188890257254,0.410739461708,0.639262753771,0.980861660529,1.),
  .UNSPECIFIED.);
#163 = CARTESIAN_POINT('',(8.100782949089,7.918255304165,0.));
#164 = CARTESIAN_POINT('',(8.100782949089,7.81670609553,0.));
#165 = CARTESIAN_POINT('',(8.087338584378,7.724489195528,0.));
#166 = CARTESIAN_POINT('',(8.059411707714,7.643370451581,0.));
#167 = CARTESIAN_POINT('',(8.016034778467,7.575086489044,0.));
#168 = CARTESIAN_POINT('',(7.956379363085,7.521193716257,0.));
#169 = CARTESIAN_POINT('',(7.879864887598,7.482770287356,0.));
#170 = CARTESIAN_POINT('',(7.786263837103,7.460168156438,0.));
#171 = CARTESIAN_POINT('',(7.545973773016,7.444607960858,0.));
#172 = CARTESIAN_POINT('',(7.392848377724,7.457509489739,0.));
#173 = CARTESIAN_POINT('',(7.216671893753,7.49112071661,0.));
#174 = CARTESIAN_POINT('',(7.018417549546,7.543462683716,0.));
#175 = CARTESIAN_POINT('',(6.799712126497,7.611243320056,0.));
#176 = CARTESIAN_POINT('',(6.562649701927,7.690693100967,0.));
#177 = CARTESIAN_POINT('',(6.309542522033,7.778170466618,0.));
#178 = CARTESIAN_POINT('',(5.767909069385,7.965421118396,0.));
#179 = CARTESIAN_POINT('',(5.478528163104,8.065491846916,0.));
#180 = CARTESIAN_POINT('',(5.177068582538,8.16708302624,0.));
#181 = CARTESIAN_POINT('',(4.866069923019,8.267080019946,0.));
#182 = CARTESIAN_POINT('',(4.547964475719,8.363068689349,0.));
#183 = CARTESIAN_POINT('',(4.224965519217,8.453317243666,0.));
#184 = CARTESIAN_POINT('',(3.899014183885,8.536631634056,0.));
#185 = CARTESIAN_POINT('',(3.082628392456,8.725294583823,0.));
#186 = CARTESIAN_POINT('',(2.590668942281,8.82113370461,0.));
#187 = CARTESIAN_POINT('',(2.101598342632,8.89721179314,0.));
#188 = CARTESIAN_POINT('',(1.619881933033,8.953122500491,0.));
#189 = CARTESIAN_POINT('',(1.148702235235,8.989726205206,0.));
#190 = CARTESIAN_POINT('',(0.690285524278,9.008421485132,0.));
#191 = CARTESIAN_POINT('',(0.246131279495,9.010886493824,0.));
#192 = CARTESIAN_POINT('',(-0.206826861731,8.998201536282,0.));
#193 = CARTESIAN_POINT('',(-0.23081013299,8.997483112339,0.));
#194 = CARTESIAN_POINT('',(-0.254745539393,8.996719552647,0.));
#195 = CARTESIAN_POINT('',(-0.278632922082,8.995911165764,0.));
#196 = CARTESIAN_POINT('',(-0.30247212743,8.99505826081,0.));
#197 = CARTESIAN_POINT('',(-0.326263007039,8.994161147469,0.));
#198 = CARTESIAN_POINT('',(-0.350005417744,8.993220135985,0.));
#199 = CARTESIAN_POINT('',(-0.373699221607,8.992235537167,0.));
#200 = FACE_BOUND('',#201,.T.);
#201 = EDGE_LOOP('',(#202));
#202 = ORIENTED_EDGE('',*,*,#203,.T.);
#203 = EDGE_CURVE('',#204,#204,#206,.T.);
#204 = VERTEX_POINT('',#205);
#205 = CARTESIAN_POINT('',(3.2,-1.E-15,0.));
#206 = CIRCLE('',#207,3.2);
#207 = AXIS2_PLACEMENT_3D('',#208,#209,#210);
#208 = CARTESIAN_POINT('',(-1.079E-14,-2.9E-16,0.));
#209 = DIRECTION('',(-1.1E-16,-5.E-17,-1.));
#210 = DIRECTION('',(1.,1.1E-16,-1.1E-16));
#211 = PLANE('',#212);
#212 = AXIS2_PLACEMENT_3D('',#213,#214,#215);
#213 = CARTESIAN_POINT('',(0.,0.,0.));
#214 = DIRECTION('',(0.,0.,1.));
#215 = DIRECTION('',(1.,0.,0.));
#216 = ADVANCED_FACE('',(#217),#240,.F.);
#217 = FACE_BOUND('',#218,.F.);
#218 = EDGE_LOOP('',(#219,#220,#238,#239));
#219 = ORIENTED_EDGE('',*,*,#161,.T.);
#220 = ORIENTED_EDGE('',*,*,#221,.T.);
#221 = EDGE_CURVE('',#108,#110,#222,.T.);
#222 = ( BOUNDED_CURVE() B_SPLINE_CURVE(14,(#223,#224,#225,#226,#227,
    #228,#229,#230,#231,#232,#233,#234,#235,#236,#237),.UNSPECIFIED.,.F.
,.F.) B_SPLINE_CURVE_WITH_KNOTS((15,15),(1.20036915073,48.026332233575),
.PIECEWISE_BEZIER_KNOTS.) CURVE() GEOMETRIC_REPRESENTATION_ITEM() 
RATIONAL_B_SPLINE_CURVE((1.,1.,1.,1.,1.,1.,0.999999999999,1.000000000001
    ,0.999999999999,1.000000000001,0.999999999999,1.000000000001,1.,1.,
1.)) REPRESENTATION_ITEM('') );
#223 = CARTESIAN_POINT('',(7.341772712017,5.205609805305,-2.266923945133
    ));
#224 = CARTESIAN_POINT('',(5.353675355291,8.009538541486,-1.683030054995
    ));
#225 = CARTESIAN_POINT('',(2.241908004281,9.953505623231,-0.768846610882
    ));
#226 = CARTESIAN_POINT('',(-1.535856981458,10.517131200064,0.34142611563
    ));
#227 = CARTESIAN_POINT('',(-5.264230619271,9.509942978122,1.438370583113
    ));
#228 = CARTESIAN_POINT('',(-8.343568106183,7.365833866355,2.339906703271
    ));
#229 = CARTESIAN_POINT('',(-10.73829653079,3.919385476567,3.047861233122
    ));
#230 = CARTESIAN_POINT('',(-11.20911666543,-9.202239E-11,3.178783065918)
  );
#231 = CARTESIAN_POINT('',(-10.73829653079,-3.919385476404,
    3.047861233123));
#232 = CARTESIAN_POINT('',(-8.343568106184,-7.365833866468,
    2.339906703271));
#233 = CARTESIAN_POINT('',(-5.264230619269,-9.50994297806,1.438370583112
    ));
#234 = CARTESIAN_POINT('',(-1.535856981459,-10.51713120009,
    0.341426115631));
#235 = CARTESIAN_POINT('',(2.241908004281,-9.953505623222,
    -0.768846610882));
#236 = CARTESIAN_POINT('',(5.35367535529,-8.009538541487,-1.683030054995
    ));
#237 = CARTESIAN_POINT('',(7.341772712017,-5.205609805305,
    -2.266923945133));
#238 = ORIENTED_EDGE('',*,*,#118,.F.);
#239 = ORIENTED_EDGE('',*,*,#47,.F.);
#240 = ( BOUNDED_SURFACE() B_SPLINE_SURFACE(2,14,(
    (#241,#242,#243,#244,#245,#246,#247,#248,#249,#250,#251,#252,#253
      ,#254,#255)
    ,(#256,#257,#258,#259,#260,#261,#262,#263,#264,#265,#266,#267,#268
      ,#269,#270)
    ,(#271,#272,#273,#274,#275,#276,#277,#278,#279,#280,#281,#282,#283
      ,#284,#285
)),.UNSPECIFIED.,.F.,.F.,.F.) B_SPLINE_SURFACE_WITH_KNOTS((3,3),(15,15),
  (0.,46.825963082845),(1.20036915073,48.026332233575),
.PIECEWISE_BEZIER_KNOTS.) GEOMETRIC_REPRESENTATION_ITEM() 
RATIONAL_B_SPLINE_SURFACE((
    (1.,1.,1.,1.,1.,1.,0.999999999999,1.000000000001,0.999999999999
      ,1.000000000001,0.999999999999,1.000000000001,1.,1.,1.)
    ,(0.63609497582,0.656352660908,0.687414685139,0.723488979839
      ,0.756178094469,0.780467305066,0.800296201052,0.801606166062
      ,0.800296201051,0.780467305066,0.756178094469,0.723488979839
      ,0.687414685139,0.656352660908,0.63609497582)
    ,(1.,1.,1.,1.,1.,1.,0.999999999999,1.000000000001,0.999999999999
      ,1.000000000001,0.999999999999,1.000000000001,1.,1.,1.
))) REPRESENTATION_ITEM('') SURFACE() );
#241 = CARTESIAN_POINT('',(9.479892149718,6.305007824492,-0.331491132217
    ));
#242 = CARTESIAN_POINT('',(7.09023112035,9.719093528427,0.242902425507)
  );
#243 = CARTESIAN_POINT('',(3.333732569511,12.121030958848,1.145837419505
    ));
#244 = CARTESIAN_POINT('',(-1.27266841962,12.874285695506,2.253060167802
    ));
#245 = CARTESIAN_POINT('',(-5.866202879727,11.732673257947,
    3.357190238423));
#246 = CARTESIAN_POINT('',(-9.758632068015,9.025483190966,4.292798352748
    ));
#247 = CARTESIAN_POINT('',(-12.53166491609,4.939869137399,4.959341508395
    ));
#248 = CARTESIAN_POINT('',(-13.51416385745,-8.117951E-11,5.195500970037)
  );
#249 = CARTESIAN_POINT('',(-12.5316649161,-4.939869137255,4.959341508398
    ));
#250 = CARTESIAN_POINT('',(-9.758632068007,-9.025483191066,
    4.292798352744));
#251 = CARTESIAN_POINT('',(-5.866202879731,-11.73267325789,
    3.357190238426));
#252 = CARTESIAN_POINT('',(-1.272668419619,-12.87428569553,
    2.253060167801));
#253 = CARTESIAN_POINT('',(3.333732569512,-12.12103095884,1.145837419505
    ));
#254 = CARTESIAN_POINT('',(7.09023112035,-9.719093528429,0.242902425507)
  );
#255 = CARTESIAN_POINT('',(9.479892149718,-6.305007824492,
    -0.331491132217));
#256 = CARTESIAN_POINT('',(7.525533777846,4.946440941503,0.138270413246)
  );
#257 = CARTESIAN_POINT('',(5.782324719689,7.608293598809,0.557278816725)
  );
#258 = CARTESIAN_POINT('',(3.070284312283,9.571899163232,1.209161455793)
  );
#259 = CARTESIAN_POINT('',(-0.376439137269,10.517642669145,
    2.037637009588));
#260 = CARTESIAN_POINT('',(-4.283211689039,10.152938068748,
    2.976692782619));
#261 = CARTESIAN_POINT('',(-8.020248459766,8.137924631109,3.874949823988
    ));
#262 = CARTESIAN_POINT('',(-10.7594562091,4.616644918551,4.533362571701)
  );
#263 = CARTESIAN_POINT('',(-11.94070545355,-8.232207E-11,4.817294873307)
  );
#264 = CARTESIAN_POINT('',(-10.7594562091,-4.616644918405,4.533362571701
    ));
#265 = CARTESIAN_POINT('',(-8.020248459774,-8.137924631214,
    3.874949823989));
#266 = CARTESIAN_POINT('',(-4.283211689032,-10.15293806868,
    2.976692782618));
#267 = CARTESIAN_POINT('',(-0.376439137273,-10.51764266917,
    2.037637009588));
#268 = CARTESIAN_POINT('',(3.070284312285,-9.571899163222,1.209161455792
    ));
#269 = CARTESIAN_POINT('',(5.782324719689,-7.608293598811,0.557278816726
    ));
#270 = CARTESIAN_POINT('',(7.525533777846,-4.946440941503,0.138270413246
    ));
#271 = CARTESIAN_POINT('',(7.341772712017,5.205609805305,-2.266923945133
    ));
#272 = CARTESIAN_POINT('',(5.353675355291,8.009538541486,-1.683030054995
    ));
#273 = CARTESIAN_POINT('',(2.241908004281,9.953505623231,-0.768846610882
    ));
#274 = CARTESIAN_POINT('',(-1.535856981458,10.517131200064,0.34142611563
    ));
#275 = CARTESIAN_POINT('',(-5.264230619271,9.509942978122,1.438370583113
    ));
#276 = CARTESIAN_POINT('',(-8.343568106183,7.365833866355,2.339906703271
    ));
#277 = CARTESIAN_POINT('',(-10.73829653079,3.919385476567,3.047861233122
    ));
#278 = CARTESIAN_POINT('',(-11.20911666543,-9.202239E-11,3.178783065918)
  );
#279 = CARTESIAN_POINT('',(-10.73829653079,-3.919385476404,
    3.047861233123));
#280 = CARTESIAN_POINT('',(-8.343568106184,-7.365833866468,
    2.339906703271));
#281 = CARTESIAN_POINT('',(-5.264230619269,-9.50994297806,1.438370583112
    ));
#282 = CARTESIAN_POINT('',(-1.535856981459,-10.51713120009,
    0.341426115631));
#283 = CARTESIAN_POINT('',(2.241908004281,-9.953505623222,
    -0.768846610882));
#284 = CARTESIAN_POINT('',(5.35367535529,-8.009538541487,-1.683030054995
    ));
#285 = CARTESIAN_POINT('',(7.341772712017,-5.205609805305,
    -2.266923945133));
#286 = ADVANCED_FACE('',(#287),#314,.T.);
#287 = FACE_BOUND('',#288,.F.);
#288 = EDGE_LOOP('',(#289,#290,#299,#307));
#289 = ORIENTED_EDGE('',*,*,#67,.T.);
#290 = ORIENTED_EDGE('',*,*,#291,.T.);
#291 = EDGE_CURVE('',#70,#292,#294,.T.);
#292 = VERTEX_POINT('',#293);
#293 = CARTESIAN_POINT('',(9.402499137716,14.,-6.182853205943));
#294 = CIRCLE('',#295,3.);
#295 = AXIS2_PLACEMENT_3D('',#296,#297,#298);
#296 = CARTESIAN_POINT('',(8.778763545787,14.,-3.248410514159));
#297 = DIRECTION('',(-2.2E-16,1.,-3.E-16));
#298 = DIRECTION('',(0.233709534644,3.431080358158E-16,0.972306460647));
#299 = ORIENTED_EDGE('',*,*,#300,.F.);
#300 = EDGE_CURVE('',#301,#292,#303,.T.);
#301 = VERTEX_POINT('',#302);
#302 = CARTESIAN_POINT('',(9.402499137716,-14.,-6.182853205943));
#303 = LINE('',#304,#305);
#304 = CARTESIAN_POINT('',(9.402499137716,-15.,-6.182853205943));
#305 = VECTOR('',#306,1.);
#306 = DIRECTION('',(0.,1.,0.));
#307 = ORIENTED_EDGE('',*,*,#308,.F.);
#308 = EDGE_CURVE('',#68,#301,#309,.T.);
#309 = CIRCLE('',#310,3.);
#310 = AXIS2_PLACEMENT_3D('',#311,#312,#313);
#311 = CARTESIAN_POINT('',(8.778763545787,-14.,-3.248410514159));
#312 = DIRECTION('',(-2.2E-16,1.,-3.E-16));
#313 = DIRECTION('',(0.233709534644,3.431080358158E-16,0.972306460647));
#314 = CYLINDRICAL_SURFACE('',#315,3.);
#315 = AXIS2_PLACEMENT_3D('',#316,#317,#318);
#316 = CARTESIAN_POINT('',(8.778763545787,-15.,-3.248410514159));
#317 = DIRECTION('',(0.,-1.,0.));
#318 = DIRECTION('',(0.496640691147,0.,-0.86795623386));
#319 = ADVANCED_FACE('',(#320),#347,.T.);
#320 = FACE_BOUND('',#321,.T.);
#321 = EDGE_LOOP('',(#322,#331,#339,#346));
#322 = ORIENTED_EDGE('',*,*,#323,.T.);
#323 = EDGE_CURVE('',#86,#324,#326,.T.);
#324 = VERTEX_POINT('',#325);
#325 = CARTESIAN_POINT('',(-31.4127681425,-15.,8.469236779786));
#326 = CIRCLE('',#327,1.);
#327 = AXIS2_PLACEMENT_3D('',#328,#329,#330);
#328 = CARTESIAN_POINT('',(-31.4127681425,-14.,8.469236779786));
#329 = DIRECTION('',(0.972306460647,1.4E-16,-0.233709534644));
#330 = DIRECTION('',(0.233709534644,3.5E-16,0.972306460647));
#331 = ORIENTED_EDGE('',*,*,#332,.T.);
#332 = EDGE_CURVE('',#324,#333,#335,.T.);
#333 = VERTEX_POINT('',#334);
#334 = CARTESIAN_POINT('',(9.246182615074,-15.,-1.303797592864));
#335 = LINE('',#336,#337);
#336 = CARTESIAN_POINT('',(-31.4127681425,-15.,8.469236779786));
#337 = VECTOR('',#338,1.);
#338 = DIRECTION('',(0.972306460647,1.4E-16,-0.233709534644));
#339 = ORIENTED_EDGE('',*,*,#340,.F.);
#340 = EDGE_CURVE('',#68,#333,#341,.T.);
#341 = CIRCLE('',#342,1.);
#342 = AXIS2_PLACEMENT_3D('',#343,#344,#345);
#343 = CARTESIAN_POINT('',(9.246182615074,-14.,-1.303797592864));
#344 = DIRECTION('',(0.972306460647,1.4E-16,-0.233709534644));
#345 = DIRECTION('',(0.233709534644,2.3E-16,0.972306460647));
#346 = ORIENTED_EDGE('',*,*,#93,.F.);
#347 = CYLINDRICAL_SURFACE('',#348,1.);
#348 = AXIS2_PLACEMENT_3D('',#349,#350,#351);
#349 = CARTESIAN_POINT('',(-31.4127681425,-14.,8.469236779786));
#350 = DIRECTION('',(0.972306460647,1.4E-16,-0.233709534644));
#351 = DIRECTION('',(0.233709534644,2.3E-16,0.972306460647));
#352 = ADVANCED_FACE('',(#353),#380,.T.);
#353 = FACE_BOUND('',#354,.F.);
#354 = EDGE_LOOP('',(#355,#364,#372,#379));
#355 = ORIENTED_EDGE('',*,*,#356,.T.);
#356 = EDGE_CURVE('',#78,#357,#359,.T.);
#357 = VERTEX_POINT('',#358);
#358 = CARTESIAN_POINT('',(-31.4127681425,15.,8.469236779786));
#359 = CIRCLE('',#360,1.);
#360 = AXIS2_PLACEMENT_3D('',#361,#362,#363);
#361 = CARTESIAN_POINT('',(-31.4127681425,14.,8.469236779786));
#362 = DIRECTION('',(-0.972306460647,-1.4E-16,0.233709534644));
#363 = DIRECTION('',(0.233709534644,3.5E-16,0.972306460647));
#364 = ORIENTED_EDGE('',*,*,#365,.T.);
#365 = EDGE_CURVE('',#357,#366,#368,.T.);
#366 = VERTEX_POINT('',#367);
#367 = CARTESIAN_POINT('',(9.246182615074,15.,-1.303797592864));
#368 = LINE('',#369,#370);
#369 = CARTESIAN_POINT('',(-31.4127681425,15.,8.469236779786));
#370 = VECTOR('',#371,1.);
#371 = DIRECTION('',(0.972306460647,1.4E-16,-0.233709534644));
#372 = ORIENTED_EDGE('',*,*,#373,.F.);
#373 = EDGE_CURVE('',#70,#366,#374,.T.);
#374 = CIRCLE('',#375,1.);
#375 = AXIS2_PLACEMENT_3D('',#376,#377,#378);
#376 = CARTESIAN_POINT('',(9.246182615074,14.,-1.303797592864));
#377 = DIRECTION('',(-0.972306460647,-1.4E-16,0.233709534644));
#378 = DIRECTION('',(0.233709534644,2.3E-16,0.972306460647));
#379 = ORIENTED_EDGE('',*,*,#77,.F.);
#380 = CYLINDRICAL_SURFACE('',#381,1.);
#381 = AXIS2_PLACEMENT_3D('',#382,#383,#384);
#382 = CARTESIAN_POINT('',(-31.4127681425,14.,8.469236779786));
#383 = DIRECTION('',(0.972306460647,1.4E-16,-0.233709534644));
#384 = DIRECTION('',(0.233709534644,2.3E-16,0.972306460647));
#385 = ADVANCED_FACE('',(#386),#413,.T.);
#386 = FACE_BOUND('',#387,.F.);
#387 = EDGE_LOOP('',(#388,#398,#405,#406));
#388 = ORIENTED_EDGE('',*,*,#389,.T.);
#389 = EDGE_CURVE('',#390,#392,#394,.T.);
#390 = VERTEX_POINT('',#391);
#391 = CARTESIAN_POINT('',(-57.15556332287,-14.,2.686727797635));
#392 = VERTEX_POINT('',#393);
#393 = CARTESIAN_POINT('',(-57.15556332287,14.,2.686727797635));
#394 = LINE('',#395,#396);
#395 = CARTESIAN_POINT('',(-57.15556332287,-15.,2.686727797635));
#396 = VECTOR('',#397,1.);
#397 = DIRECTION('',(0.,1.,0.));
#398 = ORIENTED_EDGE('',*,*,#399,.T.);
#399 = EDGE_CURVE('',#392,#78,#400,.T.);
#400 = CIRCLE('',#401,28.5);
#401 = AXIS2_PLACEMENT_3D('',#402,#403,#404);
#402 = CARTESIAN_POINT('',(-37.8397803452,14.,-18.26919088801));
#403 = DIRECTION('',(-2.2E-16,1.,-3.E-16));
#404 = DIRECTION('',(-0.677746771146,7.148432809154E-17,0.735295392479)
  );
#405 = ORIENTED_EDGE('',*,*,#85,.F.);
#406 = ORIENTED_EDGE('',*,*,#407,.F.);
#407 = EDGE_CURVE('',#390,#86,#408,.T.);
#408 = CIRCLE('',#409,28.5);
#409 = AXIS2_PLACEMENT_3D('',#410,#411,#412);
#410 = CARTESIAN_POINT('',(-37.8397803452,-14.,-18.26919088801));
#411 = DIRECTION('',(-2.2E-16,1.,-3.E-16));
#412 = DIRECTION('',(-0.677746771146,7.148432809154E-17,0.735295392479)
  );
#413 = CYLINDRICAL_SURFACE('',#414,28.5);
#414 = AXIS2_PLACEMENT_3D('',#415,#416,#417);
#415 = CARTESIAN_POINT('',(-37.8397803452,-15.,-18.26919088801));
#416 = DIRECTION('',(0.,-1.,0.));
#417 = DIRECTION('',(0.496640691147,0.,-0.86795623386));
#418 = ADVANCED_FACE('',(#419),#423,.F.);
#419 = FACE_BOUND('',#420,.T.);
#420 = EDGE_LOOP('',(#421,#422));
#421 = ORIENTED_EDGE('',*,*,#107,.F.);
#422 = ORIENTED_EDGE('',*,*,#221,.T.);
#423 = CYLINDRICAL_SURFACE('',#424,9.);
#424 = AXIS2_PLACEMENT_3D('',#425,#426,#427);
#425 = CARTESIAN_POINT('',(0.,0.,0.));
#426 = DIRECTION('',(-0.,-0.,-1.));
#427 = DIRECTION('',(1.,0.,0.));
#428 = ADVANCED_FACE('',(#429),#448,.F.);
#429 = FACE_BOUND('',#430,.T.);
#430 = EDGE_LOOP('',(#431,#439,#446,#447));
#431 = ORIENTED_EDGE('',*,*,#432,.F.);
#432 = EDGE_CURVE('',#433,#204,#435,.T.);
#433 = VERTEX_POINT('',#434);
#434 = CARTESIAN_POINT('',(3.2,4.329070518201E-15,-7.501235096417));
#435 = LINE('',#436,#437);
#436 = CARTESIAN_POINT('',(3.2,4.549070518201E-15,-30.8));
#437 = VECTOR('',#438,1.);
#438 = DIRECTION('',(0.,0.,1.));
#439 = ORIENTED_EDGE('',*,*,#440,.F.);
#440 = EDGE_CURVE('',#433,#433,#441,.T.);
#441 = ELLIPSE('',#442,3.271489903568,3.2);
#442 = AXIS2_PLACEMENT_3D('',#443,#444,#445);
#443 = CARTESIAN_POINT('',(-1.42108547152E-14,5.329070518201E-15,
    -8.181416093761));
#444 = DIRECTION('',(-0.207911690818,2.3E-16,0.978147600734));
#445 = DIRECTION('',(-0.978147600734,1.07E-15,-0.207911690818));
#446 = ORIENTED_EDGE('',*,*,#432,.T.);
#447 = ORIENTED_EDGE('',*,*,#203,.F.);
#448 = CYLINDRICAL_SURFACE('',#449,3.2);
#449 = AXIS2_PLACEMENT_3D('',#450,#451,#452);
#450 = CARTESIAN_POINT('',(-1.42108547152E-14,5.329070518201E-15,-30.8)
  );
#451 = DIRECTION('',(-0.,-0.,-1.));
#452 = DIRECTION('',(1.,0.,0.));
#453 = ADVANCED_FACE('',(#454),#474,.T.);
#454 = FACE_BOUND('',#455,.F.);
#455 = EDGE_LOOP('',(#456,#457,#458,#467));
#456 = ORIENTED_EDGE('',*,*,#340,.F.);
#457 = ORIENTED_EDGE('',*,*,#308,.T.);
#458 = ORIENTED_EDGE('',*,*,#459,.T.);
#459 = EDGE_CURVE('',#301,#460,#462,.T.);
#460 = VERTEX_POINT('',#461);
#461 = CARTESIAN_POINT('',(9.194587273739,-15.,-5.204705642015));
#462 = CIRCLE('',#463,1.);
#463 = AXIS2_PLACEMENT_3D('',#464,#465,#466);
#464 = CARTESIAN_POINT('',(9.194587273739,-14.,-5.204705642015));
#465 = DIRECTION('',(-0.978147563928,-2.8E-16,-0.207911863976));
#466 = DIRECTION('',(0.207911863976,-2.5E-16,-0.978147563928));
#467 = ORIENTED_EDGE('',*,*,#468,.F.);
#468 = EDGE_CURVE('',#333,#460,#469,.T.);
#469 = CIRCLE('',#470,2.);
#470 = AXIS2_PLACEMENT_3D('',#471,#472,#473);
#471 = CARTESIAN_POINT('',(8.778763545787,-15.,-3.248410514159));
#472 = DIRECTION('',(-2.2E-16,1.,-3.E-16));
#473 = DIRECTION('',(0.233709534644,3.431080358158E-16,0.972306460647));
#474 = TOROIDAL_SURFACE('',#475,2.,1.);
#475 = AXIS2_PLACEMENT_3D('',#476,#477,#478);
#476 = CARTESIAN_POINT('',(8.778763545787,-14.,-3.248410514159));
#477 = DIRECTION('',(2.2E-16,-1.,3.E-16));
#478 = DIRECTION('',(0.233709534644,3.431080358158E-16,0.972306460647));
#479 = ADVANCED_FACE('',(#480),#500,.T.);
#480 = FACE_BOUND('',#481,.T.);
#481 = EDGE_LOOP('',(#482,#483,#484,#493));
#482 = ORIENTED_EDGE('',*,*,#373,.F.);
#483 = ORIENTED_EDGE('',*,*,#291,.T.);
#484 = ORIENTED_EDGE('',*,*,#485,.T.);
#485 = EDGE_CURVE('',#292,#486,#488,.T.);
#486 = VERTEX_POINT('',#487);
#487 = CARTESIAN_POINT('',(9.194587273739,15.,-5.204705642015));
#488 = CIRCLE('',#489,1.);
#489 = AXIS2_PLACEMENT_3D('',#490,#491,#492);
#490 = CARTESIAN_POINT('',(9.194587273739,14.,-5.204705642015));
#491 = DIRECTION('',(0.978147563928,2.8E-16,0.207911863976));
#492 = DIRECTION('',(0.207911863976,-2.5E-16,-0.978147563928));
#493 = ORIENTED_EDGE('',*,*,#494,.F.);
#494 = EDGE_CURVE('',#366,#486,#495,.T.);
#495 = CIRCLE('',#496,2.);
#496 = AXIS2_PLACEMENT_3D('',#497,#498,#499);
#497 = CARTESIAN_POINT('',(8.778763545787,15.,-3.248410514159));
#498 = DIRECTION('',(-2.2E-16,1.,-3.E-16));
#499 = DIRECTION('',(0.233709534644,3.431080358158E-16,0.972306460647));
#500 = TOROIDAL_SURFACE('',#501,2.,1.);
#501 = AXIS2_PLACEMENT_3D('',#502,#503,#504);
#502 = CARTESIAN_POINT('',(8.778763545787,14.,-3.248410514159));
#503 = DIRECTION('',(-2.2E-16,1.,-3.E-16));
#504 = DIRECTION('',(0.233709534644,3.431080358158E-16,0.972306460647));
#505 = ADVANCED_FACE('',(#506,#531),#534,.F.);
#506 = FACE_BOUND('',#507,.F.);
#507 = EDGE_LOOP('',(#508,#509,#517,#525));
#508 = ORIENTED_EDGE('',*,*,#300,.T.);
#509 = ORIENTED_EDGE('',*,*,#510,.T.);
#510 = EDGE_CURVE('',#292,#511,#513,.T.);
#511 = VERTEX_POINT('',#512);
#512 = CARTESIAN_POINT('',(-10.50308948576,14.,-10.41391668176));
#513 = LINE('',#514,#515);
#514 = CARTESIAN_POINT('',(9.402499137716,14.,-6.182853205943));
#515 = VECTOR('',#516,1.);
#516 = DIRECTION('',(-0.978147600734,-2.8E-16,-0.207911690818));
#517 = ORIENTED_EDGE('',*,*,#518,.F.);
#518 = EDGE_CURVE('',#519,#511,#521,.T.);
#519 = VERTEX_POINT('',#520);
#520 = CARTESIAN_POINT('',(-10.50308948576,-14.,-10.41391668176));
#521 = LINE('',#522,#523);
#522 = CARTESIAN_POINT('',(-10.50308948576,-15.,-10.41391668176));
#523 = VECTOR('',#524,1.);
#524 = DIRECTION('',(0.,1.,0.));
#525 = ORIENTED_EDGE('',*,*,#526,.F.);
#526 = EDGE_CURVE('',#301,#519,#527,.T.);
#527 = LINE('',#528,#529);
#528 = CARTESIAN_POINT('',(9.402499137716,-14.,-6.182853205943));
#529 = VECTOR('',#530,1.);
#530 = DIRECTION('',(-0.978147600734,-2.8E-16,-0.207911690818));
#531 = FACE_BOUND('',#532,.F.);
#532 = EDGE_LOOP('',(#533));
#533 = ORIENTED_EDGE('',*,*,#440,.F.);
#534 = PLANE('',#535);
#535 = AXIS2_PLACEMENT_3D('',#536,#537,#538);
#536 = CARTESIAN_POINT('',(9.402499137716,-15.,-6.182853205943));
#537 = DIRECTION('',(-0.207911690818,0.,0.978147600734));
#538 = DIRECTION('',(-0.978147600734,0.,-0.207911690818));
#539 = ADVANCED_FACE('',(#540),#560,.T.);
#540 = FACE_BOUND('',#541,.F.);
#541 = EDGE_LOOP('',(#542,#551,#552,#553));
#542 = ORIENTED_EDGE('',*,*,#543,.F.);
#543 = EDGE_CURVE('',#390,#544,#546,.T.);
#544 = VERTEX_POINT('',#545);
#545 = CARTESIAN_POINT('',(-56.47781655172,-15.,1.951432405156));
#546 = CIRCLE('',#547,1.);
#547 = AXIS2_PLACEMENT_3D('',#548,#549,#550);
#548 = CARTESIAN_POINT('',(-56.47781655172,-14.,1.951432405156));
#549 = DIRECTION('',(0.735295392479,3.7E-16,0.677746771146));
#550 = DIRECTION('',(-0.677746771146,1.7E-16,0.735295392479));
#551 = ORIENTED_EDGE('',*,*,#407,.T.);
#552 = ORIENTED_EDGE('',*,*,#323,.T.);
#553 = ORIENTED_EDGE('',*,*,#554,.F.);
#554 = EDGE_CURVE('',#544,#324,#555,.T.);
#555 = CIRCLE('',#556,27.5);
#556 = AXIS2_PLACEMENT_3D('',#557,#558,#559);
#557 = CARTESIAN_POINT('',(-37.8397803452,-15.,-18.26919088801));
#558 = DIRECTION('',(-2.2E-16,1.,-3.E-16));
#559 = DIRECTION('',(-0.677746771146,7.148432809154E-17,0.735295392479)
  );
#560 = TOROIDAL_SURFACE('',#561,27.5,1.);
#561 = AXIS2_PLACEMENT_3D('',#562,#563,#564);
#562 = CARTESIAN_POINT('',(-37.8397803452,-14.,-18.26919088801));
#563 = DIRECTION('',(2.2E-16,-1.,3.E-16));
#564 = DIRECTION('',(-0.677746771146,7.148432809154E-17,0.735295392479)
  );
#565 = ADVANCED_FACE('',(#566),#664,.F.);
#566 = FACE_BOUND('',#567,.F.);
#567 = EDGE_LOOP('',(#568,#579,#587,#596,#605,#614,#622,#631,#637,#638,
    #639,#640,#648,#657));
#568 = ORIENTED_EDGE('',*,*,#569,.T.);
#569 = EDGE_CURVE('',#570,#572,#574,.T.);
#570 = VERTEX_POINT('',#571);
#571 = CARTESIAN_POINT('',(-63.83976634643,-15.,-18.29617117801));
#572 = VERTEX_POINT('',#573);
#573 = CARTESIAN_POINT('',(-66.21602965873,-15.,-21.23372709059));
#574 = CIRCLE('',#575,3.);
#575 = AXIS2_PLACEMENT_3D('',#576,#577,#578);
#576 = CARTESIAN_POINT('',(-66.83976473118,-15.,-18.29928428839));
#577 = DIRECTION('',(-2.2E-16,1.,-3.E-16));
#578 = DIRECTION('',(0.999999461586,2.203111925872E-16,
    1.037703461334E-03));
#579 = ORIENTED_EDGE('',*,*,#580,.T.);
#580 = EDGE_CURVE('',#572,#581,#583,.T.);
#581 = VERTEX_POINT('',#582);
#582 = CARTESIAN_POINT('',(-66.24086133798,-15.,-21.23900522695));
#583 = LINE('',#584,#585);
#584 = CARTESIAN_POINT('',(-66.21602965873,-15.,-21.23372709059));
#585 = VECTOR('',#586,1.);
#586 = DIRECTION('',(-0.978147600734,-2.8E-16,-0.207911690818));
#587 = ORIENTED_EDGE('',*,*,#588,.T.);
#588 = EDGE_CURVE('',#581,#589,#591,.T.);
#589 = VERTEX_POINT('',#590);
#590 = CARTESIAN_POINT('',(-67.49007675217,-15.,-27.56406202479));
#591 = CIRCLE('',#592,3.506503516564);
#592 = AXIS2_PLACEMENT_3D('',#593,#594,#595);
#593 = CARTESIAN_POINT('',(-65.51181826299,-15.,-24.66888322865));
#594 = DIRECTION('',(2.2E-16,-1.,3.E-16));
#595 = DIRECTION('',(-0.207911690818,2.477037082402E-16,0.978147600734)
  );
#596 = ORIENTED_EDGE('',*,*,#597,.T.);
#597 = EDGE_CURVE('',#589,#598,#600,.T.);
#598 = VERTEX_POINT('',#599);
#599 = CARTESIAN_POINT('',(-73.01507224298,-15.,-26.95952366832));
#600 = CIRCLE('',#601,5.9);
#601 = AXIS2_PLACEMENT_3D('',#602,#603,#604);
#602 = CARTESIAN_POINT('',(-70.81867033008,-15.,-32.43545451495));
#603 = DIRECTION('',(-2.2E-16,1.,-3.E-16));
#604 = DIRECTION('',(0.564168403035,3.718149718958E-16,0.825659744094));
#605 = ORIENTED_EDGE('',*,*,#606,.T.);
#606 = EDGE_CURVE('',#598,#607,#609,.T.);
#607 = VERTEX_POINT('',#608);
#608 = CARTESIAN_POINT('',(-71.90336751969,-15.,-24.35873290238));
#609 = CIRCLE('',#610,2.);
#610 = AXIS2_PLACEMENT_3D('',#611,#612,#613);
#611 = CARTESIAN_POINT('',(-73.75961526431,-15.,-25.10327592371));
#612 = DIRECTION('',(2.2E-16,-1.,3.E-16));
#613 = DIRECTION('',(0.372271510662,-1.965374293471E-16,-0.928123872309)
  );
#614 = ORIENTED_EDGE('',*,*,#615,.T.);
#615 = EDGE_CURVE('',#607,#616,#618,.T.);
#616 = VERTEX_POINT('',#617);
#617 = CARTESIAN_POINT('',(-74.93081386478,-15.,-16.81089444433));
#618 = LINE('',#619,#620);
#619 = CARTESIAN_POINT('',(-71.90336751969,-15.,-24.35873290238));
#620 = VECTOR('',#621,1.);
#621 = DIRECTION('',(-0.372271510662,2.E-16,0.928123872309));
#622 = ORIENTED_EDGE('',*,*,#623,.T.);
#623 = EDGE_CURVE('',#616,#624,#626,.T.);
#624 = VERTEX_POINT('',#625);
#625 = CARTESIAN_POINT('',(-74.43005966245,-15.,-14.59576063804));
#626 = CIRCLE('',#627,2.);
#627 = AXIS2_PLACEMENT_3D('',#628,#629,#630);
#628 = CARTESIAN_POINT('',(-73.07456612016,-15.,-16.066351423));
#629 = DIRECTION('',(-2.2E-16,1.,-3.E-16));
#630 = DIRECTION('',(-0.928123872309,-3.158687051065E-16,-0.372271510662
    ));
#631 = ORIENTED_EDGE('',*,*,#632,.T.);
#632 = EDGE_CURVE('',#624,#544,#633,.T.);
#633 = LINE('',#634,#635);
#634 = CARTESIAN_POINT('',(-74.43005966245,-15.,-14.59576063804));
#635 = VECTOR('',#636,1.);
#636 = DIRECTION('',(0.735295392479,3.7E-16,0.677746771146));
#637 = ORIENTED_EDGE('',*,*,#554,.T.);
#638 = ORIENTED_EDGE('',*,*,#332,.T.);
#639 = ORIENTED_EDGE('',*,*,#468,.T.);
#640 = ORIENTED_EDGE('',*,*,#641,.T.);
#641 = EDGE_CURVE('',#460,#642,#644,.T.);
#642 = VERTEX_POINT('',#643);
#643 = CARTESIAN_POINT('',(-10.71100117658,-15.,-9.435769081034));
#644 = LINE('',#645,#646);
#645 = CARTESIAN_POINT('',(9.194587446898,-15.,-5.204705605209));
#646 = VECTOR('',#647,1.);
#647 = DIRECTION('',(-0.978147600734,-2.8E-16,-0.207911690818));
#648 = ORIENTED_EDGE('',*,*,#649,.T.);
#649 = EDGE_CURVE('',#642,#650,#652,.T.);
#650 = VERTEX_POINT('',#651);
#651 = CARTESIAN_POINT('',(-14.07663736243,-15.,-7.718691583231));
#652 = CIRCLE('',#653,3.);
#653 = AXIS2_PLACEMENT_3D('',#654,#655,#656);
#654 = CARTESIAN_POINT('',(-11.33473624903,-15.,-6.501326278832));
#655 = DIRECTION('',(-2.2E-16,1.,-3.E-16));
#656 = DIRECTION('',(0.207911690818,-2.477037082402E-16,-0.978147600734)
  );
#657 = ORIENTED_EDGE('',*,*,#658,.T.);
#658 = EDGE_CURVE('',#650,#570,#659,.T.);
#659 = CIRCLE('',#660,26.);
#660 = AXIS2_PLACEMENT_3D('',#661,#662,#663);
#661 = CARTESIAN_POINT('',(-37.8397803452,-15.,-18.26919088801));
#662 = DIRECTION('',(2.2E-16,-1.,3.E-16));
#663 = DIRECTION('',(0.913967037799,3.228092787556E-16,0.405788434799));
#664 = PLANE('',#665);
#665 = AXIS2_PLACEMENT_3D('',#666,#667,#668);
#666 = CARTESIAN_POINT('',(-40.09725705428,-15.,-6.725455004499));
#667 = DIRECTION('',(0.,1.,0.));
#668 = DIRECTION('',(0.496640691147,0.,-0.86795623386));
#669 = ADVANCED_FACE('',(#670),#690,.T.);
#670 = FACE_BOUND('',#671,.T.);
#671 = EDGE_LOOP('',(#672,#681,#682,#683));
#672 = ORIENTED_EDGE('',*,*,#673,.F.);
#673 = EDGE_CURVE('',#392,#674,#676,.T.);
#674 = VERTEX_POINT('',#675);
#675 = CARTESIAN_POINT('',(-56.47781655172,15.,1.951432405156));
#676 = CIRCLE('',#677,1.);
#677 = AXIS2_PLACEMENT_3D('',#678,#679,#680);
#678 = CARTESIAN_POINT('',(-56.47781655172,14.,1.951432405156));
#679 = DIRECTION('',(-0.735295392479,-3.7E-16,-0.677746771146));
#680 = DIRECTION('',(-0.677746771146,1.7E-16,0.735295392479));
#681 = ORIENTED_EDGE('',*,*,#399,.T.);
#682 = ORIENTED_EDGE('',*,*,#356,.T.);
#683 = ORIENTED_EDGE('',*,*,#684,.F.);
#684 = EDGE_CURVE('',#674,#357,#685,.T.);
#685 = CIRCLE('',#686,27.5);
#686 = AXIS2_PLACEMENT_3D('',#687,#688,#689);
#687 = CARTESIAN_POINT('',(-37.8397803452,15.,-18.26919088801));
#688 = DIRECTION('',(-2.2E-16,1.,-3.E-16));
#689 = DIRECTION('',(-0.677746771146,7.148432809154E-17,0.735295392479)
  );
#690 = TOROIDAL_SURFACE('',#691,27.5,1.);
#691 = AXIS2_PLACEMENT_3D('',#692,#693,#694);
#692 = CARTESIAN_POINT('',(-37.8397803452,14.,-18.26919088801));
#693 = DIRECTION('',(-2.2E-16,1.,-3.E-16));
#694 = DIRECTION('',(-0.677746771146,7.148432809154E-17,0.735295392479)
  );
#695 = ADVANCED_FACE('',(#696),#794,.T.);
#696 = FACE_BOUND('',#697,.T.);
#697 = EDGE_LOOP('',(#698,#709,#717,#726,#735,#744,#752,#761,#767,#768,
    #769,#770,#778,#787));
#698 = ORIENTED_EDGE('',*,*,#699,.T.);
#699 = EDGE_CURVE('',#700,#702,#704,.T.);
#700 = VERTEX_POINT('',#701);
#701 = CARTESIAN_POINT('',(-63.83976634643,15.,-18.29617117801));
#702 = VERTEX_POINT('',#703);
#703 = CARTESIAN_POINT('',(-66.21602965873,15.,-21.23372709059));
#704 = CIRCLE('',#705,3.);
#705 = AXIS2_PLACEMENT_3D('',#706,#707,#708);
#706 = CARTESIAN_POINT('',(-66.83976473118,15.,-18.29928428839));
#707 = DIRECTION('',(-2.2E-16,1.,-3.E-16));
#708 = DIRECTION('',(0.999999461586,2.203111925872E-16,
    1.037703461336E-03));
#709 = ORIENTED_EDGE('',*,*,#710,.T.);
#710 = EDGE_CURVE('',#702,#711,#713,.T.);
#711 = VERTEX_POINT('',#712);
#712 = CARTESIAN_POINT('',(-66.24086133798,15.,-21.23900522695));
#713 = LINE('',#714,#715);
#714 = CARTESIAN_POINT('',(-66.21602965873,15.,-21.23372709059));
#715 = VECTOR('',#716,1.);
#716 = DIRECTION('',(-0.978147600734,-2.8E-16,-0.207911690818));
#717 = ORIENTED_EDGE('',*,*,#718,.T.);
#718 = EDGE_CURVE('',#711,#719,#721,.T.);
#719 = VERTEX_POINT('',#720);
#720 = CARTESIAN_POINT('',(-67.49007675217,15.,-27.56406202479));
#721 = CIRCLE('',#722,3.506503516564);
#722 = AXIS2_PLACEMENT_3D('',#723,#724,#725);
#723 = CARTESIAN_POINT('',(-65.51181826299,15.,-24.66888322865));
#724 = DIRECTION('',(2.2E-16,-1.,3.E-16));
#725 = DIRECTION('',(-0.207911690818,2.477037082402E-16,0.978147600734)
  );
#726 = ORIENTED_EDGE('',*,*,#727,.T.);
#727 = EDGE_CURVE('',#719,#728,#730,.T.);
#728 = VERTEX_POINT('',#729);
#729 = CARTESIAN_POINT('',(-73.01507224298,15.,-26.95952366832));
#730 = CIRCLE('',#731,5.9);
#731 = AXIS2_PLACEMENT_3D('',#732,#733,#734);
#732 = CARTESIAN_POINT('',(-70.81867033008,15.,-32.43545451495));
#733 = DIRECTION('',(-2.2E-16,1.,-3.E-16));
#734 = DIRECTION('',(0.564168403035,3.718149718958E-16,0.825659744094));
#735 = ORIENTED_EDGE('',*,*,#736,.T.);
#736 = EDGE_CURVE('',#728,#737,#739,.T.);
#737 = VERTEX_POINT('',#738);
#738 = CARTESIAN_POINT('',(-71.90336751969,15.,-24.35873290238));
#739 = CIRCLE('',#740,2.);
#740 = AXIS2_PLACEMENT_3D('',#741,#742,#743);
#741 = CARTESIAN_POINT('',(-73.75961526431,15.,-25.10327592371));
#742 = DIRECTION('',(2.2E-16,-1.,3.E-16));
#743 = DIRECTION('',(0.372271510662,-1.965374293471E-16,-0.928123872309)
  );
#744 = ORIENTED_EDGE('',*,*,#745,.T.);
#745 = EDGE_CURVE('',#737,#746,#748,.T.);
#746 = VERTEX_POINT('',#747);
#747 = CARTESIAN_POINT('',(-74.93081386478,15.,-16.81089444433));
#748 = LINE('',#749,#750);
#749 = CARTESIAN_POINT('',(-71.90336751969,15.,-24.35873290238));
#750 = VECTOR('',#751,1.);
#751 = DIRECTION('',(-0.372271510662,2.E-16,0.928123872309));
#752 = ORIENTED_EDGE('',*,*,#753,.T.);
#753 = EDGE_CURVE('',#746,#754,#756,.T.);
#754 = VERTEX_POINT('',#755);
#755 = CARTESIAN_POINT('',(-74.43005966245,15.,-14.59576063804));
#756 = CIRCLE('',#757,2.);
#757 = AXIS2_PLACEMENT_3D('',#758,#759,#760);
#758 = CARTESIAN_POINT('',(-73.07456612016,15.,-16.066351423));
#759 = DIRECTION('',(-2.2E-16,1.,-3.E-16));
#760 = DIRECTION('',(-0.928123872309,-3.158687051065E-16,-0.372271510662
    ));
#761 = ORIENTED_EDGE('',*,*,#762,.T.);
#762 = EDGE_CURVE('',#754,#674,#763,.T.);
#763 = LINE('',#764,#765);
#764 = CARTESIAN_POINT('',(-74.43005966245,15.,-14.59576063804));
#765 = VECTOR('',#766,1.);
#766 = DIRECTION('',(0.735295392479,3.7E-16,0.677746771146));
#767 = ORIENTED_EDGE('',*,*,#684,.T.);
#768 = ORIENTED_EDGE('',*,*,#365,.T.);
#769 = ORIENTED_EDGE('',*,*,#494,.T.);
#770 = ORIENTED_EDGE('',*,*,#771,.T.);
#771 = EDGE_CURVE('',#486,#772,#774,.T.);
#772 = VERTEX_POINT('',#773);
#773 = CARTESIAN_POINT('',(-10.71100117658,15.,-9.435769081034));
#774 = LINE('',#775,#776);
#775 = CARTESIAN_POINT('',(9.194587446898,15.,-5.204705605209));
#776 = VECTOR('',#777,1.);
#777 = DIRECTION('',(-0.978147600734,-2.8E-16,-0.207911690818));
#778 = ORIENTED_EDGE('',*,*,#779,.T.);
#779 = EDGE_CURVE('',#772,#780,#782,.T.);
#780 = VERTEX_POINT('',#781);
#781 = CARTESIAN_POINT('',(-14.07663736243,15.,-7.718691583231));
#782 = CIRCLE('',#783,3.);
#783 = AXIS2_PLACEMENT_3D('',#784,#785,#786);
#784 = CARTESIAN_POINT('',(-11.33473624903,15.,-6.501326278832));
#785 = DIRECTION('',(-2.2E-16,1.,-3.E-16));
#786 = DIRECTION('',(0.207911690818,-2.477037082402E-16,-0.978147600734)
  );
#787 = ORIENTED_EDGE('',*,*,#788,.T.);
#788 = EDGE_CURVE('',#780,#700,#789,.T.);
#789 = CIRCLE('',#790,26.);
#790 = AXIS2_PLACEMENT_3D('',#791,#792,#793);
#791 = CARTESIAN_POINT('',(-37.8397803452,15.,-18.26919088801));
#792 = DIRECTION('',(2.2E-16,-1.,3.E-16));
#793 = DIRECTION('',(0.913967037799,3.228092787556E-16,0.405788434799));
#794 = PLANE('',#795);
#795 = AXIS2_PLACEMENT_3D('',#796,#797,#798);
#796 = CARTESIAN_POINT('',(-40.09725705428,15.,-6.725455004499));
#797 = DIRECTION('',(0.,1.,0.));
#798 = DIRECTION('',(0.496640691147,0.,-0.86795623386));
#799 = ADVANCED_FACE('',(#800),#825,.F.);
#800 = FACE_BOUND('',#801,.F.);
#801 = EDGE_LOOP('',(#802,#812,#818,#819));
#802 = ORIENTED_EDGE('',*,*,#803,.T.);
#803 = EDGE_CURVE('',#804,#806,#808,.T.);
#804 = VERTEX_POINT('',#805);
#805 = CARTESIAN_POINT('',(-75.1078064336,-14.,-13.86046524557));
#806 = VERTEX_POINT('',#807);
#807 = CARTESIAN_POINT('',(-75.1078064336,14.,-13.86046524557));
#808 = LINE('',#809,#810);
#809 = CARTESIAN_POINT('',(-75.1078064336,-15.,-13.86046524557));
#810 = VECTOR('',#811,1.);
#811 = DIRECTION('',(0.,1.,0.));
#812 = ORIENTED_EDGE('',*,*,#813,.T.);
#813 = EDGE_CURVE('',#806,#392,#814,.T.);
#814 = LINE('',#815,#816);
#815 = CARTESIAN_POINT('',(-75.1078064336,14.,-13.86046524557));
#816 = VECTOR('',#817,1.);
#817 = DIRECTION('',(0.735295392479,3.7E-16,0.677746771146));
#818 = ORIENTED_EDGE('',*,*,#389,.F.);
#819 = ORIENTED_EDGE('',*,*,#820,.F.);
#820 = EDGE_CURVE('',#804,#390,#821,.T.);
#821 = LINE('',#822,#823);
#822 = CARTESIAN_POINT('',(-75.1078064336,-14.,-13.86046524557));
#823 = VECTOR('',#824,1.);
#824 = DIRECTION('',(0.735295392479,3.7E-16,0.677746771146));
#825 = PLANE('',#826);
#826 = AXIS2_PLACEMENT_3D('',#827,#828,#829);
#827 = CARTESIAN_POINT('',(-75.1078064336,-15.,-13.86046524557));
#828 = DIRECTION('',(0.677746771146,0.,-0.735295392479));
#829 = DIRECTION('',(0.735295392479,0.,0.677746771146));
#830 = ADVANCED_FACE('',(#831),#843,.T.);
#831 = FACE_BOUND('',#832,.T.);
#832 = EDGE_LOOP('',(#833,#834,#835,#842));
#833 = ORIENTED_EDGE('',*,*,#459,.T.);
#834 = ORIENTED_EDGE('',*,*,#641,.T.);
#835 = ORIENTED_EDGE('',*,*,#836,.F.);
#836 = EDGE_CURVE('',#519,#642,#837,.T.);
#837 = CIRCLE('',#838,1.);
#838 = AXIS2_PLACEMENT_3D('',#839,#840,#841);
#839 = CARTESIAN_POINT('',(-10.71100117658,-14.,-9.435769081034));
#840 = DIRECTION('',(-0.978147600734,-2.8E-16,-0.207911690818));
#841 = DIRECTION('',(0.207911690818,-2.3E-16,-0.978147600734));
#842 = ORIENTED_EDGE('',*,*,#526,.F.);
#843 = CYLINDRICAL_SURFACE('',#844,1.);
#844 = AXIS2_PLACEMENT_3D('',#845,#846,#847);
#845 = CARTESIAN_POINT('',(9.194587446898,-14.,-5.204705605209));
#846 = DIRECTION('',(-0.978147600734,-2.8E-16,-0.207911690818));
#847 = DIRECTION('',(0.207911690818,-2.3E-16,-0.978147600734));
#848 = ADVANCED_FACE('',(#849),#861,.T.);
#849 = FACE_BOUND('',#850,.F.);
#850 = EDGE_LOOP('',(#851,#852,#853,#860));
#851 = ORIENTED_EDGE('',*,*,#485,.T.);
#852 = ORIENTED_EDGE('',*,*,#771,.T.);
#853 = ORIENTED_EDGE('',*,*,#854,.F.);
#854 = EDGE_CURVE('',#511,#772,#855,.T.);
#855 = CIRCLE('',#856,1.);
#856 = AXIS2_PLACEMENT_3D('',#857,#858,#859);
#857 = CARTESIAN_POINT('',(-10.71100117658,14.,-9.435769081034));
#858 = DIRECTION('',(0.978147600734,2.8E-16,0.207911690818));
#859 = DIRECTION('',(0.207911690818,-2.3E-16,-0.978147600734));
#860 = ORIENTED_EDGE('',*,*,#510,.F.);
#861 = CYLINDRICAL_SURFACE('',#862,1.);
#862 = AXIS2_PLACEMENT_3D('',#863,#864,#865);
#863 = CARTESIAN_POINT('',(9.194587446898,14.,-5.204705605209));
#864 = DIRECTION('',(-0.978147600734,-2.8E-16,-0.207911690818));
#865 = DIRECTION('',(0.207911690818,-2.3E-16,-0.978147600734));
#866 = ADVANCED_FACE('',(#867),#894,.T.);
#867 = FACE_BOUND('',#868,.F.);
#868 = EDGE_LOOP('',(#869,#870,#879,#887));
#869 = ORIENTED_EDGE('',*,*,#518,.T.);
#870 = ORIENTED_EDGE('',*,*,#871,.T.);
#871 = EDGE_CURVE('',#511,#872,#874,.T.);
#872 = VERTEX_POINT('',#873);
#873 = CARTESIAN_POINT('',(-14.99060440023,14.,-8.12448001803));
#874 = CIRCLE('',#875,4.);
#875 = AXIS2_PLACEMENT_3D('',#876,#877,#878);
#876 = CARTESIAN_POINT('',(-11.33473624903,14.,-6.501326278832));
#877 = DIRECTION('',(-2.2E-16,1.,-3.E-16));
#878 = DIRECTION('',(0.207911690818,-2.477037082402E-16,-0.978147600734)
  );
#879 = ORIENTED_EDGE('',*,*,#880,.F.);
#880 = EDGE_CURVE('',#881,#872,#883,.T.);
#881 = VERTEX_POINT('',#882);
#882 = CARTESIAN_POINT('',(-14.99060440023,-14.,-8.12448001803));
#883 = LINE('',#884,#885);
#884 = CARTESIAN_POINT('',(-14.99060440023,-15.,-8.12448001803));
#885 = VECTOR('',#886,1.);
#886 = DIRECTION('',(0.,1.,0.));
#887 = ORIENTED_EDGE('',*,*,#888,.F.);
#888 = EDGE_CURVE('',#519,#881,#889,.T.);
#889 = CIRCLE('',#890,4.);
#890 = AXIS2_PLACEMENT_3D('',#891,#892,#893);
#891 = CARTESIAN_POINT('',(-11.33473624903,-14.,-6.501326278832));
#892 = DIRECTION('',(-2.2E-16,1.,-3.E-16));
#893 = DIRECTION('',(0.207911690818,-2.477037082402E-16,-0.978147600734)
  );
#894 = CYLINDRICAL_SURFACE('',#895,4.);
#895 = AXIS2_PLACEMENT_3D('',#896,#897,#898);
#896 = CARTESIAN_POINT('',(-11.33473624903,-15.,-6.501326278832));
#897 = DIRECTION('',(0.,-1.,0.));
#898 = DIRECTION('',(0.496640691147,0.,-0.86795623386));
#899 = ADVANCED_FACE('',(#900),#912,.T.);
#900 = FACE_BOUND('',#901,.T.);
#901 = EDGE_LOOP('',(#902,#909,#910,#911));
#902 = ORIENTED_EDGE('',*,*,#903,.T.);
#903 = EDGE_CURVE('',#804,#624,#904,.T.);
#904 = CIRCLE('',#905,1.);
#905 = AXIS2_PLACEMENT_3D('',#906,#907,#908);
#906 = CARTESIAN_POINT('',(-74.43005966245,-14.,-14.59576063804));
#907 = DIRECTION('',(0.735295392479,3.7E-16,0.677746771146));
#908 = DIRECTION('',(-0.677746771146,7.E-17,0.735295392479));
#909 = ORIENTED_EDGE('',*,*,#632,.T.);
#910 = ORIENTED_EDGE('',*,*,#543,.F.);
#911 = ORIENTED_EDGE('',*,*,#820,.F.);
#912 = CYLINDRICAL_SURFACE('',#913,1.);
#913 = AXIS2_PLACEMENT_3D('',#914,#915,#916);
#914 = CARTESIAN_POINT('',(-74.43005966245,-14.,-14.59576063804));
#915 = DIRECTION('',(0.735295392479,3.7E-16,0.677746771146));
#916 = DIRECTION('',(-0.677746771146,1.7E-16,0.735295392479));
#917 = ADVANCED_FACE('',(#918),#946,.T.);
#918 = FACE_BOUND('',#919,.F.);
#919 = EDGE_LOOP('',(#920,#929,#938,#945));
#920 = ORIENTED_EDGE('',*,*,#921,.F.);
#921 = EDGE_CURVE('',#922,#570,#924,.T.);
#922 = VERTEX_POINT('',#923);
#923 = CARTESIAN_POINT('',(-62.83976688484,-14.,-18.29513347455));
#924 = CIRCLE('',#925,1.);
#925 = AXIS2_PLACEMENT_3D('',#926,#927,#928);
#926 = CARTESIAN_POINT('',(-63.83976634643,-14.,-18.29617117801));
#927 = DIRECTION('',(1.037703461336E-03,-3.E-16,-0.999999461586));
#928 = DIRECTION('',(0.999999461586,2.2E-16,1.037703461336E-03));
#929 = ORIENTED_EDGE('',*,*,#930,.T.);
#930 = EDGE_CURVE('',#922,#931,#933,.T.);
#931 = VERTEX_POINT('',#932);
#932 = CARTESIAN_POINT('',(-66.00811796791,-14.,-22.21187469133));
#933 = CIRCLE('',#934,4.);
#934 = AXIS2_PLACEMENT_3D('',#935,#936,#937);
#935 = CARTESIAN_POINT('',(-66.83976473118,-14.,-18.29928428839));
#936 = DIRECTION('',(-2.2E-16,1.,-3.E-16));
#937 = DIRECTION('',(0.999999461586,2.203111925872E-16,
    1.037703461334E-03));
#938 = ORIENTED_EDGE('',*,*,#939,.T.);
#939 = EDGE_CURVE('',#931,#572,#940,.T.);
#940 = CIRCLE('',#941,1.);
#941 = AXIS2_PLACEMENT_3D('',#942,#943,#944);
#942 = CARTESIAN_POINT('',(-66.21602965873,-14.,-21.23372709059));
#943 = DIRECTION('',(-0.978147600734,-2.8E-16,-0.207911690818));
#944 = DIRECTION('',(0.207911690818,-2.5E-16,-0.978147600734));
#945 = ORIENTED_EDGE('',*,*,#569,.F.);
#946 = TOROIDAL_SURFACE('',#947,3.,1.);
#947 = AXIS2_PLACEMENT_3D('',#948,#949,#950);
#948 = CARTESIAN_POINT('',(-66.83976473118,-14.,-18.29928428839));
#949 = DIRECTION('',(2.2E-16,-1.,3.E-16));
#950 = DIRECTION('',(0.999999461586,2.203111925872E-16,
    1.037703461334E-03));
#951 = ADVANCED_FACE('',(#952),#970,.T.);
#952 = FACE_BOUND('',#953,.F.);
#953 = EDGE_LOOP('',(#954,#961,#968,#969));
#954 = ORIENTED_EDGE('',*,*,#955,.F.);
#955 = EDGE_CURVE('',#881,#650,#956,.T.);
#956 = CIRCLE('',#957,1.);
#957 = AXIS2_PLACEMENT_3D('',#958,#959,#960);
#958 = CARTESIAN_POINT('',(-14.07663736243,-14.,-7.718691583231));
#959 = DIRECTION('',(-0.405788434799,1.9E-16,0.913967037799));
#960 = DIRECTION('',(-0.913967037799,-3.2E-16,-0.405788434799));
#961 = ORIENTED_EDGE('',*,*,#962,.T.);
#962 = EDGE_CURVE('',#881,#922,#963,.T.);
#963 = CIRCLE('',#964,25.);
#964 = AXIS2_PLACEMENT_3D('',#965,#966,#967);
#965 = CARTESIAN_POINT('',(-37.8397803452,-14.,-18.26919088801));
#966 = DIRECTION('',(2.2E-16,-1.,3.E-16));
#967 = DIRECTION('',(0.913967037799,3.228092787556E-16,0.405788434799));
#968 = ORIENTED_EDGE('',*,*,#921,.T.);
#969 = ORIENTED_EDGE('',*,*,#658,.F.);
#970 = TOROIDAL_SURFACE('',#971,26.,1.);
#971 = AXIS2_PLACEMENT_3D('',#972,#973,#974);
#972 = CARTESIAN_POINT('',(-37.8397803452,-14.,-18.26919088801));
#973 = DIRECTION('',(-2.2E-16,1.,-3.E-16));
#974 = DIRECTION('',(0.913967037799,3.228092787556E-16,0.405788434799));
#975 = ADVANCED_FACE('',(#976),#995,.T.);
#976 = FACE_BOUND('',#977,.T.);
#977 = EDGE_LOOP('',(#978,#979,#980,#989));
#978 = ORIENTED_EDGE('',*,*,#939,.T.);
#979 = ORIENTED_EDGE('',*,*,#580,.T.);
#980 = ORIENTED_EDGE('',*,*,#981,.F.);
#981 = EDGE_CURVE('',#982,#581,#984,.T.);
#982 = VERTEX_POINT('',#983);
#983 = CARTESIAN_POINT('',(-66.03294964716,-14.,-22.21715282769));
#984 = CIRCLE('',#985,1.);
#985 = AXIS2_PLACEMENT_3D('',#986,#987,#988);
#986 = CARTESIAN_POINT('',(-66.24086133798,-14.,-21.23900522695));
#987 = DIRECTION('',(-0.978147600734,-2.8E-16,-0.207911690818));
#988 = DIRECTION('',(0.207911690818,-2.3E-16,-0.978147600734));
#989 = ORIENTED_EDGE('',*,*,#990,.F.);
#990 = EDGE_CURVE('',#931,#982,#991,.T.);
#991 = LINE('',#992,#993);
#992 = CARTESIAN_POINT('',(-66.00811796791,-14.,-22.21187469133));
#993 = VECTOR('',#994,1.);
#994 = DIRECTION('',(-0.978147600734,-2.8E-16,-0.207911690818));
#995 = CYLINDRICAL_SURFACE('',#996,1.);
#996 = AXIS2_PLACEMENT_3D('',#997,#998,#999);
#997 = CARTESIAN_POINT('',(-66.21602965873,-14.,-21.23372709059));
#998 = DIRECTION('',(-0.978147600734,-2.8E-16,-0.207911690818));
#999 = DIRECTION('',(0.207911690818,-2.3E-16,-0.978147600734));
#1000 = ADVANCED_FACE('',(#1001),#1007,.T.);
#1001 = FACE_BOUND('',#1002,.F.);
#1002 = EDGE_LOOP('',(#1003,#1004,#1005,#1006));
#1003 = ORIENTED_EDGE('',*,*,#836,.F.);
#1004 = ORIENTED_EDGE('',*,*,#888,.T.);
#1005 = ORIENTED_EDGE('',*,*,#955,.T.);
#1006 = ORIENTED_EDGE('',*,*,#649,.F.);
#1007 = TOROIDAL_SURFACE('',#1008,3.,1.);
#1008 = AXIS2_PLACEMENT_3D('',#1009,#1010,#1011);
#1009 = CARTESIAN_POINT('',(-11.33473624903,-14.,-6.501326278832));
#1010 = DIRECTION('',(2.2E-16,-1.,3.E-16));
#1011 = DIRECTION('',(0.207911690818,-2.477037082402E-16,-0.978147600734
    ));
#1012 = ADVANCED_FACE('',(#1013),#1033,.T.);
#1013 = FACE_BOUND('',#1014,.F.);
#1014 = EDGE_LOOP('',(#1015,#1016,#1025,#1032));
#1015 = ORIENTED_EDGE('',*,*,#981,.F.);
#1016 = ORIENTED_EDGE('',*,*,#1017,.T.);
#1017 = EDGE_CURVE('',#982,#1018,#1020,.T.);
#1018 = VERTEX_POINT('',#1019);
#1019 = CARTESIAN_POINT('',(-66.92590834914,-14.,-26.7384022807));
#1020 = CIRCLE('',#1021,2.506503516564);
#1021 = AXIS2_PLACEMENT_3D('',#1022,#1023,#1024);
#1022 = CARTESIAN_POINT('',(-65.51181826299,-14.,-24.66888322865));
#1023 = DIRECTION('',(2.2E-16,-1.,3.E-16));
#1024 = DIRECTION('',(-0.207911690818,2.477037082402E-16,0.978147600734)
  );
#1025 = ORIENTED_EDGE('',*,*,#1026,.T.);
#1026 = EDGE_CURVE('',#1018,#589,#1027,.T.);
#1027 = CIRCLE('',#1028,1.);
#1028 = AXIS2_PLACEMENT_3D('',#1029,#1030,#1031);
#1029 = CARTESIAN_POINT('',(-67.49007675217,-14.,-27.56406202479));
#1030 = DIRECTION('',(0.825659744094,1.E-17,-0.564168403035));
#1031 = DIRECTION('',(-0.564168403035,-3.7E-16,-0.825659744094));
#1032 = ORIENTED_EDGE('',*,*,#588,.F.);
#1033 = TOROIDAL_SURFACE('',#1034,3.506503516564,1.);
#1034 = AXIS2_PLACEMENT_3D('',#1035,#1036,#1037);
#1035 = CARTESIAN_POINT('',(-65.51181826299,-14.,-24.66888322865));
#1036 = DIRECTION('',(-2.2E-16,1.,-3.E-16));
#1037 = DIRECTION('',(-0.207911690818,2.477037082402E-16,0.978147600734)
  );
#1038 = ADVANCED_FACE('',(#1039),#1059,.T.);
#1039 = FACE_BOUND('',#1040,.F.);
#1040 = EDGE_LOOP('',(#1041,#1042,#1051,#1058));
#1041 = ORIENTED_EDGE('',*,*,#1026,.F.);
#1042 = ORIENTED_EDGE('',*,*,#1043,.T.);
#1043 = EDGE_CURVE('',#1018,#1044,#1046,.T.);
#1044 = VERTEX_POINT('',#1045);
#1045 = CARTESIAN_POINT('',(-73.38734375365,-14.,-26.03139979602));
#1046 = CIRCLE('',#1047,6.9);
#1047 = AXIS2_PLACEMENT_3D('',#1048,#1049,#1050);
#1048 = CARTESIAN_POINT('',(-70.81867033008,-14.,-32.43545451495));
#1049 = DIRECTION('',(-2.2E-16,1.,-3.E-16));
#1050 = DIRECTION('',(0.564168403035,3.718149718958E-16,0.825659744094)
  );
#1051 = ORIENTED_EDGE('',*,*,#1052,.T.);
#1052 = EDGE_CURVE('',#1044,#598,#1053,.T.);
#1053 = CIRCLE('',#1054,1.);
#1054 = AXIS2_PLACEMENT_3D('',#1055,#1056,#1057);
#1055 = CARTESIAN_POINT('',(-73.01507224298,-14.,-26.95952366832));
#1056 = DIRECTION('',(0.928123872309,3.2E-16,0.372271510662));
#1057 = DIRECTION('',(-0.372271510662,2.E-16,0.928123872309));
#1058 = ORIENTED_EDGE('',*,*,#597,.F.);
#1059 = TOROIDAL_SURFACE('',#1060,5.9,1.);
#1060 = AXIS2_PLACEMENT_3D('',#1061,#1062,#1063);
#1061 = CARTESIAN_POINT('',(-70.81867033008,-14.,-32.43545451495));
#1062 = DIRECTION('',(2.2E-16,-1.,3.E-16));
#1063 = DIRECTION('',(0.564168403035,3.718149718958E-16,0.825659744094)
  );
#1064 = ADVANCED_FACE('',(#1065),#1085,.T.);
#1065 = FACE_BOUND('',#1066,.F.);
#1066 = EDGE_LOOP('',(#1067,#1068,#1077,#1084));
#1067 = ORIENTED_EDGE('',*,*,#1052,.F.);
#1068 = ORIENTED_EDGE('',*,*,#1069,.T.);
#1069 = EDGE_CURVE('',#1044,#1070,#1072,.T.);
#1070 = VERTEX_POINT('',#1071);
#1071 = CARTESIAN_POINT('',(-72.831491392,-14.,-24.73100441305));
#1072 = CIRCLE('',#1073,1.);
#1073 = AXIS2_PLACEMENT_3D('',#1074,#1075,#1076);
#1074 = CARTESIAN_POINT('',(-73.75961526431,-14.,-25.10327592371));
#1075 = DIRECTION('',(2.2E-16,-1.,3.E-16));
#1076 = DIRECTION('',(0.372271510662,-1.965374293471E-16,-0.928123872309
    ));
#1077 = ORIENTED_EDGE('',*,*,#1078,.T.);
#1078 = EDGE_CURVE('',#1070,#607,#1079,.T.);
#1079 = CIRCLE('',#1080,1.);
#1080 = AXIS2_PLACEMENT_3D('',#1081,#1082,#1083);
#1081 = CARTESIAN_POINT('',(-71.90336751969,-14.,-24.35873290238));
#1082 = DIRECTION('',(-0.372271510662,2.E-16,0.928123872309));
#1083 = DIRECTION('',(0.928123872309,3.2E-16,0.372271510662));
#1084 = ORIENTED_EDGE('',*,*,#606,.F.);
#1085 = TOROIDAL_SURFACE('',#1086,2.,1.);
#1086 = AXIS2_PLACEMENT_3D('',#1087,#1088,#1089);
#1087 = CARTESIAN_POINT('',(-73.75961526431,-14.,-25.10327592371));
#1088 = DIRECTION('',(-2.2E-16,1.,-3.E-16));
#1089 = DIRECTION('',(0.372271510662,-1.965374293471E-16,-0.928123872309
    ));
#1090 = ADVANCED_FACE('',(#1091),#1110,.T.);
#1091 = FACE_BOUND('',#1092,.T.);
#1092 = EDGE_LOOP('',(#1093,#1094,#1095,#1104));
#1093 = ORIENTED_EDGE('',*,*,#1078,.T.);
#1094 = ORIENTED_EDGE('',*,*,#615,.T.);
#1095 = ORIENTED_EDGE('',*,*,#1096,.F.);
#1096 = EDGE_CURVE('',#1097,#616,#1099,.T.);
#1097 = VERTEX_POINT('',#1098);
#1098 = CARTESIAN_POINT('',(-75.85893773709,-14.,-17.18316595499));
#1099 = CIRCLE('',#1100,1.);
#1100 = AXIS2_PLACEMENT_3D('',#1101,#1102,#1103);
#1101 = CARTESIAN_POINT('',(-74.93081386478,-14.,-16.81089444433));
#1102 = DIRECTION('',(-0.372271510662,2.E-16,0.928123872309));
#1103 = DIRECTION('',(-0.928123872309,-9.E-17,-0.372271510662));
#1104 = ORIENTED_EDGE('',*,*,#1105,.F.);
#1105 = EDGE_CURVE('',#1070,#1097,#1106,.T.);
#1106 = LINE('',#1107,#1108);
#1107 = CARTESIAN_POINT('',(-72.831491392,-14.,-24.73100441305));
#1108 = VECTOR('',#1109,1.);
#1109 = DIRECTION('',(-0.372271510662,2.E-16,0.928123872309));
#1110 = CYLINDRICAL_SURFACE('',#1111,1.);
#1111 = AXIS2_PLACEMENT_3D('',#1112,#1113,#1114);
#1112 = CARTESIAN_POINT('',(-71.90336751969,-14.,-24.35873290238));
#1113 = DIRECTION('',(-0.372271510662,2.E-16,0.928123872309));
#1114 = DIRECTION('',(-0.928123872309,-9.E-17,-0.372271510662));
#1115 = ADVANCED_FACE('',(#1116),#1128,.T.);
#1116 = FACE_BOUND('',#1117,.F.);
#1117 = EDGE_LOOP('',(#1118,#1119,#1126,#1127));
#1118 = ORIENTED_EDGE('',*,*,#1096,.F.);
#1119 = ORIENTED_EDGE('',*,*,#1120,.T.);
#1120 = EDGE_CURVE('',#1097,#804,#1121,.T.);
#1121 = CIRCLE('',#1122,3.);
#1122 = AXIS2_PLACEMENT_3D('',#1123,#1124,#1125);
#1123 = CARTESIAN_POINT('',(-73.07456612016,-14.,-16.066351423));
#1124 = DIRECTION('',(-2.2E-16,1.,-3.E-16));
#1125 = DIRECTION('',(-0.928123872309,-3.158687051065E-16,
    -0.372271510662));
#1126 = ORIENTED_EDGE('',*,*,#903,.T.);
#1127 = ORIENTED_EDGE('',*,*,#623,.F.);
#1128 = TOROIDAL_SURFACE('',#1129,2.,1.);
#1129 = AXIS2_PLACEMENT_3D('',#1130,#1131,#1132);
#1130 = CARTESIAN_POINT('',(-73.07456612016,-14.,-16.066351423));
#1131 = DIRECTION('',(2.2E-16,-1.,3.E-16));
#1132 = DIRECTION('',(-0.928123872309,-3.158687051065E-16,
    -0.372271510662));
#1133 = ADVANCED_FACE('',(#1134),#1146,.T.);
#1134 = FACE_BOUND('',#1135,.F.);
#1135 = EDGE_LOOP('',(#1136,#1143,#1144,#1145));
#1136 = ORIENTED_EDGE('',*,*,#1137,.T.);
#1137 = EDGE_CURVE('',#806,#754,#1138,.T.);
#1138 = CIRCLE('',#1139,1.);
#1139 = AXIS2_PLACEMENT_3D('',#1140,#1141,#1142);
#1140 = CARTESIAN_POINT('',(-74.43005966245,14.,-14.59576063804));
#1141 = DIRECTION('',(-0.735295392479,-3.7E-16,-0.677746771146));
#1142 = DIRECTION('',(-0.677746771146,7.E-17,0.735295392479));
#1143 = ORIENTED_EDGE('',*,*,#762,.T.);
#1144 = ORIENTED_EDGE('',*,*,#673,.F.);
#1145 = ORIENTED_EDGE('',*,*,#813,.F.);
#1146 = CYLINDRICAL_SURFACE('',#1147,1.);
#1147 = AXIS2_PLACEMENT_3D('',#1148,#1149,#1150);
#1148 = CARTESIAN_POINT('',(-74.43005966245,14.,-14.59576063804));
#1149 = DIRECTION('',(0.735295392479,3.7E-16,0.677746771146));
#1150 = DIRECTION('',(-0.677746771146,1.7E-16,0.735295392479));
#1151 = ADVANCED_FACE('',(#1152),#1180,.T.);
#1152 = FACE_BOUND('',#1153,.T.);
#1153 = EDGE_LOOP('',(#1154,#1163,#1172,#1179));
#1154 = ORIENTED_EDGE('',*,*,#1155,.F.);
#1155 = EDGE_CURVE('',#1156,#700,#1158,.T.);
#1156 = VERTEX_POINT('',#1157);
#1157 = CARTESIAN_POINT('',(-62.83976688484,14.,-18.29513347455));
#1158 = CIRCLE('',#1159,1.);
#1159 = AXIS2_PLACEMENT_3D('',#1160,#1161,#1162);
#1160 = CARTESIAN_POINT('',(-63.83976634643,14.,-18.29617117801));
#1161 = DIRECTION('',(-1.037703461336E-03,3.E-16,0.999999461586));
#1162 = DIRECTION('',(0.999999461586,2.2E-16,1.037703461336E-03));
#1163 = ORIENTED_EDGE('',*,*,#1164,.T.);
#1164 = EDGE_CURVE('',#1156,#1165,#1167,.T.);
#1165 = VERTEX_POINT('',#1166);
#1166 = CARTESIAN_POINT('',(-66.00811796791,14.,-22.21187469133));
#1167 = CIRCLE('',#1168,4.);
#1168 = AXIS2_PLACEMENT_3D('',#1169,#1170,#1171);
#1169 = CARTESIAN_POINT('',(-66.83976473118,14.,-18.29928428839));
#1170 = DIRECTION('',(-2.2E-16,1.,-3.E-16));
#1171 = DIRECTION('',(0.999999461586,2.203111925872E-16,
    1.037703461336E-03));
#1172 = ORIENTED_EDGE('',*,*,#1173,.T.);
#1173 = EDGE_CURVE('',#1165,#702,#1174,.T.);
#1174 = CIRCLE('',#1175,1.);
#1175 = AXIS2_PLACEMENT_3D('',#1176,#1177,#1178);
#1176 = CARTESIAN_POINT('',(-66.21602965873,14.,-21.23372709059));
#1177 = DIRECTION('',(0.978147600734,2.8E-16,0.207911690818));
#1178 = DIRECTION('',(0.207911690818,-2.5E-16,-0.978147600734));
#1179 = ORIENTED_EDGE('',*,*,#699,.F.);
#1180 = TOROIDAL_SURFACE('',#1181,3.,1.);
#1181 = AXIS2_PLACEMENT_3D('',#1182,#1183,#1184);
#1182 = CARTESIAN_POINT('',(-66.83976473118,14.,-18.29928428839));
#1183 = DIRECTION('',(-2.2E-16,1.,-3.E-16));
#1184 = DIRECTION('',(0.999999461586,2.203111925872E-16,
    1.037703461336E-03));
#1185 = ADVANCED_FACE('',(#1186),#1204,.T.);
#1186 = FACE_BOUND('',#1187,.T.);
#1187 = EDGE_LOOP('',(#1188,#1195,#1202,#1203));
#1188 = ORIENTED_EDGE('',*,*,#1189,.F.);
#1189 = EDGE_CURVE('',#872,#780,#1190,.T.);
#1190 = CIRCLE('',#1191,1.);
#1191 = AXIS2_PLACEMENT_3D('',#1192,#1193,#1194);
#1192 = CARTESIAN_POINT('',(-14.07663736243,14.,-7.718691583231));
#1193 = DIRECTION('',(0.405788434799,-1.9E-16,-0.913967037799));
#1194 = DIRECTION('',(-0.913967037799,-3.2E-16,-0.405788434799));
#1195 = ORIENTED_EDGE('',*,*,#1196,.T.);
#1196 = EDGE_CURVE('',#872,#1156,#1197,.T.);
#1197 = CIRCLE('',#1198,25.);
#1198 = AXIS2_PLACEMENT_3D('',#1199,#1200,#1201);
#1199 = CARTESIAN_POINT('',(-37.8397803452,14.,-18.26919088801));
#1200 = DIRECTION('',(2.2E-16,-1.,3.E-16));
#1201 = DIRECTION('',(0.913967037799,3.228092787556E-16,0.405788434799)
  );
#1202 = ORIENTED_EDGE('',*,*,#1155,.T.);
#1203 = ORIENTED_EDGE('',*,*,#788,.F.);
#1204 = TOROIDAL_SURFACE('',#1205,26.,1.);
#1205 = AXIS2_PLACEMENT_3D('',#1206,#1207,#1208);
#1206 = CARTESIAN_POINT('',(-37.8397803452,14.,-18.26919088801));
#1207 = DIRECTION('',(2.2E-16,-1.,3.E-16));
#1208 = DIRECTION('',(0.913967037799,3.228092787556E-16,0.405788434799)
  );
#1209 = ADVANCED_FACE('',(#1210),#1229,.T.);
#1210 = FACE_BOUND('',#1211,.F.);
#1211 = EDGE_LOOP('',(#1212,#1213,#1214,#1223));
#1212 = ORIENTED_EDGE('',*,*,#1173,.T.);
#1213 = ORIENTED_EDGE('',*,*,#710,.T.);
#1214 = ORIENTED_EDGE('',*,*,#1215,.F.);
#1215 = EDGE_CURVE('',#1216,#711,#1218,.T.);
#1216 = VERTEX_POINT('',#1217);
#1217 = CARTESIAN_POINT('',(-66.03294964716,14.,-22.21715282769));
#1218 = CIRCLE('',#1219,1.);
#1219 = AXIS2_PLACEMENT_3D('',#1220,#1221,#1222);
#1220 = CARTESIAN_POINT('',(-66.24086133798,14.,-21.23900522695));
#1221 = DIRECTION('',(0.978147600734,2.8E-16,0.207911690818));
#1222 = DIRECTION('',(0.207911690818,-2.3E-16,-0.978147600734));
#1223 = ORIENTED_EDGE('',*,*,#1224,.F.);
#1224 = EDGE_CURVE('',#1165,#1216,#1225,.T.);
#1225 = LINE('',#1226,#1227);
#1226 = CARTESIAN_POINT('',(-66.00811796791,14.,-22.21187469133));
#1227 = VECTOR('',#1228,1.);
#1228 = DIRECTION('',(-0.978147600734,-2.8E-16,-0.207911690818));
#1229 = CYLINDRICAL_SURFACE('',#1230,1.);
#1230 = AXIS2_PLACEMENT_3D('',#1231,#1232,#1233);
#1231 = CARTESIAN_POINT('',(-66.21602965873,14.,-21.23372709059));
#1232 = DIRECTION('',(-0.978147600734,-2.8E-16,-0.207911690818));
#1233 = DIRECTION('',(0.207911690818,-2.3E-16,-0.978147600734));
#1234 = ADVANCED_FACE('',(#1235),#1241,.T.);
#1235 = FACE_BOUND('',#1236,.T.);
#1236 = EDGE_LOOP('',(#1237,#1238,#1239,#1240));
#1237 = ORIENTED_EDGE('',*,*,#854,.F.);
#1238 = ORIENTED_EDGE('',*,*,#871,.T.);
#1239 = ORIENTED_EDGE('',*,*,#1189,.T.);
#1240 = ORIENTED_EDGE('',*,*,#779,.F.);
#1241 = TOROIDAL_SURFACE('',#1242,3.,1.);
#1242 = AXIS2_PLACEMENT_3D('',#1243,#1244,#1245);
#1243 = CARTESIAN_POINT('',(-11.33473624903,14.,-6.501326278832));
#1244 = DIRECTION('',(-2.2E-16,1.,-3.E-16));
#1245 = DIRECTION('',(0.207911690818,-2.477037082402E-16,-0.978147600734
    ));
#1246 = ADVANCED_FACE('',(#1247),#1267,.T.);
#1247 = FACE_BOUND('',#1248,.T.);
#1248 = EDGE_LOOP('',(#1249,#1250,#1259,#1266));
#1249 = ORIENTED_EDGE('',*,*,#1215,.F.);
#1250 = ORIENTED_EDGE('',*,*,#1251,.T.);
#1251 = EDGE_CURVE('',#1216,#1252,#1254,.T.);
#1252 = VERTEX_POINT('',#1253);
#1253 = CARTESIAN_POINT('',(-66.92590834914,14.,-26.7384022807));
#1254 = CIRCLE('',#1255,2.506503516564);
#1255 = AXIS2_PLACEMENT_3D('',#1256,#1257,#1258);
#1256 = CARTESIAN_POINT('',(-65.51181826299,14.,-24.66888322865));
#1257 = DIRECTION('',(2.2E-16,-1.,3.E-16));
#1258 = DIRECTION('',(-0.207911690818,2.477037082402E-16,0.978147600734)
  );
#1259 = ORIENTED_EDGE('',*,*,#1260,.T.);
#1260 = EDGE_CURVE('',#1252,#719,#1261,.T.);
#1261 = CIRCLE('',#1262,1.);
#1262 = AXIS2_PLACEMENT_3D('',#1263,#1264,#1265);
#1263 = CARTESIAN_POINT('',(-67.49007675217,14.,-27.56406202479));
#1264 = DIRECTION('',(-0.825659744094,-1.E-17,0.564168403035));
#1265 = DIRECTION('',(-0.564168403035,-3.7E-16,-0.825659744094));
#1266 = ORIENTED_EDGE('',*,*,#718,.F.);
#1267 = TOROIDAL_SURFACE('',#1268,3.506503516564,1.);
#1268 = AXIS2_PLACEMENT_3D('',#1269,#1270,#1271);
#1269 = CARTESIAN_POINT('',(-65.51181826299,14.,-24.66888322865));
#1270 = DIRECTION('',(2.2E-16,-1.,3.E-16));
#1271 = DIRECTION('',(-0.207911690818,2.477037082402E-16,0.978147600734)
  );
#1272 = ADVANCED_FACE('',(#1273),#1293,.T.);
#1273 = FACE_BOUND('',#1274,.T.);
#1274 = EDGE_LOOP('',(#1275,#1276,#1285,#1292));
#1275 = ORIENTED_EDGE('',*,*,#1260,.F.);
#1276 = ORIENTED_EDGE('',*,*,#1277,.T.);
#1277 = EDGE_CURVE('',#1252,#1278,#1280,.T.);
#1278 = VERTEX_POINT('',#1279);
#1279 = CARTESIAN_POINT('',(-73.38734375365,14.,-26.03139979602));
#1280 = CIRCLE('',#1281,6.9);
#1281 = AXIS2_PLACEMENT_3D('',#1282,#1283,#1284);
#1282 = CARTESIAN_POINT('',(-70.81867033008,14.,-32.43545451495));
#1283 = DIRECTION('',(-2.2E-16,1.,-3.E-16));
#1284 = DIRECTION('',(0.564168403035,3.718149718958E-16,0.825659744094)
  );
#1285 = ORIENTED_EDGE('',*,*,#1286,.T.);
#1286 = EDGE_CURVE('',#1278,#728,#1287,.T.);
#1287 = CIRCLE('',#1288,1.);
#1288 = AXIS2_PLACEMENT_3D('',#1289,#1290,#1291);
#1289 = CARTESIAN_POINT('',(-73.01507224298,14.,-26.95952366832));
#1290 = DIRECTION('',(-0.928123872309,-3.2E-16,-0.372271510662));
#1291 = DIRECTION('',(-0.372271510662,2.E-16,0.928123872309));
#1292 = ORIENTED_EDGE('',*,*,#727,.F.);
#1293 = TOROIDAL_SURFACE('',#1294,5.9,1.);
#1294 = AXIS2_PLACEMENT_3D('',#1295,#1296,#1297);
#1295 = CARTESIAN_POINT('',(-70.81867033008,14.,-32.43545451495));
#1296 = DIRECTION('',(-2.2E-16,1.,-3.E-16));
#1297 = DIRECTION('',(0.564168403035,3.718149718958E-16,0.825659744094)
  );
#1298 = ADVANCED_FACE('',(#1299),#1319,.T.);
#1299 = FACE_BOUND('',#1300,.T.);
#1300 = EDGE_LOOP('',(#1301,#1302,#1311,#1318));
#1301 = ORIENTED_EDGE('',*,*,#1286,.F.);
#1302 = ORIENTED_EDGE('',*,*,#1303,.T.);
#1303 = EDGE_CURVE('',#1278,#1304,#1306,.T.);
#1304 = VERTEX_POINT('',#1305);
#1305 = CARTESIAN_POINT('',(-72.831491392,14.,-24.73100441305));
#1306 = CIRCLE('',#1307,1.);
#1307 = AXIS2_PLACEMENT_3D('',#1308,#1309,#1310);
#1308 = CARTESIAN_POINT('',(-73.75961526431,14.,-25.10327592371));
#1309 = DIRECTION('',(2.2E-16,-1.,3.E-16));
#1310 = DIRECTION('',(0.372271510662,-1.965374293471E-16,-0.928123872309
    ));
#1311 = ORIENTED_EDGE('',*,*,#1312,.T.);
#1312 = EDGE_CURVE('',#1304,#737,#1313,.T.);
#1313 = CIRCLE('',#1314,1.);
#1314 = AXIS2_PLACEMENT_3D('',#1315,#1316,#1317);
#1315 = CARTESIAN_POINT('',(-71.90336751969,14.,-24.35873290238));
#1316 = DIRECTION('',(0.372271510662,-2.E-16,-0.928123872309));
#1317 = DIRECTION('',(0.928123872309,3.2E-16,0.372271510662));
#1318 = ORIENTED_EDGE('',*,*,#736,.F.);
#1319 = TOROIDAL_SURFACE('',#1320,2.,1.);
#1320 = AXIS2_PLACEMENT_3D('',#1321,#1322,#1323);
#1321 = CARTESIAN_POINT('',(-73.75961526431,14.,-25.10327592371));
#1322 = DIRECTION('',(2.2E-16,-1.,3.E-16));
#1323 = DIRECTION('',(0.372271510662,-1.965374293471E-16,-0.928123872309
    ));
#1324 = ADVANCED_FACE('',(#1325),#1344,.T.);
#1325 = FACE_BOUND('',#1326,.F.);
#1326 = EDGE_LOOP('',(#1327,#1328,#1329,#1338));
#1327 = ORIENTED_EDGE('',*,*,#1312,.T.);
#1328 = ORIENTED_EDGE('',*,*,#745,.T.);
#1329 = ORIENTED_EDGE('',*,*,#1330,.F.);
#1330 = EDGE_CURVE('',#1331,#746,#1333,.T.);
#1331 = VERTEX_POINT('',#1332);
#1332 = CARTESIAN_POINT('',(-75.85893773709,14.,-17.18316595499));
#1333 = CIRCLE('',#1334,1.);
#1334 = AXIS2_PLACEMENT_3D('',#1335,#1336,#1337);
#1335 = CARTESIAN_POINT('',(-74.93081386478,14.,-16.81089444433));
#1336 = DIRECTION('',(0.372271510662,-2.E-16,-0.928123872309));
#1337 = DIRECTION('',(-0.928123872309,-9.E-17,-0.372271510662));
#1338 = ORIENTED_EDGE('',*,*,#1339,.F.);
#1339 = EDGE_CURVE('',#1304,#1331,#1340,.T.);
#1340 = LINE('',#1341,#1342);
#1341 = CARTESIAN_POINT('',(-72.831491392,14.,-24.73100441305));
#1342 = VECTOR('',#1343,1.);
#1343 = DIRECTION('',(-0.372271510662,2.E-16,0.928123872309));
#1344 = CYLINDRICAL_SURFACE('',#1345,1.);
#1345 = AXIS2_PLACEMENT_3D('',#1346,#1347,#1348);
#1346 = CARTESIAN_POINT('',(-71.90336751969,14.,-24.35873290238));
#1347 = DIRECTION('',(-0.372271510662,2.E-16,0.928123872309));
#1348 = DIRECTION('',(-0.928123872309,-9.E-17,-0.372271510662));
#1349 = ADVANCED_FACE('',(#1350),#1362,.T.);
#1350 = FACE_BOUND('',#1351,.T.);
#1351 = EDGE_LOOP('',(#1352,#1353,#1360,#1361));
#1352 = ORIENTED_EDGE('',*,*,#1330,.F.);
#1353 = ORIENTED_EDGE('',*,*,#1354,.T.);
#1354 = EDGE_CURVE('',#1331,#806,#1355,.T.);
#1355 = CIRCLE('',#1356,3.);
#1356 = AXIS2_PLACEMENT_3D('',#1357,#1358,#1359);
#1357 = CARTESIAN_POINT('',(-73.07456612016,14.,-16.066351423));
#1358 = DIRECTION('',(-2.2E-16,1.,-3.E-16));
#1359 = DIRECTION('',(-0.928123872309,-3.158687051065E-16,
    -0.372271510662));
#1360 = ORIENTED_EDGE('',*,*,#1137,.T.);
#1361 = ORIENTED_EDGE('',*,*,#753,.F.);
#1362 = TOROIDAL_SURFACE('',#1363,2.,1.);
#1363 = AXIS2_PLACEMENT_3D('',#1364,#1365,#1366);
#1364 = CARTESIAN_POINT('',(-73.07456612016,14.,-16.066351423));
#1365 = DIRECTION('',(-2.2E-16,1.,-3.E-16));
#1366 = DIRECTION('',(-0.928123872309,-3.158687051065E-16,
    -0.372271510662));
#1367 = ADVANCED_FACE('',(#1368),#1379,.T.);
#1368 = FACE_BOUND('',#1369,.F.);
#1369 = EDGE_LOOP('',(#1370,#1376,#1377,#1378));
#1370 = ORIENTED_EDGE('',*,*,#1371,.T.);
#1371 = EDGE_CURVE('',#1097,#1331,#1372,.T.);
#1372 = LINE('',#1373,#1374);
#1373 = CARTESIAN_POINT('',(-75.85893773709,-15.,-17.18316595499));
#1374 = VECTOR('',#1375,1.);
#1375 = DIRECTION('',(0.,1.,0.));
#1376 = ORIENTED_EDGE('',*,*,#1354,.T.);
#1377 = ORIENTED_EDGE('',*,*,#803,.F.);
#1378 = ORIENTED_EDGE('',*,*,#1120,.F.);
#1379 = CYLINDRICAL_SURFACE('',#1380,3.);
#1380 = AXIS2_PLACEMENT_3D('',#1381,#1382,#1383);
#1381 = CARTESIAN_POINT('',(-73.07456612016,-15.,-16.066351423));
#1382 = DIRECTION('',(0.,-1.,0.));
#1383 = DIRECTION('',(0.496640691147,0.,-0.86795623386));
#1384 = ADVANCED_FACE('',(#1385),#1396,.F.);
#1385 = FACE_BOUND('',#1386,.T.);
#1386 = EDGE_LOOP('',(#1387,#1393,#1394,#1395));
#1387 = ORIENTED_EDGE('',*,*,#1388,.T.);
#1388 = EDGE_CURVE('',#922,#1156,#1389,.T.);
#1389 = LINE('',#1390,#1391);
#1390 = CARTESIAN_POINT('',(-62.83976688484,-15.,-18.29513347455));
#1391 = VECTOR('',#1392,1.);
#1392 = DIRECTION('',(0.,1.,0.));
#1393 = ORIENTED_EDGE('',*,*,#1196,.F.);
#1394 = ORIENTED_EDGE('',*,*,#880,.F.);
#1395 = ORIENTED_EDGE('',*,*,#962,.T.);
#1396 = CYLINDRICAL_SURFACE('',#1397,25.);
#1397 = AXIS2_PLACEMENT_3D('',#1398,#1399,#1400);
#1398 = CARTESIAN_POINT('',(-37.8397803452,-15.,-18.26919088801));
#1399 = DIRECTION('',(0.,-1.,0.));
#1400 = DIRECTION('',(0.496640691147,0.,-0.86795623386));
#1401 = ADVANCED_FACE('',(#1402),#1413,.T.);
#1402 = FACE_BOUND('',#1403,.F.);
#1403 = EDGE_LOOP('',(#1404,#1405,#1406,#1412));
#1404 = ORIENTED_EDGE('',*,*,#1388,.T.);
#1405 = ORIENTED_EDGE('',*,*,#1164,.T.);
#1406 = ORIENTED_EDGE('',*,*,#1407,.F.);
#1407 = EDGE_CURVE('',#931,#1165,#1408,.T.);
#1408 = LINE('',#1409,#1410);
#1409 = CARTESIAN_POINT('',(-66.00811796791,-15.,-22.21187469133));
#1410 = VECTOR('',#1411,1.);
#1411 = DIRECTION('',(0.,1.,0.));
#1412 = ORIENTED_EDGE('',*,*,#930,.F.);
#1413 = CYLINDRICAL_SURFACE('',#1414,4.);
#1414 = AXIS2_PLACEMENT_3D('',#1415,#1416,#1417);
#1415 = CARTESIAN_POINT('',(-66.83976473118,-15.,-18.29928428839));
#1416 = DIRECTION('',(0.,-1.,0.));
#1417 = DIRECTION('',(0.496640691147,0.,-0.86795623386));
#1418 = ADVANCED_FACE('',(#1419),#1430,.F.);
#1419 = FACE_BOUND('',#1420,.F.);
#1420 = EDGE_LOOP('',(#1421,#1422,#1423,#1429));
#1421 = ORIENTED_EDGE('',*,*,#1407,.T.);
#1422 = ORIENTED_EDGE('',*,*,#1224,.T.);
#1423 = ORIENTED_EDGE('',*,*,#1424,.F.);
#1424 = EDGE_CURVE('',#982,#1216,#1425,.T.);
#1425 = LINE('',#1426,#1427);
#1426 = CARTESIAN_POINT('',(-66.03294964716,-15.,-22.21715282769));
#1427 = VECTOR('',#1428,1.);
#1428 = DIRECTION('',(0.,1.,0.));
#1429 = ORIENTED_EDGE('',*,*,#990,.F.);
#1430 = PLANE('',#1431);
#1431 = AXIS2_PLACEMENT_3D('',#1432,#1433,#1434);
#1432 = CARTESIAN_POINT('',(-66.00811796791,-15.,-22.21187469133));
#1433 = DIRECTION('',(-0.207911690818,0.,0.978147600734));
#1434 = DIRECTION('',(-0.978147600734,0.,-0.207911690818));
#1435 = ADVANCED_FACE('',(#1436),#1447,.F.);
#1436 = FACE_BOUND('',#1437,.T.);
#1437 = EDGE_LOOP('',(#1438,#1444,#1445,#1446));
#1438 = ORIENTED_EDGE('',*,*,#1439,.T.);
#1439 = EDGE_CURVE('',#1018,#1252,#1440,.T.);
#1440 = LINE('',#1441,#1442);
#1441 = CARTESIAN_POINT('',(-66.92590834914,-15.,-26.7384022807));
#1442 = VECTOR('',#1443,1.);
#1443 = DIRECTION('',(0.,1.,0.));
#1444 = ORIENTED_EDGE('',*,*,#1251,.F.);
#1445 = ORIENTED_EDGE('',*,*,#1424,.F.);
#1446 = ORIENTED_EDGE('',*,*,#1017,.T.);
#1447 = CYLINDRICAL_SURFACE('',#1448,2.506503516564);
#1448 = AXIS2_PLACEMENT_3D('',#1449,#1450,#1451);
#1449 = CARTESIAN_POINT('',(-65.51181826299,-15.,-24.66888322865));
#1450 = DIRECTION('',(0.,-1.,0.));
#1451 = DIRECTION('',(0.496640691147,0.,-0.86795623386));
#1452 = ADVANCED_FACE('',(#1453),#1464,.T.);
#1453 = FACE_BOUND('',#1454,.F.);
#1454 = EDGE_LOOP('',(#1455,#1456,#1457,#1463));
#1455 = ORIENTED_EDGE('',*,*,#1439,.T.);
#1456 = ORIENTED_EDGE('',*,*,#1277,.T.);
#1457 = ORIENTED_EDGE('',*,*,#1458,.F.);
#1458 = EDGE_CURVE('',#1044,#1278,#1459,.T.);
#1459 = LINE('',#1460,#1461);
#1460 = CARTESIAN_POINT('',(-73.38734375365,-15.,-26.03139979602));
#1461 = VECTOR('',#1462,1.);
#1462 = DIRECTION('',(0.,1.,0.));
#1463 = ORIENTED_EDGE('',*,*,#1043,.F.);
#1464 = CYLINDRICAL_SURFACE('',#1465,6.9);
#1465 = AXIS2_PLACEMENT_3D('',#1466,#1467,#1468);
#1466 = CARTESIAN_POINT('',(-70.81867033008,-15.,-32.43545451495));
#1467 = DIRECTION('',(0.,-1.,0.));
#1468 = DIRECTION('',(0.496640691147,0.,-0.86795623386));
#1469 = ADVANCED_FACE('',(#1470),#1481,.F.);
#1470 = FACE_BOUND('',#1471,.T.);
#1471 = EDGE_LOOP('',(#1472,#1478,#1479,#1480));
#1472 = ORIENTED_EDGE('',*,*,#1473,.T.);
#1473 = EDGE_CURVE('',#1070,#1304,#1474,.T.);
#1474 = LINE('',#1475,#1476);
#1475 = CARTESIAN_POINT('',(-72.831491392,-15.,-24.73100441305));
#1476 = VECTOR('',#1477,1.);
#1477 = DIRECTION('',(0.,1.,0.));
#1478 = ORIENTED_EDGE('',*,*,#1303,.F.);
#1479 = ORIENTED_EDGE('',*,*,#1458,.F.);
#1480 = ORIENTED_EDGE('',*,*,#1069,.T.);
#1481 = CYLINDRICAL_SURFACE('',#1482,1.);
#1482 = AXIS2_PLACEMENT_3D('',#1483,#1484,#1485);
#1483 = CARTESIAN_POINT('',(-73.75961526431,-15.,-25.10327592371));
#1484 = DIRECTION('',(0.,-1.,0.));
#1485 = DIRECTION('',(0.496640691147,0.,-0.86795623386));
#1486 = ADVANCED_FACE('',(#1487),#1493,.T.);
#1487 = FACE_BOUND('',#1488,.T.);
#1488 = EDGE_LOOP('',(#1489,#1490,#1491,#1492));
#1489 = ORIENTED_EDGE('',*,*,#1371,.T.);
#1490 = ORIENTED_EDGE('',*,*,#1339,.F.);
#1491 = ORIENTED_EDGE('',*,*,#1473,.F.);
#1492 = ORIENTED_EDGE('',*,*,#1105,.T.);
#1493 = PLANE('',#1494);
#1494 = AXIS2_PLACEMENT_3D('',#1495,#1496,#1497);
#1495 = CARTESIAN_POINT('',(-75.85893773709,-15.,-17.18316595499));
#1496 = DIRECTION('',(-0.928123872309,0.,-0.372271510662));
#1497 = DIRECTION('',(0.372271510662,0.,-0.928123872309));
#1498 = ( GEOMETRIC_REPRESENTATION_CONTEXT(3) 
GLOBAL_UNCERTAINTY_ASSIGNED_CONTEXT((#1502)) 
GLOBAL_UNIT_ASSIGNED_CONTEXT((#1499,#1500,#1501)) REPRESENTATION_CONTEXT
('Context #1','3D Context with UNIT and UNCERTAINTY') );
#1499 = ( LENGTH_UNIT() NAMED_UNIT(*) SI_UNIT(.MILLI.,.METRE.) );
#1500 = ( NAMED_UNIT(*) PLANE_ANGLE_UNIT() SI_UNIT($,.RADIAN.) );
#1501 = ( NAMED_UNIT(*) SI_UNIT($,.STERADIAN.) SOLID_ANGLE_UNIT() );
#1502 = UNCERTAINTY_MEASURE_WITH_UNIT(LENGTH_MEASURE(2.E-06),#1499,
  'distance_accuracy_value','confusion accuracy');
#1503 = PRODUCT_RELATED_PRODUCT_CATEGORY('part',$,(#7));
#1504 = MECHANICAL_DESIGN_GEOMETRIC_PRESENTATION_REPRESENTATION('',(
    #1505),#1498);
#1505 = STYLED_ITEM('color',(#1506),#15);
#1506 = PRESENTATION_STYLE_ASSIGNMENT((#1507,#1513));
#1507 = SURFACE_STYLE_USAGE(.BOTH.,#1508);
#1508 = SURFACE_SIDE_STYLE('',(#1509));
#1509 = SURFACE_STYLE_FILL_AREA(#1510);
#1510 = FILL_AREA_STYLE('',(#1511));
#1511 = FILL_AREA_STYLE_COLOUR('',#1512);
#1512 = COLOUR_RGB('',0.447058818107,0.474509808674,0.501960817233);
#1513 = CURVE_STYLE('',#1514,POSITIVE_LENGTH_MEASURE(0.1),#1515);
#1514 = DRAUGHTING_PRE_DEFINED_CURVE_FONT('continuous');
#1515 = COLOUR_RGB('',9.803921802644E-02,9.803921802644E-02,
  9.803921802644E-02);
ENDSEC;
END-ISO-10303-21;
